G04*
G04 #@! TF.GenerationSoftware,Altium Limited,Altium Designer,24.10.1 (45)*
G04*
G04 Layer_Color=10066329*
%FSLAX44Y44*%
%MOMM*%
G71*
G04*
G04 #@! TF.SameCoordinates,24BC4850-7E81-497A-B660-34607D59122C*
G04*
G04*
G04 #@! TF.FilePolarity,Positive*
G04*
G01*
G75*
%ADD10C,0.1270*%
D10*
X3491143Y1851662D02*
Y1849969D01*
Y1850815D01*
X3495376D01*
X3496222Y1849969D01*
Y1849122D01*
X3495376Y1848276D01*
X3496222Y1855894D02*
X3491143D01*
X3493683Y1853354D01*
Y1856740D01*
X3497068Y1858433D02*
Y1861818D01*
X3496222Y1863511D02*
Y1865204D01*
Y1864357D01*
X3491143D01*
X3491990Y1863511D01*
X3491143Y1987187D02*
Y1985495D01*
Y1986341D01*
X3495376D01*
X3496222Y1985495D01*
Y1984648D01*
X3495376Y1983802D01*
X3496222Y1991419D02*
X3491143D01*
X3493683Y1988880D01*
Y1992266D01*
X3497068Y1993958D02*
Y1997344D01*
X3496222Y2002422D02*
Y1999037D01*
X3492836Y2002422D01*
X3491990D01*
X3491143Y2001576D01*
Y1999883D01*
X3491990Y1999037D01*
X3114885Y1519768D02*
X3116577D01*
X3115731D01*
Y1523999D01*
X3116577Y1524846D01*
X3117424D01*
X3118270Y1523999D01*
X3113192Y1520614D02*
X3112346Y1519768D01*
X3110653D01*
X3109807Y1520614D01*
Y1521460D01*
X3110653Y1522307D01*
X3111499D01*
X3110653D01*
X3109807Y1523153D01*
Y1523999D01*
X3110653Y1524846D01*
X3112346D01*
X3113192Y1523999D01*
X3108114Y1525692D02*
X3104728D01*
X3099650Y1524846D02*
X3103035D01*
X3099650Y1521460D01*
Y1520614D01*
X3100496Y1519768D01*
X3102189D01*
X3103035Y1520614D01*
X3309618Y1519768D02*
X3311311D01*
X3310465D01*
Y1523999D01*
X3311311Y1524846D01*
X3312158D01*
X3313004Y1523999D01*
X3307925Y1520614D02*
X3307079Y1519768D01*
X3305386D01*
X3304540Y1520614D01*
Y1521460D01*
X3305386Y1522307D01*
X3306233D01*
X3305386D01*
X3304540Y1523153D01*
Y1523999D01*
X3305386Y1524846D01*
X3307079D01*
X3307925Y1523999D01*
X3302847Y1525692D02*
X3299462D01*
X3297769Y1524846D02*
X3296076D01*
X3296922D01*
Y1519768D01*
X3297769Y1520614D01*
X3810345Y2058589D02*
X3806959D01*
Y2056050D01*
X3808652D01*
X3806959D01*
Y2053511D01*
X3812037Y2058589D02*
Y2053511D01*
X3814576D01*
X3815423Y2054358D01*
Y2055204D01*
X3814576Y2056050D01*
X3812037D01*
X3814576D01*
X3815423Y2056897D01*
Y2057743D01*
X3814576Y2058589D01*
X3812037D01*
X3820501Y2053511D02*
X3817115D01*
X3820501Y2056897D01*
Y2057743D01*
X3819655Y2058589D01*
X3817962D01*
X3817115Y2057743D01*
X3945891Y2012103D02*
X3945045Y2012949D01*
X3943352D01*
X3942505Y2012103D01*
Y2008717D01*
X3943352Y2007871D01*
X3945045D01*
X3945891Y2008717D01*
X3950969Y2012949D02*
X3947584D01*
Y2010410D01*
X3949276Y2011256D01*
X3950123D01*
X3950969Y2010410D01*
Y2008717D01*
X3950123Y2007871D01*
X3948430D01*
X3947584Y2008717D01*
X3952662Y2007871D02*
X3954355D01*
X3953508D01*
Y2012949D01*
X3952662Y2012103D01*
X3916257Y1993055D02*
X3915411Y1992208D01*
Y1990515D01*
X3916257Y1989669D01*
X3919643D01*
X3920489Y1990515D01*
Y1992208D01*
X3919643Y1993055D01*
X3915411Y1998133D02*
Y1994747D01*
X3917950D01*
X3917104Y1996440D01*
Y1997286D01*
X3917950Y1998133D01*
X3919643D01*
X3920489Y1997286D01*
Y1995594D01*
X3919643Y1994747D01*
X3916257Y1999826D02*
X3915411Y2000672D01*
Y2002365D01*
X3916257Y2003211D01*
X3919643D01*
X3920489Y2002365D01*
Y2000672D01*
X3919643Y1999826D01*
X3916257D01*
X3883237Y1993055D02*
X3882391Y1992208D01*
Y1990515D01*
X3883237Y1989669D01*
X3886623D01*
X3887469Y1990515D01*
Y1992208D01*
X3886623Y1993055D01*
X3887469Y1997286D02*
X3882391D01*
X3884930Y1994747D01*
Y1998133D01*
X3886623Y1999826D02*
X3887469Y2000672D01*
Y2002365D01*
X3886623Y2003211D01*
X3883237D01*
X3882391Y2002365D01*
Y2000672D01*
X3883237Y1999826D01*
X3884084D01*
X3884930Y2000672D01*
Y2003211D01*
X3848524Y2012103D02*
X3847678Y2012949D01*
X3845985D01*
X3845139Y2012103D01*
Y2008717D01*
X3845985Y2007871D01*
X3847678D01*
X3848524Y2008717D01*
X3852756Y2007871D02*
Y2012949D01*
X3850217Y2010410D01*
X3853603D01*
X3855296Y2012103D02*
X3856142Y2012949D01*
X3857835D01*
X3858681Y2012103D01*
Y2011256D01*
X3857835Y2010410D01*
X3858681Y2009564D01*
Y2008717D01*
X3857835Y2007871D01*
X3856142D01*
X3855296Y2008717D01*
Y2009564D01*
X3856142Y2010410D01*
X3855296Y2011256D01*
Y2012103D01*
X3856142Y2010410D02*
X3857835D01*
X3819737Y1993055D02*
X3818891Y1992208D01*
Y1990515D01*
X3819737Y1989669D01*
X3823123D01*
X3823969Y1990515D01*
Y1992208D01*
X3823123Y1993055D01*
X3823969Y1997286D02*
X3818891D01*
X3821430Y1994747D01*
Y1998133D01*
X3818891Y1999826D02*
Y2003211D01*
X3819737D01*
X3823123Y1999826D01*
X3823969D01*
X3785024Y2012949D02*
X3781639D01*
Y2010410D01*
X3783332D01*
X3781639D01*
Y2007871D01*
X3786717Y2012949D02*
Y2007871D01*
X3789256D01*
X3790103Y2008717D01*
Y2009564D01*
X3789256Y2010410D01*
X3786717D01*
X3789256D01*
X3790103Y2011256D01*
Y2012103D01*
X3789256Y2012949D01*
X3786717D01*
X3794335Y2007871D02*
Y2012949D01*
X3791796Y2010410D01*
X3795181D01*
X3432387Y2309285D02*
X3431541Y2308438D01*
Y2306745D01*
X3432387Y2305899D01*
X3435773D01*
X3436619Y2306745D01*
Y2308438D01*
X3435773Y2309285D01*
X3436619Y2313516D02*
X3431541D01*
X3434080Y2310977D01*
Y2314363D01*
X3431541Y2319441D02*
X3432387Y2317748D01*
X3434080Y2316056D01*
X3435773D01*
X3436619Y2316902D01*
Y2318595D01*
X3435773Y2319441D01*
X3434926D01*
X3434080Y2318595D01*
Y2316056D01*
X3321473Y2230966D02*
X3322319Y2231812D01*
Y2233505D01*
X3321473Y2234351D01*
X3318087D01*
X3317241Y2233505D01*
Y2231812D01*
X3318087Y2230966D01*
X3317241Y2226734D02*
X3322319D01*
X3319780Y2229273D01*
Y2225887D01*
X3322319Y2220809D02*
Y2224194D01*
X3319780D01*
X3320627Y2222502D01*
Y2221655D01*
X3319780Y2220809D01*
X3318087D01*
X3317241Y2221655D01*
Y2223348D01*
X3318087Y2224194D01*
X3298613Y2234776D02*
X3299459Y2235622D01*
Y2237315D01*
X3298613Y2238161D01*
X3295227D01*
X3294381Y2237315D01*
Y2235622D01*
X3295227Y2234776D01*
X3294381Y2230544D02*
X3299459D01*
X3296920Y2233083D01*
Y2229697D01*
X3294381Y2225465D02*
X3299459D01*
X3296920Y2228004D01*
Y2224619D01*
X3278293Y2234776D02*
X3279139Y2235622D01*
Y2237315D01*
X3278293Y2238161D01*
X3274907D01*
X3274061Y2237315D01*
Y2235622D01*
X3274907Y2234776D01*
X3274061Y2230544D02*
X3279139D01*
X3276600Y2233083D01*
Y2229697D01*
X3278293Y2228004D02*
X3279139Y2227158D01*
Y2225465D01*
X3278293Y2224619D01*
X3277446D01*
X3276600Y2225465D01*
Y2226312D01*
Y2225465D01*
X3275753Y2224619D01*
X3274907D01*
X3274061Y2225465D01*
Y2227158D01*
X3274907Y2228004D01*
X3305809Y2309709D02*
X3300731D01*
Y2312248D01*
X3301577Y2313094D01*
X3303270D01*
X3304117Y2312248D01*
Y2309709D01*
Y2311402D02*
X3305809Y2313094D01*
X3301577Y2314787D02*
X3300731Y2315634D01*
Y2317326D01*
X3301577Y2318173D01*
X3302424D01*
X3303270Y2317326D01*
Y2316480D01*
Y2317326D01*
X3304117Y2318173D01*
X3304963D01*
X3305809Y2317326D01*
Y2315634D01*
X3304963Y2314787D01*
X3301577Y2319866D02*
X3300731Y2320712D01*
Y2322405D01*
X3301577Y2323251D01*
X3302424D01*
X3303270Y2322405D01*
X3304117Y2323251D01*
X3304963D01*
X3305809Y2322405D01*
Y2320712D01*
X3304963Y2319866D01*
X3304117D01*
X3303270Y2320712D01*
X3302424Y2319866D01*
X3301577D01*
X3303270Y2320712D02*
Y2322405D01*
X3288029Y2323679D02*
X3282951D01*
Y2326218D01*
X3283797Y2327065D01*
X3285490D01*
X3286336Y2326218D01*
Y2323679D01*
Y2325372D02*
X3288029Y2327065D01*
X3283797Y2328757D02*
X3282951Y2329604D01*
Y2331296D01*
X3283797Y2332143D01*
X3284644D01*
X3285490Y2331296D01*
Y2330450D01*
Y2331296D01*
X3286336Y2332143D01*
X3287183D01*
X3288029Y2331296D01*
Y2329604D01*
X3287183Y2328757D01*
Y2333836D02*
X3288029Y2334682D01*
Y2336375D01*
X3287183Y2337221D01*
X3283797D01*
X3282951Y2336375D01*
Y2334682D01*
X3283797Y2333836D01*
X3284644D01*
X3285490Y2334682D01*
Y2337221D01*
X3344759Y2272030D02*
X3348145D01*
X3346452Y2273723D02*
Y2270337D01*
X3353223Y2274569D02*
X3349837D01*
Y2272030D01*
X3351530Y2272876D01*
X3352376D01*
X3353223Y2272030D01*
Y2270337D01*
X3352376Y2269491D01*
X3350684D01*
X3349837Y2270337D01*
X3354915Y2274569D02*
Y2271184D01*
X3356608Y2269491D01*
X3358301Y2271184D01*
Y2274569D01*
X3342220Y2287269D02*
X3345605D01*
X3343912D01*
Y2282191D01*
X3347298D02*
Y2287269D01*
X3349837D01*
X3350684Y2286423D01*
Y2284730D01*
X3349837Y2283884D01*
X3347298D01*
X3355762Y2282191D02*
X3352376D01*
X3355762Y2285576D01*
Y2286423D01*
X3354915Y2287269D01*
X3353223D01*
X3352376Y2286423D01*
X3360840Y2287269D02*
X3357455D01*
Y2284730D01*
X3359148Y2285576D01*
X3359994D01*
X3360840Y2284730D01*
Y2283037D01*
X3359994Y2282191D01*
X3358301D01*
X3357455Y2283037D01*
X3340099Y2388022D02*
X3335867D01*
X3335021Y2387175D01*
Y2385483D01*
X3335867Y2384636D01*
X3340099D01*
Y2379558D02*
Y2382944D01*
X3337560D01*
X3338406Y2381251D01*
Y2380404D01*
X3337560Y2379558D01*
X3335867D01*
X3335021Y2380404D01*
Y2382097D01*
X3335867Y2382944D01*
X1044788Y1997709D02*
Y1993477D01*
X1045635Y1992631D01*
X1047327D01*
X1048174Y1993477D01*
Y1997709D01*
X1053252D02*
X1051559Y1996863D01*
X1049866Y1995170D01*
Y1993477D01*
X1050713Y1992631D01*
X1052406D01*
X1053252Y1993477D01*
Y1994324D01*
X1052406Y1995170D01*
X1049866D01*
X1039708Y1887219D02*
Y1882987D01*
X1040555Y1882141D01*
X1042247D01*
X1043094Y1882987D01*
Y1887219D01*
X1044786D02*
X1048172D01*
Y1886373D01*
X1044786Y1882987D01*
Y1882141D01*
X2946401Y2321981D02*
X2951479D01*
Y2319442D01*
X2950633Y2318595D01*
X2948940D01*
X2948094Y2319442D01*
Y2321981D01*
Y2320288D02*
X2946401Y2318595D01*
X2950633Y2316903D02*
X2951479Y2316056D01*
Y2314364D01*
X2950633Y2313517D01*
X2949786D01*
X2948940Y2314364D01*
Y2315210D01*
Y2314364D01*
X2948094Y2313517D01*
X2947247D01*
X2946401Y2314364D01*
Y2316056D01*
X2947247Y2316903D01*
X2946401Y2309285D02*
X2951479D01*
X2948940Y2311824D01*
Y2308439D01*
X3368887Y2368974D02*
X3368041Y2368128D01*
Y2366435D01*
X3368887Y2365589D01*
X3372273D01*
X3373119Y2366435D01*
Y2368128D01*
X3372273Y2368974D01*
X3368887Y2370667D02*
X3368041Y2371514D01*
Y2373206D01*
X3368887Y2374053D01*
X3369734D01*
X3370580Y2373206D01*
Y2372360D01*
Y2373206D01*
X3371426Y2374053D01*
X3372273D01*
X3373119Y2373206D01*
Y2371514D01*
X3372273Y2370667D01*
X3368887Y2375746D02*
X3368041Y2376592D01*
Y2378285D01*
X3368887Y2379131D01*
X3369734D01*
X3370580Y2378285D01*
Y2377438D01*
Y2378285D01*
X3371426Y2379131D01*
X3372273D01*
X3373119Y2378285D01*
Y2376592D01*
X3372273Y2375746D01*
X3328669Y2469729D02*
X3323591D01*
Y2472268D01*
X3324437Y2473114D01*
X3326130D01*
X3326976Y2472268D01*
Y2469729D01*
Y2471422D02*
X3328669Y2473114D01*
X3324437Y2474807D02*
X3323591Y2475654D01*
Y2477346D01*
X3324437Y2478193D01*
X3325284D01*
X3326130Y2477346D01*
Y2476500D01*
Y2477346D01*
X3326976Y2478193D01*
X3327823D01*
X3328669Y2477346D01*
Y2475654D01*
X3327823Y2474807D01*
X3323591Y2483271D02*
X3324437Y2481578D01*
X3326130Y2479886D01*
X3327823D01*
X3328669Y2480732D01*
Y2482425D01*
X3327823Y2483271D01*
X3326976D01*
X3326130Y2482425D01*
Y2479886D01*
X3310043Y2388234D02*
X3310889Y2389081D01*
Y2390773D01*
X3310043Y2391620D01*
X3306657D01*
X3305811Y2390773D01*
Y2389081D01*
X3306657Y2388234D01*
X3305811Y2384002D02*
X3310889D01*
X3308350Y2386541D01*
Y2383156D01*
X3305811Y2381463D02*
Y2379770D01*
Y2380617D01*
X3310889D01*
X3310043Y2381463D01*
X3302847Y2410885D02*
X3302001Y2410038D01*
Y2408345D01*
X3302847Y2407499D01*
X3306233D01*
X3307079Y2408345D01*
Y2410038D01*
X3306233Y2410885D01*
X3307079Y2415116D02*
X3302001D01*
X3304540Y2412577D01*
Y2415963D01*
X3302847Y2417656D02*
X3302001Y2418502D01*
Y2420195D01*
X3302847Y2421041D01*
X3306233D01*
X3307079Y2420195D01*
Y2418502D01*
X3306233Y2417656D01*
X3302847D01*
X3283797Y2410885D02*
X3282951Y2410038D01*
Y2408345D01*
X3283797Y2407499D01*
X3287183D01*
X3288029Y2408345D01*
Y2410038D01*
X3287183Y2410885D01*
X3283797Y2412577D02*
X3282951Y2413424D01*
Y2415116D01*
X3283797Y2415963D01*
X3284644D01*
X3285490Y2415116D01*
Y2414270D01*
Y2415116D01*
X3286336Y2415963D01*
X3287183D01*
X3288029Y2415116D01*
Y2413424D01*
X3287183Y2412577D01*
Y2417656D02*
X3288029Y2418502D01*
Y2420195D01*
X3287183Y2421041D01*
X3283797D01*
X3282951Y2420195D01*
Y2418502D01*
X3283797Y2417656D01*
X3284644D01*
X3285490Y2418502D01*
Y2421041D01*
X3335444Y2424853D02*
X3334598Y2425699D01*
X3332905D01*
X3332059Y2424853D01*
Y2421467D01*
X3332905Y2420621D01*
X3334598D01*
X3335444Y2421467D01*
X3337137Y2424853D02*
X3337984Y2425699D01*
X3339677D01*
X3340523Y2424853D01*
Y2424006D01*
X3339677Y2423160D01*
X3338830D01*
X3339677D01*
X3340523Y2422314D01*
Y2421467D01*
X3339677Y2420621D01*
X3337984D01*
X3337137Y2421467D01*
X3342216Y2424853D02*
X3343062Y2425699D01*
X3344755D01*
X3345601Y2424853D01*
Y2424006D01*
X3344755Y2423160D01*
X3345601Y2422314D01*
Y2421467D01*
X3344755Y2420621D01*
X3343062D01*
X3342216Y2421467D01*
Y2422314D01*
X3343062Y2423160D01*
X3342216Y2424006D01*
Y2424853D01*
X3343062Y2423160D02*
X3344755D01*
X3335021Y2483271D02*
X3340099D01*
Y2480732D01*
X3339253Y2479886D01*
X3337560D01*
X3336714Y2480732D01*
Y2483271D01*
Y2481578D02*
X3335021Y2479886D01*
X3339253Y2478193D02*
X3340099Y2477346D01*
Y2475654D01*
X3339253Y2474807D01*
X3338406D01*
X3337560Y2475654D01*
Y2476500D01*
Y2475654D01*
X3336714Y2474807D01*
X3335867D01*
X3335021Y2475654D01*
Y2477346D01*
X3335867Y2478193D01*
X3340099Y2473114D02*
Y2469729D01*
X3339253D01*
X3335867Y2473114D01*
X3335021D01*
X3353647Y2473114D02*
X3352801Y2472268D01*
Y2470575D01*
X3353647Y2469729D01*
X3357033D01*
X3357879Y2470575D01*
Y2472268D01*
X3357033Y2473114D01*
X3353647Y2474807D02*
X3352801Y2475654D01*
Y2477346D01*
X3353647Y2478193D01*
X3354494D01*
X3355340Y2477346D01*
Y2476500D01*
Y2477346D01*
X3356187Y2478193D01*
X3357033D01*
X3357879Y2477346D01*
Y2475654D01*
X3357033Y2474807D01*
X3357879Y2482425D02*
X3352801D01*
X3355340Y2479886D01*
Y2483271D01*
X3378116Y2393357D02*
X3377270Y2394203D01*
X3375577D01*
X3374731Y2393357D01*
Y2389971D01*
X3375577Y2389125D01*
X3377270D01*
X3378116Y2389971D01*
X3379809Y2393357D02*
X3380656Y2394203D01*
X3382348D01*
X3383195Y2393357D01*
Y2392510D01*
X3382348Y2391664D01*
X3381502D01*
X3382348D01*
X3383195Y2390818D01*
Y2389971D01*
X3382348Y2389125D01*
X3380656D01*
X3379809Y2389971D01*
X3388273Y2394203D02*
X3384888D01*
Y2391664D01*
X3386580Y2392510D01*
X3387427D01*
X3388273Y2391664D01*
Y2389971D01*
X3387427Y2389125D01*
X3385734D01*
X3384888Y2389971D01*
X3367957Y2408597D02*
X3367110Y2409443D01*
X3365417D01*
X3364571Y2408597D01*
Y2405211D01*
X3365417Y2404365D01*
X3367110D01*
X3367957Y2405211D01*
X3369649Y2408597D02*
X3370496Y2409443D01*
X3372188D01*
X3373035Y2408597D01*
Y2407750D01*
X3372188Y2406904D01*
X3371342D01*
X3372188D01*
X3373035Y2406058D01*
Y2405211D01*
X3372188Y2404365D01*
X3370496D01*
X3369649Y2405211D01*
X3374727Y2409443D02*
X3378113D01*
Y2408597D01*
X3374727Y2405211D01*
Y2404365D01*
X3368463Y2479935D02*
X3369309Y2480782D01*
Y2482474D01*
X3368463Y2483321D01*
X3365077D01*
X3364231Y2482474D01*
Y2480782D01*
X3365077Y2479935D01*
X3368463Y2478242D02*
X3369309Y2477396D01*
Y2475703D01*
X3368463Y2474857D01*
X3367616D01*
X3366770Y2475703D01*
Y2476550D01*
Y2475703D01*
X3365923Y2474857D01*
X3365077D01*
X3364231Y2475703D01*
Y2477396D01*
X3365077Y2478242D01*
X3369309Y2469778D02*
X3368463Y2471471D01*
X3366770Y2473164D01*
X3365077D01*
X3364231Y2472318D01*
Y2470625D01*
X3365077Y2469778D01*
X3365923D01*
X3366770Y2470625D01*
Y2473164D01*
X3371430Y2446019D02*
X3374815D01*
X3373123D01*
Y2440941D01*
X3376508D02*
Y2446019D01*
X3379047D01*
X3379893Y2445173D01*
Y2443480D01*
X3379047Y2442634D01*
X3376508D01*
X3384972Y2440941D02*
X3381586D01*
X3384972Y2444326D01*
Y2445173D01*
X3384126Y2446019D01*
X3382433D01*
X3381586Y2445173D01*
X3389204Y2440941D02*
Y2446019D01*
X3386665Y2443480D01*
X3390050D01*
X3372276Y2438822D02*
X3368890D01*
Y2436283D01*
X3370583Y2437130D01*
X3371430D01*
X3372276Y2436283D01*
Y2434590D01*
X3371430Y2433744D01*
X3369737D01*
X3368890Y2434590D01*
X3373969Y2438822D02*
Y2435437D01*
X3375662Y2433744D01*
X3377354Y2435437D01*
Y2438822D01*
X3379047Y2432898D02*
X3382433D01*
X3387511Y2438822D02*
X3384126D01*
Y2433744D01*
X3387511D01*
X3384126Y2436283D02*
X3385818D01*
X3389204Y2433744D02*
Y2438822D01*
X3392589Y2433744D01*
Y2438822D01*
X3326979Y2451101D02*
Y2456179D01*
X3329518D01*
X3330364Y2455333D01*
Y2453640D01*
X3329518Y2452794D01*
X3326979D01*
X3328672D02*
X3330364Y2451101D01*
X3334596D02*
Y2456179D01*
X3332057Y2453640D01*
X3335443D01*
X3337136Y2455333D02*
X3337982Y2456179D01*
X3339675D01*
X3340521Y2455333D01*
Y2451947D01*
X3339675Y2451101D01*
X3337982D01*
X3337136Y2451947D01*
Y2455333D01*
X3355765Y2451101D02*
Y2456179D01*
X3358304D01*
X3359151Y2455333D01*
Y2453640D01*
X3358304Y2452794D01*
X3355765D01*
X3357458D02*
X3359151Y2451101D01*
X3363383D02*
Y2456179D01*
X3360844Y2453640D01*
X3364229D01*
X3365922Y2451101D02*
X3367615D01*
X3366768D01*
Y2456179D01*
X3365922Y2455333D01*
X1644651Y2073061D02*
X1649729D01*
Y2070522D01*
X1648883Y2069675D01*
X1647190D01*
X1646344Y2070522D01*
Y2073061D01*
Y2071368D02*
X1644651Y2069675D01*
Y2064597D02*
Y2067983D01*
X1648036Y2064597D01*
X1648883D01*
X1649729Y2065444D01*
Y2067136D01*
X1648883Y2067983D01*
X1649729Y2062904D02*
Y2059519D01*
X1648883D01*
X1645497Y2062904D01*
X1644651D01*
X1608667Y2186349D02*
X1607821Y2185502D01*
Y2183809D01*
X1608667Y2182963D01*
X1612053D01*
X1612899Y2183809D01*
Y2185502D01*
X1612053Y2186349D01*
X1612899Y2191427D02*
Y2188041D01*
X1609514Y2191427D01*
X1608667D01*
X1607821Y2190580D01*
Y2188888D01*
X1608667Y2188041D01*
X1607821Y2193120D02*
Y2196505D01*
X1608667D01*
X1612053Y2193120D01*
X1612899D01*
X1635761Y2351618D02*
X1639993D01*
X1640839Y2352464D01*
Y2354157D01*
X1639993Y2355004D01*
X1635761D01*
X1640839Y2359236D02*
X1635761D01*
X1638300Y2356696D01*
Y2360082D01*
X3075818Y1836147D02*
X3079409Y1832556D01*
X3081803Y1834950D01*
X3081204Y1839139D02*
X3082401Y1840336D01*
X3083598D01*
X3085393Y1838541D01*
X3083598Y1836745D01*
X3082401D01*
X3082401Y1837942D01*
X3084196Y1839738D01*
Y1843329D02*
X3084795Y1842730D01*
X3084196Y1842132D01*
X3085393Y1843329D01*
X3084795Y1842730D01*
X3086591Y1840935D01*
X3087787Y1840935D01*
X3087189Y1846321D02*
X3087787Y1845723D01*
X3087189Y1845124D01*
X3088386Y1846321D01*
X3087787Y1845723D01*
X3089583Y1843927D01*
X3090780Y1843927D01*
X3092575Y1845723D02*
X3093772Y1846920D01*
X3093174Y1846321D01*
X3090780Y1848715D01*
X3090182Y1848117D01*
X3095568Y1853503D02*
X3093772Y1851708D01*
X3093772Y1850511D01*
X3094969Y1849314D01*
X3096166D01*
X3097962Y1851109D01*
X3100954Y1854102D02*
X3099757Y1852905D01*
X3098560D01*
X3097363Y1854102D01*
Y1855298D01*
X3098560Y1856496D01*
X3099757D01*
X3100356Y1855897D01*
X3097962Y1853503D01*
X3105144Y1865473D02*
X3102750Y1863079D01*
X3106341Y1859488D01*
X3108735Y1861882D01*
X3104545Y1861283D02*
X3105742Y1862480D01*
X3109333Y1868465D02*
X3108136D01*
X3106939Y1867268D01*
Y1866071D01*
X3109333Y1863677D01*
X3110530D01*
X3111727Y1864874D01*
X3111727Y1866071D01*
X3113523Y1866670D02*
X3109932Y1870261D01*
X3111727Y1872056D01*
X3112924D01*
X3114121Y1870859D01*
Y1869662D01*
X3112326Y1867867D01*
X3115318Y1872056D02*
X3117712Y1874450D01*
X3119507Y1879837D02*
X3117114Y1877443D01*
X3118909Y1875647D01*
X3119507Y1877443D01*
X3120106Y1878041D01*
X3121303D01*
X3122500Y1876844D01*
X3122500Y1875647D01*
X3121303Y1874450D01*
X3120106D01*
X3126091Y1882829D02*
X3128485Y1885223D01*
X3131477Y1891806D02*
X3135068Y1888215D01*
X3137462Y1890609D01*
Y1897791D02*
X3135068Y1895397D01*
X3136864Y1893602D01*
X3138061Y1894799D01*
X3136864Y1893602D01*
X3138659Y1891806D01*
X3141053Y1901382D02*
X3138659Y1898988D01*
X3142250Y1895397D01*
X3144644Y1897791D01*
X3140455Y1897193D02*
X3141652Y1898390D01*
X3144644Y1904973D02*
X3142250Y1902579D01*
X3144045Y1900784D01*
X3144644Y1902579D01*
X3145243Y1903178D01*
X3146440D01*
X3147636Y1901981D01*
X3147636Y1900784D01*
X3146440Y1899587D01*
X3145243D01*
X3145841Y1906170D02*
X3148833Y1903178D01*
X3150031D01*
X3151227Y1904375D01*
Y1905572D01*
X3148235Y1908564D01*
X3153023Y1906170D02*
X3149432Y1909761D01*
X3151826D01*
Y1912155D01*
X3155417Y1908564D01*
X3154818Y1911557D02*
X3157212Y1913950D01*
X3162000Y1915147D02*
X3158409Y1918738D01*
X3158409Y1915147D01*
X3160803Y1917541D01*
X3162599Y1922928D02*
X3160205Y1920534D01*
X3162000Y1918738D01*
X3162599Y1920534D01*
X3163197Y1921132D01*
X3164394D01*
X3165591Y1919935D01*
X3165591Y1918738D01*
X3164394Y1917541D01*
X3163197D01*
X3166190Y1926519D02*
X3163796Y1924125D01*
X3165591Y1922329D01*
X3166788Y1923526D01*
X3165591Y1922329D01*
X3167386Y1920534D01*
X3169182Y1925920D02*
X3171576Y1928314D01*
Y1930708D02*
X3171576Y1931905D01*
X3172773Y1933102D01*
X3173970D01*
X3174568Y1932504D01*
Y1931307D01*
X3175765Y1931307D01*
X3176364Y1930708D01*
X3176364Y1929511D01*
X3175167Y1928314D01*
X3173970D01*
X3173372Y1928913D01*
Y1930110D01*
X3172174Y1930110D01*
X3171576Y1930708D01*
X3173372Y1930110D02*
X3174568Y1931307D01*
Y1934898D02*
X3178159Y1931307D01*
X3179955Y1933102D01*
Y1934299D01*
X3179356Y1934898D01*
X3178159Y1934898D01*
X3176364Y1933102D01*
X3178159Y1934898D01*
Y1936095D01*
X3177561Y1936693D01*
X3176364D01*
X3174568Y1934898D01*
X3181152Y1940284D02*
X3179955D01*
X3178758Y1939087D01*
Y1937890D01*
X3181152Y1935496D01*
X3182349D01*
X3183546Y1936693D01*
X3183546Y1937890D01*
X3182349Y1939087D01*
X3181152Y1937890D01*
X3182349Y1941481D02*
X3182349Y1942678D01*
X3183546Y1943875D01*
X3184743D01*
X3185341Y1943276D01*
Y1942079D01*
X3184743Y1941481D01*
X3185341Y1942079D01*
X3186538D01*
X3187137Y1941481D01*
Y1940284D01*
X3185940Y1939087D01*
X3184743D01*
X3185940Y1945072D02*
X3185940Y1946269D01*
X3187137Y1947466D01*
X3188334D01*
X3188932Y1946867D01*
Y1945670D01*
X3190129Y1945670D01*
X3190728Y1945072D01*
X3190728Y1943875D01*
X3189531Y1942678D01*
X3188334D01*
X3187735Y1943276D01*
Y1944473D01*
X3186538Y1944473D01*
X3185940Y1945072D01*
X3187735Y1944473D02*
X3188932Y1945670D01*
X3192523Y1945670D02*
X3193720Y1946867D01*
X3193122Y1946269D01*
X3189531Y1949860D01*
X3189531Y1948663D01*
X3194917Y1954049D02*
X3193720D01*
X3192523Y1952852D01*
X3192523Y1951655D01*
X3194917Y1949261D01*
X3196114D01*
X3197311Y1950458D01*
Y1951655D01*
X3124053Y1901624D02*
X3127046Y1898632D01*
X3128242D01*
X3129440Y1899829D01*
X3129439Y1901026D01*
X3126447Y1904018D01*
X3131235Y1901624D02*
X3132432Y1902821D01*
X3131833Y1902223D01*
X3128242Y1905814D01*
X3128242Y1904617D01*
X1754718Y1332229D02*
Y1327151D01*
X1757258D01*
X1758104Y1327997D01*
Y1331383D01*
X1757258Y1332229D01*
X1754718D01*
X1759797Y1327151D02*
X1761490D01*
X1760643D01*
Y1332229D01*
X1759797Y1331383D01*
X1764029Y1327151D02*
X1765722D01*
X1764875D01*
Y1332229D01*
X1764029Y1331383D01*
X2308184Y1580895D02*
Y1575817D01*
X2310723D01*
X2311570Y1576663D01*
Y1580049D01*
X2310723Y1580895D01*
X2308184D01*
X2313262Y1576663D02*
X2314109Y1575817D01*
X2315802D01*
X2316648Y1576663D01*
Y1580049D01*
X2315802Y1580895D01*
X2314109D01*
X2313262Y1580049D01*
Y1579202D01*
X2314109Y1578356D01*
X2316648D01*
X2191598Y1580387D02*
Y1575309D01*
X2194137D01*
X2194984Y1576155D01*
Y1579541D01*
X2194137Y1580387D01*
X2191598D01*
X2196676Y1579541D02*
X2197523Y1580387D01*
X2199216D01*
X2200062Y1579541D01*
Y1578694D01*
X2199216Y1577848D01*
X2200062Y1577002D01*
Y1576155D01*
X2199216Y1575309D01*
X2197523D01*
X2196676Y1576155D01*
Y1577002D01*
X2197523Y1577848D01*
X2196676Y1578694D01*
Y1579541D01*
X2197523Y1577848D02*
X2199216D01*
X2078568Y1579117D02*
Y1574039D01*
X2081107D01*
X2081954Y1574885D01*
Y1578271D01*
X2081107Y1579117D01*
X2078568D01*
X2083646D02*
X2087032D01*
Y1578271D01*
X2083646Y1574885D01*
Y1574039D01*
X1954108Y1580387D02*
Y1575309D01*
X1956647D01*
X1957494Y1576155D01*
Y1579541D01*
X1956647Y1580387D01*
X1954108D01*
X1962572D02*
X1960879Y1579541D01*
X1959186Y1577848D01*
Y1576155D01*
X1960033Y1575309D01*
X1961726D01*
X1962572Y1576155D01*
Y1577002D01*
X1961726Y1577848D01*
X1959186D01*
X1830664Y1583435D02*
Y1578357D01*
X1833203D01*
X1834050Y1579203D01*
Y1582589D01*
X1833203Y1583435D01*
X1830664D01*
X1839128D02*
X1835742D01*
Y1580896D01*
X1837435Y1581742D01*
X1838282D01*
X1839128Y1580896D01*
Y1579203D01*
X1838282Y1578357D01*
X1836589D01*
X1835742Y1579203D01*
X1714078Y1588261D02*
Y1583183D01*
X1716617D01*
X1717464Y1584029D01*
Y1587415D01*
X1716617Y1588261D01*
X1714078D01*
X1721696Y1583183D02*
Y1588261D01*
X1719156Y1585722D01*
X1722542D01*
X1574378Y1583181D02*
Y1578103D01*
X1576917D01*
X1577764Y1578949D01*
Y1582335D01*
X1576917Y1583181D01*
X1574378D01*
X1579456Y1582335D02*
X1580303Y1583181D01*
X1581996D01*
X1582842Y1582335D01*
Y1581488D01*
X1581996Y1580642D01*
X1581149D01*
X1581996D01*
X1582842Y1579796D01*
Y1578949D01*
X1581996Y1578103D01*
X1580303D01*
X1579456Y1578949D01*
X1612478Y1995169D02*
Y1990937D01*
X1613324Y1990091D01*
X1615017D01*
X1615864Y1990937D01*
Y1995169D01*
X1620942Y1990091D02*
X1617556D01*
X1620942Y1993476D01*
Y1994323D01*
X1620096Y1995169D01*
X1618403D01*
X1617556Y1994323D01*
X1617981Y2153921D02*
Y2150535D01*
X1620520D01*
Y2152228D01*
Y2150535D01*
X1623059D01*
X1617981Y2155614D02*
X1623059D01*
Y2158153D01*
X1622213Y2158999D01*
X1621366D01*
X1620520Y2158153D01*
Y2155614D01*
Y2158153D01*
X1619674Y2158999D01*
X1618827D01*
X1617981Y2158153D01*
Y2155614D01*
X1623059Y2160692D02*
Y2162385D01*
Y2161538D01*
X1617981D01*
X1618827Y2160692D01*
X1652269Y1957919D02*
X1647191D01*
Y1960458D01*
X1648037Y1961304D01*
X1649730D01*
X1650576Y1960458D01*
Y1957919D01*
Y1959612D02*
X1652269Y1961304D01*
Y1966383D02*
Y1962997D01*
X1648884Y1966383D01*
X1648037D01*
X1647191Y1965536D01*
Y1963844D01*
X1648037Y1962997D01*
X1651423Y1968076D02*
X1652269Y1968922D01*
Y1970615D01*
X1651423Y1971461D01*
X1648037D01*
X1647191Y1970615D01*
Y1968922D01*
X1648037Y1968076D01*
X1648884D01*
X1649730Y1968922D01*
Y1971461D01*
X1664971Y2073061D02*
X1670049D01*
Y2070522D01*
X1669203Y2069675D01*
X1667510D01*
X1666664Y2070522D01*
Y2073061D01*
Y2071368D02*
X1664971Y2069675D01*
Y2064597D02*
Y2067983D01*
X1668356Y2064597D01*
X1669203D01*
X1670049Y2065444D01*
Y2067136D01*
X1669203Y2067983D01*
Y2062904D02*
X1670049Y2062058D01*
Y2060365D01*
X1669203Y2059519D01*
X1668356D01*
X1667510Y2060365D01*
X1666664Y2059519D01*
X1665817D01*
X1664971Y2060365D01*
Y2062058D01*
X1665817Y2062904D01*
X1666664D01*
X1667510Y2062058D01*
X1668356Y2062904D01*
X1669203D01*
X1667510Y2062058D02*
Y2060365D01*
X1625601Y2192868D02*
X1629833D01*
X1630679Y2193714D01*
Y2195407D01*
X1629833Y2196254D01*
X1625601D01*
X1626447Y2197946D02*
X1625601Y2198793D01*
Y2200486D01*
X1626447Y2201332D01*
X1627294D01*
X1628140Y2200486D01*
Y2199639D01*
Y2200486D01*
X1628986Y2201332D01*
X1629833D01*
X1630679Y2200486D01*
Y2198793D01*
X1629833Y2197946D01*
X1616709Y2016339D02*
X1611631D01*
Y2018878D01*
X1612477Y2019724D01*
X1614170D01*
X1615016Y2018878D01*
Y2016339D01*
Y2018032D02*
X1616709Y2019724D01*
X1612477Y2021417D02*
X1611631Y2022264D01*
Y2023956D01*
X1612477Y2024803D01*
X1613324D01*
X1614170Y2023956D01*
Y2023110D01*
Y2023956D01*
X1615016Y2024803D01*
X1615863D01*
X1616709Y2023956D01*
Y2022264D01*
X1615863Y2021417D01*
X1612477Y2026496D02*
X1611631Y2027342D01*
Y2029035D01*
X1612477Y2029881D01*
X1615863D01*
X1616709Y2029035D01*
Y2027342D01*
X1615863Y2026496D01*
X1612477D01*
X1618906Y2170007D02*
X1619752Y2169160D01*
X1621445D01*
X1622292Y2170007D01*
Y2173392D01*
X1621445Y2174239D01*
X1619752D01*
X1618906Y2173392D01*
X1613828Y2174239D02*
X1617213D01*
X1613828Y2170853D01*
Y2170007D01*
X1614674Y2169160D01*
X1616367D01*
X1617213Y2170007D01*
X1608749Y2169160D02*
X1610442Y2170007D01*
X1612135Y2171700D01*
Y2173392D01*
X1611288Y2174239D01*
X1609596D01*
X1608749Y2173392D01*
Y2172546D01*
X1609596Y2171700D01*
X1612135D01*
X1631185Y2173392D02*
X1630338Y2174239D01*
X1628646D01*
X1627799Y2173392D01*
Y2170007D01*
X1628646Y2169160D01*
X1630338D01*
X1631185Y2170007D01*
X1636263Y2169160D02*
X1632878D01*
X1636263Y2172546D01*
Y2173392D01*
X1635417Y2174239D01*
X1633724D01*
X1632878Y2173392D01*
X1641342Y2174239D02*
X1637956D01*
Y2171700D01*
X1639649Y2172546D01*
X1640495D01*
X1641342Y2171700D01*
Y2170007D01*
X1640495Y2169160D01*
X1638802D01*
X1637956Y2170007D01*
X1592157Y2016550D02*
X1591311Y2015703D01*
Y2014010D01*
X1592157Y2013164D01*
X1595543D01*
X1596389Y2014010D01*
Y2015703D01*
X1595543Y2016550D01*
X1592157Y2018242D02*
X1591311Y2019089D01*
Y2020781D01*
X1592157Y2021628D01*
X1593004D01*
X1593850Y2020781D01*
Y2019935D01*
Y2020781D01*
X1594696Y2021628D01*
X1595543D01*
X1596389Y2020781D01*
Y2019089D01*
X1595543Y2018242D01*
X1592157Y2023321D02*
X1591311Y2024167D01*
Y2025860D01*
X1592157Y2026706D01*
X1595543D01*
X1596389Y2025860D01*
Y2024167D01*
X1595543Y2023321D01*
X1592157D01*
X1595543Y2004906D02*
X1596389Y2005752D01*
Y2007445D01*
X1595543Y2008291D01*
X1592157D01*
X1591311Y2007445D01*
Y2005752D01*
X1592157Y2004906D01*
X1591311Y1999827D02*
Y2003213D01*
X1594696Y1999827D01*
X1595543D01*
X1596389Y2000674D01*
Y2002366D01*
X1595543Y2003213D01*
X1592157Y1998134D02*
X1591311Y1997288D01*
Y1995595D01*
X1592157Y1994749D01*
X1595543D01*
X1596389Y1995595D01*
Y1997288D01*
X1595543Y1998134D01*
X1594696D01*
X1593850Y1997288D01*
Y1994749D01*
X1608667Y2153074D02*
X1607821Y2152228D01*
Y2150535D01*
X1608667Y2149689D01*
X1612053D01*
X1612899Y2150535D01*
Y2152228D01*
X1612053Y2153074D01*
X1612899Y2158153D02*
Y2154767D01*
X1609514Y2158153D01*
X1608667D01*
X1607821Y2157306D01*
Y2155614D01*
X1608667Y2154767D01*
Y2159846D02*
X1607821Y2160692D01*
Y2162385D01*
X1608667Y2163231D01*
X1609514D01*
X1610360Y2162385D01*
X1611206Y2163231D01*
X1612053D01*
X1612899Y2162385D01*
Y2160692D01*
X1612053Y2159846D01*
X1611206D01*
X1610360Y2160692D01*
X1609514Y2159846D01*
X1608667D01*
X1610360Y2160692D02*
Y2162385D01*
X1607396Y2401147D02*
X1608242Y2400301D01*
X1609935D01*
X1610781Y2401147D01*
Y2404533D01*
X1609935Y2405379D01*
X1608242D01*
X1607396Y2404533D01*
X1605703Y2401147D02*
X1604856Y2400301D01*
X1603164D01*
X1602317Y2401147D01*
Y2401994D01*
X1603164Y2402840D01*
X1604010D01*
X1603164D01*
X1602317Y2403686D01*
Y2404533D01*
X1603164Y2405379D01*
X1604856D01*
X1605703Y2404533D01*
X1597239Y2405379D02*
X1600624D01*
X1597239Y2401994D01*
Y2401147D01*
X1598085Y2400301D01*
X1599778D01*
X1600624Y2401147D01*
X1603163Y2390139D02*
X1604009Y2390986D01*
Y2392678D01*
X1603163Y2393525D01*
X1599777D01*
X1598931Y2392678D01*
Y2390986D01*
X1599777Y2390139D01*
X1603163Y2388446D02*
X1604009Y2387600D01*
Y2385907D01*
X1603163Y2385061D01*
X1602316D01*
X1601470Y2385907D01*
Y2386754D01*
Y2385907D01*
X1600624Y2385061D01*
X1599777D01*
X1598931Y2385907D01*
Y2387600D01*
X1599777Y2388446D01*
X1598931Y2383368D02*
Y2381675D01*
Y2382522D01*
X1604009D01*
X1603163Y2383368D01*
X2131059Y1442722D02*
X2125981D01*
Y1445261D01*
X2126827Y1446108D01*
X2128520D01*
X2129366Y1445261D01*
Y1442722D01*
Y1444415D02*
X2131059Y1446108D01*
Y1447800D02*
Y1449493D01*
Y1448647D01*
X2125981D01*
X2126827Y1447800D01*
X2125981Y1455418D02*
X2126827Y1453725D01*
X2128520Y1452032D01*
X2130213D01*
X2131059Y1452879D01*
Y1454572D01*
X2130213Y1455418D01*
X2129366D01*
X2128520Y1454572D01*
Y1452032D01*
X2090422Y1461769D02*
Y1456691D01*
X2092961D01*
X2093808Y1457537D01*
Y1460923D01*
X2092961Y1461769D01*
X2090422D01*
X2095500Y1456691D02*
X2097193D01*
X2096347D01*
Y1461769D01*
X2095500Y1460923D01*
X2099732D02*
X2100579Y1461769D01*
X2102272D01*
X2103118Y1460923D01*
Y1457537D01*
X2102272Y1456691D01*
X2100579D01*
X2099732Y1457537D01*
Y1460923D01*
X2066289Y1442722D02*
X2061211D01*
Y1445261D01*
X2062057Y1446108D01*
X2063750D01*
X2064596Y1445261D01*
Y1442722D01*
Y1444415D02*
X2066289Y1446108D01*
Y1447800D02*
Y1449493D01*
Y1448647D01*
X2061211D01*
X2062057Y1447800D01*
X2061211Y1452032D02*
Y1455418D01*
X2062057D01*
X2065443Y1452032D01*
X2066289D01*
X2019303Y1468119D02*
X2022688D01*
X2020996D01*
Y1463041D01*
X2024381D02*
Y1468119D01*
X2026920D01*
X2027767Y1467273D01*
Y1465580D01*
X2026920Y1464734D01*
X2024381D01*
X2029460Y1463041D02*
X2031152D01*
X2030306D01*
Y1468119D01*
X2029460Y1467273D01*
X2037077Y1468119D02*
X2035384Y1467273D01*
X2033692Y1465580D01*
Y1463887D01*
X2034538Y1463041D01*
X2036231D01*
X2037077Y1463887D01*
Y1464734D01*
X2036231Y1465580D01*
X2033692D01*
X2016340Y1455421D02*
Y1460499D01*
X2018880D01*
X2019726Y1459653D01*
Y1457960D01*
X2018880Y1457114D01*
X2016340D01*
X2018033D02*
X2019726Y1455421D01*
X2024804Y1460499D02*
X2021419D01*
Y1455421D01*
X2024804D01*
X2021419Y1457960D02*
X2023112D01*
X2029883Y1459653D02*
X2029036Y1460499D01*
X2027344D01*
X2026497Y1459653D01*
Y1458806D01*
X2027344Y1457960D01*
X2029036D01*
X2029883Y1457114D01*
Y1456267D01*
X2029036Y1455421D01*
X2027344D01*
X2026497Y1456267D01*
X2034961Y1460499D02*
X2031576D01*
Y1455421D01*
X2034961D01*
X2031576Y1457960D02*
X2033268D01*
X2036654Y1460499D02*
X2040040D01*
X2038347D01*
Y1455421D01*
X1995169Y1442722D02*
X1990091D01*
Y1445261D01*
X1990937Y1446108D01*
X1992630D01*
X1993476Y1445261D01*
Y1442722D01*
Y1444415D02*
X1995169Y1446108D01*
Y1447800D02*
Y1449493D01*
Y1448647D01*
X1990091D01*
X1990937Y1447800D01*
Y1452032D02*
X1990091Y1452879D01*
Y1454572D01*
X1990937Y1455418D01*
X1991784D01*
X1992630Y1454572D01*
X1993476Y1455418D01*
X1994323D01*
X1995169Y1454572D01*
Y1452879D01*
X1994323Y1452032D01*
X1993476D01*
X1992630Y1452879D01*
X1991784Y1452032D01*
X1990937D01*
X1992630Y1452879D02*
Y1454572D01*
X1949451Y1446533D02*
Y1449919D01*
Y1448226D01*
X1954529D01*
Y1451611D02*
X1949451D01*
Y1454150D01*
X1950297Y1454997D01*
X1951990D01*
X1952836Y1454150D01*
Y1451611D01*
X1954529Y1456690D02*
Y1458382D01*
Y1457536D01*
X1949451D01*
X1950297Y1456690D01*
X1953683Y1460922D02*
X1954529Y1461768D01*
Y1463461D01*
X1953683Y1464307D01*
X1950297D01*
X1949451Y1463461D01*
Y1461768D01*
X1950297Y1460922D01*
X1951144D01*
X1951990Y1461768D01*
Y1464307D01*
X1912621Y1446533D02*
Y1449919D01*
Y1448226D01*
X1917699D01*
Y1451611D02*
X1912621D01*
Y1454150D01*
X1913467Y1454997D01*
X1915160D01*
X1916006Y1454150D01*
Y1451611D01*
X1917699Y1456690D02*
Y1458382D01*
Y1457536D01*
X1912621D01*
X1913467Y1456690D01*
Y1460922D02*
X1912621Y1461768D01*
Y1463461D01*
X1913467Y1464307D01*
X1914314D01*
X1915160Y1463461D01*
X1916006Y1464307D01*
X1916853D01*
X1917699Y1463461D01*
Y1461768D01*
X1916853Y1460922D01*
X1916006D01*
X1915160Y1461768D01*
X1914314Y1460922D01*
X1913467D01*
X1915160Y1461768D02*
Y1463461D01*
X1875791Y1446533D02*
Y1449919D01*
Y1448226D01*
X1880869D01*
Y1451611D02*
X1875791D01*
Y1454150D01*
X1876637Y1454997D01*
X1878330D01*
X1879176Y1454150D01*
Y1451611D01*
X1880869Y1456690D02*
Y1458382D01*
Y1457536D01*
X1875791D01*
X1876637Y1456690D01*
X1875791Y1460922D02*
Y1464307D01*
X1876637D01*
X1880023Y1460922D01*
X1880869D01*
X1833881Y1434680D02*
Y1438065D01*
Y1436373D01*
X1838959D01*
Y1439758D02*
X1833881D01*
Y1442297D01*
X1834727Y1443144D01*
X1836420D01*
X1837266Y1442297D01*
Y1439758D01*
X1838959Y1448222D02*
Y1444836D01*
X1835574Y1448222D01*
X1834727D01*
X1833881Y1447376D01*
Y1445683D01*
X1834727Y1444836D01*
Y1449915D02*
X1833881Y1450761D01*
Y1452454D01*
X1834727Y1453300D01*
X1838113D01*
X1838959Y1452454D01*
Y1450761D01*
X1838113Y1449915D01*
X1834727D01*
X1841078Y1423253D02*
Y1419868D01*
X1843617D01*
Y1421561D01*
Y1419868D01*
X1846156D01*
X1841078Y1424946D02*
X1846156D01*
Y1428332D01*
Y1430025D02*
X1842770D01*
X1841078Y1431717D01*
X1842770Y1433410D01*
X1846156D01*
X1843617D01*
Y1430025D01*
X1841924Y1438488D02*
X1841078Y1437642D01*
Y1435949D01*
X1841924Y1435103D01*
X1842770D01*
X1843617Y1435949D01*
Y1437642D01*
X1844463Y1438488D01*
X1845310D01*
X1846156Y1437642D01*
Y1435949D01*
X1845310Y1435103D01*
X1841078Y1440181D02*
X1846156D01*
X1843617D01*
Y1443567D01*
X1841078D01*
X1846156D01*
X1847002Y1445260D02*
Y1448645D01*
X1846156Y1450338D02*
X1841078D01*
X1842770Y1452031D01*
X1841078Y1453723D01*
X1846156D01*
X1841078Y1455416D02*
Y1457109D01*
Y1456263D01*
X1846156D01*
Y1455416D01*
Y1457109D01*
X1841924Y1463034D02*
X1841078Y1462187D01*
Y1460495D01*
X1841924Y1459648D01*
X1842770D01*
X1843617Y1460495D01*
Y1462187D01*
X1844463Y1463034D01*
X1845310D01*
X1846156Y1462187D01*
Y1460495D01*
X1845310Y1459648D01*
X1841078Y1467266D02*
Y1465573D01*
X1841924Y1464727D01*
X1845310D01*
X1846156Y1465573D01*
Y1467266D01*
X1845310Y1468112D01*
X1841924D01*
X1841078Y1467266D01*
X1814829Y1443145D02*
X1809751D01*
Y1445685D01*
X1810597Y1446531D01*
X1812290D01*
X1813136Y1445685D01*
Y1443145D01*
Y1444838D02*
X1814829Y1446531D01*
Y1451609D02*
Y1448224D01*
X1811444Y1451609D01*
X1810597D01*
X1809751Y1450763D01*
Y1449070D01*
X1810597Y1448224D01*
X1814829Y1453302D02*
Y1454995D01*
Y1454148D01*
X1809751D01*
X1810597Y1453302D01*
X1781809Y1442299D02*
X1776731D01*
Y1444838D01*
X1777577Y1445685D01*
X1779270D01*
X1780116Y1444838D01*
Y1442299D01*
Y1443992D02*
X1781809Y1445685D01*
Y1450763D02*
Y1447377D01*
X1778424Y1450763D01*
X1777577D01*
X1776731Y1449916D01*
Y1448224D01*
X1777577Y1447377D01*
Y1452456D02*
X1776731Y1453302D01*
Y1454995D01*
X1777577Y1455841D01*
X1780963D01*
X1781809Y1454995D01*
Y1453302D01*
X1780963Y1452456D01*
X1777577D01*
X1751329Y1442722D02*
X1746251D01*
Y1445261D01*
X1747097Y1446108D01*
X1748790D01*
X1749636Y1445261D01*
Y1442722D01*
Y1444415D02*
X1751329Y1446108D01*
Y1447800D02*
Y1449493D01*
Y1448647D01*
X1746251D01*
X1747097Y1447800D01*
X1750483Y1452032D02*
X1751329Y1452879D01*
Y1454572D01*
X1750483Y1455418D01*
X1747097D01*
X1746251Y1454572D01*
Y1452879D01*
X1747097Y1452032D01*
X1747944D01*
X1748790Y1452879D01*
Y1455418D01*
X1719579Y1442299D02*
X1714501D01*
Y1444838D01*
X1715347Y1445685D01*
X1717040D01*
X1717886Y1444838D01*
Y1442299D01*
Y1443992D02*
X1719579Y1445685D01*
Y1450763D02*
Y1447377D01*
X1716194Y1450763D01*
X1715347D01*
X1714501Y1449916D01*
Y1448224D01*
X1715347Y1447377D01*
X1719579Y1455841D02*
Y1452456D01*
X1716194Y1455841D01*
X1715347D01*
X1714501Y1454995D01*
Y1453302D01*
X1715347Y1452456D01*
X1671321Y1435526D02*
Y1438912D01*
Y1437219D01*
X1676399D01*
Y1440605D02*
X1671321D01*
Y1443144D01*
X1672167Y1443990D01*
X1673860D01*
X1674706Y1443144D01*
Y1440605D01*
X1676399Y1449068D02*
Y1445683D01*
X1673014Y1449068D01*
X1672167D01*
X1671321Y1448222D01*
Y1446529D01*
X1672167Y1445683D01*
X1676399Y1450761D02*
Y1452454D01*
Y1451608D01*
X1671321D01*
X1672167Y1450761D01*
X1678518Y1423677D02*
Y1420291D01*
X1681057D01*
Y1421984D01*
Y1420291D01*
X1683596D01*
X1678518Y1425369D02*
X1683596D01*
Y1428755D01*
Y1430448D02*
X1680210D01*
X1678518Y1432141D01*
X1680210Y1433833D01*
X1683596D01*
X1681057D01*
Y1430448D01*
X1679364Y1438912D02*
X1678518Y1438065D01*
Y1436373D01*
X1679364Y1435526D01*
X1680210D01*
X1681057Y1436373D01*
Y1438065D01*
X1681903Y1438912D01*
X1682749D01*
X1683596Y1438065D01*
Y1436373D01*
X1682749Y1435526D01*
X1678518Y1440605D02*
X1683596D01*
X1681057D01*
Y1443990D01*
X1678518D01*
X1683596D01*
X1684442Y1445683D02*
Y1449068D01*
X1683596Y1450761D02*
X1678518D01*
X1680210Y1452454D01*
X1678518Y1454147D01*
X1683596D01*
X1678518Y1458379D02*
Y1456686D01*
X1679364Y1455840D01*
X1682749D01*
X1683596Y1456686D01*
Y1458379D01*
X1682749Y1459225D01*
X1679364D01*
X1678518Y1458379D01*
X1679364Y1464303D02*
X1678518Y1463457D01*
Y1461764D01*
X1679364Y1460918D01*
X1680210D01*
X1681057Y1461764D01*
Y1463457D01*
X1681903Y1464303D01*
X1682749D01*
X1683596Y1463457D01*
Y1461764D01*
X1682749Y1460918D01*
X1678518Y1465996D02*
Y1467689D01*
Y1466843D01*
X1683596D01*
Y1465996D01*
Y1467689D01*
X2108201Y1366100D02*
Y1369485D01*
Y1367793D01*
X2113279D01*
Y1371178D02*
X2108201D01*
Y1373717D01*
X2109047Y1374564D01*
X2110740D01*
X2111586Y1373717D01*
Y1371178D01*
X2113279Y1379642D02*
Y1376256D01*
X2109894Y1379642D01*
X2109047D01*
X2108201Y1378796D01*
Y1377103D01*
X2109047Y1376256D01*
X2113279Y1384720D02*
Y1381335D01*
X2109894Y1384720D01*
X2109047D01*
X2108201Y1383874D01*
Y1382181D01*
X2109047Y1381335D01*
X2115398Y1354250D02*
Y1350865D01*
X2117937D01*
Y1352557D01*
Y1350865D01*
X2120476D01*
X2115398Y1355943D02*
X2120476D01*
Y1359328D01*
Y1361021D02*
X2117090D01*
X2115398Y1362714D01*
X2117090Y1364407D01*
X2120476D01*
X2117937D01*
Y1361021D01*
X2116244Y1369485D02*
X2115398Y1368639D01*
Y1366946D01*
X2116244Y1366100D01*
X2117090D01*
X2117937Y1366946D01*
Y1368639D01*
X2118783Y1369485D01*
X2119630D01*
X2120476Y1368639D01*
Y1366946D01*
X2119630Y1366100D01*
X2115398Y1371178D02*
X2120476D01*
X2117937D01*
Y1374564D01*
X2115398D01*
X2120476D01*
X2121322Y1376256D02*
Y1379642D01*
X2116244Y1384720D02*
X2115398Y1383874D01*
Y1382181D01*
X2116244Y1381335D01*
X2117090D01*
X2117937Y1382181D01*
Y1383874D01*
X2118783Y1384720D01*
X2119630D01*
X2120476Y1383874D01*
Y1382181D01*
X2119630Y1381335D01*
X2116244Y1389799D02*
X2115398Y1388952D01*
Y1387260D01*
X2116244Y1386413D01*
X2119630D01*
X2120476Y1387260D01*
Y1388952D01*
X2119630Y1389799D01*
X2115398Y1391491D02*
X2120476D01*
Y1394877D01*
X2115398Y1396570D02*
X2120476D01*
X2118783D01*
X2115398Y1399955D01*
X2117937Y1397416D01*
X2120476Y1399955D01*
X2086609Y1374989D02*
X2081531D01*
Y1377528D01*
X2082377Y1378374D01*
X2084070D01*
X2084916Y1377528D01*
Y1374989D01*
Y1376682D02*
X2086609Y1378374D01*
Y1383453D02*
Y1380067D01*
X2083224Y1383453D01*
X2082377D01*
X2081531Y1382606D01*
Y1380914D01*
X2082377Y1380067D01*
X2081531Y1388531D02*
X2082377Y1386838D01*
X2084070Y1385146D01*
X2085763D01*
X2086609Y1385992D01*
Y1387685D01*
X2085763Y1388531D01*
X2084916D01*
X2084070Y1387685D01*
Y1385146D01*
X2037081Y1371180D02*
Y1374565D01*
Y1372872D01*
X2042159D01*
Y1376258D02*
X2037081D01*
Y1378797D01*
X2037927Y1379644D01*
X2039620D01*
X2040466Y1378797D01*
Y1376258D01*
X2042159Y1384722D02*
Y1381336D01*
X2038774Y1384722D01*
X2037927D01*
X2037081Y1383876D01*
Y1382183D01*
X2037927Y1381336D01*
Y1386415D02*
X2037081Y1387261D01*
Y1388954D01*
X2037927Y1389800D01*
X2038774D01*
X2039620Y1388954D01*
Y1388107D01*
Y1388954D01*
X2040466Y1389800D01*
X2041313D01*
X2042159Y1388954D01*
Y1387261D01*
X2041313Y1386415D01*
X2044278Y1364409D02*
Y1361023D01*
X2046817D01*
Y1362716D01*
Y1361023D01*
X2049356D01*
X2044278Y1366101D02*
X2049356D01*
Y1369487D01*
Y1371180D02*
X2045970D01*
X2044278Y1372872D01*
X2045970Y1374565D01*
X2049356D01*
X2046817D01*
Y1371180D01*
X2045124Y1379644D02*
X2044278Y1378797D01*
Y1377104D01*
X2045124Y1376258D01*
X2045970D01*
X2046817Y1377104D01*
Y1378797D01*
X2047663Y1379644D01*
X2048510D01*
X2049356Y1378797D01*
Y1377104D01*
X2048510Y1376258D01*
X2044278Y1381336D02*
X2049356D01*
X2046817D01*
Y1384722D01*
X2044278D01*
X2049356D01*
X2050202Y1386415D02*
Y1389800D01*
X2045124Y1394879D02*
X2044278Y1394032D01*
Y1392339D01*
X2045124Y1391493D01*
X2048510D01*
X2049356Y1392339D01*
Y1394032D01*
X2048510Y1394879D01*
X2045124Y1399957D02*
X2044278Y1399111D01*
Y1397418D01*
X2045124Y1396572D01*
X2045970D01*
X2046817Y1397418D01*
Y1399111D01*
X2047663Y1399957D01*
X2048510D01*
X2049356Y1399111D01*
Y1397418D01*
X2048510Y1396572D01*
X2012951Y1394883D02*
X2012104Y1395729D01*
X2010412D01*
X2009565Y1394883D01*
Y1391497D01*
X2010412Y1390651D01*
X2012104D01*
X2012951Y1391497D01*
X2018029Y1390651D02*
X2014644D01*
X2018029Y1394036D01*
Y1394883D01*
X2017183Y1395729D01*
X2015490D01*
X2014644Y1394883D01*
X2019722Y1390651D02*
X2021415D01*
X2020568D01*
Y1395729D01*
X2019722Y1394883D01*
X1977814Y1378797D02*
Y1382183D01*
X1976967Y1383029D01*
X1975275D01*
X1974428Y1382183D01*
Y1378797D01*
X1975275Y1377951D01*
X1976967D01*
X1976121Y1379644D02*
X1977814Y1377951D01*
X1976967D02*
X1977814Y1378797D01*
X1982892Y1377951D02*
X1979506D01*
X1982892Y1381336D01*
Y1382183D01*
X1982046Y1383029D01*
X1980353D01*
X1979506Y1382183D01*
X1927437Y1367791D02*
X1926591Y1366944D01*
Y1365252D01*
X1927437Y1364405D01*
X1928284D01*
X1929130Y1365252D01*
Y1366944D01*
X1929976Y1367791D01*
X1930823D01*
X1931669Y1366944D01*
Y1365252D01*
X1930823Y1364405D01*
X1926591Y1369484D02*
X1931669D01*
X1929976Y1371176D01*
X1931669Y1372869D01*
X1926591D01*
X1931669Y1374562D02*
Y1376255D01*
Y1375408D01*
X1926591D01*
X1927437Y1374562D01*
X1883412Y1394459D02*
Y1389381D01*
X1885951D01*
X1886798Y1390227D01*
Y1393613D01*
X1885951Y1394459D01*
X1883412D01*
X1888490Y1389381D02*
X1890183D01*
X1889337D01*
Y1394459D01*
X1888490Y1393613D01*
X1896108Y1389381D02*
X1892722D01*
X1896108Y1392766D01*
Y1393613D01*
X1895262Y1394459D01*
X1893569D01*
X1892722Y1393613D01*
X1852084Y1394883D02*
X1851238Y1395729D01*
X1849545D01*
X1848699Y1394883D01*
Y1391497D01*
X1849545Y1390651D01*
X1851238D01*
X1852084Y1391497D01*
X1857163Y1390651D02*
X1853777D01*
X1857163Y1394036D01*
Y1394883D01*
X1856316Y1395729D01*
X1854624D01*
X1853777Y1394883D01*
X1862241Y1390651D02*
X1858856D01*
X1862241Y1394036D01*
Y1394883D01*
X1861395Y1395729D01*
X1859702D01*
X1858856Y1394883D01*
X1820334D02*
X1819488Y1395729D01*
X1817795D01*
X1816949Y1394883D01*
Y1391497D01*
X1817795Y1390651D01*
X1819488D01*
X1820334Y1391497D01*
X1825413Y1390651D02*
X1822027D01*
X1825413Y1394036D01*
Y1394883D01*
X1824566Y1395729D01*
X1822874D01*
X1822027Y1394883D01*
X1827106D02*
X1827952Y1395729D01*
X1829645D01*
X1830491Y1394883D01*
Y1391497D01*
X1829645Y1390651D01*
X1827952D01*
X1827106Y1391497D01*
Y1394883D01*
X1793239Y1374989D02*
X1788161D01*
Y1377528D01*
X1789007Y1378374D01*
X1790700D01*
X1791546Y1377528D01*
Y1374989D01*
Y1376682D02*
X1793239Y1378374D01*
Y1383453D02*
Y1380067D01*
X1789854Y1383453D01*
X1789007D01*
X1788161Y1382606D01*
Y1380914D01*
X1789007Y1380067D01*
X1788161Y1388531D02*
Y1385146D01*
X1790700D01*
X1789854Y1386838D01*
Y1387685D01*
X1790700Y1388531D01*
X1792393D01*
X1793239Y1387685D01*
Y1385992D01*
X1792393Y1385146D01*
X1757258Y1394883D02*
X1756411Y1395729D01*
X1754718D01*
X1753872Y1394883D01*
Y1391497D01*
X1754718Y1390651D01*
X1756411D01*
X1757258Y1391497D01*
X1758950Y1390651D02*
X1760643D01*
X1759797D01*
Y1395729D01*
X1758950Y1394883D01*
X1763182Y1391497D02*
X1764029Y1390651D01*
X1765722D01*
X1766568Y1391497D01*
Y1394883D01*
X1765722Y1395729D01*
X1764029D01*
X1763182Y1394883D01*
Y1394036D01*
X1764029Y1393190D01*
X1766568D01*
X1729739Y1374989D02*
X1724661D01*
Y1377528D01*
X1725507Y1378374D01*
X1727200D01*
X1728046Y1377528D01*
Y1374989D01*
Y1376682D02*
X1729739Y1378374D01*
Y1383453D02*
Y1380067D01*
X1726354Y1383453D01*
X1725507D01*
X1724661Y1382606D01*
Y1380914D01*
X1725507Y1380067D01*
X1729739Y1387685D02*
X1724661D01*
X1727200Y1385146D01*
Y1388531D01*
X1693758Y1394883D02*
X1692911Y1395729D01*
X1691219D01*
X1690372Y1394883D01*
Y1391497D01*
X1691219Y1390651D01*
X1692911D01*
X1693758Y1391497D01*
X1695450Y1390651D02*
X1697143D01*
X1696297D01*
Y1395729D01*
X1695450Y1394883D01*
X1699682D02*
X1700529Y1395729D01*
X1702222D01*
X1703068Y1394883D01*
Y1394036D01*
X1702222Y1393190D01*
X1703068Y1392344D01*
Y1391497D01*
X1702222Y1390651D01*
X1700529D01*
X1699682Y1391497D01*
Y1392344D01*
X1700529Y1393190D01*
X1699682Y1394036D01*
Y1394883D01*
X1700529Y1393190D02*
X1702222D01*
X1666239Y1374989D02*
X1661161D01*
Y1377528D01*
X1662007Y1378374D01*
X1663700D01*
X1664546Y1377528D01*
Y1374989D01*
Y1376682D02*
X1666239Y1378374D01*
Y1383453D02*
Y1380067D01*
X1662854Y1383453D01*
X1662007D01*
X1661161Y1382606D01*
Y1380914D01*
X1662007Y1380067D01*
Y1385146D02*
X1661161Y1385992D01*
Y1387685D01*
X1662007Y1388531D01*
X1662854D01*
X1663700Y1387685D01*
Y1386838D01*
Y1387685D01*
X1664546Y1388531D01*
X1665393D01*
X1666239Y1387685D01*
Y1385992D01*
X1665393Y1385146D01*
X1655656Y1850391D02*
X1657349D01*
X1656503D01*
Y1854623D01*
X1657349Y1855469D01*
X1658195D01*
X1659042Y1854623D01*
X1650578Y1855469D02*
X1653964D01*
X1650578Y1852084D01*
Y1851237D01*
X1651424Y1850391D01*
X1653117D01*
X1653964Y1851237D01*
X2320291Y1682753D02*
Y1686138D01*
Y1684446D01*
X2325369D01*
Y1687831D02*
X2320291D01*
Y1690370D01*
X2321137Y1691217D01*
X2322830D01*
X2323676Y1690370D01*
Y1687831D01*
X2325369Y1692910D02*
Y1694602D01*
Y1693756D01*
X2320291D01*
X2321137Y1692910D01*
X2320291Y1700527D02*
Y1697142D01*
X2322830D01*
X2321984Y1698834D01*
Y1699681D01*
X2322830Y1700527D01*
X2324523D01*
X2325369Y1699681D01*
Y1697988D01*
X2324523Y1697142D01*
X2296159Y1654812D02*
X2291081D01*
Y1657351D01*
X2291927Y1658198D01*
X2293620D01*
X2294466Y1657351D01*
Y1654812D01*
Y1656505D02*
X2296159Y1658198D01*
Y1659890D02*
Y1661583D01*
Y1660737D01*
X2291081D01*
X2291927Y1659890D01*
X2291081Y1667508D02*
Y1664122D01*
X2293620D01*
X2292774Y1665815D01*
Y1666662D01*
X2293620Y1667508D01*
X2295313D01*
X2296159Y1666662D01*
Y1664969D01*
X2295313Y1664122D01*
X2211071Y1662433D02*
Y1665818D01*
Y1664126D01*
X2216149D01*
Y1667511D02*
X2211071D01*
Y1670050D01*
X2211917Y1670897D01*
X2213610D01*
X2214456Y1670050D01*
Y1667511D01*
X2216149Y1672590D02*
Y1674282D01*
Y1673436D01*
X2211071D01*
X2211917Y1672590D01*
X2216149Y1679361D02*
X2211071D01*
X2213610Y1676822D01*
Y1680207D01*
X2179319Y1639572D02*
X2174241D01*
Y1642111D01*
X2175087Y1642958D01*
X2176780D01*
X2177626Y1642111D01*
Y1639572D01*
Y1641265D02*
X2179319Y1642958D01*
Y1644650D02*
Y1646343D01*
Y1645497D01*
X2174241D01*
X2175087Y1644650D01*
X2179319Y1651422D02*
X2174241D01*
X2176780Y1648882D01*
Y1652268D01*
X2101851Y1666243D02*
Y1669628D01*
Y1667936D01*
X2106929D01*
Y1671321D02*
X2101851D01*
Y1673860D01*
X2102697Y1674707D01*
X2104390D01*
X2105236Y1673860D01*
Y1671321D01*
X2106929Y1676400D02*
Y1678092D01*
Y1677246D01*
X2101851D01*
X2102697Y1676400D01*
Y1680632D02*
X2101851Y1681478D01*
Y1683171D01*
X2102697Y1684017D01*
X2103544D01*
X2104390Y1683171D01*
Y1682324D01*
Y1683171D01*
X2105236Y1684017D01*
X2106083D01*
X2106929Y1683171D01*
Y1681478D01*
X2106083Y1680632D01*
X2073909Y1654812D02*
X2068831D01*
Y1657351D01*
X2069677Y1658198D01*
X2071370D01*
X2072216Y1657351D01*
Y1654812D01*
Y1656505D02*
X2073909Y1658198D01*
Y1659890D02*
Y1661583D01*
Y1660737D01*
X2068831D01*
X2069677Y1659890D01*
Y1664122D02*
X2068831Y1664969D01*
Y1666662D01*
X2069677Y1667508D01*
X2070524D01*
X2071370Y1666662D01*
Y1665815D01*
Y1666662D01*
X2072216Y1667508D01*
X2073063D01*
X2073909Y1666662D01*
Y1664969D01*
X2073063Y1664122D01*
X1945643Y1687829D02*
X1949028D01*
X1947336D01*
Y1682751D01*
X1950721D02*
Y1687829D01*
X1953260D01*
X1954107Y1686983D01*
Y1685290D01*
X1953260Y1684444D01*
X1950721D01*
X1955800Y1682751D02*
X1957492D01*
X1956646D01*
Y1687829D01*
X1955800Y1686983D01*
X1963417Y1682751D02*
X1960032D01*
X1963417Y1686136D01*
Y1686983D01*
X1962571Y1687829D01*
X1960878D01*
X1960032Y1686983D01*
X1947759Y1680209D02*
X1951144D01*
X1949452D01*
Y1675131D01*
X1952837D02*
Y1680209D01*
X1954530Y1678516D01*
X1956223Y1680209D01*
Y1675131D01*
X1961301Y1679363D02*
X1960455Y1680209D01*
X1958762D01*
X1957916Y1679363D01*
Y1678516D01*
X1958762Y1677670D01*
X1960455D01*
X1961301Y1676824D01*
Y1675977D01*
X1960455Y1675131D01*
X1958762D01*
X1957916Y1675977D01*
X1939289Y1632428D02*
X1934211D01*
Y1634967D01*
X1935057Y1635814D01*
X1936750D01*
X1937596Y1634967D01*
Y1632428D01*
Y1634121D02*
X1939289Y1635814D01*
X1935057Y1637506D02*
X1934211Y1638353D01*
Y1640046D01*
X1935057Y1640892D01*
X1935904D01*
X1936750Y1640046D01*
X1937596Y1640892D01*
X1938443D01*
X1939289Y1640046D01*
Y1638353D01*
X1938443Y1637506D01*
X1937596D01*
X1936750Y1638353D01*
X1935904Y1637506D01*
X1935057D01*
X1936750Y1638353D02*
Y1640046D01*
X1832189Y1700529D02*
X1835575D01*
X1833882D01*
Y1695451D01*
X1837268D02*
Y1700529D01*
X1839807D01*
X1840653Y1699683D01*
Y1697990D01*
X1839807Y1697144D01*
X1837268D01*
X1842346Y1695451D02*
X1844039D01*
X1843192D01*
Y1700529D01*
X1842346Y1699683D01*
X1846578Y1695451D02*
X1848271D01*
X1847424D01*
Y1700529D01*
X1846578Y1699683D01*
X1833459Y1692909D02*
X1836844D01*
X1835152D01*
Y1687831D01*
X1838537Y1692909D02*
Y1687831D01*
X1841076D01*
X1841923Y1688677D01*
Y1692063D01*
X1841076Y1692909D01*
X1838537D01*
X1846155D02*
X1844462D01*
X1843616Y1692063D01*
Y1688677D01*
X1844462Y1687831D01*
X1846155D01*
X1847001Y1688677D01*
Y1692063D01*
X1846155Y1692909D01*
X1823719Y1640418D02*
X1818641D01*
Y1642957D01*
X1819487Y1643804D01*
X1821180D01*
X1822026Y1642957D01*
Y1640418D01*
Y1642111D02*
X1823719Y1643804D01*
X1818641Y1645496D02*
Y1648882D01*
X1819487D01*
X1822873Y1645496D01*
X1823719D01*
X1734823Y1644649D02*
X1738208D01*
X1736516D01*
Y1639571D01*
X1739901D02*
Y1644649D01*
X1742440D01*
X1743287Y1643803D01*
Y1642110D01*
X1742440Y1641264D01*
X1739901D01*
X1744980Y1639571D02*
X1746672D01*
X1745826D01*
Y1644649D01*
X1744980Y1643803D01*
X1749212D02*
X1750058Y1644649D01*
X1751751D01*
X1752597Y1643803D01*
Y1640417D01*
X1751751Y1639571D01*
X1750058D01*
X1749212Y1640417D01*
Y1643803D01*
X1737785Y1637029D02*
X1741171D01*
X1739478D01*
Y1631951D01*
X1742864Y1637029D02*
Y1631951D01*
X1745403D01*
X1746249Y1632797D01*
Y1636183D01*
X1745403Y1637029D01*
X1742864D01*
X1747942D02*
X1749635D01*
X1748788D01*
Y1631951D01*
X1747942D01*
X1749635D01*
X1690369Y1646398D02*
X1685291D01*
Y1648937D01*
X1686137Y1649784D01*
X1687830D01*
X1688676Y1648937D01*
Y1646398D01*
Y1648091D02*
X1690369Y1649784D01*
X1685291Y1654862D02*
X1686137Y1653169D01*
X1687830Y1651476D01*
X1689523D01*
X1690369Y1652323D01*
Y1654016D01*
X1689523Y1654862D01*
X1688676D01*
X1687830Y1654016D01*
Y1651476D01*
X1551519Y1697989D02*
X1554904D01*
X1553212D01*
Y1692911D01*
X1556597D02*
Y1697989D01*
X1559136D01*
X1559983Y1697143D01*
Y1695450D01*
X1559136Y1694604D01*
X1556597D01*
X1561676Y1693757D02*
X1562522Y1692911D01*
X1564215D01*
X1565061Y1693757D01*
Y1697143D01*
X1564215Y1697989D01*
X1562522D01*
X1561676Y1697143D01*
Y1696296D01*
X1562522Y1695450D01*
X1565061D01*
X1551519Y1690369D02*
X1554904D01*
X1553212D01*
Y1685291D01*
X1559983Y1689523D02*
X1559136Y1690369D01*
X1557444D01*
X1556597Y1689523D01*
Y1686137D01*
X1557444Y1685291D01*
X1559136D01*
X1559983Y1686137D01*
X1561676Y1690369D02*
Y1685291D01*
Y1686984D01*
X1565061Y1690369D01*
X1562522Y1687830D01*
X1565061Y1685291D01*
X1560829Y1630258D02*
X1555751D01*
Y1632797D01*
X1556597Y1633644D01*
X1558290D01*
X1559136Y1632797D01*
Y1630258D01*
Y1631951D02*
X1560829Y1633644D01*
X1555751Y1638722D02*
Y1635336D01*
X1558290D01*
X1557444Y1637029D01*
Y1637876D01*
X1558290Y1638722D01*
X1559983D01*
X1560829Y1637876D01*
Y1636183D01*
X1559983Y1635336D01*
X1790913Y1877483D02*
X1790066Y1878329D01*
X1788374D01*
X1787527Y1877483D01*
Y1874097D01*
X1788374Y1873251D01*
X1790066D01*
X1790913Y1874097D01*
X1792605Y1873251D02*
X1794298D01*
X1793452D01*
Y1878329D01*
X1792605Y1877483D01*
X1799377Y1873251D02*
Y1878329D01*
X1796837Y1875790D01*
X1800223D01*
X1790913Y1867323D02*
X1790066Y1868169D01*
X1788374D01*
X1787527Y1867323D01*
Y1863937D01*
X1788374Y1863091D01*
X1790066D01*
X1790913Y1863937D01*
X1792605Y1863091D02*
X1794298D01*
X1793452D01*
Y1868169D01*
X1792605Y1867323D01*
X1796837D02*
X1797684Y1868169D01*
X1799377D01*
X1800223Y1867323D01*
Y1866476D01*
X1799377Y1865630D01*
X1798530D01*
X1799377D01*
X1800223Y1864784D01*
Y1863937D01*
X1799377Y1863091D01*
X1797684D01*
X1796837Y1863937D01*
X2320503Y1652693D02*
X2319656Y1653539D01*
X2317964D01*
X2317117Y1652693D01*
Y1649307D01*
X2317964Y1648461D01*
X2319656D01*
X2320503Y1649307D01*
X2322195Y1648461D02*
X2323888D01*
X2323042D01*
Y1653539D01*
X2322195Y1652693D01*
X2326427Y1653539D02*
X2329813D01*
Y1652693D01*
X2326427Y1649307D01*
Y1648461D01*
X2218268Y1636183D02*
X2217421Y1637029D01*
X2215728D01*
X2214882Y1636183D01*
Y1632797D01*
X2215728Y1631951D01*
X2217421D01*
X2218268Y1632797D01*
X2219960Y1631951D02*
X2221653D01*
X2220807D01*
Y1637029D01*
X2219960Y1636183D01*
X2227578Y1637029D02*
X2225885Y1636183D01*
X2224192Y1634490D01*
Y1632797D01*
X2225039Y1631951D01*
X2226732D01*
X2227578Y1632797D01*
Y1633644D01*
X2226732Y1634490D01*
X2224192D01*
X2093808Y1638723D02*
X2092961Y1639569D01*
X2091268D01*
X2090422Y1638723D01*
Y1635337D01*
X2091268Y1634491D01*
X2092961D01*
X2093808Y1635337D01*
X2095500Y1634491D02*
X2097193D01*
X2096347D01*
Y1639569D01*
X2095500Y1638723D01*
X2103118Y1639569D02*
X2099732D01*
Y1637030D01*
X2101425Y1637876D01*
X2102272D01*
X2103118Y1637030D01*
Y1635337D01*
X2102272Y1634491D01*
X2100579D01*
X2099732Y1635337D01*
X1974849Y1629412D02*
X1969771D01*
Y1631951D01*
X1970617Y1632798D01*
X1972310D01*
X1973156Y1631951D01*
Y1629412D01*
Y1631105D02*
X1974849Y1632798D01*
Y1634490D02*
Y1636183D01*
Y1635337D01*
X1969771D01*
X1970617Y1634490D01*
X1974849Y1642108D02*
Y1638722D01*
X1971464Y1642108D01*
X1970617D01*
X1969771Y1641262D01*
Y1639569D01*
X1970617Y1638722D01*
X1851659Y1638779D02*
X1846581D01*
Y1641318D01*
X1847427Y1642164D01*
X1849120D01*
X1849966Y1641318D01*
Y1638779D01*
Y1640471D02*
X1851659Y1642164D01*
Y1643857D02*
Y1645550D01*
Y1644703D01*
X1846581D01*
X1847427Y1643857D01*
X1851659Y1648089D02*
Y1649782D01*
Y1648935D01*
X1846581D01*
X1847427Y1648089D01*
X1722119Y1642112D02*
X1717041D01*
Y1644651D01*
X1717887Y1645498D01*
X1719580D01*
X1720426Y1644651D01*
Y1642112D01*
Y1643805D02*
X1722119Y1645498D01*
Y1647190D02*
Y1648883D01*
Y1648037D01*
X1717041D01*
X1717887Y1647190D01*
Y1651422D02*
X1717041Y1652269D01*
Y1653962D01*
X1717887Y1654808D01*
X1721273D01*
X1722119Y1653962D01*
Y1652269D01*
X1721273Y1651422D01*
X1717887D01*
X1596389Y1645498D02*
X1591311D01*
Y1648037D01*
X1592157Y1648884D01*
X1593850D01*
X1594696Y1648037D01*
Y1645498D01*
Y1647191D02*
X1596389Y1648884D01*
X1595543Y1650576D02*
X1596389Y1651423D01*
Y1653116D01*
X1595543Y1653962D01*
X1592157D01*
X1591311Y1653116D01*
Y1651423D01*
X1592157Y1650576D01*
X1593004D01*
X1593850Y1651423D01*
Y1653962D01*
X3348145Y2234353D02*
X3347298Y2235199D01*
X3345605D01*
X3344759Y2234353D01*
Y2230967D01*
X3345605Y2230121D01*
X3347298D01*
X3348145Y2230967D01*
Y2232660D01*
X3346452D01*
X3349837Y2230121D02*
Y2235199D01*
X3353223Y2230121D01*
Y2235199D01*
X3354915D02*
Y2230121D01*
X3357455D01*
X3358301Y2230967D01*
Y2234353D01*
X3357455Y2235199D01*
X3354915D01*
X3344759Y2247899D02*
X3348145D01*
X3346452D01*
Y2242821D01*
X3349837D02*
Y2247899D01*
X3352376D01*
X3353223Y2247053D01*
Y2245360D01*
X3352376Y2244514D01*
X3349837D01*
X3358301Y2247899D02*
X3354915D01*
Y2245360D01*
X3356608Y2246206D01*
X3357455D01*
X3358301Y2245360D01*
Y2243667D01*
X3357455Y2242821D01*
X3355762D01*
X3354915Y2243667D01*
X3141134Y1722543D02*
X3140288Y1723389D01*
X3138595D01*
X3137749Y1722543D01*
Y1719157D01*
X3138595Y1718311D01*
X3140288D01*
X3141134Y1719157D01*
Y1720850D01*
X3139442D01*
X3142827Y1718311D02*
Y1723389D01*
X3146213Y1718311D01*
Y1723389D01*
X3147906D02*
Y1718311D01*
X3150445D01*
X3151291Y1719157D01*
Y1722543D01*
X3150445Y1723389D01*
X3147906D01*
X3137749Y1736089D02*
X3141134D01*
X3139442D01*
Y1731011D01*
X3142827D02*
Y1736089D01*
X3145367D01*
X3146213Y1735243D01*
Y1733550D01*
X3145367Y1732704D01*
X3142827D01*
X3150445Y1731011D02*
Y1736089D01*
X3147906Y1733550D01*
X3151291D01*
X3478954Y1920663D02*
X3478108Y1921509D01*
X3476415D01*
X3475569Y1920663D01*
Y1917277D01*
X3476415Y1916431D01*
X3478108D01*
X3478954Y1917277D01*
Y1918970D01*
X3477262D01*
X3480647Y1916431D02*
Y1921509D01*
X3484033Y1916431D01*
Y1921509D01*
X3485726D02*
Y1916431D01*
X3488265D01*
X3489111Y1917277D01*
Y1920663D01*
X3488265Y1921509D01*
X3485726D01*
X3475569Y1934209D02*
X3478954D01*
X3477262D01*
Y1929131D01*
X3480647D02*
Y1934209D01*
X3483186D01*
X3484033Y1933363D01*
Y1931670D01*
X3483186Y1930824D01*
X3480647D01*
X3485726Y1933363D02*
X3486572Y1934209D01*
X3488265D01*
X3489111Y1933363D01*
Y1932516D01*
X3488265Y1931670D01*
X3487418D01*
X3488265D01*
X3489111Y1930824D01*
Y1929977D01*
X3488265Y1929131D01*
X3486572D01*
X3485726Y1929977D01*
X2563284Y2233083D02*
X2562438Y2233929D01*
X2560745D01*
X2559899Y2233083D01*
Y2229697D01*
X2560745Y2228851D01*
X2562438D01*
X2563284Y2229697D01*
Y2231390D01*
X2561592D01*
X2564977Y2228851D02*
Y2233929D01*
X2568363Y2228851D01*
Y2233929D01*
X2570056D02*
Y2228851D01*
X2572595D01*
X2573441Y2229697D01*
Y2233083D01*
X2572595Y2233929D01*
X2570056D01*
X2559899Y2246629D02*
X2563284D01*
X2561592D01*
Y2241551D01*
X2564977D02*
Y2246629D01*
X2567516D01*
X2568363Y2245783D01*
Y2244090D01*
X2567516Y2243244D01*
X2564977D01*
X2573441Y2241551D02*
X2570056D01*
X2573441Y2244936D01*
Y2245783D01*
X2572595Y2246629D01*
X2570902D01*
X2570056Y2245783D01*
X3198707Y2417658D02*
X3197861Y2416811D01*
Y2415119D01*
X3198707Y2414272D01*
X3202093D01*
X3202939Y2415119D01*
Y2416811D01*
X3202093Y2417658D01*
X3202939Y2419350D02*
Y2421043D01*
Y2420197D01*
X3197861D01*
X3198707Y2419350D01*
X3202939Y2426968D02*
Y2423582D01*
X3199554Y2426968D01*
X3198707D01*
X3197861Y2426122D01*
Y2424429D01*
X3198707Y2423582D01*
X2711451Y2457112D02*
X2716529D01*
Y2459652D01*
X2715683Y2460498D01*
X2712297D01*
X2711451Y2459652D01*
Y2457112D01*
X2716529Y2462191D02*
Y2463884D01*
Y2463037D01*
X2711451D01*
X2712297Y2462191D01*
X3140290Y2341880D02*
X3143675D01*
X3141982Y2343573D02*
Y2340187D01*
X3148754Y2339341D02*
X3145368D01*
X3148754Y2342726D01*
Y2343573D01*
X3147907Y2344419D01*
X3146215D01*
X3145368Y2343573D01*
X3152986Y2339341D02*
Y2344419D01*
X3150446Y2341880D01*
X3153832D01*
X3155525Y2344419D02*
Y2341034D01*
X3157217Y2339341D01*
X3158910Y2341034D01*
Y2344419D01*
X3142829Y2357119D02*
X3146214D01*
X3144522D01*
Y2352041D01*
X3147907D02*
Y2357119D01*
X3150446D01*
X3151293Y2356273D01*
Y2354580D01*
X3150446Y2353734D01*
X3147907D01*
X3152986Y2357119D02*
X3156371D01*
Y2356273D01*
X3152986Y2352887D01*
Y2352041D01*
X3146214Y2488353D02*
X3145368Y2489199D01*
X3143675D01*
X3142829Y2488353D01*
Y2484967D01*
X3143675Y2484121D01*
X3145368D01*
X3146214Y2484967D01*
Y2486660D01*
X3144522D01*
X3147907Y2484121D02*
Y2489199D01*
X3151293Y2484121D01*
Y2489199D01*
X3152986D02*
Y2484121D01*
X3155525D01*
X3156371Y2484967D01*
Y2488353D01*
X3155525Y2489199D01*
X3152986D01*
X3143675Y2501899D02*
X3147061D01*
X3145368D01*
Y2496821D01*
X3148754D02*
Y2501899D01*
X3151293D01*
X3152139Y2501053D01*
Y2499360D01*
X3151293Y2498514D01*
X3148754D01*
X3153832Y2496821D02*
X3155525D01*
X3154678D01*
Y2501899D01*
X3153832Y2501053D01*
X2981961Y2422738D02*
X2987039D01*
Y2426124D01*
Y2431202D02*
Y2427816D01*
X2983654Y2431202D01*
X2982807D01*
X2981961Y2430356D01*
Y2428663D01*
X2982807Y2427816D01*
X3086524Y2378709D02*
Y2373631D01*
X3089910D01*
X3091603D02*
X3093296D01*
X3092449D01*
Y2378709D01*
X3091603Y2377863D01*
X3094142Y2463801D02*
Y2468879D01*
X3090757D01*
X3089064Y2464647D02*
X3088217Y2463801D01*
X3086524D01*
X3085678Y2464647D01*
Y2465494D01*
X3086524Y2466340D01*
X3087371D01*
X3086524D01*
X3085678Y2467186D01*
Y2468033D01*
X3086524Y2468879D01*
X3088217D01*
X3089064Y2468033D01*
X2919307Y2426124D02*
X2918461Y2425277D01*
Y2423584D01*
X2919307Y2422738D01*
X2922693D01*
X2923539Y2423584D01*
Y2425277D01*
X2922693Y2426124D01*
X2918461Y2431202D02*
X2919307Y2429509D01*
X2921000Y2427816D01*
X2922693D01*
X2923539Y2428663D01*
Y2430356D01*
X2922693Y2431202D01*
X2921846D01*
X2921000Y2430356D01*
Y2427816D01*
X2741084Y2340609D02*
X2737698D01*
Y2338070D01*
X2739391D01*
X2737698D01*
Y2335531D01*
X2746162D02*
X2742776D01*
X2746162Y2338916D01*
Y2339763D01*
X2745316Y2340609D01*
X2743623D01*
X2742776Y2339763D01*
X2575565Y2296583D02*
X2578951D01*
X2577258Y2298276D02*
Y2294890D01*
X2584029Y2294044D02*
X2580644D01*
X2584029Y2297430D01*
Y2298276D01*
X2583183Y2299122D01*
X2581490D01*
X2580644Y2298276D01*
X2588261Y2294044D02*
Y2299122D01*
X2585722Y2296583D01*
X2589108D01*
X2590800Y2299122D02*
Y2295737D01*
X2592493Y2294044D01*
X2594186Y2295737D01*
Y2299122D01*
X2595879Y2293198D02*
X2599264D01*
X2600957Y2299122D02*
X2602650D01*
X2601804D01*
Y2294044D01*
X2600957D01*
X2602650D01*
X2605189D02*
Y2299122D01*
X2608575Y2294044D01*
Y2299122D01*
X2585299Y2311399D02*
X2588684D01*
X2586992D01*
Y2306321D01*
X2590377D02*
Y2311399D01*
X2592916D01*
X2593763Y2310553D01*
Y2308860D01*
X2592916Y2308014D01*
X2590377D01*
X2598841Y2311399D02*
X2597148Y2310553D01*
X2595456Y2308860D01*
Y2307167D01*
X2596302Y2306321D01*
X2597995D01*
X2598841Y2307167D01*
Y2308014D01*
X2597995Y2308860D01*
X2595456D01*
X2582760Y2382521D02*
Y2387599D01*
X2585299D01*
X2586145Y2386753D01*
Y2385060D01*
X2585299Y2384214D01*
X2582760D01*
X2591223Y2386753D02*
X2590377Y2387599D01*
X2588684D01*
X2587838Y2386753D01*
Y2383367D01*
X2588684Y2382521D01*
X2590377D01*
X2591223Y2383367D01*
Y2385060D01*
X2589531D01*
X2592916Y2382521D02*
Y2387599D01*
X2596302Y2382521D01*
Y2387599D01*
X2597995D02*
Y2382521D01*
X2600534D01*
X2601380Y2383367D01*
Y2386753D01*
X2600534Y2387599D01*
X2597995D01*
X2585299Y2400299D02*
X2588684D01*
X2586992D01*
Y2395221D01*
X2590377D02*
Y2400299D01*
X2592916D01*
X2593763Y2399453D01*
Y2397760D01*
X2592916Y2396914D01*
X2590377D01*
X2595456Y2399453D02*
X2596302Y2400299D01*
X2597995D01*
X2598841Y2399453D01*
Y2398606D01*
X2597995Y2397760D01*
X2598841Y2396914D01*
Y2396067D01*
X2597995Y2395221D01*
X2596302D01*
X2595456Y2396067D01*
Y2396914D01*
X2596302Y2397760D01*
X2595456Y2398606D01*
Y2399453D01*
X2596302Y2397760D02*
X2597995D01*
X2606041Y2346960D02*
Y2345267D01*
Y2346114D01*
X2610273D01*
X2611119Y2345267D01*
Y2344421D01*
X2610273Y2343575D01*
X2611119Y2348653D02*
Y2350346D01*
Y2349499D01*
X2606041D01*
X2606887Y2348653D01*
X2620009Y2310565D02*
Y2307180D01*
X2616624Y2310565D01*
X2615777D01*
X2614931Y2309719D01*
Y2308026D01*
X2615777Y2307180D01*
X2620009Y2317336D02*
X2614931D01*
Y2319875D01*
X2615777Y2320722D01*
X2617470D01*
X2618316Y2319875D01*
Y2317336D01*
X2614931Y2324954D02*
Y2323261D01*
X2615777Y2322415D01*
X2619163D01*
X2620009Y2323261D01*
Y2324954D01*
X2619163Y2325800D01*
X2615777D01*
X2614931Y2324954D01*
X2615777Y2330878D02*
X2614931Y2330032D01*
Y2328339D01*
X2615777Y2327493D01*
X2616624D01*
X2617470Y2328339D01*
Y2330032D01*
X2618316Y2330878D01*
X2619163D01*
X2620009Y2330032D01*
Y2328339D01*
X2619163Y2327493D01*
X2614931Y2337650D02*
Y2341035D01*
Y2339342D01*
X2620009D01*
X2614931Y2346114D02*
Y2342728D01*
X2620009D01*
Y2346114D01*
X2617470Y2342728D02*
Y2344421D01*
X2620009Y2347806D02*
X2614931D01*
Y2350346D01*
X2615777Y2351192D01*
X2617470D01*
X2618316Y2350346D01*
Y2347806D01*
Y2349499D02*
X2620009Y2351192D01*
Y2352885D02*
X2614931D01*
X2616624Y2354577D01*
X2614931Y2356270D01*
X2620009D01*
X2614931Y2363041D02*
X2620009D01*
Y2365581D01*
X2619163Y2366427D01*
X2618316D01*
X2617470Y2365581D01*
Y2363041D01*
Y2365581D01*
X2616624Y2366427D01*
X2615777D01*
X2614931Y2365581D01*
Y2363041D01*
Y2368120D02*
X2620009D01*
Y2371505D01*
X2614931Y2375737D02*
Y2374044D01*
X2615777Y2373198D01*
X2619163D01*
X2620009Y2374044D01*
Y2375737D01*
X2619163Y2376584D01*
X2615777D01*
X2614931Y2375737D01*
X2615777Y2381662D02*
X2614931Y2380816D01*
Y2379123D01*
X2615777Y2378277D01*
X2619163D01*
X2620009Y2379123D01*
Y2380816D01*
X2619163Y2381662D01*
X2614931Y2383355D02*
X2620009D01*
X2618316D01*
X2614931Y2386740D01*
X2617470Y2384201D01*
X2620009Y2386740D01*
X2781301Y2456266D02*
X2786379D01*
Y2458805D01*
X2785533Y2459652D01*
X2782147D01*
X2781301Y2458805D01*
Y2456266D01*
X2786379Y2464730D02*
Y2461344D01*
X2782993Y2464730D01*
X2782147D01*
X2781301Y2463884D01*
Y2462191D01*
X2782147Y2461344D01*
X3506893Y2374476D02*
X3507739Y2375323D01*
Y2377016D01*
X3506893Y2377862D01*
X3503507D01*
X3502661Y2377016D01*
Y2375323D01*
X3503507Y2374476D01*
X3506893Y2372784D02*
X3507739Y2371937D01*
Y2370244D01*
X3506893Y2369398D01*
X3506046D01*
X3505200Y2370244D01*
Y2371091D01*
Y2370244D01*
X3504354Y2369398D01*
X3503507D01*
X3502661Y2370244D01*
Y2371937D01*
X3503507Y2372784D01*
X3512398Y2406651D02*
Y2411729D01*
X3514937D01*
X3515784Y2410883D01*
Y2409190D01*
X3514937Y2408344D01*
X3512398D01*
X3514091D02*
X3515784Y2406651D01*
X3517477Y2410883D02*
X3518323Y2411729D01*
X3520016D01*
X3520862Y2410883D01*
Y2410036D01*
X3520016Y2409190D01*
X3519169D01*
X3520016D01*
X3520862Y2408344D01*
Y2407497D01*
X3520016Y2406651D01*
X3518323D01*
X3517477Y2407497D01*
X3503507Y1673268D02*
X3502661Y1672421D01*
Y1670728D01*
X3503507Y1669882D01*
X3506893D01*
X3507739Y1670728D01*
Y1672421D01*
X3506893Y1673268D01*
X3507739Y1678346D02*
Y1674960D01*
X3504354Y1678346D01*
X3503507D01*
X3502661Y1677500D01*
Y1675807D01*
X3503507Y1674960D01*
X3513033Y1635761D02*
Y1640839D01*
X3515572D01*
X3516418Y1639993D01*
Y1638300D01*
X3515572Y1637454D01*
X3513033D01*
X3514726D02*
X3516418Y1635761D01*
X3521497D02*
X3518111D01*
X3521497Y1639146D01*
Y1639993D01*
X3520651Y1640839D01*
X3518958D01*
X3518111Y1639993D01*
X2573867Y1674114D02*
X2573021Y1673268D01*
Y1671575D01*
X2573867Y1670728D01*
X2577253D01*
X2578099Y1671575D01*
Y1673268D01*
X2577253Y1674114D01*
X2578099Y1675807D02*
Y1677500D01*
Y1676653D01*
X2573021D01*
X2573867Y1675807D01*
X2566880Y1640839D02*
Y1635761D01*
X2564341D01*
X2563495Y1636607D01*
Y1638300D01*
X2564341Y1639146D01*
X2566880D01*
X2565188D02*
X2563495Y1640839D01*
X2561802D02*
X2560109D01*
X2560956D01*
Y1635761D01*
X2561802Y1636607D01*
M02*
