G04*
G04 #@! TF.GenerationSoftware,Altium Limited,Altium Designer,24.10.1 (45)*
G04*
G04 Layer_Physical_Order=3*
G04 Layer_Color=6736896*
%FSLAX44Y44*%
%MOMM*%
G71*
G04*
G04 #@! TF.SameCoordinates,24BC4850-7E81-497A-B660-34607D59122C*
G04*
G04*
G04 #@! TF.FilePolarity,Positive*
G04*
G01*
G75*
%ADD11C,0.5080*%
%ADD15C,0.2540*%
%ADD101C,0.7112*%
%ADD126C,1.2192*%
%ADD133C,1.0160*%
%ADD175C,0.2032*%
%ADD176O,2.0320X1.0160*%
%ADD177C,0.6604*%
%ADD178C,2.2860*%
G04:AMPARAMS|DCode=179|XSize=1.3716mm|YSize=1.3716mm|CornerRadius=0.1715mm|HoleSize=0mm|Usage=FLASHONLY|Rotation=90.000|XOffset=0mm|YOffset=0mm|HoleType=Round|Shape=RoundedRectangle|*
%AMROUNDEDRECTD179*
21,1,1.3716,1.0287,0,0,90.0*
21,1,1.0287,1.3716,0,0,90.0*
1,1,0.3429,0.5143,0.5143*
1,1,0.3429,0.5143,-0.5143*
1,1,0.3429,-0.5143,-0.5143*
1,1,0.3429,-0.5143,0.5143*
%
%ADD179ROUNDEDRECTD179*%
%ADD180C,1.3716*%
%ADD181C,1.9050*%
G04:AMPARAMS|DCode=182|XSize=2.667mm|YSize=2.667mm|CornerRadius=0.1333mm|HoleSize=0mm|Usage=FLASHONLY|Rotation=0.000|XOffset=0mm|YOffset=0mm|HoleType=Round|Shape=RoundedRectangle|*
%AMROUNDEDRECTD182*
21,1,2.6670,2.4003,0,0,0.0*
21,1,2.4003,2.6670,0,0,0.0*
1,1,0.2667,1.2002,-1.2002*
1,1,0.2667,-1.2002,-1.2002*
1,1,0.2667,-1.2002,1.2002*
1,1,0.2667,1.2002,1.2002*
%
%ADD182ROUNDEDRECTD182*%
%ADD183C,2.6670*%
G04:AMPARAMS|DCode=184|XSize=1.905mm|YSize=1.905mm|CornerRadius=0.0953mm|HoleSize=0mm|Usage=FLASHONLY|Rotation=90.000|XOffset=0mm|YOffset=0mm|HoleType=Round|Shape=RoundedRectangle|*
%AMROUNDEDRECTD184*
21,1,1.9050,1.7145,0,0,90.0*
21,1,1.7145,1.9050,0,0,90.0*
1,1,0.1905,0.8573,0.8573*
1,1,0.1905,0.8573,-0.8573*
1,1,0.1905,-0.8573,-0.8573*
1,1,0.1905,-0.8573,0.8573*
%
%ADD184ROUNDEDRECTD184*%
%ADD185C,5.0800*%
%ADD186C,0.6096*%
%ADD187C,0.3500*%
G36*
X2971800Y2417648D02*
X2970852Y2417394D01*
X2970530Y2417375D01*
X2968502Y2419403D01*
X2965954Y2420874D01*
X2963111Y2421636D01*
X2960169D01*
X2959207Y2421378D01*
X2957883Y2423672D01*
X2955802Y2425753D01*
X2953254Y2427224D01*
X2950411Y2427986D01*
X2947469D01*
X2944626Y2427224D01*
X2942590Y2426049D01*
X2940554Y2427224D01*
X2937711Y2427986D01*
X2934769D01*
X2931926Y2427224D01*
X2929378Y2425753D01*
X2927297Y2423672D01*
X2925826Y2421124D01*
X2925064Y2418281D01*
Y2415339D01*
X2925826Y2412496D01*
X2927001Y2410460D01*
X2925826Y2408424D01*
X2925064Y2405581D01*
Y2402639D01*
X2925826Y2399796D01*
X2927297Y2397248D01*
X2929378Y2395167D01*
X2931926Y2393696D01*
X2934769Y2392934D01*
X2937711D01*
X2940554Y2393696D01*
X2942590Y2394871D01*
X2944626Y2393696D01*
X2947469Y2392934D01*
X2950411D01*
X2951373Y2393192D01*
X2952697Y2390898D01*
X2954778Y2388817D01*
X2957326Y2387346D01*
X2960169Y2386584D01*
X2963111D01*
X2965954Y2387346D01*
X2968502Y2388817D01*
X2970530Y2390845D01*
X2970852Y2390826D01*
X2971800Y2390572D01*
Y2351286D01*
X2969666Y2350715D01*
X2967630Y2349539D01*
X2965594Y2350714D01*
X2962751Y2351476D01*
X2959809D01*
X2956966Y2350714D01*
X2954930Y2349539D01*
X2952894Y2350715D01*
X2950051Y2351476D01*
X2947108D01*
X2944266Y2350715D01*
X2941718Y2349243D01*
X2939637Y2347162D01*
X2938166Y2344614D01*
X2937404Y2341771D01*
Y2338829D01*
X2938166Y2335986D01*
X2939637Y2333438D01*
X2941718Y2331357D01*
X2944266Y2329886D01*
X2947108Y2329124D01*
X2950051D01*
X2952894Y2329886D01*
X2954930Y2331061D01*
X2956966Y2329886D01*
X2959809Y2329124D01*
X2962751D01*
X2965594Y2329886D01*
X2967630Y2331061D01*
X2969666Y2329886D01*
X2971800Y2329314D01*
Y2277110D01*
X2547620D01*
Y2485900D01*
X2547620Y2487898D01*
X2548141Y2491859D01*
X2549176Y2495719D01*
X2550705Y2499410D01*
X2552702Y2502870D01*
X2555135Y2506040D01*
X2557960Y2508865D01*
X2561130Y2511298D01*
X2564590Y2513295D01*
X2568282Y2514825D01*
X2572141Y2515859D01*
X2576102Y2516380D01*
X2578100Y2516380D01*
X2578100Y2516380D01*
X2971800D01*
Y2417648D01*
D02*
G37*
G36*
X3507859Y2515859D02*
X3511718Y2514825D01*
X3515410Y2513295D01*
X3518870Y2511298D01*
X3522040Y2508865D01*
X3524865Y2506040D01*
X3527297Y2502870D01*
X3529295Y2499410D01*
X3530824Y2495719D01*
X3531859Y2491859D01*
X3532380Y2487898D01*
Y2485900D01*
X3527300D01*
X3527178Y2488390D01*
X3526206Y2493273D01*
X3524301Y2497874D01*
X3521534Y2502014D01*
X3518014Y2505535D01*
X3513873Y2508301D01*
X3509273Y2510206D01*
X3504390Y2511178D01*
X3501900Y2511300D01*
Y2511300D01*
X2997200Y2511300D01*
X2997200Y2516380D01*
X3501900Y2516380D01*
X3503898D01*
X3507859Y2515859D01*
D02*
G37*
G36*
X2997200Y2256790D02*
X2992120Y2256790D01*
Y2317750D01*
X2997200D01*
Y2256790D01*
D02*
G37*
G36*
X2994660D02*
X2994660Y2251710D01*
X2552700Y2251710D01*
Y2256790D01*
X2994660Y2256790D01*
D02*
G37*
G36*
X3532380Y2485900D02*
Y1562100D01*
Y1560102D01*
X3531859Y1556141D01*
X3530824Y1552281D01*
X3529295Y1548590D01*
X3527298Y1545130D01*
X3524865Y1541960D01*
X3522040Y1539135D01*
X3518870Y1536702D01*
X3515410Y1534705D01*
X3511718Y1533176D01*
X3507859Y1532142D01*
X3503898Y1531620D01*
X2576102D01*
X2572141Y1532142D01*
X2568282Y1533176D01*
X2564590Y1534705D01*
X2561130Y1536702D01*
X2557960Y1539135D01*
X2555135Y1541960D01*
X2552702Y1545130D01*
X2550705Y1548590D01*
X2549176Y1552281D01*
X2548141Y1556141D01*
X2547620Y1560102D01*
Y1562100D01*
X2547620Y2254250D01*
X2552700Y2254250D01*
X2552700Y1562100D01*
X2552822Y1559610D01*
X2553794Y1554727D01*
X2555699Y1550126D01*
X2558466Y1545986D01*
X2561986Y1542466D01*
X2566126Y1539699D01*
X2570727Y1537794D01*
X2575610Y1536822D01*
X2578100Y1536700D01*
X3501900D01*
X3504390Y1536822D01*
X3509273Y1537794D01*
X3513874Y1539699D01*
X3518014Y1542466D01*
X3521534Y1545986D01*
X3524301Y1550126D01*
X3526206Y1554727D01*
X3527178Y1559610D01*
X3527300Y1562100D01*
X3527300D01*
X3527300Y2485900D01*
X3532380Y2485900D01*
D02*
G37*
%LPC*%
G36*
X2751021Y2455926D02*
X2748079D01*
X2745237Y2455164D01*
X2742688Y2453693D01*
X2740607Y2451612D01*
X2739136Y2449064D01*
X2738374Y2446221D01*
Y2443279D01*
X2739136Y2440436D01*
X2740311Y2438400D01*
X2739136Y2436364D01*
X2738374Y2433521D01*
Y2430579D01*
X2739136Y2427736D01*
X2740311Y2425700D01*
X2739136Y2423664D01*
X2738374Y2420821D01*
Y2417879D01*
X2738924Y2415828D01*
X2737785Y2415170D01*
X2737362Y2415593D01*
X2734814Y2417064D01*
X2731971Y2417826D01*
X2729029D01*
X2726186Y2417064D01*
X2723638Y2415593D01*
X2721557Y2413512D01*
X2720233Y2411218D01*
X2719271Y2411476D01*
X2716329D01*
X2713486Y2410714D01*
X2710938Y2409243D01*
X2708857Y2407162D01*
X2707386Y2404614D01*
X2706624Y2401771D01*
Y2398829D01*
X2707386Y2395986D01*
X2708857Y2393438D01*
X2710938Y2391357D01*
X2713486Y2389886D01*
X2716329Y2389124D01*
X2719271D01*
X2722114Y2389886D01*
X2724662Y2391357D01*
X2726743Y2393438D01*
X2728067Y2395732D01*
X2729029Y2395474D01*
X2731971D01*
X2732933Y2395732D01*
X2734257Y2393438D01*
X2736338Y2391357D01*
X2738886Y2389886D01*
X2741729Y2389124D01*
X2744671D01*
X2747514Y2389886D01*
X2750062Y2391357D01*
X2752143Y2393438D01*
X2753467Y2395732D01*
X2754429Y2395474D01*
X2757371D01*
X2758333Y2395732D01*
X2759657Y2393438D01*
X2761738Y2391357D01*
X2764286Y2389886D01*
X2767129Y2389124D01*
X2770071D01*
X2772914Y2389886D01*
X2775462Y2391357D01*
X2777543Y2393438D01*
X2778867Y2395732D01*
X2779829Y2395474D01*
X2782771D01*
X2783733Y2395732D01*
X2785057Y2393438D01*
X2787138Y2391357D01*
X2789686Y2389886D01*
X2792529Y2389124D01*
X2795471D01*
X2798314Y2389886D01*
X2800862Y2391357D01*
X2802943Y2393438D01*
X2804414Y2395986D01*
X2805176Y2398829D01*
Y2401771D01*
X2804414Y2404614D01*
X2802943Y2407162D01*
X2800862Y2409243D01*
X2798314Y2410714D01*
X2795471Y2411476D01*
X2792529D01*
X2791567Y2411218D01*
X2790243Y2413512D01*
X2788162Y2415593D01*
X2785614Y2417064D01*
X2782771Y2417826D01*
X2779829D01*
X2776986Y2417064D01*
X2774438Y2415593D01*
X2772357Y2413512D01*
X2771033Y2411218D01*
X2770071Y2411476D01*
X2767129D01*
X2766167Y2411218D01*
X2764843Y2413512D01*
X2762762Y2415593D01*
X2760468Y2416917D01*
X2760726Y2417879D01*
Y2420821D01*
X2759964Y2423664D01*
X2758789Y2425700D01*
X2759965Y2427736D01*
X2760726Y2430579D01*
Y2433521D01*
X2759965Y2436364D01*
X2758789Y2438400D01*
X2759965Y2440436D01*
X2760726Y2443279D01*
Y2446221D01*
X2759965Y2449064D01*
X2758493Y2451612D01*
X2756412Y2453693D01*
X2753864Y2455164D01*
X2751021Y2455926D01*
D02*
G37*
G36*
X2903421Y2439416D02*
X2900479D01*
X2897636Y2438654D01*
X2895088Y2437183D01*
X2893007Y2435102D01*
X2891536Y2432554D01*
X2890774Y2429711D01*
Y2426769D01*
X2891536Y2423926D01*
X2892711Y2421890D01*
X2891536Y2419854D01*
X2890774Y2417011D01*
Y2414069D01*
X2891536Y2411226D01*
X2893007Y2408678D01*
X2895088Y2406597D01*
X2897636Y2405126D01*
X2900479Y2404364D01*
X2903421D01*
X2906264Y2405126D01*
X2908812Y2406597D01*
X2910893Y2408678D01*
X2912365Y2411226D01*
X2913126Y2414069D01*
Y2417011D01*
X2912365Y2419854D01*
X2911189Y2421890D01*
X2912365Y2423926D01*
X2913126Y2426769D01*
Y2429711D01*
X2912365Y2432554D01*
X2910893Y2435102D01*
X2908812Y2437183D01*
X2906264Y2438654D01*
X2903421Y2439416D01*
D02*
G37*
G36*
X2594610Y2402694D02*
Y2393950D01*
X2603354D01*
X2602839Y2395871D01*
X2601318Y2398506D01*
X2599166Y2400658D01*
X2596531Y2402179D01*
X2594610Y2402694D01*
D02*
G37*
G36*
X2589530D02*
X2587609Y2402179D01*
X2584974Y2400658D01*
X2582822Y2398506D01*
X2581301Y2395871D01*
X2580786Y2393950D01*
X2589530D01*
Y2402694D01*
D02*
G37*
G36*
X2911242Y2390140D02*
X2907898D01*
X2904668Y2389274D01*
X2901950Y2387705D01*
X2899232Y2389274D01*
X2896002Y2390140D01*
X2892658D01*
X2889428Y2389274D01*
X2886710Y2387705D01*
X2883992Y2389274D01*
X2880762Y2390140D01*
X2877418D01*
X2874188Y2389274D01*
X2871292Y2387603D01*
X2868928Y2385238D01*
X2867256Y2382342D01*
X2866390Y2379112D01*
Y2375768D01*
X2867256Y2372538D01*
X2868825Y2369820D01*
X2867256Y2367102D01*
X2866390Y2363872D01*
Y2360528D01*
X2867256Y2357298D01*
X2868825Y2354580D01*
X2867256Y2351862D01*
X2866390Y2348632D01*
Y2345288D01*
X2867256Y2342058D01*
X2868825Y2339340D01*
X2867256Y2336622D01*
X2866390Y2333392D01*
Y2330048D01*
X2867256Y2326818D01*
X2868928Y2323922D01*
X2871292Y2321557D01*
X2874188Y2319886D01*
X2877418Y2319020D01*
X2880762D01*
X2883992Y2319886D01*
X2886710Y2321455D01*
X2889428Y2319886D01*
X2892658Y2319020D01*
X2896002D01*
X2899232Y2319886D01*
X2901950Y2321455D01*
X2904668Y2319886D01*
X2907898Y2319020D01*
X2911242D01*
X2914472Y2319886D01*
X2917368Y2321557D01*
X2919732Y2323922D01*
X2921404Y2326818D01*
X2922270Y2330048D01*
Y2333392D01*
X2921404Y2336622D01*
X2919835Y2339340D01*
X2921404Y2342058D01*
X2922270Y2345288D01*
Y2348632D01*
X2921404Y2351862D01*
X2919835Y2354580D01*
X2921404Y2357298D01*
X2922270Y2360528D01*
Y2363872D01*
X2921404Y2367102D01*
X2919835Y2369820D01*
X2921404Y2372538D01*
X2922270Y2375768D01*
Y2379112D01*
X2921404Y2382342D01*
X2919732Y2385238D01*
X2917368Y2387603D01*
X2914472Y2389274D01*
X2911242Y2390140D01*
D02*
G37*
G36*
X2603354Y2388870D02*
X2594610D01*
Y2380126D01*
X2596531Y2380641D01*
X2599166Y2382162D01*
X2601318Y2384314D01*
X2602839Y2386949D01*
X2603354Y2388870D01*
D02*
G37*
G36*
X2589530D02*
X2580786D01*
X2581301Y2386949D01*
X2582822Y2384314D01*
X2584974Y2382162D01*
X2587609Y2380641D01*
X2589530Y2380126D01*
Y2388870D01*
D02*
G37*
G36*
X2594610Y2370944D02*
Y2362200D01*
X2603354D01*
X2602839Y2364121D01*
X2601318Y2366756D01*
X2599166Y2368908D01*
X2596531Y2370429D01*
X2594610Y2370944D01*
D02*
G37*
G36*
X2589530D02*
X2587609Y2370429D01*
X2584974Y2368908D01*
X2582822Y2366756D01*
X2581301Y2364121D01*
X2580786Y2362200D01*
X2589530D01*
Y2370944D01*
D02*
G37*
G36*
X2567883Y2365756D02*
X2565457D01*
X2563217Y2364828D01*
X2561502Y2363113D01*
X2560574Y2360872D01*
Y2358447D01*
X2561502Y2356207D01*
X2563217Y2354492D01*
X2565457Y2353564D01*
X2567883D01*
X2570123Y2354492D01*
X2571838Y2356207D01*
X2572766Y2358447D01*
Y2360872D01*
X2571838Y2363113D01*
X2570123Y2364828D01*
X2567883Y2365756D01*
D02*
G37*
G36*
X2567882Y2340356D02*
X2565457D01*
X2563217Y2339428D01*
X2561502Y2337713D01*
X2560574Y2335473D01*
Y2333047D01*
X2561502Y2330807D01*
X2563217Y2329092D01*
X2565457Y2328164D01*
X2567882D01*
X2570123Y2329092D01*
X2571838Y2330807D01*
X2572766Y2333047D01*
Y2335473D01*
X2571838Y2337713D01*
X2570123Y2339428D01*
X2567882Y2340356D01*
D02*
G37*
G36*
X2833571Y2398776D02*
X2830629D01*
X2827786Y2398014D01*
X2825238Y2396543D01*
X2823157Y2394462D01*
X2821685Y2391914D01*
X2820924Y2389071D01*
Y2386129D01*
X2821685Y2383286D01*
X2823157Y2380738D01*
X2825238Y2378657D01*
X2827532Y2377333D01*
X2827274Y2376371D01*
Y2373429D01*
X2827532Y2372467D01*
X2825238Y2371143D01*
X2823157Y2369062D01*
X2821685Y2366514D01*
X2820924Y2363671D01*
Y2360729D01*
X2821685Y2357886D01*
X2823157Y2355338D01*
X2825238Y2353257D01*
X2827532Y2351933D01*
X2827274Y2350971D01*
Y2348029D01*
X2827532Y2347067D01*
X2825238Y2345743D01*
X2823157Y2343662D01*
X2821685Y2341114D01*
X2820924Y2338271D01*
Y2335329D01*
X2821685Y2332486D01*
X2823157Y2329938D01*
X2825238Y2327857D01*
X2827532Y2326533D01*
X2827274Y2325571D01*
Y2322629D01*
X2828036Y2319786D01*
X2829507Y2317238D01*
X2831588Y2315157D01*
X2834136Y2313686D01*
X2836979Y2312924D01*
X2839921D01*
X2842764Y2313686D01*
X2845312Y2315157D01*
X2847393Y2317238D01*
X2848864Y2319786D01*
X2849626Y2322629D01*
Y2325571D01*
X2848864Y2328414D01*
X2847393Y2330962D01*
X2845312Y2333043D01*
X2843018Y2334367D01*
X2843276Y2335329D01*
Y2338271D01*
X2843018Y2339233D01*
X2845312Y2340557D01*
X2847393Y2342638D01*
X2848864Y2345186D01*
X2849626Y2348029D01*
Y2350971D01*
X2848864Y2353814D01*
X2847393Y2356362D01*
X2845312Y2358443D01*
X2843018Y2359767D01*
X2843276Y2360729D01*
Y2363671D01*
X2843018Y2364633D01*
X2845312Y2365957D01*
X2847393Y2368038D01*
X2848864Y2370586D01*
X2849626Y2373429D01*
Y2376371D01*
X2848864Y2379214D01*
X2847393Y2381762D01*
X2845312Y2383843D01*
X2843018Y2385167D01*
X2843276Y2386129D01*
Y2389071D01*
X2842514Y2391914D01*
X2841043Y2394462D01*
X2838962Y2396543D01*
X2836414Y2398014D01*
X2833571Y2398776D01*
D02*
G37*
G36*
X2704402Y2376120D02*
X2680399D01*
X2678061Y2375813D01*
X2675883Y2374910D01*
X2674013Y2373475D01*
X2672578Y2371605D01*
X2671675Y2369427D01*
X2671368Y2367090D01*
Y2343087D01*
X2671675Y2340749D01*
X2672578Y2338571D01*
X2674013Y2336701D01*
X2675487Y2335570D01*
X2675860Y2334890D01*
X2675800Y2333926D01*
X2673830Y2330978D01*
X2672250Y2327164D01*
X2671445Y2323116D01*
Y2318988D01*
X2672250Y2314940D01*
X2673830Y2311126D01*
X2676123Y2307694D01*
X2679042Y2304775D01*
X2682474Y2302482D01*
X2686288Y2300902D01*
X2690336Y2300097D01*
X2694464D01*
X2698512Y2300902D01*
X2702326Y2302482D01*
X2705758Y2304775D01*
X2708677Y2307694D01*
X2710970Y2311126D01*
X2712550Y2314940D01*
X2713355Y2318988D01*
Y2323116D01*
X2712550Y2327164D01*
X2710970Y2330978D01*
X2709001Y2333926D01*
X2708940Y2334890D01*
X2709313Y2335570D01*
X2710787Y2336701D01*
X2712222Y2338571D01*
X2713124Y2340749D01*
X2713432Y2343087D01*
Y2367090D01*
X2713124Y2369427D01*
X2712222Y2371605D01*
X2710787Y2373475D01*
X2708917Y2374910D01*
X2706739Y2375813D01*
X2704402Y2376120D01*
D02*
G37*
G36*
X2793524Y2376043D02*
X2789396D01*
X2785348Y2375238D01*
X2781534Y2373658D01*
X2778102Y2371365D01*
X2775183Y2368446D01*
X2772890Y2365014D01*
X2771310Y2361200D01*
X2770505Y2357152D01*
Y2353024D01*
X2771310Y2348976D01*
X2772890Y2345162D01*
X2775183Y2341730D01*
X2778075Y2338838D01*
X2778261Y2338634D01*
Y2337507D01*
X2778075Y2337302D01*
X2775183Y2334410D01*
X2772890Y2330978D01*
X2771310Y2327164D01*
X2770505Y2323116D01*
Y2318988D01*
X2771310Y2314940D01*
X2772890Y2311126D01*
X2773777Y2309798D01*
X2773489Y2308562D01*
X2771898Y2307643D01*
X2769817Y2305562D01*
X2768346Y2303014D01*
X2767584Y2300171D01*
Y2297229D01*
X2768346Y2294386D01*
X2769817Y2291838D01*
X2771898Y2289757D01*
X2774446Y2288286D01*
X2777289Y2287524D01*
X2780231D01*
X2783074Y2288286D01*
X2785110Y2289461D01*
X2787146Y2288286D01*
X2789989Y2287524D01*
X2792931D01*
X2795774Y2288286D01*
X2797810Y2289461D01*
X2799846Y2288286D01*
X2802689Y2287524D01*
X2805631D01*
X2808474Y2288286D01*
X2811022Y2289757D01*
X2813103Y2291838D01*
X2814574Y2294386D01*
X2815336Y2297229D01*
Y2300171D01*
X2814574Y2303014D01*
X2813103Y2305562D01*
X2811022Y2307643D01*
X2809431Y2308561D01*
X2809143Y2309798D01*
X2810030Y2311126D01*
X2811610Y2314940D01*
X2812415Y2318988D01*
Y2323116D01*
X2811610Y2327164D01*
X2810030Y2330978D01*
X2807737Y2334410D01*
X2804845Y2337302D01*
X2804659Y2337507D01*
Y2338634D01*
X2804845Y2338838D01*
X2807737Y2341730D01*
X2810030Y2345162D01*
X2811610Y2348976D01*
X2812415Y2353024D01*
Y2357152D01*
X2811610Y2361200D01*
X2810030Y2365014D01*
X2807737Y2368446D01*
X2804818Y2371365D01*
X2801386Y2373658D01*
X2797572Y2375238D01*
X2793524Y2376043D01*
D02*
G37*
G36*
X2603354Y2357120D02*
X2592070D01*
X2580786D01*
X2581301Y2355199D01*
X2582765Y2352663D01*
X2582669Y2352217D01*
X2582272Y2351318D01*
X2581259Y2351184D01*
X2579174Y2350320D01*
X2577383Y2348947D01*
X2576010Y2347156D01*
X2575146Y2345070D01*
X2574851Y2342832D01*
Y2325688D01*
X2575146Y2323450D01*
X2576010Y2321364D01*
X2577383Y2319574D01*
X2579174Y2318199D01*
X2581169Y2317373D01*
X2581372Y2316852D01*
X2581548Y2316100D01*
X2581141Y2315827D01*
X2578753Y2313439D01*
X2576876Y2310631D01*
X2575584Y2307511D01*
X2574925Y2304199D01*
Y2300821D01*
X2575584Y2297509D01*
X2576876Y2294389D01*
X2578753Y2291581D01*
X2581141Y2289193D01*
X2583949Y2287316D01*
X2587069Y2286024D01*
X2590381Y2285365D01*
X2593759D01*
X2597071Y2286024D01*
X2600191Y2287316D01*
X2602999Y2289193D01*
X2605387Y2291581D01*
X2607264Y2294389D01*
X2608556Y2297509D01*
X2609215Y2300821D01*
Y2304199D01*
X2608556Y2307511D01*
X2607264Y2310631D01*
X2605387Y2313439D01*
X2602999Y2315827D01*
X2602592Y2316100D01*
X2602768Y2316852D01*
X2602971Y2317373D01*
X2604966Y2318199D01*
X2606757Y2319574D01*
X2608130Y2321364D01*
X2608994Y2323450D01*
X2609289Y2325688D01*
Y2342832D01*
X2608994Y2345070D01*
X2608130Y2347156D01*
X2606757Y2348947D01*
X2604966Y2350320D01*
X2602880Y2351184D01*
X2601868Y2351318D01*
X2601471Y2352217D01*
X2601375Y2352663D01*
X2602839Y2355199D01*
X2603354Y2357120D01*
D02*
G37*
%LPD*%
D11*
X3337560Y2374646D02*
D03*
X3345180D02*
D03*
X3329940D02*
D03*
X3337560Y2390902D02*
D03*
X3345180D02*
D03*
X3329940D02*
D03*
X3473960Y2478280D02*
D03*
X3463800Y2475558D02*
D03*
X3456426Y2468148D02*
D03*
X3453640Y2457960D02*
D03*
X3456362Y2447800D02*
D03*
X3463800Y2440363D02*
D03*
X3473960Y2437640D02*
D03*
X3484120Y2440363D02*
D03*
X3491558Y2447800D02*
D03*
X3494280Y2457960D02*
D03*
X3491558Y2468120D02*
D03*
X3484120Y2475558D02*
D03*
X3473960Y1610360D02*
D03*
X3463800Y1607637D02*
D03*
X3456426Y1600228D02*
D03*
X3453640Y1590040D02*
D03*
X3456362Y1579880D02*
D03*
X3463800Y1572442D02*
D03*
X3473960Y1569720D02*
D03*
X3484120Y1572442D02*
D03*
X3491558Y1579880D02*
D03*
X3494280Y1590040D02*
D03*
X3491558Y1600200D02*
D03*
X3484120Y1607637D02*
D03*
X2606040Y2478280D02*
D03*
X2595880Y2475558D02*
D03*
X2588506Y2468148D02*
D03*
X2585720Y2457960D02*
D03*
X2588442Y2447800D02*
D03*
X2595880Y2440362D02*
D03*
X2606040Y2437640D02*
D03*
X2616200Y2440362D02*
D03*
X2623638Y2447800D02*
D03*
X2626360Y2457960D02*
D03*
X2623638Y2468120D02*
D03*
X2616200Y2475558D02*
D03*
X2606040Y1610360D02*
D03*
X2595880Y1607638D02*
D03*
X2588506Y1600228D02*
D03*
X2585720Y1590040D02*
D03*
X2588442Y1579880D02*
D03*
X2595880Y1572442D02*
D03*
X2606040Y1569720D02*
D03*
X2616200Y1572442D02*
D03*
X2623638Y1579880D02*
D03*
X2626360Y1590040D02*
D03*
X2623638Y1600200D02*
D03*
X2616200Y1607638D02*
D03*
D15*
X3362960Y2376170D02*
Y2389140D01*
X3348990Y2403110D02*
Y2469515D01*
X3346450Y2472055D02*
X3348990Y2469515D01*
Y2403110D02*
X3362960Y2389140D01*
X3356610Y2409190D02*
Y2443480D01*
X3357245Y2444115D01*
X3289300Y2373630D02*
X3324860Y2409190D01*
X3289300Y2316480D02*
Y2373630D01*
X3324860Y2409190D02*
X3341370D01*
X3285490Y2312670D02*
X3289300Y2316480D01*
D101*
X2908350Y2468280D02*
D03*
X2921050Y2461930D02*
D03*
X2933750Y2468280D02*
D03*
X2921050Y2474630D02*
D03*
X2933750Y2480980D02*
D03*
X2908350D02*
D03*
Y2493680D02*
D03*
X2921050Y2500030D02*
D03*
X2933750Y2493680D02*
D03*
X2921050Y2487330D02*
D03*
X2961640Y2446020D02*
D03*
X2961640Y2458720D02*
D03*
X3176016Y2468878D02*
D03*
X3137916Y2475228D02*
D03*
X3163316D02*
D03*
X3150616Y2468878D02*
D03*
X3163316Y2462527D02*
D03*
X3137916D02*
D03*
X3316986Y2195830D02*
D03*
X3296666D02*
D03*
X3304286Y2202180D02*
D03*
X3283966D02*
D03*
X3271266Y2208530D02*
D03*
X3291586D02*
D03*
X3326130Y2306320D02*
D03*
X3281680Y2349500D02*
D03*
X3285490Y2312670D02*
D03*
X3293110Y2284730D02*
D03*
X3293110Y2291080D02*
D03*
X3332988Y2291080D02*
D03*
X3332989Y2278380D02*
D03*
X3332988Y2272030D02*
D03*
Y2284730D02*
D03*
X3332988Y2265680D02*
D03*
X3326638Y2284730D02*
D03*
Y2272030D02*
D03*
X3326638Y2278380D02*
D03*
X3326638Y2291080D02*
D03*
Y2265680D02*
D03*
X3293110D02*
D03*
X3293110Y2278380D02*
D03*
X3293110Y2272030D02*
D03*
X3362760Y2346490D02*
D03*
X3299260Y2346489D02*
D03*
X3299259Y2352839D02*
D03*
X3299259Y2359189D02*
D03*
X3311959Y2371889D02*
D03*
X3305609Y2365539D02*
D03*
X3311959Y2365539D02*
D03*
X3305609Y2359189D02*
D03*
X3311960Y2359189D02*
D03*
X3305609Y2352839D02*
D03*
X3311960Y2352839D02*
D03*
X3305609Y2340139D02*
D03*
X3305609Y2346489D02*
D03*
X3311960Y2340139D02*
D03*
X3311960Y2346489D02*
D03*
X3318310Y2340139D02*
D03*
X3318310Y2346489D02*
D03*
X3324659Y2340139D02*
D03*
X3324660Y2346490D02*
D03*
X3331010Y2340140D02*
D03*
X3331010Y2346490D02*
D03*
X3337360Y2340140D02*
D03*
X3337360Y2346490D02*
D03*
X3343710Y2346490D02*
D03*
X3343710Y2340140D02*
D03*
X3356410D02*
D03*
X3356410Y2346490D02*
D03*
X3350060Y2340140D02*
D03*
X3350060Y2346490D02*
D03*
X3369110Y2352840D02*
D03*
X3369110Y2359190D02*
D03*
X3350060Y2352840D02*
D03*
X3356410Y2352840D02*
D03*
X3362760Y2352840D02*
D03*
X3350060Y2359190D02*
D03*
X3356410Y2359190D02*
D03*
X3362760Y2359190D02*
D03*
X3362760Y2365540D02*
D03*
X3356410Y2365540D02*
D03*
X3299370Y2372270D02*
D03*
X3378835Y2453640D02*
D03*
X3379470Y2472105D02*
D03*
X3391662Y2378964D02*
D03*
X3379470Y2416810D02*
D03*
X3366770Y2429510D02*
D03*
X3366770Y2416810D02*
D03*
X3307080Y2437130D02*
D03*
X3294380Y2437130D02*
D03*
X3281680Y2437130D02*
D03*
X3292856Y2391410D02*
D03*
X3267456Y2385060D02*
D03*
Y2410460D02*
D03*
X3254756Y2404110D02*
D03*
Y2391410D02*
D03*
X3267456Y2397760D02*
D03*
X3280156Y2391410D02*
D03*
X3125470Y2499360D02*
D03*
X3112770Y2505710D02*
D03*
X3100070Y2499360D02*
D03*
Y2486660D02*
D03*
X3112770Y2493010D02*
D03*
X2579370Y2373630D02*
D03*
X1602740Y2171700D02*
D03*
X1629410Y2164080D02*
D03*
X1639570Y2162810D02*
D03*
X1601470Y2161540D02*
D03*
X1637030Y2218690D02*
D03*
X1652270Y2217420D02*
D03*
X1642110Y2195830D02*
D03*
X1610360Y2200910D02*
D03*
Y2179320D02*
D03*
X1620520D02*
D03*
X3027680Y2488438D02*
D03*
X3040380Y2488438D02*
D03*
X3125470Y2486660D02*
D03*
X3112770Y2480310D02*
D03*
X2971800Y2513840D02*
D03*
X3505200Y2365756D02*
D03*
Y1681988D02*
D03*
X2575560Y1681480D02*
D03*
X3500630Y2409700D02*
D03*
X3500630Y1638300D02*
D03*
X2579370Y1638300D02*
D03*
X3040380Y2475738D02*
D03*
Y2463038D02*
D03*
X3027680Y2463038D02*
D03*
Y2475738D02*
D03*
X3150616Y2456178D02*
D03*
X3176016D02*
D03*
Y2397760D02*
D03*
X3163316Y2391410D02*
D03*
X3150616Y2397760D02*
D03*
X3137916Y2391410D02*
D03*
X3099816Y2397760D02*
D03*
X3125216D02*
D03*
X3112516Y2391410D02*
D03*
X3027680Y2392172D02*
D03*
X3040380Y2392172D02*
D03*
X3027680Y2366772D02*
D03*
Y2379472D02*
D03*
X3040380Y2379472D02*
D03*
Y2366772D02*
D03*
X3006280Y2340300D02*
D03*
X2993580Y2340300D02*
D03*
X3018980D02*
D03*
X2973980D02*
D03*
X2948580D02*
D03*
X2961280Y2340300D02*
D03*
X2936240Y2404110D02*
D03*
Y2416810D02*
D03*
X2948940Y2416810D02*
D03*
X2961640Y2410460D02*
D03*
X2948940Y2404110D02*
D03*
X2974340D02*
D03*
X2961640Y2397760D02*
D03*
X2901950Y2415540D02*
D03*
Y2428240D02*
D03*
X2838450Y2324100D02*
D03*
Y2349500D02*
D03*
X2832100Y2336800D02*
D03*
Y2362200D02*
D03*
X2838450Y2374900D02*
D03*
X2832100Y2387600D02*
D03*
X2778760Y2298700D02*
D03*
X2804160D02*
D03*
X2791460Y2298700D02*
D03*
X2749550Y2444750D02*
D03*
X2749550Y2432050D02*
D03*
X2749550Y2419350D02*
D03*
X2781300Y2406650D02*
D03*
X2794000Y2400300D02*
D03*
X2768600D02*
D03*
X2755900Y2406650D02*
D03*
X2743200Y2400300D02*
D03*
X2730500Y2406650D02*
D03*
X2717800Y2400300D02*
D03*
X2994661Y2279646D02*
D03*
X2994661Y2266947D02*
D03*
X2994661Y2254247D02*
D03*
X2981961Y2254247D02*
D03*
X2969261Y2292347D02*
D03*
X2969261Y2305047D02*
D03*
X2969261Y2317747D02*
D03*
X2994660Y2317750D02*
D03*
X2994660Y2305050D02*
D03*
X2994660Y2292350D02*
D03*
X2562860Y2254250D02*
D03*
X2575560Y2254250D02*
D03*
X2600960Y2254250D02*
D03*
X2588260Y2254250D02*
D03*
X2626360Y2254249D02*
D03*
X2613660Y2254250D02*
D03*
X2689861Y2254249D02*
D03*
X2702560Y2254249D02*
D03*
X2664460Y2254249D02*
D03*
X2677160Y2254249D02*
D03*
X2651760Y2254249D02*
D03*
X2639060Y2254249D02*
D03*
X2715260Y2254249D02*
D03*
X2753361Y2254248D02*
D03*
X2740660Y2254249D02*
D03*
X2727961Y2254249D02*
D03*
X2791461Y2254248D02*
D03*
X2778760Y2254248D02*
D03*
X2766060Y2254248D02*
D03*
X2829561Y2254248D02*
D03*
X2816861Y2254248D02*
D03*
X2804160Y2254248D02*
D03*
X2867661Y2254247D02*
D03*
X2854961Y2254248D02*
D03*
X2842261Y2254248D02*
D03*
X2905761Y2254247D02*
D03*
X2893061Y2254247D02*
D03*
X2880361Y2254247D02*
D03*
X2943861Y2254247D02*
D03*
X2931161Y2254247D02*
D03*
X2918461Y2254247D02*
D03*
X2969261Y2254247D02*
D03*
X2956561Y2254247D02*
D03*
X2550160Y2254250D02*
D03*
X2550160Y2279650D02*
D03*
X2956561Y2279647D02*
D03*
X2969261Y2279647D02*
D03*
X2918461Y2279647D02*
D03*
X2931161Y2279647D02*
D03*
X2943861Y2279647D02*
D03*
X2880361Y2279647D02*
D03*
X2893061Y2279647D02*
D03*
X2905761Y2279647D02*
D03*
X2842261Y2279648D02*
D03*
X2854961Y2279648D02*
D03*
X2867661Y2279648D02*
D03*
X2804160Y2279648D02*
D03*
X2816860Y2279648D02*
D03*
X2829561Y2279648D02*
D03*
X2766060Y2279648D02*
D03*
X2778760Y2279648D02*
D03*
X2791461Y2279648D02*
D03*
X2727961Y2279649D02*
D03*
X2740660Y2279648D02*
D03*
X2753360Y2279648D02*
D03*
X2715260Y2279649D02*
D03*
X2639060Y2279649D02*
D03*
X2651760Y2279649D02*
D03*
X2677160Y2279649D02*
D03*
X2664460Y2279649D02*
D03*
X2702560Y2279649D02*
D03*
X2689860Y2279649D02*
D03*
X2613660Y2279650D02*
D03*
X2626360Y2279649D02*
D03*
X2588260Y2279650D02*
D03*
X2600960Y2279650D02*
D03*
X2575560Y2279650D02*
D03*
X2562860Y2279650D02*
D03*
X2553903Y2499870D02*
D03*
X2564130Y2510097D02*
D03*
X3515870Y2510097D02*
D03*
X3526096Y2499870D02*
D03*
X3526097Y1548130D02*
D03*
X3515870Y1537903D02*
D03*
X2564130Y1537903D02*
D03*
X2553903Y1548130D02*
D03*
X2603500Y1534160D02*
D03*
X2590800D02*
D03*
X3476500Y1534160D02*
D03*
X3501900D02*
D03*
X3451100D02*
D03*
X3425700D02*
D03*
X3400300D02*
D03*
X2628900Y1534160D02*
D03*
X2654300D02*
D03*
X2679700D02*
D03*
X2705100D02*
D03*
X2730500D02*
D03*
X2755900D02*
D03*
X2781300D02*
D03*
X2806700D02*
D03*
X2832100D02*
D03*
X2857500D02*
D03*
X2882900D02*
D03*
X2908300D02*
D03*
X2933700D02*
D03*
X2959100D02*
D03*
X2984500D02*
D03*
X3040000D02*
D03*
X3374900Y1534160D02*
D03*
X3349500D02*
D03*
X3324100Y1534160D02*
D03*
X3298700Y1534160D02*
D03*
X3273300D02*
D03*
X3247900D02*
D03*
X3222500D02*
D03*
X3197100D02*
D03*
X3171700D02*
D03*
X3146300D02*
D03*
X3120900D02*
D03*
X3095500Y1534160D02*
D03*
X3070100Y1534160D02*
D03*
X3009900Y1534160D02*
D03*
X2578100D02*
D03*
X2616200Y1534160D02*
D03*
X2641600D02*
D03*
X2667000D02*
D03*
X2692400D02*
D03*
X2717800D02*
D03*
X2743200D02*
D03*
X2768600D02*
D03*
X2794000D02*
D03*
X2819400D02*
D03*
X2844800D02*
D03*
X2870200D02*
D03*
X2895600D02*
D03*
X2921000D02*
D03*
X2946400D02*
D03*
X2971800D02*
D03*
X2997200D02*
D03*
X3082800Y1534160D02*
D03*
X3108200Y1534160D02*
D03*
X3133600D02*
D03*
X3159000Y1534160D02*
D03*
X3184400Y1534160D02*
D03*
X3209800Y1534160D02*
D03*
X3235200D02*
D03*
X3260600D02*
D03*
X3286000D02*
D03*
X3311400Y1534160D02*
D03*
X3336800Y1534160D02*
D03*
X3362200D02*
D03*
X3387600D02*
D03*
X3413000Y1534160D02*
D03*
X3438400Y1534160D02*
D03*
X3463800D02*
D03*
X3489200D02*
D03*
X3024950Y1534160D02*
D03*
X3055050D02*
D03*
X3529840Y2460500D02*
D03*
Y2473200D02*
D03*
X3529840Y1587500D02*
D03*
Y1562100D02*
D03*
Y1612900D02*
D03*
Y1638300D02*
D03*
Y1663700D02*
D03*
X3529840Y2435100D02*
D03*
Y2409700D02*
D03*
Y2384300D02*
D03*
Y2358900D02*
D03*
Y2333500D02*
D03*
Y2308100D02*
D03*
Y2282700D02*
D03*
Y2257300D02*
D03*
Y2231900D02*
D03*
Y2206500D02*
D03*
Y2181100D02*
D03*
Y2155700D02*
D03*
Y2130300D02*
D03*
Y2104900D02*
D03*
Y2079500D02*
D03*
Y2024000D02*
D03*
X3529840Y1689100D02*
D03*
Y1714500D02*
D03*
X3529840Y1739900D02*
D03*
X3529840Y1765300D02*
D03*
Y1790700D02*
D03*
Y1816100D02*
D03*
Y1841500D02*
D03*
Y1866900D02*
D03*
Y1892300D02*
D03*
Y1917700D02*
D03*
Y1943100D02*
D03*
X3529840Y1968500D02*
D03*
X3529840Y1993900D02*
D03*
X3529840Y2054100D02*
D03*
Y2485900D02*
D03*
X3529840Y2447800D02*
D03*
Y2422400D02*
D03*
Y2397000D02*
D03*
Y2371600D02*
D03*
Y2346200D02*
D03*
Y2320800D02*
D03*
Y2295400D02*
D03*
Y2270000D02*
D03*
Y2244600D02*
D03*
Y2219200D02*
D03*
Y2193800D02*
D03*
Y2168400D02*
D03*
Y2143000D02*
D03*
Y2117600D02*
D03*
Y2092200D02*
D03*
Y2066800D02*
D03*
X3529840Y1981200D02*
D03*
X3529840Y1955800D02*
D03*
Y1930400D02*
D03*
X3529840Y1905000D02*
D03*
X3529840Y1879600D02*
D03*
X3529840Y1854200D02*
D03*
Y1828800D02*
D03*
Y1803400D02*
D03*
Y1778000D02*
D03*
X3529840Y1752600D02*
D03*
X3529840Y1727200D02*
D03*
Y1701800D02*
D03*
Y1676400D02*
D03*
X3529840Y1651000D02*
D03*
X3529840Y1625600D02*
D03*
Y1600200D02*
D03*
Y1574800D02*
D03*
X3529840Y2039050D02*
D03*
Y2008950D02*
D03*
X2550160Y2460500D02*
D03*
Y2473200D02*
D03*
X2550160Y1587500D02*
D03*
Y1562100D02*
D03*
Y1612900D02*
D03*
Y1638300D02*
D03*
Y1663700D02*
D03*
X2550160Y2435100D02*
D03*
Y2409700D02*
D03*
Y2384300D02*
D03*
Y2358900D02*
D03*
Y2333500D02*
D03*
Y2308100D02*
D03*
Y2231900D02*
D03*
Y2206500D02*
D03*
Y2181100D02*
D03*
Y2155700D02*
D03*
Y2130300D02*
D03*
Y2104900D02*
D03*
Y2079500D02*
D03*
Y2024000D02*
D03*
X2550160Y1689100D02*
D03*
Y1714500D02*
D03*
X2550160Y1739900D02*
D03*
X2550160Y1765300D02*
D03*
Y1790700D02*
D03*
Y1816100D02*
D03*
Y1841500D02*
D03*
Y1866900D02*
D03*
Y1892300D02*
D03*
Y1917700D02*
D03*
Y1943100D02*
D03*
X2550160Y1968500D02*
D03*
X2550160Y1993900D02*
D03*
X2550160Y2054100D02*
D03*
Y2485900D02*
D03*
X2550160Y2447800D02*
D03*
Y2422400D02*
D03*
Y2397000D02*
D03*
Y2371600D02*
D03*
Y2346200D02*
D03*
Y2320800D02*
D03*
Y2295400D02*
D03*
Y2244600D02*
D03*
Y2219200D02*
D03*
Y2193800D02*
D03*
Y2168400D02*
D03*
Y2143000D02*
D03*
Y2117600D02*
D03*
Y2092200D02*
D03*
Y2066800D02*
D03*
X2550160Y1981200D02*
D03*
X2550160Y1955800D02*
D03*
Y1930400D02*
D03*
X2550160Y1905000D02*
D03*
X2550160Y1879600D02*
D03*
X2550160Y1854200D02*
D03*
Y1828800D02*
D03*
Y1803400D02*
D03*
Y1778000D02*
D03*
X2550160Y1752600D02*
D03*
X2550160Y1727200D02*
D03*
Y1701800D02*
D03*
Y1676400D02*
D03*
X2550160Y1651000D02*
D03*
X2550160Y1625600D02*
D03*
Y1600200D02*
D03*
Y1574800D02*
D03*
X2550160Y2039050D02*
D03*
Y2008950D02*
D03*
X3055050Y2513840D02*
D03*
X3024950D02*
D03*
X3489200Y2513840D02*
D03*
X3463800D02*
D03*
X3438400D02*
D03*
X3413000D02*
D03*
X3387600D02*
D03*
X3362200D02*
D03*
X3336800D02*
D03*
X3311400D02*
D03*
X3286000D02*
D03*
X3260600D02*
D03*
X3235200D02*
D03*
X3209800D02*
D03*
X3184400D02*
D03*
X3159000D02*
D03*
X3133600D02*
D03*
X3108200D02*
D03*
X3082800D02*
D03*
X2997200Y2513840D02*
D03*
X2946400D02*
D03*
X2921000D02*
D03*
X2895600D02*
D03*
X2870200D02*
D03*
X2844800D02*
D03*
X2819400D02*
D03*
X2794000D02*
D03*
X2768600D02*
D03*
X2743200D02*
D03*
X2717800D02*
D03*
X2692400D02*
D03*
X2667000D02*
D03*
X2641600D02*
D03*
X2616200D02*
D03*
X2578100Y2513840D02*
D03*
X3009900D02*
D03*
X3070100Y2513840D02*
D03*
X3095500D02*
D03*
X3120900D02*
D03*
X3146300D02*
D03*
X3171700D02*
D03*
X3197100D02*
D03*
X3222500D02*
D03*
X3247900D02*
D03*
X3273300D02*
D03*
X3298700D02*
D03*
X3324100D02*
D03*
X3349500D02*
D03*
X3374900D02*
D03*
X3040000Y2513840D02*
D03*
X2959100D02*
D03*
X2933700D02*
D03*
X2908300D02*
D03*
X2882900D02*
D03*
X2857500D02*
D03*
X2832100D02*
D03*
X2806700D02*
D03*
X2781300D02*
D03*
X2755900D02*
D03*
X2730500D02*
D03*
X2705100D02*
D03*
X2679700D02*
D03*
X2654300D02*
D03*
X2628900D02*
D03*
X3400300Y2513840D02*
D03*
X3425700D02*
D03*
X3451100D02*
D03*
X3501900D02*
D03*
X3476500D02*
D03*
X2590800Y2513840D02*
D03*
X2603500D02*
D03*
D126*
X2566670Y2334260D02*
D03*
X2566670Y2359660D02*
D03*
D133*
X2879090Y2331720D02*
D03*
X2909570D02*
D03*
Y2362200D02*
D03*
X2879090D02*
D03*
X2909570Y2377440D02*
D03*
X2894330D02*
D03*
X2879090D02*
D03*
X2894330Y2362200D02*
D03*
Y2331720D02*
D03*
Y2346960D02*
D03*
X2909570D02*
D03*
X2879090D02*
D03*
D175*
X2907792Y2270080D02*
X2909485Y2271773D01*
X2912870D01*
X2914563Y2270080D01*
Y2268387D01*
X2912870Y2266694D01*
X2911178D01*
X2912870D01*
X2914563Y2265002D01*
Y2263309D01*
X2912870Y2261616D01*
X2909485D01*
X2907792Y2263309D01*
D176*
X3507740Y1901808D02*
D03*
X3451740D02*
D03*
X3507740Y1811808D02*
D03*
X3451740D02*
D03*
X3507740Y2038180D02*
D03*
X3451740D02*
D03*
X3507740Y1948180D02*
D03*
X3451740D02*
D03*
D177*
X3466740Y1880808D02*
D03*
Y1872808D02*
D03*
Y1864808D02*
D03*
Y1832808D02*
D03*
Y1840808D02*
D03*
Y1848808D02*
D03*
X3459740Y1860808D02*
D03*
Y1868808D02*
D03*
Y1887308D02*
D03*
Y1826308D02*
D03*
Y1844808D02*
D03*
Y1852808D02*
D03*
X3466740Y1894058D02*
D03*
Y1819558D02*
D03*
X3466740Y2017180D02*
D03*
Y2009180D02*
D03*
X3466740Y2001180D02*
D03*
X3466740Y1969180D02*
D03*
Y1977180D02*
D03*
Y1985180D02*
D03*
X3459740Y1997180D02*
D03*
Y2005180D02*
D03*
Y2023680D02*
D03*
Y1962680D02*
D03*
Y1981180D02*
D03*
Y1989180D02*
D03*
X3466740Y2030430D02*
D03*
X3466740Y1955930D02*
D03*
D178*
X3045260Y1561630D02*
D03*
X3172660D02*
D03*
X3240840D02*
D03*
X3368240D02*
D03*
D179*
X3434080Y2287270D02*
D03*
X3200400Y2395220D02*
D03*
D180*
X3434080Y2338070D02*
D03*
X3200400Y2446020D02*
D03*
D181*
X3351530Y2278380D02*
D03*
Y2239010D02*
D03*
X3144520Y1727200D02*
D03*
X3482340Y1925320D02*
D03*
X2566670Y2237740D02*
D03*
X3149600Y2348230D02*
D03*
Y2493010D02*
D03*
X2592070Y2302510D02*
D03*
Y2391410D02*
D03*
Y2359660D02*
D03*
D182*
X2692400Y2355088D02*
D03*
D183*
Y2321052D02*
D03*
X2791460D02*
D03*
X2791460Y2355088D02*
D03*
D184*
X2592070Y2334260D02*
D03*
D185*
X3473960Y2457960D02*
D03*
X3473960Y1590040D02*
D03*
X2606040Y2457960D02*
D03*
X2606040Y1590040D02*
D03*
D186*
X3362960Y2376170D02*
D03*
X3356610Y2409190D02*
D03*
X3346450Y2472055D02*
D03*
X3341370Y2409190D02*
D03*
X3324860Y2357120D02*
D03*
X3329940D02*
D03*
X3335020D02*
D03*
X3340100D02*
D03*
X3357245Y2444115D02*
D03*
D187*
X3196125Y1947478D02*
D03*
X3190468Y1953134D02*
D03*
X3184811Y1947478D02*
D03*
X3196125Y1936164D02*
D03*
X3190468Y1941821D02*
D03*
X3190468Y1930507D02*
D03*
Y1919193D02*
D03*
X3184811Y1936164D02*
D03*
X3184811Y1913537D02*
D03*
X3190468Y1907880D02*
D03*
X3162184Y1981419D02*
D03*
Y1970105D02*
D03*
Y1958791D02*
D03*
Y1947478D02*
D03*
X3156527Y1987076D02*
D03*
Y1975762D02*
D03*
Y1953134D02*
D03*
Y1941821D02*
D03*
X3156527Y1964448D02*
D03*
X3139556Y1970105D02*
D03*
Y1958791D02*
D03*
Y1947478D02*
D03*
Y1936164D02*
D03*
X3133900Y1964448D02*
D03*
X3139556Y1924850D02*
D03*
X3207438Y1902223D02*
D03*
Y1890909D02*
D03*
X3201782Y1885252D02*
D03*
X3162184Y1890909D02*
D03*
X3167841Y1873939D02*
D03*
X3179154Y1964448D02*
D03*
X3173497Y1970105D02*
D03*
Y1958791D02*
D03*
X3167841Y1964448D02*
D03*
Y1953134D02*
D03*
X3179154Y1930507D02*
D03*
X3179154Y1919193D02*
D03*
X3173497Y1936164D02*
D03*
X3167841Y1930507D02*
D03*
X3179154Y1941821D02*
D03*
X3167841Y1975762D02*
D03*
X3122586Y1987076D02*
D03*
Y1975762D02*
D03*
Y1953134D02*
D03*
Y1941821D02*
D03*
Y1930507D02*
D03*
Y1919193D02*
D03*
X3122586Y1964448D02*
D03*
Y1998389D02*
D03*
X3094301Y1823027D02*
D03*
X3116929Y1811713D02*
D03*
X3122586Y1839998D02*
D03*
X3133900Y1817370D02*
D03*
X3235723Y1907880D02*
D03*
X3235723Y1896566D02*
D03*
X3230066Y1902223D02*
D03*
Y1913537D02*
D03*
X3162184Y1823027D02*
D03*
X3156527Y1817370D02*
D03*
X3150870Y1823027D02*
D03*
X3145213Y1817370D02*
D03*
X3139556Y1823027D02*
D03*
X3111272Y1817370D02*
D03*
X3105615Y1823027D02*
D03*
X3105615Y1811713D02*
D03*
X3099958Y1817370D02*
D03*
X3179154Y1862625D02*
D03*
X3139556Y1811713D02*
D03*
X3128242Y1800399D02*
D03*
X3122586Y1806056D02*
D03*
X3139556Y1800399D02*
D03*
X3133900Y1806056D02*
D03*
X3128242Y1811713D02*
D03*
X3116929Y1879595D02*
D03*
Y1924850D02*
D03*
X3116929Y1868282D02*
D03*
Y1902223D02*
D03*
Y1856968D02*
D03*
Y1845654D02*
D03*
X3116929Y1823027D02*
D03*
X3122586Y1817370D02*
D03*
Y1828684D02*
D03*
X3116929Y1834341D02*
D03*
X3128242Y1924850D02*
D03*
X3088645Y1930507D02*
D03*
X3082988Y1936164D02*
D03*
X3077331Y1941821D02*
D03*
X3088645Y1907880D02*
D03*
Y1919193D02*
D03*
X3082988Y1924850D02*
D03*
X3082988Y1913537D02*
D03*
X3077331Y1919193D02*
D03*
Y1907880D02*
D03*
Y1930507D02*
D03*
X3071674Y1913537D02*
D03*
Y1902223D02*
D03*
X3082988Y1902223D02*
D03*
X3054703Y1941821D02*
D03*
X3049047Y1936164D02*
D03*
X3054703Y1907880D02*
D03*
X3054703Y1919193D02*
D03*
X3049047Y1924850D02*
D03*
Y1913537D02*
D03*
X3054703Y1930507D02*
D03*
Y1896566D02*
D03*
X3094301Y1924850D02*
D03*
Y1902223D02*
D03*
Y1913537D02*
D03*
Y1947478D02*
D03*
X3111272Y1907880D02*
D03*
Y1896566D02*
D03*
Y1941821D02*
D03*
X3105615Y1947478D02*
D03*
Y1936164D02*
D03*
X3099958Y1941821D02*
D03*
X3111272Y1930507D02*
D03*
X3105615Y1890909D02*
D03*
X3105615Y1913537D02*
D03*
X3099958Y1919193D02*
D03*
Y1907880D02*
D03*
X3105615Y1902223D02*
D03*
X3082988Y1879595D02*
D03*
X3077331Y1885252D02*
D03*
Y1873939D02*
D03*
X3082988Y1868282D02*
D03*
X3077331Y1862625D02*
D03*
X3071674Y1856968D02*
D03*
X3066017Y1873939D02*
D03*
X3066017Y1862625D02*
D03*
Y1885252D02*
D03*
Y1851311D02*
D03*
X3071674Y1947478D02*
D03*
X3071674Y1936164D02*
D03*
X3071674Y1890909D02*
D03*
X3071674Y1924850D02*
D03*
Y1879595D02*
D03*
Y1868282D02*
D03*
X3105615Y1845654D02*
D03*
X3105615Y1834341D02*
D03*
X3099958Y1851311D02*
D03*
Y1839997D02*
D03*
Y1828684D02*
D03*
X3094301Y1834341D02*
D03*
X3094301Y1845654D02*
D03*
X3088645Y1839997D02*
D03*
X3088645Y1851311D02*
D03*
X3082988Y1845654D02*
D03*
Y1834341D02*
D03*
X3077331Y1839997D02*
D03*
X3088645Y1828684D02*
D03*
X3111272Y1873939D02*
D03*
X3105615Y1868282D02*
D03*
X3111272Y1862625D02*
D03*
Y1839997D02*
D03*
X3111272Y1828684D02*
D03*
X3105615Y1856968D02*
D03*
X3094301D02*
D03*
X3099958Y1862625D02*
D03*
X3066017Y1941821D02*
D03*
X3060360Y1936164D02*
D03*
X3066017Y1930507D02*
D03*
Y1919193D02*
D03*
Y1907880D02*
D03*
Y1896566D02*
D03*
X3060360Y1902223D02*
D03*
X3060360Y1924850D02*
D03*
Y1913537D02*
D03*
Y1947478D02*
D03*
X3049047Y1902223D02*
D03*
X3043390Y1919193D02*
D03*
X3043390Y1907880D02*
D03*
Y1896566D02*
D03*
X3037733Y1924850D02*
D03*
Y1913537D02*
D03*
X3037733Y1902223D02*
D03*
X3032076Y1919193D02*
D03*
Y1907880D02*
D03*
Y1896566D02*
D03*
X3026419Y1902223D02*
D03*
X3026419Y1913537D02*
D03*
X3043390Y1930507D02*
D03*
X3099958Y1885252D02*
D03*
Y1896566D02*
D03*
X3094301Y1890909D02*
D03*
Y1879595D02*
D03*
X3088645Y1873939D02*
D03*
X3088645Y1885252D02*
D03*
X3082988Y1890909D02*
D03*
X3077331Y1896566D02*
D03*
X3088645Y1896566D02*
D03*
X3060360Y1879595D02*
D03*
Y1856968D02*
D03*
X3054703Y1873939D02*
D03*
X3060360Y1890909D02*
D03*
X3054703Y1885252D02*
D03*
Y1862625D02*
D03*
X3049047Y1879595D02*
D03*
Y1868282D02*
D03*
Y1890909D02*
D03*
X3037733Y1890909D02*
D03*
X3043390Y1885252D02*
D03*
X3037733Y1879595D02*
D03*
X3032076Y1885252D02*
D03*
X3026419Y1890909D02*
D03*
X3213095Y1873939D02*
D03*
X3196125Y1856968D02*
D03*
X3190468Y1851311D02*
D03*
X3190468Y1862625D02*
D03*
X3184811Y1856968D02*
D03*
X3173497Y1845654D02*
D03*
X3167841Y1839998D02*
D03*
X3162184Y1845654D02*
D03*
X3156527Y1851311D02*
D03*
X3162184Y1834341D02*
D03*
X3173497Y1913537D02*
D03*
X3167841Y1919193D02*
D03*
X3162184Y1924850D02*
D03*
Y1913537D02*
D03*
X3156527Y1919193D02*
D03*
X3150870Y1913537D02*
D03*
X3173497Y1924850D02*
D03*
X3179154Y1907880D02*
D03*
X3128242Y1981419D02*
D03*
Y1992733D02*
D03*
Y1970105D02*
D03*
Y1947478D02*
D03*
Y1936164D02*
D03*
X3128242Y1958791D02*
D03*
X3128242Y1913537D02*
D03*
X3145213Y1998389D02*
D03*
Y1987076D02*
D03*
X3139556Y1992733D02*
D03*
Y1981419D02*
D03*
X3133900Y1987076D02*
D03*
Y1975762D02*
D03*
Y1941821D02*
D03*
Y1930507D02*
D03*
Y1919193D02*
D03*
Y1953134D02*
D03*
Y1998389D02*
D03*
X3150870Y1981419D02*
D03*
Y1970105D02*
D03*
Y1958791D02*
D03*
Y1947478D02*
D03*
X3150870Y1936164D02*
D03*
X3145213Y1964448D02*
D03*
Y1941821D02*
D03*
Y1930507D02*
D03*
X3145213Y1953134D02*
D03*
Y1975762D02*
D03*
X3150870Y1992733D02*
D03*
X3201782Y1896566D02*
D03*
X3196125Y1902223D02*
D03*
Y1890909D02*
D03*
X3190468Y1885252D02*
D03*
Y1896566D02*
D03*
X3184811Y1868282D02*
D03*
X3184811Y1890909D02*
D03*
Y1879595D02*
D03*
X3179154Y1873939D02*
D03*
X3179154Y1885252D02*
D03*
X3173497Y1902223D02*
D03*
Y1868282D02*
D03*
Y1879595D02*
D03*
X3167841Y1907880D02*
D03*
X3167841Y1896566D02*
D03*
X3162184Y1902223D02*
D03*
X3156527Y1907880D02*
D03*
Y1896566D02*
D03*
X3156527Y1885252D02*
D03*
X3150870Y1902223D02*
D03*
X3150870Y1890909D02*
D03*
X3145213Y1896566D02*
D03*
Y1907880D02*
D03*
X3139556Y1902223D02*
D03*
Y1868282D02*
D03*
X3207438Y1879595D02*
D03*
X3201782Y1873939D02*
D03*
X3196125Y1879595D02*
D03*
X3190468Y1873939D02*
D03*
X3196125Y1868282D02*
D03*
X3207439Y1868282D02*
D03*
X3128242D02*
D03*
X3139556Y1879595D02*
D03*
X3133900Y1862625D02*
D03*
Y1873938D02*
D03*
Y1885252D02*
D03*
X3128242Y1890909D02*
D03*
X3145213Y1873939D02*
D03*
X3128242Y1879595D02*
D03*
Y1856968D02*
D03*
X3122586Y1862625D02*
D03*
X3122586Y1885252D02*
D03*
Y1873938D02*
D03*
Y1851311D02*
D03*
X3167841Y1828684D02*
D03*
X3156527Y1839997D02*
D03*
Y1828684D02*
D03*
X3150870Y1834341D02*
D03*
X3150870Y1845654D02*
D03*
X3145213Y1839997D02*
D03*
Y1851311D02*
D03*
X3139556Y1845654D02*
D03*
X3139556Y1834341D02*
D03*
X3133900Y1839998D02*
D03*
X3145213Y1828684D02*
D03*
X3128242Y1834341D02*
D03*
X3133900Y1828684D02*
D03*
X3128242Y1823027D02*
D03*
X3162184Y1856968D02*
D03*
X3156527Y1862625D02*
D03*
X3150870Y1856968D02*
D03*
X3167841Y1851311D02*
D03*
X3224409Y1896566D02*
D03*
Y1919193D02*
D03*
Y1907880D02*
D03*
X3218752Y1879595D02*
D03*
X3218752Y1890909D02*
D03*
X3224409Y1885252D02*
D03*
X3207438Y1936164D02*
D03*
X3207438Y1913537D02*
D03*
X3201782Y1941821D02*
D03*
Y1919193D02*
D03*
X3201782Y1907880D02*
D03*
Y1930507D02*
D03*
X3196125Y1913537D02*
D03*
X3196125Y1924850D02*
D03*
X3184811D02*
D03*
X3213095Y1885252D02*
D03*
X3213095Y1896566D02*
D03*
X3207439Y1924850D02*
D03*
X3213095Y1919193D02*
D03*
X3213095Y1907880D02*
D03*
X3218752Y1902223D02*
D03*
X3218752Y1913537D02*
D03*
X3213095Y1930507D02*
D03*
X3218752Y1924850D02*
D03*
X3150870Y1811713D02*
D03*
X3133900Y1794743D02*
D03*
X3122586D02*
D03*
X3111272Y1998389D02*
D03*
X3116929Y1992733D02*
D03*
X3116929Y1981419D02*
D03*
X3111272Y1987076D02*
D03*
Y1975762D02*
D03*
X3116929Y1970105D02*
D03*
Y1958791D02*
D03*
Y1936164D02*
D03*
X3116929Y1947478D02*
D03*
X3111272Y1964448D02*
D03*
X3111272Y1851311D02*
D03*
X3116929Y1800399D02*
D03*
X3111272Y1806056D02*
D03*
Y1953134D02*
D03*
X3105615Y1992733D02*
D03*
Y1981419D02*
D03*
Y1970105D02*
D03*
Y1958791D02*
D03*
X3099958Y1987076D02*
D03*
Y1975762D02*
D03*
Y1964448D02*
D03*
Y1953134D02*
D03*
X3094301Y1981419D02*
D03*
Y1970105D02*
D03*
Y1958791D02*
D03*
X3088645Y1964448D02*
D03*
X3088645Y1953134D02*
D03*
Y1975762D02*
D03*
X3082988Y1958791D02*
D03*
X3077331Y1964448D02*
D03*
X3066017Y1953134D02*
D03*
X3082988Y1970105D02*
D03*
X3139556Y2004046D02*
D03*
X3133900Y2009703D02*
D03*
X3128242Y2004046D02*
D03*
X3116929D02*
D03*
X3122586Y2009703D02*
D03*
M02*
