G04*
G04 #@! TF.GenerationSoftware,Altium Limited,Altium Designer,24.10.1 (45)*
G04*
G04 Layer_Physical_Order=2*
G04 Layer_Color=16776960*
%FSLAX44Y44*%
%MOMM*%
G71*
G04*
G04 #@! TF.SameCoordinates,24BC4850-7E81-497A-B660-34607D59122C*
G04*
G04*
G04 #@! TF.FilePolarity,Positive*
G04*
G01*
G75*
%ADD11C,0.5080*%
%ADD101C,0.7112*%
%ADD126C,1.2192*%
%ADD133C,1.0160*%
%ADD175C,0.2032*%
%ADD176O,2.0320X1.0160*%
%ADD177C,0.6604*%
%ADD178C,2.2860*%
G04:AMPARAMS|DCode=179|XSize=1.3716mm|YSize=1.3716mm|CornerRadius=0.1715mm|HoleSize=0mm|Usage=FLASHONLY|Rotation=90.000|XOffset=0mm|YOffset=0mm|HoleType=Round|Shape=RoundedRectangle|*
%AMROUNDEDRECTD179*
21,1,1.3716,1.0287,0,0,90.0*
21,1,1.0287,1.3716,0,0,90.0*
1,1,0.3429,0.5143,0.5143*
1,1,0.3429,0.5143,-0.5143*
1,1,0.3429,-0.5143,-0.5143*
1,1,0.3429,-0.5143,0.5143*
%
%ADD179ROUNDEDRECTD179*%
%ADD180C,1.3716*%
%ADD181C,1.9050*%
G04:AMPARAMS|DCode=182|XSize=2.667mm|YSize=2.667mm|CornerRadius=0.1333mm|HoleSize=0mm|Usage=FLASHONLY|Rotation=0.000|XOffset=0mm|YOffset=0mm|HoleType=Round|Shape=RoundedRectangle|*
%AMROUNDEDRECTD182*
21,1,2.6670,2.4003,0,0,0.0*
21,1,2.4003,2.6670,0,0,0.0*
1,1,0.2667,1.2002,-1.2002*
1,1,0.2667,-1.2002,-1.2002*
1,1,0.2667,-1.2002,1.2002*
1,1,0.2667,1.2002,1.2002*
%
%ADD182ROUNDEDRECTD182*%
%ADD183C,2.6670*%
G04:AMPARAMS|DCode=184|XSize=1.905mm|YSize=1.905mm|CornerRadius=0.0953mm|HoleSize=0mm|Usage=FLASHONLY|Rotation=90.000|XOffset=0mm|YOffset=0mm|HoleType=Round|Shape=RoundedRectangle|*
%AMROUNDEDRECTD184*
21,1,1.9050,1.7145,0,0,90.0*
21,1,1.7145,1.9050,0,0,90.0*
1,1,0.1905,0.8573,0.8573*
1,1,0.1905,0.8573,-0.8573*
1,1,0.1905,-0.8573,-0.8573*
1,1,0.1905,-0.8573,0.8573*
%
%ADD184ROUNDEDRECTD184*%
%ADD185C,5.0800*%
%ADD186C,0.6096*%
%ADD187C,0.3500*%
G36*
X2971800Y2417648D02*
X2970852Y2417394D01*
X2970530Y2417375D01*
X2968502Y2419403D01*
X2965954Y2420874D01*
X2963111Y2421636D01*
X2960169D01*
X2959207Y2421378D01*
X2957883Y2423672D01*
X2955802Y2425753D01*
X2953254Y2427224D01*
X2950411Y2427986D01*
X2947469D01*
X2944626Y2427224D01*
X2942590Y2426049D01*
X2940554Y2427224D01*
X2937711Y2427986D01*
X2934769D01*
X2931926Y2427224D01*
X2929378Y2425753D01*
X2927297Y2423672D01*
X2925826Y2421124D01*
X2925064Y2418281D01*
Y2415339D01*
X2925826Y2412496D01*
X2927001Y2410460D01*
X2925826Y2408424D01*
X2925064Y2405581D01*
Y2402639D01*
X2925826Y2399796D01*
X2927297Y2397248D01*
X2929378Y2395167D01*
X2931926Y2393696D01*
X2934769Y2392934D01*
X2937711D01*
X2940554Y2393696D01*
X2942590Y2394871D01*
X2944626Y2393696D01*
X2947469Y2392934D01*
X2950411D01*
X2951373Y2393192D01*
X2952697Y2390898D01*
X2954778Y2388817D01*
X2957326Y2387346D01*
X2960169Y2386584D01*
X2963111D01*
X2965954Y2387346D01*
X2968502Y2388817D01*
X2970530Y2390845D01*
X2970852Y2390826D01*
X2971800Y2390572D01*
Y2351286D01*
X2969666Y2350715D01*
X2967630Y2349539D01*
X2965594Y2350714D01*
X2962751Y2351476D01*
X2959809D01*
X2956966Y2350714D01*
X2954930Y2349539D01*
X2952894Y2350715D01*
X2950051Y2351476D01*
X2947108D01*
X2944266Y2350715D01*
X2941718Y2349243D01*
X2939637Y2347162D01*
X2938166Y2344614D01*
X2937404Y2341771D01*
Y2338829D01*
X2938166Y2335986D01*
X2939637Y2333438D01*
X2941718Y2331357D01*
X2944266Y2329886D01*
X2947108Y2329124D01*
X2950051D01*
X2952894Y2329886D01*
X2954930Y2331061D01*
X2956966Y2329886D01*
X2959809Y2329124D01*
X2962751D01*
X2965594Y2329886D01*
X2967630Y2331061D01*
X2969666Y2329886D01*
X2971800Y2329314D01*
Y2277110D01*
X2547620D01*
Y2485900D01*
X2547620Y2487898D01*
X2548141Y2491859D01*
X2549176Y2495719D01*
X2550705Y2499410D01*
X2552702Y2502870D01*
X2555135Y2506040D01*
X2557960Y2508865D01*
X2561130Y2511298D01*
X2564590Y2513295D01*
X2568282Y2514825D01*
X2572141Y2515859D01*
X2576102Y2516380D01*
X2578100Y2516380D01*
X2578100Y2516380D01*
X2971800D01*
Y2417648D01*
D02*
G37*
G36*
X3501900Y2516379D02*
X3501900Y2516379D01*
X3503897Y2516380D01*
X3507859Y2515858D01*
X3511718Y2514824D01*
X3515410Y2513295D01*
X3518870Y2511297D01*
X3522040Y2508865D01*
X3524865Y2506040D01*
X3527297Y2502870D01*
X3529295Y2499410D01*
X3530824Y2495719D01*
X3531859Y2491859D01*
X3532380Y2487898D01*
X3532380Y2485900D01*
X3532380Y1562100D01*
Y1560102D01*
X3531859Y1556141D01*
X3530824Y1552281D01*
X3529295Y1548590D01*
X3527298Y1545130D01*
X3524865Y1541960D01*
X3522040Y1539135D01*
X3518870Y1536702D01*
X3515410Y1534705D01*
X3511718Y1533176D01*
X3507859Y1532142D01*
X3503898Y1531620D01*
X2578100D01*
X2576102Y1531620D01*
X2572141Y1532141D01*
X2568281Y1533176D01*
X2564590Y1534704D01*
X2561130Y1536702D01*
X2557960Y1539135D01*
X2555135Y1541960D01*
X2552702Y1545130D01*
X2550704Y1548590D01*
X2549176Y1552281D01*
X2548141Y1556141D01*
X2547620Y1560102D01*
X2547620Y1562100D01*
Y1574800D01*
Y2256790D01*
X2990850D01*
Y2334789D01*
X2991906Y2335495D01*
X2992570Y2335220D01*
X2994590D01*
X2996458Y2335993D01*
X2997887Y2337422D01*
X2998660Y2339290D01*
Y2341311D01*
X2997887Y2343178D01*
X2996458Y2344607D01*
X2994590Y2345380D01*
X2992570D01*
X2991906Y2345105D01*
X2990850Y2345811D01*
Y2516380D01*
X3501899D01*
X3501900Y2516379D01*
D02*
G37*
%LPC*%
G36*
X2751021Y2455926D02*
X2748079D01*
X2745237Y2455164D01*
X2742688Y2453693D01*
X2740607Y2451612D01*
X2739136Y2449064D01*
X2738374Y2446221D01*
Y2443279D01*
X2739136Y2440436D01*
X2740311Y2438400D01*
X2739136Y2436364D01*
X2738374Y2433521D01*
Y2430579D01*
X2739136Y2427736D01*
X2740311Y2425700D01*
X2739136Y2423664D01*
X2738374Y2420821D01*
Y2417879D01*
X2738924Y2415828D01*
X2737785Y2415170D01*
X2737362Y2415593D01*
X2734814Y2417064D01*
X2731971Y2417826D01*
X2729029D01*
X2726186Y2417064D01*
X2723638Y2415593D01*
X2721557Y2413512D01*
X2720233Y2411218D01*
X2719271Y2411476D01*
X2716329D01*
X2713486Y2410714D01*
X2710938Y2409243D01*
X2708857Y2407162D01*
X2707386Y2404614D01*
X2706624Y2401771D01*
Y2398829D01*
X2707386Y2395986D01*
X2708857Y2393438D01*
X2710938Y2391357D01*
X2713486Y2389886D01*
X2716329Y2389124D01*
X2719271D01*
X2722114Y2389886D01*
X2724662Y2391357D01*
X2726743Y2393438D01*
X2728067Y2395732D01*
X2729029Y2395474D01*
X2731971D01*
X2732933Y2395732D01*
X2734257Y2393438D01*
X2736338Y2391357D01*
X2738886Y2389886D01*
X2741729Y2389124D01*
X2744671D01*
X2747514Y2389886D01*
X2750062Y2391357D01*
X2752143Y2393438D01*
X2753467Y2395732D01*
X2754429Y2395474D01*
X2757371D01*
X2758333Y2395732D01*
X2759657Y2393438D01*
X2761738Y2391357D01*
X2764286Y2389886D01*
X2767129Y2389124D01*
X2770071D01*
X2772914Y2389886D01*
X2775462Y2391357D01*
X2777543Y2393438D01*
X2778867Y2395732D01*
X2779829Y2395474D01*
X2782771D01*
X2783733Y2395732D01*
X2785057Y2393438D01*
X2787138Y2391357D01*
X2789686Y2389886D01*
X2792529Y2389124D01*
X2795471D01*
X2798314Y2389886D01*
X2800862Y2391357D01*
X2802943Y2393438D01*
X2804414Y2395986D01*
X2805176Y2398829D01*
Y2401771D01*
X2804414Y2404614D01*
X2802943Y2407162D01*
X2800862Y2409243D01*
X2798314Y2410714D01*
X2795471Y2411476D01*
X2792529D01*
X2791567Y2411218D01*
X2790243Y2413512D01*
X2788162Y2415593D01*
X2785614Y2417064D01*
X2782771Y2417826D01*
X2779829D01*
X2776986Y2417064D01*
X2774438Y2415593D01*
X2772357Y2413512D01*
X2771033Y2411218D01*
X2770071Y2411476D01*
X2767129D01*
X2766167Y2411218D01*
X2764843Y2413512D01*
X2762762Y2415593D01*
X2760468Y2416917D01*
X2760726Y2417879D01*
Y2420821D01*
X2759964Y2423664D01*
X2758789Y2425700D01*
X2759965Y2427736D01*
X2760726Y2430579D01*
Y2433521D01*
X2759965Y2436364D01*
X2758789Y2438400D01*
X2759965Y2440436D01*
X2760726Y2443279D01*
Y2446221D01*
X2759965Y2449064D01*
X2758493Y2451612D01*
X2756412Y2453693D01*
X2753864Y2455164D01*
X2751021Y2455926D01*
D02*
G37*
G36*
X2903421Y2439416D02*
X2900479D01*
X2897636Y2438654D01*
X2895088Y2437183D01*
X2893007Y2435102D01*
X2891536Y2432554D01*
X2890774Y2429711D01*
Y2426769D01*
X2891536Y2423926D01*
X2892711Y2421890D01*
X2891536Y2419854D01*
X2890774Y2417011D01*
Y2414069D01*
X2891536Y2411226D01*
X2893007Y2408678D01*
X2895088Y2406597D01*
X2897636Y2405126D01*
X2900479Y2404364D01*
X2903421D01*
X2906264Y2405126D01*
X2908812Y2406597D01*
X2910893Y2408678D01*
X2912365Y2411226D01*
X2913126Y2414069D01*
Y2417011D01*
X2912365Y2419854D01*
X2911189Y2421890D01*
X2912365Y2423926D01*
X2913126Y2426769D01*
Y2429711D01*
X2912365Y2432554D01*
X2910893Y2435102D01*
X2908812Y2437183D01*
X2906264Y2438654D01*
X2903421Y2439416D01*
D02*
G37*
G36*
X2594610Y2402694D02*
Y2393950D01*
X2603354D01*
X2602839Y2395871D01*
X2601318Y2398506D01*
X2599166Y2400658D01*
X2596531Y2402179D01*
X2594610Y2402694D01*
D02*
G37*
G36*
X2589530D02*
X2587609Y2402179D01*
X2584974Y2400658D01*
X2582822Y2398506D01*
X2581301Y2395871D01*
X2580786Y2393950D01*
X2589530D01*
Y2402694D01*
D02*
G37*
G36*
X2911242Y2390140D02*
X2907898D01*
X2904668Y2389274D01*
X2901950Y2387705D01*
X2899232Y2389274D01*
X2896002Y2390140D01*
X2892658D01*
X2889428Y2389274D01*
X2886710Y2387705D01*
X2883992Y2389274D01*
X2880762Y2390140D01*
X2877418D01*
X2874188Y2389274D01*
X2871292Y2387603D01*
X2868928Y2385238D01*
X2867256Y2382342D01*
X2866390Y2379112D01*
Y2375768D01*
X2867256Y2372538D01*
X2868825Y2369820D01*
X2867256Y2367102D01*
X2866390Y2363872D01*
Y2360528D01*
X2867256Y2357298D01*
X2868825Y2354580D01*
X2867256Y2351862D01*
X2866390Y2348632D01*
Y2345288D01*
X2867256Y2342058D01*
X2868825Y2339340D01*
X2867256Y2336622D01*
X2866390Y2333392D01*
Y2330048D01*
X2867256Y2326818D01*
X2868928Y2323922D01*
X2871292Y2321557D01*
X2874188Y2319886D01*
X2877418Y2319020D01*
X2880762D01*
X2883992Y2319886D01*
X2886710Y2321455D01*
X2889428Y2319886D01*
X2892658Y2319020D01*
X2896002D01*
X2899232Y2319886D01*
X2901950Y2321455D01*
X2904668Y2319886D01*
X2907898Y2319020D01*
X2911242D01*
X2914472Y2319886D01*
X2917368Y2321557D01*
X2919732Y2323922D01*
X2921404Y2326818D01*
X2922270Y2330048D01*
Y2333392D01*
X2921404Y2336622D01*
X2919835Y2339340D01*
X2921404Y2342058D01*
X2922270Y2345288D01*
Y2348632D01*
X2921404Y2351862D01*
X2919835Y2354580D01*
X2921404Y2357298D01*
X2922270Y2360528D01*
Y2363872D01*
X2921404Y2367102D01*
X2919835Y2369820D01*
X2921404Y2372538D01*
X2922270Y2375768D01*
Y2379112D01*
X2921404Y2382342D01*
X2919732Y2385238D01*
X2917368Y2387603D01*
X2914472Y2389274D01*
X2911242Y2390140D01*
D02*
G37*
G36*
X2603354Y2388870D02*
X2594610D01*
Y2380126D01*
X2596531Y2380641D01*
X2599166Y2382162D01*
X2601318Y2384314D01*
X2602839Y2386949D01*
X2603354Y2388870D01*
D02*
G37*
G36*
X2589530D02*
X2580786D01*
X2581301Y2386949D01*
X2582822Y2384314D01*
X2584974Y2382162D01*
X2587609Y2380641D01*
X2589530Y2380126D01*
Y2388870D01*
D02*
G37*
G36*
X2594610Y2370944D02*
Y2362200D01*
X2603354D01*
X2602839Y2364121D01*
X2601318Y2366756D01*
X2599166Y2368908D01*
X2596531Y2370429D01*
X2594610Y2370944D01*
D02*
G37*
G36*
X2589530D02*
X2587609Y2370429D01*
X2584974Y2368908D01*
X2582822Y2366756D01*
X2581301Y2364121D01*
X2580786Y2362200D01*
X2589530D01*
Y2370944D01*
D02*
G37*
G36*
X2567883Y2365756D02*
X2565457D01*
X2563217Y2364828D01*
X2561502Y2363113D01*
X2560574Y2360872D01*
Y2358447D01*
X2561502Y2356207D01*
X2563217Y2354492D01*
X2565457Y2353564D01*
X2567883D01*
X2570123Y2354492D01*
X2571838Y2356207D01*
X2572766Y2358447D01*
Y2360872D01*
X2571838Y2363113D01*
X2570123Y2364828D01*
X2567883Y2365756D01*
D02*
G37*
G36*
X2567882Y2340356D02*
X2565457D01*
X2563217Y2339428D01*
X2561502Y2337713D01*
X2560574Y2335473D01*
Y2333047D01*
X2561502Y2330807D01*
X2563217Y2329092D01*
X2565457Y2328164D01*
X2567882D01*
X2570123Y2329092D01*
X2571838Y2330807D01*
X2572766Y2333047D01*
Y2335473D01*
X2571838Y2337713D01*
X2570123Y2339428D01*
X2567882Y2340356D01*
D02*
G37*
G36*
X2833571Y2398776D02*
X2830629D01*
X2827786Y2398014D01*
X2825238Y2396543D01*
X2823157Y2394462D01*
X2821685Y2391914D01*
X2820924Y2389071D01*
Y2386129D01*
X2821685Y2383286D01*
X2823157Y2380738D01*
X2825238Y2378657D01*
X2827532Y2377333D01*
X2827274Y2376371D01*
Y2373429D01*
X2827532Y2372467D01*
X2825238Y2371143D01*
X2823157Y2369062D01*
X2821685Y2366514D01*
X2820924Y2363671D01*
Y2360729D01*
X2821685Y2357886D01*
X2823157Y2355338D01*
X2825238Y2353257D01*
X2827532Y2351933D01*
X2827274Y2350971D01*
Y2348029D01*
X2827532Y2347067D01*
X2825238Y2345743D01*
X2823157Y2343662D01*
X2821685Y2341114D01*
X2820924Y2338271D01*
Y2335329D01*
X2821685Y2332486D01*
X2823157Y2329938D01*
X2825238Y2327857D01*
X2827532Y2326533D01*
X2827274Y2325571D01*
Y2322629D01*
X2828036Y2319786D01*
X2829507Y2317238D01*
X2831588Y2315157D01*
X2834136Y2313686D01*
X2836979Y2312924D01*
X2839921D01*
X2842764Y2313686D01*
X2845312Y2315157D01*
X2847393Y2317238D01*
X2848864Y2319786D01*
X2849626Y2322629D01*
Y2325571D01*
X2848864Y2328414D01*
X2847393Y2330962D01*
X2845312Y2333043D01*
X2843018Y2334367D01*
X2843276Y2335329D01*
Y2338271D01*
X2843018Y2339233D01*
X2845312Y2340557D01*
X2847393Y2342638D01*
X2848864Y2345186D01*
X2849626Y2348029D01*
Y2350971D01*
X2848864Y2353814D01*
X2847393Y2356362D01*
X2845312Y2358443D01*
X2843018Y2359767D01*
X2843276Y2360729D01*
Y2363671D01*
X2843018Y2364633D01*
X2845312Y2365957D01*
X2847393Y2368038D01*
X2848864Y2370586D01*
X2849626Y2373429D01*
Y2376371D01*
X2848864Y2379214D01*
X2847393Y2381762D01*
X2845312Y2383843D01*
X2843018Y2385167D01*
X2843276Y2386129D01*
Y2389071D01*
X2842514Y2391914D01*
X2841043Y2394462D01*
X2838962Y2396543D01*
X2836414Y2398014D01*
X2833571Y2398776D01*
D02*
G37*
G36*
X2704402Y2376120D02*
X2680399D01*
X2678061Y2375813D01*
X2675883Y2374910D01*
X2674013Y2373475D01*
X2672578Y2371605D01*
X2671675Y2369427D01*
X2671368Y2367090D01*
Y2343087D01*
X2671675Y2340749D01*
X2672578Y2338571D01*
X2674013Y2336701D01*
X2675487Y2335570D01*
X2675860Y2334890D01*
X2675800Y2333926D01*
X2673830Y2330978D01*
X2672250Y2327164D01*
X2671445Y2323116D01*
Y2318988D01*
X2672250Y2314940D01*
X2673830Y2311126D01*
X2676123Y2307694D01*
X2679042Y2304775D01*
X2682474Y2302482D01*
X2686288Y2300902D01*
X2690336Y2300097D01*
X2694464D01*
X2698512Y2300902D01*
X2702326Y2302482D01*
X2705758Y2304775D01*
X2708677Y2307694D01*
X2710970Y2311126D01*
X2712550Y2314940D01*
X2713355Y2318988D01*
Y2323116D01*
X2712550Y2327164D01*
X2710970Y2330978D01*
X2709001Y2333926D01*
X2708940Y2334890D01*
X2709313Y2335570D01*
X2710787Y2336701D01*
X2712222Y2338571D01*
X2713124Y2340749D01*
X2713432Y2343087D01*
Y2367090D01*
X2713124Y2369427D01*
X2712222Y2371605D01*
X2710787Y2373475D01*
X2708917Y2374910D01*
X2706739Y2375813D01*
X2704402Y2376120D01*
D02*
G37*
G36*
X2793524Y2376043D02*
X2789396D01*
X2785348Y2375238D01*
X2781534Y2373658D01*
X2778102Y2371365D01*
X2775183Y2368446D01*
X2772890Y2365014D01*
X2771310Y2361200D01*
X2770505Y2357152D01*
Y2353024D01*
X2771310Y2348976D01*
X2772890Y2345162D01*
X2775183Y2341730D01*
X2778075Y2338838D01*
X2778261Y2338634D01*
Y2337507D01*
X2778075Y2337302D01*
X2775183Y2334410D01*
X2772890Y2330978D01*
X2771310Y2327164D01*
X2770505Y2323116D01*
Y2318988D01*
X2771310Y2314940D01*
X2772890Y2311126D01*
X2773777Y2309798D01*
X2773489Y2308562D01*
X2771898Y2307643D01*
X2769817Y2305562D01*
X2768346Y2303014D01*
X2767584Y2300171D01*
Y2297229D01*
X2768346Y2294386D01*
X2769817Y2291838D01*
X2771898Y2289757D01*
X2774446Y2288286D01*
X2777289Y2287524D01*
X2780231D01*
X2783074Y2288286D01*
X2785110Y2289461D01*
X2787146Y2288286D01*
X2789989Y2287524D01*
X2792931D01*
X2795774Y2288286D01*
X2797810Y2289461D01*
X2799846Y2288286D01*
X2802689Y2287524D01*
X2805631D01*
X2808474Y2288286D01*
X2811022Y2289757D01*
X2813103Y2291838D01*
X2814574Y2294386D01*
X2815336Y2297229D01*
Y2300171D01*
X2814574Y2303014D01*
X2813103Y2305562D01*
X2811022Y2307643D01*
X2809431Y2308561D01*
X2809143Y2309798D01*
X2810030Y2311126D01*
X2811610Y2314940D01*
X2812415Y2318988D01*
Y2323116D01*
X2811610Y2327164D01*
X2810030Y2330978D01*
X2807737Y2334410D01*
X2804845Y2337302D01*
X2804659Y2337507D01*
Y2338634D01*
X2804845Y2338838D01*
X2807737Y2341730D01*
X2810030Y2345162D01*
X2811610Y2348976D01*
X2812415Y2353024D01*
Y2357152D01*
X2811610Y2361200D01*
X2810030Y2365014D01*
X2807737Y2368446D01*
X2804818Y2371365D01*
X2801386Y2373658D01*
X2797572Y2375238D01*
X2793524Y2376043D01*
D02*
G37*
G36*
X2603354Y2357120D02*
X2592070D01*
X2580786D01*
X2581301Y2355199D01*
X2582765Y2352663D01*
X2582669Y2352217D01*
X2582272Y2351318D01*
X2581259Y2351184D01*
X2579174Y2350320D01*
X2577383Y2348947D01*
X2576010Y2347156D01*
X2575146Y2345070D01*
X2574851Y2342832D01*
Y2325688D01*
X2575146Y2323450D01*
X2576010Y2321364D01*
X2577383Y2319574D01*
X2579174Y2318199D01*
X2581169Y2317373D01*
X2581372Y2316852D01*
X2581548Y2316100D01*
X2581141Y2315827D01*
X2578753Y2313439D01*
X2576876Y2310631D01*
X2575584Y2307511D01*
X2574925Y2304199D01*
Y2300821D01*
X2575584Y2297509D01*
X2576876Y2294389D01*
X2578753Y2291581D01*
X2581141Y2289193D01*
X2583949Y2287316D01*
X2587069Y2286024D01*
X2590381Y2285365D01*
X2593759D01*
X2597071Y2286024D01*
X2600191Y2287316D01*
X2602999Y2289193D01*
X2605387Y2291581D01*
X2607264Y2294389D01*
X2608556Y2297509D01*
X2609215Y2300821D01*
Y2304199D01*
X2608556Y2307511D01*
X2607264Y2310631D01*
X2605387Y2313439D01*
X2602999Y2315827D01*
X2602592Y2316100D01*
X2602768Y2316852D01*
X2602971Y2317373D01*
X2604966Y2318199D01*
X2606757Y2319574D01*
X2608130Y2321364D01*
X2608994Y2323450D01*
X2609289Y2325688D01*
Y2342832D01*
X2608994Y2345070D01*
X2608130Y2347156D01*
X2606757Y2348947D01*
X2604966Y2350320D01*
X2602880Y2351184D01*
X2601868Y2351318D01*
X2601471Y2352217D01*
X2601375Y2352663D01*
X2602839Y2355199D01*
X2603354Y2357120D01*
D02*
G37*
G36*
X3152140Y2504294D02*
Y2495550D01*
X3160884D01*
X3160369Y2497471D01*
X3158848Y2500106D01*
X3156696Y2502258D01*
X3154061Y2503779D01*
X3152140Y2504294D01*
D02*
G37*
G36*
X3147060D02*
X3145139Y2503779D01*
X3142504Y2502258D01*
X3140352Y2500106D01*
X3138831Y2497471D01*
X3138316Y2495550D01*
X3147060D01*
Y2504294D01*
D02*
G37*
G36*
X3041390Y2493518D02*
X3039370D01*
X3037502Y2492745D01*
X3036073Y2491316D01*
X3035300Y2489449D01*
Y2487428D01*
X3036073Y2485560D01*
X3037502Y2484131D01*
X3039370Y2483358D01*
X3041390D01*
X3043258Y2484131D01*
X3044687Y2485560D01*
X3045460Y2487428D01*
Y2489449D01*
X3044687Y2491316D01*
X3043258Y2492745D01*
X3041390Y2493518D01*
D02*
G37*
G36*
X3028690Y2493518D02*
X3026670D01*
X3024803Y2492745D01*
X3023373Y2491316D01*
X3022600Y2489448D01*
Y2487428D01*
X3023373Y2485560D01*
X3024803Y2484131D01*
X3026670Y2483358D01*
X3028690D01*
X3030558Y2484131D01*
X3031987Y2485560D01*
X3032760Y2487428D01*
Y2489448D01*
X3031987Y2491316D01*
X3030558Y2492745D01*
X3028690Y2493518D01*
D02*
G37*
G36*
X3160884Y2490470D02*
X3152140D01*
Y2481726D01*
X3154061Y2482241D01*
X3156696Y2483762D01*
X3158848Y2485914D01*
X3160369Y2488549D01*
X3160884Y2490470D01*
D02*
G37*
G36*
X3147060D02*
X3138316D01*
X3138831Y2488549D01*
X3140352Y2485914D01*
X3142504Y2483762D01*
X3145139Y2482241D01*
X3147060Y2481726D01*
Y2490470D01*
D02*
G37*
G36*
X3028690Y2480818D02*
X3026670D01*
X3024803Y2480045D01*
X3023373Y2478616D01*
X3022600Y2476748D01*
Y2474727D01*
X3023373Y2472860D01*
X3024803Y2471431D01*
X3026670Y2470658D01*
X3028690D01*
X3030558Y2471431D01*
X3031987Y2472860D01*
X3032760Y2474727D01*
Y2476748D01*
X3031987Y2478616D01*
X3030558Y2480045D01*
X3028690Y2480818D01*
D02*
G37*
G36*
X3041390Y2480818D02*
X3039370D01*
X3037502Y2480045D01*
X3036073Y2478616D01*
X3035300Y2476748D01*
Y2474727D01*
X3036073Y2472860D01*
X3037502Y2471431D01*
X3039370Y2470658D01*
X3041390D01*
X3043258Y2471431D01*
X3044687Y2472860D01*
X3045460Y2474727D01*
Y2476748D01*
X3044687Y2478616D01*
X3043258Y2480045D01*
X3041390Y2480818D01*
D02*
G37*
G36*
X3347359Y2476627D02*
X3345540D01*
X3343860Y2475931D01*
X3342574Y2474645D01*
X3341878Y2472964D01*
Y2471146D01*
X3342574Y2469465D01*
X3343860Y2468179D01*
X3345540Y2467483D01*
X3347359D01*
X3349040Y2468179D01*
X3350326Y2469465D01*
X3351022Y2471146D01*
Y2472964D01*
X3350326Y2474645D01*
X3349040Y2475931D01*
X3347359Y2476627D01*
D02*
G37*
G36*
X3028690Y2468118D02*
X3026670D01*
X3024803Y2467345D01*
X3023373Y2465916D01*
X3022600Y2464048D01*
Y2462027D01*
X3023373Y2460160D01*
X3024803Y2458731D01*
X3026670Y2457958D01*
X3028690D01*
X3030558Y2458731D01*
X3031987Y2460160D01*
X3032760Y2462027D01*
Y2464048D01*
X3031987Y2465916D01*
X3030558Y2467345D01*
X3028690Y2468118D01*
D02*
G37*
G36*
X3041390Y2468118D02*
X3039370D01*
X3037502Y2467345D01*
X3036073Y2465916D01*
X3035300Y2464048D01*
Y2462027D01*
X3036073Y2460160D01*
X3037502Y2458731D01*
X3039370Y2457958D01*
X3041390D01*
X3043258Y2458731D01*
X3044687Y2460160D01*
X3045460Y2462027D01*
Y2464048D01*
X3044687Y2465916D01*
X3043258Y2467345D01*
X3041390Y2468118D01*
D02*
G37*
G36*
X3202940Y2454543D02*
Y2448560D01*
X3208923D01*
X3208684Y2449451D01*
X3207514Y2451479D01*
X3205858Y2453134D01*
X3203831Y2454304D01*
X3202940Y2454543D01*
D02*
G37*
G36*
X3197860D02*
X3196969Y2454304D01*
X3194941Y2453134D01*
X3193286Y2451479D01*
X3192116Y2449451D01*
X3191877Y2448560D01*
X3197860D01*
Y2454543D01*
D02*
G37*
G36*
X3358154Y2448687D02*
X3356335D01*
X3354655Y2447991D01*
X3353369Y2446705D01*
X3352673Y2445024D01*
Y2443206D01*
X3353369Y2441525D01*
X3354655Y2440239D01*
X3356335Y2439543D01*
X3358154D01*
X3359835Y2440239D01*
X3361121Y2441525D01*
X3361817Y2443206D01*
Y2445024D01*
X3361121Y2446705D01*
X3359835Y2447991D01*
X3358154Y2448687D01*
D02*
G37*
G36*
X3208923Y2443480D02*
X3202940D01*
Y2437497D01*
X3203831Y2437736D01*
X3205858Y2438906D01*
X3207514Y2440561D01*
X3208684Y2442589D01*
X3208923Y2443480D01*
D02*
G37*
G36*
X3197860D02*
X3191877D01*
X3192116Y2442589D01*
X3193286Y2440561D01*
X3194941Y2438906D01*
X3196969Y2437736D01*
X3197860Y2437497D01*
Y2443480D01*
D02*
G37*
G36*
X3476079Y2484884D02*
X3471841D01*
X3467655Y2484221D01*
X3463625Y2482912D01*
X3459849Y2480988D01*
X3456420Y2478497D01*
X3453423Y2475500D01*
X3450933Y2472071D01*
X3449008Y2468295D01*
X3447699Y2464265D01*
X3447036Y2460079D01*
Y2455841D01*
X3447699Y2451655D01*
X3449008Y2447625D01*
X3450933Y2443849D01*
X3453423Y2440420D01*
X3456420Y2437424D01*
X3459849Y2434933D01*
X3463625Y2433009D01*
X3467655Y2431699D01*
X3471841Y2431036D01*
X3476079D01*
X3480265Y2431699D01*
X3484295Y2433009D01*
X3488071Y2434933D01*
X3491500Y2437424D01*
X3494496Y2440420D01*
X3496988Y2443849D01*
X3498911Y2447625D01*
X3500221Y2451655D01*
X3500884Y2455841D01*
Y2460079D01*
X3500221Y2464265D01*
X3498911Y2468295D01*
X3496988Y2472071D01*
X3494496Y2475500D01*
X3491500Y2478497D01*
X3488071Y2480988D01*
X3484295Y2482912D01*
X3480265Y2484221D01*
X3476079Y2484884D01*
D02*
G37*
G36*
X3268466Y2415540D02*
X3266446D01*
X3264579Y2414767D01*
X3263149Y2413338D01*
X3262376Y2411470D01*
Y2409449D01*
X3263149Y2407582D01*
X3264579Y2406153D01*
X3266446Y2405380D01*
X3268466D01*
X3270334Y2406153D01*
X3271763Y2407582D01*
X3272536Y2409449D01*
Y2411470D01*
X3271763Y2413338D01*
X3270334Y2414767D01*
X3268466Y2415540D01*
D02*
G37*
G36*
X3501640Y2414780D02*
X3499619D01*
X3497752Y2414007D01*
X3496324Y2412578D01*
X3495550Y2410711D01*
Y2408690D01*
X3496324Y2406823D01*
X3497752Y2405394D01*
X3499619Y2404620D01*
X3501640D01*
X3503508Y2405394D01*
X3504937Y2406823D01*
X3505710Y2408690D01*
Y2410711D01*
X3504937Y2412578D01*
X3503508Y2414007D01*
X3501640Y2414780D01*
D02*
G37*
G36*
X3357520Y2413762D02*
X3355701D01*
X3354020Y2413066D01*
X3352734Y2411780D01*
X3352038Y2410099D01*
Y2408281D01*
X3352734Y2406600D01*
X3354020Y2405314D01*
X3355701Y2404618D01*
X3357520D01*
X3359200Y2405314D01*
X3360486Y2406600D01*
X3361182Y2408281D01*
Y2410099D01*
X3360486Y2411780D01*
X3359200Y2413066D01*
X3357520Y2413762D01*
D02*
G37*
G36*
X3342279D02*
X3340461D01*
X3338780Y2413066D01*
X3337494Y2411780D01*
X3336798Y2410099D01*
Y2408281D01*
X3337494Y2406600D01*
X3338780Y2405314D01*
X3340461Y2404618D01*
X3342279D01*
X3343960Y2405314D01*
X3345246Y2406600D01*
X3345942Y2408281D01*
Y2410099D01*
X3345246Y2411780D01*
X3343960Y2413066D01*
X3342279Y2413762D01*
D02*
G37*
G36*
X3255767Y2409190D02*
X3253745D01*
X3251878Y2408417D01*
X3250450Y2406988D01*
X3249676Y2405120D01*
Y2403100D01*
X3250450Y2401232D01*
X3251878Y2399803D01*
X3253745Y2399030D01*
X3255767D01*
X3257634Y2399803D01*
X3259062Y2401232D01*
X3259836Y2403100D01*
Y2405120D01*
X3259062Y2406988D01*
X3257634Y2408417D01*
X3255767Y2409190D01*
D02*
G37*
G36*
X3345988Y2394966D02*
X3344372D01*
X3342878Y2394347D01*
X3342191Y2393660D01*
X3341370Y2393344D01*
X3340549Y2393660D01*
X3339862Y2394347D01*
X3338369Y2394966D01*
X3336752D01*
X3335258Y2394347D01*
X3334571Y2393660D01*
X3333750Y2393344D01*
X3332929Y2393660D01*
X3332242Y2394347D01*
X3330748Y2394966D01*
X3329131D01*
X3327638Y2394347D01*
X3326495Y2393204D01*
X3325876Y2391710D01*
Y2390094D01*
X3326495Y2388600D01*
X3327638Y2387457D01*
X3329131Y2386838D01*
X3330748D01*
X3332242Y2387457D01*
X3332929Y2388144D01*
X3333750Y2388460D01*
X3334571Y2388144D01*
X3335258Y2387457D01*
X3336752Y2386838D01*
X3338369D01*
X3339862Y2387457D01*
X3340549Y2388144D01*
X3341370Y2388460D01*
X3342191Y2388144D01*
X3342878Y2387457D01*
X3344372Y2386838D01*
X3345988D01*
X3347482Y2387457D01*
X3348625Y2388600D01*
X3349244Y2390094D01*
Y2391710D01*
X3348625Y2393204D01*
X3347482Y2394347D01*
X3345988Y2394966D01*
D02*
G37*
G36*
X3177026Y2402840D02*
X3175005D01*
X3173138Y2402067D01*
X3171709Y2400638D01*
X3170936Y2398770D01*
Y2396750D01*
X3171709Y2394882D01*
X3173138Y2393453D01*
X3175005Y2392680D01*
X3177026D01*
X3178894Y2393453D01*
X3180323Y2394882D01*
X3181096Y2396750D01*
Y2398770D01*
X3180323Y2400638D01*
X3178894Y2402067D01*
X3177026Y2402840D01*
D02*
G37*
G36*
X3151627D02*
X3149605D01*
X3147738Y2402067D01*
X3146310Y2400638D01*
X3145536Y2398770D01*
Y2396750D01*
X3146310Y2394882D01*
X3147738Y2393453D01*
X3149605Y2392680D01*
X3151627D01*
X3153494Y2393453D01*
X3154922Y2394882D01*
X3155696Y2396750D01*
Y2398770D01*
X3154922Y2400638D01*
X3153494Y2402067D01*
X3151627Y2402840D01*
D02*
G37*
G36*
X3126227D02*
X3124206D01*
X3122338Y2402067D01*
X3120909Y2400638D01*
X3120136Y2398770D01*
Y2396750D01*
X3120909Y2394882D01*
X3122338Y2393453D01*
X3124206Y2392680D01*
X3126227D01*
X3128094Y2393453D01*
X3129523Y2394882D01*
X3130296Y2396750D01*
Y2398770D01*
X3129523Y2400638D01*
X3128094Y2402067D01*
X3126227Y2402840D01*
D02*
G37*
G36*
X3100826D02*
X3098806D01*
X3096938Y2402067D01*
X3095509Y2400638D01*
X3094736Y2398770D01*
Y2396750D01*
X3095509Y2394882D01*
X3096938Y2393453D01*
X3098806Y2392680D01*
X3100826D01*
X3102693Y2393453D01*
X3104123Y2394882D01*
X3104896Y2396750D01*
Y2398770D01*
X3104123Y2400638D01*
X3102693Y2402067D01*
X3100826Y2402840D01*
D02*
G37*
G36*
X3268466Y2402840D02*
X3266446D01*
X3264579Y2402067D01*
X3263149Y2400638D01*
X3262376Y2398770D01*
Y2396750D01*
X3263149Y2394882D01*
X3264579Y2393453D01*
X3266446Y2392680D01*
X3268466D01*
X3270334Y2393453D01*
X3271763Y2394882D01*
X3272536Y2396750D01*
Y2398770D01*
X3271763Y2400638D01*
X3270334Y2402067D01*
X3268466Y2402840D01*
D02*
G37*
G36*
X3041390Y2397252D02*
X3039370D01*
X3037502Y2396479D01*
X3036073Y2395050D01*
X3035300Y2393183D01*
Y2391162D01*
X3036073Y2389294D01*
X3037502Y2387865D01*
X3039370Y2387092D01*
X3041390D01*
X3043258Y2387865D01*
X3044687Y2389294D01*
X3045460Y2391162D01*
Y2393183D01*
X3044687Y2395050D01*
X3043258Y2396479D01*
X3041390Y2397252D01*
D02*
G37*
G36*
X3028690Y2397252D02*
X3026670D01*
X3024803Y2396479D01*
X3023373Y2395050D01*
X3022600Y2393183D01*
Y2391162D01*
X3023373Y2389294D01*
X3024803Y2387865D01*
X3026670Y2387092D01*
X3028690D01*
X3030558Y2387865D01*
X3031987Y2389294D01*
X3032760Y2391162D01*
Y2393183D01*
X3031987Y2395050D01*
X3030558Y2396479D01*
X3028690Y2397252D01*
D02*
G37*
G36*
X3205544Y2403665D02*
X3195256D01*
X3193993Y2403414D01*
X3192922Y2402698D01*
X3192206Y2401627D01*
X3191955Y2400363D01*
Y2390076D01*
X3192206Y2388813D01*
X3192922Y2387742D01*
X3193993Y2387026D01*
X3195256Y2386775D01*
X3205544D01*
X3206807Y2387026D01*
X3207878Y2387742D01*
X3208594Y2388813D01*
X3208846Y2390076D01*
Y2400363D01*
X3208594Y2401627D01*
X3207878Y2402698D01*
X3206807Y2403414D01*
X3205544Y2403665D01*
D02*
G37*
G36*
X3164326Y2396490D02*
X3162306D01*
X3160439Y2395717D01*
X3159009Y2394288D01*
X3158236Y2392421D01*
Y2390400D01*
X3159009Y2388532D01*
X3160439Y2387103D01*
X3162306Y2386330D01*
X3164326D01*
X3166194Y2387103D01*
X3167623Y2388532D01*
X3168396Y2390400D01*
Y2392421D01*
X3167623Y2394288D01*
X3166194Y2395717D01*
X3164326Y2396490D01*
D02*
G37*
G36*
X3138926D02*
X3136906D01*
X3135038Y2395717D01*
X3133609Y2394288D01*
X3132836Y2392421D01*
Y2390400D01*
X3133609Y2388532D01*
X3135038Y2387103D01*
X3136906Y2386330D01*
X3138926D01*
X3140793Y2387103D01*
X3142223Y2388532D01*
X3142996Y2390400D01*
Y2392421D01*
X3142223Y2394288D01*
X3140793Y2395717D01*
X3138926Y2396490D01*
D02*
G37*
G36*
X3113527D02*
X3111505D01*
X3109638Y2395717D01*
X3108210Y2394288D01*
X3107436Y2392421D01*
Y2390400D01*
X3108210Y2388532D01*
X3109638Y2387103D01*
X3111505Y2386330D01*
X3113527D01*
X3115394Y2387103D01*
X3116823Y2388532D01*
X3117596Y2390400D01*
Y2392421D01*
X3116823Y2394288D01*
X3115394Y2395717D01*
X3113527Y2396490D01*
D02*
G37*
G36*
X3281166Y2396490D02*
X3279146D01*
X3277278Y2395717D01*
X3275849Y2394288D01*
X3275076Y2392420D01*
Y2390399D01*
X3275849Y2388532D01*
X3277278Y2387103D01*
X3279146Y2386330D01*
X3281166D01*
X3283034Y2387103D01*
X3284463Y2388532D01*
X3285236Y2390399D01*
Y2392420D01*
X3284463Y2394288D01*
X3283034Y2395717D01*
X3281166Y2396490D01*
D02*
G37*
G36*
X3255767D02*
X3253745D01*
X3251878Y2395717D01*
X3250450Y2394288D01*
X3249676Y2392420D01*
Y2390399D01*
X3250450Y2388532D01*
X3251878Y2387103D01*
X3253745Y2386330D01*
X3255767D01*
X3257634Y2387103D01*
X3259062Y2388532D01*
X3259836Y2390399D01*
Y2392420D01*
X3259062Y2394288D01*
X3257634Y2395717D01*
X3255767Y2396490D01*
D02*
G37*
G36*
X3293867Y2396490D02*
X3291846D01*
X3289978Y2395717D01*
X3288549Y2394288D01*
X3287776Y2392420D01*
Y2390399D01*
X3288549Y2388532D01*
X3289978Y2387103D01*
X3291846Y2386330D01*
X3293867D01*
X3295734Y2387103D01*
X3297162Y2388532D01*
X3297936Y2390399D01*
Y2392420D01*
X3297162Y2394288D01*
X3295734Y2395717D01*
X3293867Y2396490D01*
D02*
G37*
G36*
X3268466Y2390140D02*
X3266446D01*
X3264579Y2389367D01*
X3263149Y2387938D01*
X3262376Y2386070D01*
Y2384050D01*
X3263149Y2382182D01*
X3264579Y2380753D01*
X3266446Y2379980D01*
X3268466D01*
X3270334Y2380753D01*
X3271763Y2382182D01*
X3272536Y2384050D01*
Y2386070D01*
X3271763Y2387938D01*
X3270334Y2389367D01*
X3268466Y2390140D01*
D02*
G37*
G36*
X3345988Y2378710D02*
X3344372D01*
X3342878Y2378091D01*
X3342191Y2377404D01*
X3341370Y2377088D01*
X3340549Y2377404D01*
X3339862Y2378091D01*
X3338369Y2378710D01*
X3336752D01*
X3335258Y2378091D01*
X3334571Y2377404D01*
X3333750Y2377088D01*
X3332929Y2377404D01*
X3332242Y2378091D01*
X3330748Y2378710D01*
X3329131D01*
X3327638Y2378091D01*
X3326495Y2376948D01*
X3325876Y2375454D01*
Y2373838D01*
X3326495Y2372344D01*
X3327638Y2371201D01*
X3329131Y2370582D01*
X3330748D01*
X3332242Y2371201D01*
X3332929Y2371888D01*
X3333750Y2372204D01*
X3334571Y2371888D01*
X3335258Y2371201D01*
X3336752Y2370582D01*
X3338369D01*
X3339862Y2371201D01*
X3340549Y2371888D01*
X3341370Y2372204D01*
X3342191Y2371888D01*
X3342878Y2371201D01*
X3344372Y2370582D01*
X3345988D01*
X3347482Y2371201D01*
X3348625Y2372344D01*
X3349244Y2373838D01*
Y2375454D01*
X3348625Y2376948D01*
X3347482Y2378091D01*
X3345988Y2378710D01*
D02*
G37*
G36*
X3041390Y2384552D02*
X3039370D01*
X3037502Y2383779D01*
X3036073Y2382350D01*
X3035300Y2380483D01*
Y2378462D01*
X3036073Y2376595D01*
X3037502Y2375166D01*
X3039370Y2374392D01*
X3041390D01*
X3043258Y2375166D01*
X3044687Y2376595D01*
X3045460Y2378462D01*
Y2380483D01*
X3044687Y2382350D01*
X3043258Y2383779D01*
X3041390Y2384552D01*
D02*
G37*
G36*
X3028690Y2384552D02*
X3026670D01*
X3024803Y2383779D01*
X3023373Y2382350D01*
X3022600Y2380482D01*
Y2378462D01*
X3023373Y2376594D01*
X3024803Y2375165D01*
X3026670Y2374392D01*
X3028690D01*
X3030558Y2375165D01*
X3031987Y2376594D01*
X3032760Y2378462D01*
Y2380482D01*
X3031987Y2382350D01*
X3030558Y2383779D01*
X3028690Y2384552D01*
D02*
G37*
G36*
X3363869Y2380742D02*
X3362050D01*
X3360370Y2380046D01*
X3359084Y2378760D01*
X3358388Y2377079D01*
Y2375261D01*
X3359084Y2373580D01*
X3360370Y2372294D01*
X3361548Y2371806D01*
X3361567Y2371692D01*
X3361422Y2370484D01*
X3359883Y2369846D01*
X3359585Y2369549D01*
X3359288Y2369846D01*
X3357420Y2370620D01*
X3355399D01*
X3353532Y2369846D01*
X3352103Y2368418D01*
X3351330Y2366550D01*
Y2365443D01*
X3351117Y2364482D01*
X3350157Y2364270D01*
X3349049D01*
X3347182Y2363497D01*
X3345753Y2362068D01*
X3344980Y2360200D01*
Y2358179D01*
X3345753Y2356312D01*
X3346051Y2356015D01*
X3345753Y2355717D01*
X3344980Y2353850D01*
Y2352743D01*
X3344767Y2351782D01*
X3343806Y2351570D01*
X3342699D01*
X3340832Y2350796D01*
X3340535Y2350499D01*
X3340237Y2350796D01*
X3338370Y2351570D01*
X3336349D01*
X3334482Y2350796D01*
X3334185Y2350499D01*
X3333887Y2350796D01*
X3332020Y2351570D01*
X3329999D01*
X3328132Y2350796D01*
X3327834Y2350499D01*
X3327537Y2350796D01*
X3325670Y2351570D01*
X3323649D01*
X3321782Y2350796D01*
X3321484Y2350499D01*
X3321187Y2350796D01*
X3319320Y2351569D01*
X3318213D01*
X3317252Y2351782D01*
X3317039Y2352743D01*
Y2353850D01*
X3316266Y2355717D01*
X3315969Y2356014D01*
X3316266Y2356312D01*
X3317039Y2358179D01*
Y2360200D01*
X3316266Y2362067D01*
X3315969Y2362364D01*
X3316266Y2362662D01*
X3317039Y2364529D01*
Y2366550D01*
X3316266Y2368417D01*
X3315968Y2368714D01*
X3316266Y2369012D01*
X3317039Y2370879D01*
Y2372900D01*
X3316266Y2374767D01*
X3314837Y2376196D01*
X3312970Y2376969D01*
X3310949D01*
X3309082Y2376196D01*
X3307653Y2374767D01*
X3306879Y2372900D01*
Y2371793D01*
X3306667Y2370832D01*
X3305706Y2370619D01*
X3304599D01*
X3302732Y2369846D01*
X3301302Y2368417D01*
X3300529Y2366550D01*
Y2365443D01*
X3300317Y2364482D01*
X3299356Y2364269D01*
X3298249D01*
X3296382Y2363496D01*
X3294953Y2362067D01*
X3294179Y2360200D01*
Y2358179D01*
X3294953Y2356312D01*
X3295250Y2356014D01*
X3294953Y2355717D01*
X3294179Y2353850D01*
Y2351829D01*
X3294953Y2349962D01*
X3295250Y2349664D01*
X3294953Y2349367D01*
X3294179Y2347500D01*
Y2345479D01*
X3294953Y2343611D01*
X3296382Y2342182D01*
X3298249Y2341409D01*
X3299356D01*
X3300317Y2341197D01*
X3300529Y2340236D01*
Y2339129D01*
X3301303Y2337262D01*
X3302732Y2335833D01*
X3304599Y2335059D01*
X3306620D01*
X3308487Y2335833D01*
X3308784Y2336130D01*
X3309082Y2335833D01*
X3310949Y2335059D01*
X3312970D01*
X3314837Y2335833D01*
X3315135Y2336130D01*
X3315432Y2335833D01*
X3317299Y2335059D01*
X3319320D01*
X3321187Y2335833D01*
X3321484Y2336130D01*
X3321782Y2335833D01*
X3323649Y2335060D01*
X3325670D01*
X3327537Y2335833D01*
X3327834Y2336130D01*
X3328132Y2335833D01*
X3329999Y2335060D01*
X3332020D01*
X3333887Y2335833D01*
X3334185Y2336131D01*
X3334482Y2335833D01*
X3336349Y2335060D01*
X3338370D01*
X3340237Y2335833D01*
X3340535Y2336131D01*
X3340832Y2335833D01*
X3342699Y2335060D01*
X3344720D01*
X3346587Y2335833D01*
X3346884Y2336131D01*
X3347182Y2335833D01*
X3349049Y2335060D01*
X3351070D01*
X3352937Y2335833D01*
X3353235Y2336131D01*
X3353532Y2335833D01*
X3355399Y2335060D01*
X3357420D01*
X3359287Y2335833D01*
X3360716Y2337262D01*
X3361490Y2339129D01*
Y2340236D01*
X3361702Y2341197D01*
X3362663Y2341410D01*
X3363770D01*
X3365638Y2342183D01*
X3367066Y2343612D01*
X3367840Y2345479D01*
Y2346586D01*
X3368052Y2347547D01*
X3369013Y2347760D01*
X3370121D01*
X3371988Y2348533D01*
X3373416Y2349962D01*
X3374190Y2351829D01*
Y2353850D01*
X3373416Y2355717D01*
X3373119Y2356015D01*
X3373417Y2356312D01*
X3374190Y2358179D01*
Y2360200D01*
X3373417Y2362067D01*
X3371988Y2363496D01*
X3370121Y2364270D01*
X3369013D01*
X3368052Y2364482D01*
X3367840Y2365443D01*
Y2366550D01*
X3367067Y2368417D01*
X3365638Y2369846D01*
X3364242Y2370425D01*
X3364298Y2371776D01*
X3365550Y2372294D01*
X3366836Y2373580D01*
X3367532Y2375261D01*
Y2377079D01*
X3366836Y2378760D01*
X3365550Y2380046D01*
X3363869Y2380742D01*
D02*
G37*
G36*
X3041390Y2371852D02*
X3039370D01*
X3037502Y2371079D01*
X3036073Y2369650D01*
X3035300Y2367783D01*
Y2365762D01*
X3036073Y2363895D01*
X3037502Y2362466D01*
X3039370Y2361692D01*
X3041390D01*
X3043258Y2362466D01*
X3044687Y2363895D01*
X3045460Y2365762D01*
Y2367783D01*
X3044687Y2369650D01*
X3043258Y2371079D01*
X3041390Y2371852D01*
D02*
G37*
G36*
X3028690Y2371852D02*
X3026670D01*
X3024803Y2371079D01*
X3023373Y2369650D01*
X3022600Y2367782D01*
Y2365762D01*
X3023373Y2363894D01*
X3024803Y2362465D01*
X3026670Y2361692D01*
X3028690D01*
X3030558Y2362465D01*
X3031987Y2363894D01*
X3032760Y2365762D01*
Y2367782D01*
X3031987Y2369650D01*
X3030558Y2371079D01*
X3028690Y2371852D01*
D02*
G37*
G36*
X3436620Y2346593D02*
Y2340610D01*
X3442603D01*
X3442364Y2341501D01*
X3441194Y2343529D01*
X3439539Y2345184D01*
X3437511Y2346354D01*
X3436620Y2346593D01*
D02*
G37*
G36*
X3431540D02*
X3430648Y2346354D01*
X3428622Y2345184D01*
X3426966Y2343529D01*
X3425796Y2341501D01*
X3425557Y2340610D01*
X3431540D01*
Y2346593D01*
D02*
G37*
G36*
X3151055Y2359279D02*
X3148145D01*
X3145335Y2358526D01*
X3142816Y2357071D01*
X3140759Y2355014D01*
X3139304Y2352495D01*
X3138551Y2349685D01*
Y2346775D01*
X3139304Y2343965D01*
X3140759Y2341446D01*
X3142816Y2339389D01*
X3145335Y2337934D01*
X3148145Y2337181D01*
X3151055D01*
X3153865Y2337934D01*
X3156384Y2339389D01*
X3158441Y2341446D01*
X3159896Y2343965D01*
X3160649Y2346775D01*
Y2349685D01*
X3159896Y2352495D01*
X3158441Y2355014D01*
X3156384Y2357071D01*
X3153865Y2358526D01*
X3151055Y2359279D01*
D02*
G37*
G36*
X3019991Y2345380D02*
X3017970D01*
X3016103Y2344607D01*
X3014673Y2343178D01*
X3013900Y2341311D01*
Y2339290D01*
X3014673Y2337422D01*
X3016103Y2335993D01*
X3017970Y2335220D01*
X3019991D01*
X3021858Y2335993D01*
X3023287Y2337422D01*
X3024060Y2339290D01*
Y2341311D01*
X3023287Y2343178D01*
X3021858Y2344607D01*
X3019991Y2345380D01*
D02*
G37*
G36*
X3007291Y2345380D02*
X3005269D01*
X3003402Y2344607D01*
X3001973Y2343178D01*
X3001200Y2341310D01*
Y2339290D01*
X3001973Y2337422D01*
X3003402Y2335993D01*
X3005269Y2335220D01*
X3007291D01*
X3009158Y2335993D01*
X3010587Y2337422D01*
X3011360Y2339290D01*
Y2341310D01*
X3010587Y2343178D01*
X3009158Y2344607D01*
X3007291Y2345380D01*
D02*
G37*
G36*
X3442603Y2335530D02*
X3436620D01*
Y2329547D01*
X3437511Y2329786D01*
X3439539Y2330956D01*
X3441194Y2332611D01*
X3442364Y2334639D01*
X3442603Y2335530D01*
D02*
G37*
G36*
X3431540D02*
X3425557D01*
X3425796Y2334639D01*
X3426966Y2332611D01*
X3428622Y2330956D01*
X3430648Y2329786D01*
X3431540Y2329547D01*
Y2335530D01*
D02*
G37*
G36*
X3286501Y2317750D02*
X3284479D01*
X3282612Y2316976D01*
X3281183Y2315547D01*
X3280410Y2313680D01*
Y2311659D01*
X3281183Y2309792D01*
X3282612Y2308363D01*
X3284479Y2307590D01*
X3286501D01*
X3288368Y2308363D01*
X3289796Y2309792D01*
X3290570Y2311659D01*
Y2313680D01*
X3289796Y2315547D01*
X3288368Y2316976D01*
X3286501Y2317750D01*
D02*
G37*
G36*
X3439224Y2295715D02*
X3428936D01*
X3427673Y2295464D01*
X3426602Y2294748D01*
X3425886Y2293677D01*
X3425634Y2292413D01*
Y2282126D01*
X3425886Y2280863D01*
X3426602Y2279792D01*
X3427673Y2279076D01*
X3428936Y2278825D01*
X3439224D01*
X3440487Y2279076D01*
X3441558Y2279792D01*
X3442274Y2280863D01*
X3442525Y2282126D01*
Y2292413D01*
X3442274Y2293677D01*
X3441558Y2294748D01*
X3440487Y2295464D01*
X3439224Y2295715D01*
D02*
G37*
G36*
X3352985Y2289429D02*
X3350075D01*
X3347265Y2288676D01*
X3344746Y2287221D01*
X3342689Y2285164D01*
X3341234Y2282645D01*
X3340481Y2279835D01*
Y2276925D01*
X3341234Y2274115D01*
X3342689Y2271596D01*
X3344746Y2269539D01*
X3347265Y2268084D01*
X3350075Y2267331D01*
X3352985D01*
X3355795Y2268084D01*
X3358314Y2269539D01*
X3360371Y2271596D01*
X3361826Y2274115D01*
X3362579Y2276925D01*
Y2279835D01*
X3361826Y2282645D01*
X3360371Y2285164D01*
X3358314Y2287221D01*
X3355795Y2288676D01*
X3352985Y2289429D01*
D02*
G37*
G36*
X3327649Y2296160D02*
X3325628D01*
X3323761Y2295387D01*
X3322332Y2293958D01*
X3321558Y2292090D01*
Y2290069D01*
X3322332Y2288202D01*
X3322629Y2287905D01*
X3322332Y2287608D01*
X3321558Y2285740D01*
Y2283719D01*
X3322332Y2281852D01*
X3322629Y2281555D01*
X3322332Y2281257D01*
X3321558Y2279390D01*
Y2277369D01*
X3322332Y2275502D01*
X3322629Y2275205D01*
X3322332Y2274908D01*
X3321558Y2273040D01*
Y2271019D01*
X3322332Y2269152D01*
X3322629Y2268855D01*
X3322332Y2268557D01*
X3321558Y2266690D01*
Y2264669D01*
X3322332Y2262802D01*
X3323761Y2261373D01*
X3325628Y2260600D01*
X3327649D01*
X3329516Y2261373D01*
X3329813Y2261671D01*
X3330111Y2261373D01*
X3331978Y2260600D01*
X3333999D01*
X3335866Y2261373D01*
X3337295Y2262802D01*
X3338068Y2264669D01*
Y2266690D01*
X3337295Y2268557D01*
X3336998Y2268855D01*
X3337295Y2269152D01*
X3338069Y2271019D01*
Y2273040D01*
X3337295Y2274907D01*
X3336998Y2275205D01*
X3337295Y2275502D01*
X3338069Y2277369D01*
Y2279390D01*
X3337295Y2281257D01*
X3336998Y2281555D01*
X3337295Y2281852D01*
X3338069Y2283719D01*
Y2285740D01*
X3337295Y2287607D01*
X3336997Y2287905D01*
X3337295Y2288202D01*
X3338068Y2290069D01*
Y2292090D01*
X3337295Y2293957D01*
X3335866Y2295387D01*
X3333999Y2296160D01*
X3331978D01*
X3330111Y2295387D01*
X3329813Y2295089D01*
X3329516Y2295387D01*
X3327649Y2296160D01*
D02*
G37*
G36*
X3294120D02*
X3292099D01*
X3290232Y2295387D01*
X3288803Y2293958D01*
X3288030Y2292090D01*
Y2290069D01*
X3288803Y2288202D01*
X3289101Y2287905D01*
X3288803Y2287608D01*
X3288030Y2285740D01*
Y2283719D01*
X3288803Y2281852D01*
X3289101Y2281555D01*
X3288803Y2281257D01*
X3288030Y2279390D01*
Y2277369D01*
X3288803Y2275502D01*
X3289101Y2275205D01*
X3288803Y2274908D01*
X3288030Y2273040D01*
Y2271019D01*
X3288803Y2269152D01*
X3289101Y2268855D01*
X3288803Y2268557D01*
X3288030Y2266690D01*
Y2264669D01*
X3288803Y2262802D01*
X3290232Y2261373D01*
X3292099Y2260600D01*
X3294120D01*
X3295988Y2261373D01*
X3297416Y2262802D01*
X3298190Y2264669D01*
Y2266690D01*
X3297416Y2268557D01*
X3297119Y2268855D01*
X3297416Y2269152D01*
X3298190Y2271019D01*
Y2273040D01*
X3297416Y2274908D01*
X3297119Y2275205D01*
X3297417Y2275502D01*
X3298190Y2277369D01*
Y2279390D01*
X3297417Y2281257D01*
X3297119Y2281555D01*
X3297416Y2281852D01*
X3298190Y2283719D01*
Y2285740D01*
X3297416Y2287608D01*
X3297119Y2287905D01*
X3297416Y2288202D01*
X3298190Y2290069D01*
Y2292090D01*
X3297416Y2293958D01*
X3295988Y2295387D01*
X3294120Y2296160D01*
D02*
G37*
G36*
X3354070Y2250294D02*
Y2241550D01*
X3362814D01*
X3362299Y2243471D01*
X3360778Y2246106D01*
X3358626Y2248258D01*
X3355991Y2249779D01*
X3354070Y2250294D01*
D02*
G37*
G36*
X3348990D02*
X3347069Y2249779D01*
X3344434Y2248258D01*
X3342282Y2246106D01*
X3340760Y2243471D01*
X3340246Y2241550D01*
X3348990D01*
Y2250294D01*
D02*
G37*
G36*
X2569210Y2249024D02*
Y2240280D01*
X2577954D01*
X2577439Y2242201D01*
X2575918Y2244836D01*
X2573766Y2246988D01*
X2571131Y2248509D01*
X2569210Y2249024D01*
D02*
G37*
G36*
X2564130D02*
X2562209Y2248509D01*
X2559574Y2246988D01*
X2557422Y2244836D01*
X2555901Y2242201D01*
X2555386Y2240280D01*
X2564130D01*
Y2249024D01*
D02*
G37*
G36*
X3362814Y2236470D02*
X3354070D01*
Y2227726D01*
X3355991Y2228241D01*
X3358626Y2229762D01*
X3360778Y2231914D01*
X3362299Y2234549D01*
X3362814Y2236470D01*
D02*
G37*
G36*
X3348990D02*
X3340246D01*
X3340760Y2234549D01*
X3342282Y2231914D01*
X3344434Y2229762D01*
X3347069Y2228241D01*
X3348990Y2227726D01*
Y2236470D01*
D02*
G37*
G36*
X2577954Y2235200D02*
X2569210D01*
Y2226456D01*
X2571131Y2226971D01*
X2573766Y2228492D01*
X2575918Y2230644D01*
X2577439Y2233279D01*
X2577954Y2235200D01*
D02*
G37*
G36*
X2564130D02*
X2555386D01*
X2555901Y2233279D01*
X2557422Y2230644D01*
X2559574Y2228492D01*
X2562209Y2226971D01*
X2564130Y2226456D01*
Y2235200D01*
D02*
G37*
G36*
X3456820Y2045353D02*
X3454280D01*
Y2040720D01*
X3463466D01*
X3463032Y2041767D01*
X3461892Y2043252D01*
X3460407Y2044392D01*
X3458676Y2045109D01*
X3456820Y2045353D01*
D02*
G37*
G36*
X3512820D02*
X3510280D01*
Y2040720D01*
X3519466D01*
X3519032Y2041767D01*
X3517892Y2043252D01*
X3516407Y2044392D01*
X3514677Y2045109D01*
X3512820Y2045353D01*
D02*
G37*
G36*
X3449200D02*
X3446660D01*
X3444803Y2045109D01*
X3443073Y2044392D01*
X3441588Y2043252D01*
X3440448Y2041767D01*
X3440014Y2040720D01*
X3449200D01*
Y2045353D01*
D02*
G37*
G36*
X3505200D02*
X3502660D01*
X3500804Y2045109D01*
X3499073Y2044392D01*
X3497588Y2043252D01*
X3496448Y2041767D01*
X3495940Y2040540D01*
X3495240Y2040830D01*
X3474240D01*
X3473073Y2040346D01*
X3472590Y2039180D01*
Y2018985D01*
X3471320Y2018733D01*
X3470831Y2019914D01*
X3469474Y2021271D01*
X3467700Y2022006D01*
X3466195D01*
X3465550Y2022359D01*
X3465074Y2023088D01*
Y2024741D01*
X3464348Y2026492D01*
X3464817Y2027167D01*
X3465204Y2027492D01*
X3466083Y2027128D01*
X3467397D01*
X3468611Y2027631D01*
X3469539Y2028560D01*
X3470042Y2029773D01*
Y2031087D01*
X3469539Y2032300D01*
X3468611Y2033229D01*
X3467397Y2033732D01*
X3466083D01*
X3464869Y2033229D01*
X3463941Y2032300D01*
X3463438Y2031087D01*
Y2029773D01*
X3463757Y2029002D01*
X3462914Y2028325D01*
X3462704Y2028226D01*
X3462280Y2028401D01*
Y2023680D01*
X3459740D01*
Y2021140D01*
X3455019D01*
X3455218Y2020659D01*
X3456718Y2019158D01*
X3458679Y2018346D01*
X3460741D01*
X3460817Y2018333D01*
X3461914Y2017432D01*
Y2016220D01*
X3462649Y2014446D01*
X3463915Y2013180D01*
X3462649Y2011914D01*
X3462175Y2010770D01*
X3460741Y2009989D01*
X3460700Y2010006D01*
X3458780D01*
X3457006Y2009271D01*
X3455649Y2007914D01*
X3454914Y2006140D01*
Y2004220D01*
X3455649Y2002446D01*
X3456915Y2001180D01*
X3455649Y1999914D01*
X3454914Y1998140D01*
Y1996220D01*
X3455649Y1994446D01*
X3456915Y1993180D01*
X3455649Y1991914D01*
X3454914Y1990140D01*
Y1988220D01*
X3455649Y1986446D01*
X3456915Y1985180D01*
X3455649Y1983914D01*
X3454914Y1982140D01*
Y1980220D01*
X3455649Y1978446D01*
X3457006Y1977089D01*
X3458780Y1976354D01*
X3460700D01*
X3460741Y1976371D01*
X3462175Y1975590D01*
X3462649Y1974446D01*
X3463915Y1973180D01*
X3462649Y1971914D01*
X3461914Y1970140D01*
Y1968928D01*
X3460817Y1968027D01*
X3460741Y1968014D01*
X3458679D01*
X3456718Y1967202D01*
X3455218Y1965701D01*
X3455019Y1965220D01*
X3459740D01*
Y1962680D01*
X3462280D01*
Y1957959D01*
X3462704Y1958134D01*
X3462914Y1958035D01*
X3463757Y1957358D01*
X3463438Y1956587D01*
Y1955273D01*
X3463941Y1954060D01*
X3464870Y1953131D01*
X3466083Y1952628D01*
X3467397D01*
X3468611Y1953131D01*
X3469539Y1954060D01*
X3470042Y1955273D01*
Y1956587D01*
X3469539Y1957800D01*
X3468611Y1958729D01*
X3467397Y1959232D01*
X3466083D01*
X3465204Y1958868D01*
X3464817Y1959193D01*
X3464348Y1959868D01*
X3465074Y1961619D01*
Y1963272D01*
X3465550Y1964001D01*
X3466195Y1964354D01*
X3467700D01*
X3469474Y1965089D01*
X3470831Y1966446D01*
X3471320Y1967627D01*
X3472590Y1967375D01*
Y1947180D01*
X3473073Y1946014D01*
X3474240Y1945530D01*
X3495240D01*
X3495940Y1945820D01*
X3496448Y1944593D01*
X3497588Y1943108D01*
X3499073Y1941968D01*
X3500804Y1941251D01*
X3502660Y1941007D01*
X3505200D01*
Y1948180D01*
X3507740D01*
Y1950720D01*
X3519466D01*
X3519032Y1951767D01*
X3518270Y1952760D01*
X3518891Y1954030D01*
X3519240D01*
X3520406Y1954514D01*
X3520890Y1955680D01*
Y2030680D01*
X3520406Y2031846D01*
X3519240Y2032330D01*
X3518891D01*
X3518270Y2033600D01*
X3519032Y2034593D01*
X3519466Y2035640D01*
X3507740D01*
Y2038180D01*
X3505200D01*
Y2045353D01*
D02*
G37*
G36*
X3463466Y2035640D02*
X3454280D01*
Y2031007D01*
X3456820D01*
X3458676Y2031251D01*
X3460407Y2031968D01*
X3461892Y2033108D01*
X3463032Y2034593D01*
X3463466Y2035640D01*
D02*
G37*
G36*
X3449200D02*
X3440014D01*
X3440448Y2034593D01*
X3441588Y2033108D01*
X3443073Y2031968D01*
X3444803Y2031251D01*
X3446660Y2031007D01*
X3449200D01*
Y2035640D01*
D02*
G37*
G36*
X3457200Y2028401D02*
X3456718Y2028202D01*
X3455218Y2026702D01*
X3455019Y2026220D01*
X3457200D01*
Y2028401D01*
D02*
G37*
G36*
X3134551Y2012977D02*
X3133248D01*
X3132045Y2012479D01*
X3131124Y2011558D01*
X3130626Y2010354D01*
Y2009052D01*
X3131124Y2007849D01*
X3132045Y2006927D01*
X3133248Y2006429D01*
X3134551D01*
X3135754Y2006927D01*
X3136675Y2007849D01*
X3137173Y2009052D01*
Y2010354D01*
X3136675Y2011558D01*
X3135754Y2012479D01*
X3134551Y2012977D01*
D02*
G37*
G36*
X3123237D02*
X3121935D01*
X3120731Y2012479D01*
X3119810Y2011558D01*
X3119312Y2010354D01*
Y2009052D01*
X3119810Y2007849D01*
X3120731Y2006927D01*
X3121935Y2006429D01*
X3123237D01*
X3124440Y2006927D01*
X3125361Y2007849D01*
X3125860Y2009052D01*
Y2010354D01*
X3125361Y2011558D01*
X3124440Y2012479D01*
X3123237Y2012977D01*
D02*
G37*
G36*
X3140208Y2007320D02*
X3138905D01*
X3137702Y2006822D01*
X3136781Y2005901D01*
X3136282Y2004697D01*
Y2003395D01*
X3136781Y2002192D01*
X3137702Y2001271D01*
X3138905Y2000772D01*
X3140208D01*
X3141411Y2001271D01*
X3142332Y2002192D01*
X3142830Y2003395D01*
Y2004697D01*
X3142332Y2005901D01*
X3141411Y2006822D01*
X3140208Y2007320D01*
D02*
G37*
G36*
X3128894D02*
X3127591D01*
X3126388Y2006822D01*
X3125467Y2005901D01*
X3124969Y2004697D01*
Y2003395D01*
X3125467Y2002192D01*
X3126388Y2001271D01*
X3127591Y2000772D01*
X3128894D01*
X3130097Y2001271D01*
X3131018Y2002192D01*
X3131517Y2003395D01*
Y2004697D01*
X3131018Y2005901D01*
X3130097Y2006822D01*
X3128894Y2007320D01*
D02*
G37*
G36*
X3117580D02*
X3116277D01*
X3115074Y2006822D01*
X3114153Y2005901D01*
X3113655Y2004697D01*
Y2003395D01*
X3114153Y2002192D01*
X3115074Y2001271D01*
X3116277Y2000772D01*
X3117580D01*
X3118783Y2001271D01*
X3119704Y2002192D01*
X3120203Y2003395D01*
Y2004697D01*
X3119704Y2005901D01*
X3118783Y2006822D01*
X3117580Y2007320D01*
D02*
G37*
G36*
X3145864Y2001663D02*
X3144562D01*
X3143358Y2001165D01*
X3142438Y2000244D01*
X3141939Y1999041D01*
Y1997738D01*
X3142438Y1996535D01*
X3143358Y1995614D01*
X3144562Y1995115D01*
X3145864D01*
X3147068Y1995614D01*
X3147989Y1996535D01*
X3148487Y1997738D01*
Y1999041D01*
X3147989Y2000244D01*
X3147068Y2001165D01*
X3145864Y2001663D01*
D02*
G37*
G36*
X3111923D02*
X3110621D01*
X3109417Y2001165D01*
X3108496Y2000244D01*
X3107998Y1999041D01*
Y1997738D01*
X3108496Y1996535D01*
X3109417Y1995614D01*
X3110621Y1995115D01*
X3111923D01*
X3113127Y1995614D01*
X3114048Y1996535D01*
X3114546Y1997738D01*
Y1999041D01*
X3114048Y2000244D01*
X3113127Y2001165D01*
X3111923Y2001663D01*
D02*
G37*
G36*
X3123237Y2001663D02*
X3121935D01*
X3120731Y2001165D01*
X3119810Y2000244D01*
X3119312Y1999041D01*
Y1997738D01*
X3119810Y1996535D01*
X3120731Y1995614D01*
X3121935Y1995115D01*
X3123237D01*
X3124440Y1995614D01*
X3125361Y1996535D01*
X3125860Y1997738D01*
Y1999041D01*
X3125361Y2000244D01*
X3124440Y2001165D01*
X3123237Y2001663D01*
D02*
G37*
G36*
X3151521Y1996006D02*
X3150219D01*
X3149016Y1995508D01*
X3148094Y1994587D01*
X3147596Y1993384D01*
Y1992081D01*
X3148094Y1990878D01*
X3149016Y1989957D01*
X3150219Y1989458D01*
X3151521D01*
X3152725Y1989957D01*
X3153646Y1990878D01*
X3154144Y1992081D01*
Y1993384D01*
X3153646Y1994587D01*
X3152725Y1995508D01*
X3151521Y1996006D01*
D02*
G37*
G36*
X3140208D02*
X3138905D01*
X3137702Y1995508D01*
X3136781Y1994587D01*
X3136282Y1993384D01*
Y1992081D01*
X3136781Y1990878D01*
X3137702Y1989957D01*
X3138905Y1989458D01*
X3140208D01*
X3141411Y1989957D01*
X3142332Y1990878D01*
X3142830Y1992081D01*
Y1993384D01*
X3142332Y1994587D01*
X3141411Y1995508D01*
X3140208Y1996006D01*
D02*
G37*
G36*
X3128894D02*
X3127591D01*
X3126388Y1995508D01*
X3125467Y1994587D01*
X3124969Y1993384D01*
Y1992081D01*
X3125467Y1990878D01*
X3126388Y1989957D01*
X3127591Y1989458D01*
X3128894D01*
X3130097Y1989957D01*
X3131018Y1990878D01*
X3131517Y1992081D01*
Y1993384D01*
X3131018Y1994587D01*
X3130097Y1995508D01*
X3128894Y1996006D01*
D02*
G37*
G36*
X3117580D02*
X3116278D01*
X3115074Y1995508D01*
X3114153Y1994587D01*
X3113655Y1993384D01*
Y1992081D01*
X3114153Y1990878D01*
X3115074Y1989957D01*
X3116278Y1989458D01*
X3117580D01*
X3118783Y1989957D01*
X3119704Y1990878D01*
X3120203Y1992081D01*
Y1993384D01*
X3119704Y1994587D01*
X3118783Y1995508D01*
X3117580Y1996006D01*
D02*
G37*
G36*
X3106266D02*
X3104964D01*
X3103761Y1995508D01*
X3102840Y1994587D01*
X3102341Y1993384D01*
Y1992081D01*
X3102840Y1990878D01*
X3103761Y1989957D01*
X3104964Y1989458D01*
X3106266D01*
X3107470Y1989957D01*
X3108391Y1990878D01*
X3108889Y1992081D01*
Y1993384D01*
X3108391Y1994587D01*
X3107470Y1995508D01*
X3106266Y1996006D01*
D02*
G37*
G36*
X3157178Y1990350D02*
X3155876D01*
X3154672Y1989851D01*
X3153751Y1988930D01*
X3153253Y1987727D01*
Y1986424D01*
X3153751Y1985221D01*
X3154672Y1984300D01*
X3155876Y1983802D01*
X3157178D01*
X3158381Y1984300D01*
X3159302Y1985221D01*
X3159801Y1986424D01*
Y1987727D01*
X3159302Y1988930D01*
X3158381Y1989851D01*
X3157178Y1990350D01*
D02*
G37*
G36*
X3123237D02*
X3121935D01*
X3120731Y1989851D01*
X3119810Y1988930D01*
X3119312Y1987727D01*
Y1986424D01*
X3119810Y1985221D01*
X3120731Y1984300D01*
X3121935Y1983802D01*
X3123237D01*
X3124440Y1984300D01*
X3125361Y1985221D01*
X3125860Y1986424D01*
Y1987727D01*
X3125361Y1988930D01*
X3124440Y1989851D01*
X3123237Y1990350D01*
D02*
G37*
G36*
X3100609D02*
X3099307D01*
X3098104Y1989851D01*
X3097183Y1988930D01*
X3096684Y1987727D01*
Y1986424D01*
X3097183Y1985221D01*
X3098104Y1984300D01*
X3099307Y1983802D01*
X3100609D01*
X3101813Y1984300D01*
X3102734Y1985221D01*
X3103232Y1986424D01*
Y1987727D01*
X3102734Y1988930D01*
X3101813Y1989851D01*
X3100609Y1990350D01*
D02*
G37*
G36*
X3145864Y1990350D02*
X3144562D01*
X3143358Y1989851D01*
X3142438Y1988930D01*
X3141939Y1987727D01*
Y1986424D01*
X3142438Y1985221D01*
X3143358Y1984300D01*
X3144562Y1983802D01*
X3145864D01*
X3147068Y1984300D01*
X3147989Y1985221D01*
X3148487Y1986424D01*
Y1987727D01*
X3147989Y1988930D01*
X3147068Y1989851D01*
X3145864Y1990350D01*
D02*
G37*
G36*
X3134551D02*
X3133248D01*
X3132045Y1989851D01*
X3131124Y1988930D01*
X3130626Y1987727D01*
Y1986424D01*
X3131124Y1985221D01*
X3132045Y1984300D01*
X3133248Y1983802D01*
X3134551D01*
X3135754Y1984300D01*
X3136675Y1985221D01*
X3137173Y1986424D01*
Y1987727D01*
X3136675Y1988930D01*
X3135754Y1989851D01*
X3134551Y1990350D01*
D02*
G37*
G36*
X3111923D02*
X3110621D01*
X3109417Y1989851D01*
X3108496Y1988930D01*
X3107998Y1987727D01*
Y1986424D01*
X3108496Y1985221D01*
X3109417Y1984300D01*
X3110621Y1983802D01*
X3111923D01*
X3113127Y1984300D01*
X3114048Y1985221D01*
X3114546Y1986424D01*
Y1987727D01*
X3114048Y1988930D01*
X3113127Y1989851D01*
X3111923Y1990350D01*
D02*
G37*
G36*
X3162835Y1984693D02*
X3161533D01*
X3160329Y1984194D01*
X3159408Y1983273D01*
X3158910Y1982070D01*
Y1980768D01*
X3159408Y1979564D01*
X3160329Y1978643D01*
X3161533Y1978145D01*
X3162835D01*
X3164038Y1978643D01*
X3164959Y1979564D01*
X3165458Y1980768D01*
Y1982070D01*
X3164959Y1983273D01*
X3164038Y1984194D01*
X3162835Y1984693D01*
D02*
G37*
G36*
X3151521D02*
X3150219D01*
X3149016Y1984194D01*
X3148094Y1983273D01*
X3147596Y1982070D01*
Y1980768D01*
X3148094Y1979564D01*
X3149016Y1978643D01*
X3150219Y1978145D01*
X3151521D01*
X3152725Y1978643D01*
X3153646Y1979564D01*
X3154144Y1980768D01*
Y1982070D01*
X3153646Y1983273D01*
X3152725Y1984194D01*
X3151521Y1984693D01*
D02*
G37*
G36*
X3128894D02*
X3127591D01*
X3126388Y1984194D01*
X3125467Y1983273D01*
X3124969Y1982070D01*
Y1980768D01*
X3125467Y1979564D01*
X3126388Y1978643D01*
X3127591Y1978145D01*
X3128894D01*
X3130097Y1978643D01*
X3131018Y1979564D01*
X3131517Y1980768D01*
Y1982070D01*
X3131018Y1983273D01*
X3130097Y1984194D01*
X3128894Y1984693D01*
D02*
G37*
G36*
X3117580D02*
X3116277D01*
X3115074Y1984194D01*
X3114153Y1983273D01*
X3113655Y1982070D01*
Y1980768D01*
X3114153Y1979564D01*
X3115074Y1978643D01*
X3116277Y1978145D01*
X3117580D01*
X3118783Y1978643D01*
X3119704Y1979564D01*
X3120203Y1980768D01*
Y1982070D01*
X3119704Y1983273D01*
X3118783Y1984194D01*
X3117580Y1984693D01*
D02*
G37*
G36*
X3106266D02*
X3104964D01*
X3103761Y1984194D01*
X3102840Y1983273D01*
X3102341Y1982070D01*
Y1980768D01*
X3102840Y1979564D01*
X3103761Y1978643D01*
X3104964Y1978145D01*
X3106266D01*
X3107470Y1978643D01*
X3108391Y1979564D01*
X3108889Y1980768D01*
Y1982070D01*
X3108391Y1983273D01*
X3107470Y1984194D01*
X3106266Y1984693D01*
D02*
G37*
G36*
X3094953D02*
X3093650D01*
X3092447Y1984194D01*
X3091526Y1983273D01*
X3091028Y1982070D01*
Y1980768D01*
X3091526Y1979564D01*
X3092447Y1978643D01*
X3093650Y1978145D01*
X3094953D01*
X3096156Y1978643D01*
X3097077Y1979564D01*
X3097575Y1980768D01*
Y1982070D01*
X3097077Y1983273D01*
X3096156Y1984194D01*
X3094953Y1984693D01*
D02*
G37*
G36*
X3140208Y1984693D02*
X3138905D01*
X3137702Y1984194D01*
X3136781Y1983273D01*
X3136282Y1982070D01*
Y1980768D01*
X3136781Y1979564D01*
X3137702Y1978643D01*
X3138905Y1978145D01*
X3140208D01*
X3141411Y1978643D01*
X3142332Y1979564D01*
X3142830Y1980768D01*
Y1982070D01*
X3142332Y1983273D01*
X3141411Y1984194D01*
X3140208Y1984693D01*
D02*
G37*
G36*
X3168492Y1979036D02*
X3167189D01*
X3165986Y1978537D01*
X3165065Y1977616D01*
X3164567Y1976413D01*
Y1975111D01*
X3165065Y1973907D01*
X3165986Y1972986D01*
X3167189Y1972488D01*
X3168492D01*
X3169695Y1972986D01*
X3170616Y1973907D01*
X3171115Y1975111D01*
Y1976413D01*
X3170616Y1977616D01*
X3169695Y1978537D01*
X3168492Y1979036D01*
D02*
G37*
G36*
X3157178D02*
X3155876D01*
X3154672Y1978537D01*
X3153751Y1977616D01*
X3153253Y1976413D01*
Y1975111D01*
X3153751Y1973907D01*
X3154672Y1972986D01*
X3155876Y1972488D01*
X3157178D01*
X3158381Y1972986D01*
X3159302Y1973907D01*
X3159801Y1975111D01*
Y1976413D01*
X3159302Y1977616D01*
X3158381Y1978537D01*
X3157178Y1979036D01*
D02*
G37*
G36*
X3145864D02*
X3144562D01*
X3143358Y1978537D01*
X3142438Y1977616D01*
X3141939Y1976413D01*
Y1975111D01*
X3142438Y1973907D01*
X3143358Y1972986D01*
X3144562Y1972488D01*
X3145864D01*
X3147068Y1972986D01*
X3147989Y1973907D01*
X3148487Y1975111D01*
Y1976413D01*
X3147989Y1977616D01*
X3147068Y1978537D01*
X3145864Y1979036D01*
D02*
G37*
G36*
X3134551D02*
X3133248D01*
X3132045Y1978537D01*
X3131124Y1977616D01*
X3130626Y1976413D01*
Y1975111D01*
X3131124Y1973907D01*
X3132045Y1972986D01*
X3133248Y1972488D01*
X3134551D01*
X3135754Y1972986D01*
X3136675Y1973907D01*
X3137173Y1975111D01*
Y1976413D01*
X3136675Y1977616D01*
X3135754Y1978537D01*
X3134551Y1979036D01*
D02*
G37*
G36*
X3123237D02*
X3121935D01*
X3120731Y1978537D01*
X3119810Y1977616D01*
X3119312Y1976413D01*
Y1975111D01*
X3119810Y1973907D01*
X3120731Y1972986D01*
X3121935Y1972488D01*
X3123237D01*
X3124440Y1972986D01*
X3125361Y1973907D01*
X3125860Y1975111D01*
Y1976413D01*
X3125361Y1977616D01*
X3124440Y1978537D01*
X3123237Y1979036D01*
D02*
G37*
G36*
X3111923D02*
X3110621D01*
X3109417Y1978537D01*
X3108496Y1977616D01*
X3107998Y1976413D01*
Y1975111D01*
X3108496Y1973907D01*
X3109417Y1972986D01*
X3110621Y1972488D01*
X3111923D01*
X3113127Y1972986D01*
X3114048Y1973907D01*
X3114546Y1975111D01*
Y1976413D01*
X3114048Y1977616D01*
X3113127Y1978537D01*
X3111923Y1979036D01*
D02*
G37*
G36*
X3089296D02*
X3087993D01*
X3086790Y1978537D01*
X3085869Y1977616D01*
X3085370Y1976413D01*
Y1975111D01*
X3085869Y1973907D01*
X3086790Y1972986D01*
X3087993Y1972488D01*
X3089296D01*
X3090499Y1972986D01*
X3091420Y1973907D01*
X3091919Y1975111D01*
Y1976413D01*
X3091420Y1977616D01*
X3090499Y1978537D01*
X3089296Y1979036D01*
D02*
G37*
G36*
X3174149Y1973379D02*
X3172846D01*
X3171643Y1972881D01*
X3170722Y1971960D01*
X3170223Y1970756D01*
Y1969454D01*
X3170722Y1968250D01*
X3171643Y1967330D01*
X3172846Y1966831D01*
X3174149D01*
X3175352Y1967330D01*
X3176273Y1968250D01*
X3176772Y1969454D01*
Y1970756D01*
X3176273Y1971960D01*
X3175352Y1972881D01*
X3174149Y1973379D01*
D02*
G37*
G36*
X3151521D02*
X3150219D01*
X3149016Y1972881D01*
X3148094Y1971960D01*
X3147596Y1970756D01*
Y1969454D01*
X3148094Y1968250D01*
X3149016Y1967330D01*
X3150219Y1966831D01*
X3151521D01*
X3152725Y1967330D01*
X3153646Y1968250D01*
X3154144Y1969454D01*
Y1970756D01*
X3153646Y1971960D01*
X3152725Y1972881D01*
X3151521Y1973379D01*
D02*
G37*
G36*
X3140208D02*
X3138905D01*
X3137702Y1972881D01*
X3136781Y1971960D01*
X3136282Y1970756D01*
Y1969454D01*
X3136781Y1968250D01*
X3137702Y1967330D01*
X3138905Y1966831D01*
X3140208D01*
X3141411Y1967330D01*
X3142332Y1968250D01*
X3142830Y1969454D01*
Y1970756D01*
X3142332Y1971960D01*
X3141411Y1972881D01*
X3140208Y1973379D01*
D02*
G37*
G36*
X3128894D02*
X3127591D01*
X3126388Y1972881D01*
X3125467Y1971960D01*
X3124969Y1970756D01*
Y1969454D01*
X3125467Y1968250D01*
X3126388Y1967330D01*
X3127591Y1966831D01*
X3128894D01*
X3130097Y1967330D01*
X3131018Y1968250D01*
X3131517Y1969454D01*
Y1970756D01*
X3131018Y1971960D01*
X3130097Y1972881D01*
X3128894Y1973379D01*
D02*
G37*
G36*
X3117580D02*
X3116278D01*
X3115074Y1972881D01*
X3114153Y1971960D01*
X3113655Y1970756D01*
Y1969454D01*
X3114153Y1968250D01*
X3115074Y1967330D01*
X3116278Y1966831D01*
X3117580D01*
X3118783Y1967330D01*
X3119704Y1968250D01*
X3120203Y1969454D01*
Y1970756D01*
X3119704Y1971960D01*
X3118783Y1972881D01*
X3117580Y1973379D01*
D02*
G37*
G36*
X3106266D02*
X3104964D01*
X3103761Y1972881D01*
X3102840Y1971960D01*
X3102341Y1970756D01*
Y1969454D01*
X3102840Y1968250D01*
X3103761Y1967330D01*
X3104964Y1966831D01*
X3106266D01*
X3107470Y1967330D01*
X3108391Y1968250D01*
X3108889Y1969454D01*
Y1970756D01*
X3108391Y1971960D01*
X3107470Y1972881D01*
X3106266Y1973379D01*
D02*
G37*
G36*
X3094953D02*
X3093650D01*
X3092447Y1972881D01*
X3091526Y1971960D01*
X3091028Y1970756D01*
Y1969454D01*
X3091526Y1968250D01*
X3092447Y1967330D01*
X3093650Y1966831D01*
X3094953D01*
X3096156Y1967330D01*
X3097077Y1968250D01*
X3097575Y1969454D01*
Y1970756D01*
X3097077Y1971960D01*
X3096156Y1972881D01*
X3094953Y1973379D01*
D02*
G37*
G36*
X3083639D02*
X3082336D01*
X3081133Y1972881D01*
X3080212Y1971960D01*
X3079714Y1970756D01*
Y1969454D01*
X3080212Y1968250D01*
X3081133Y1967330D01*
X3082336Y1966831D01*
X3083639D01*
X3084842Y1967330D01*
X3085763Y1968250D01*
X3086262Y1969454D01*
Y1970756D01*
X3085763Y1971960D01*
X3084842Y1972881D01*
X3083639Y1973379D01*
D02*
G37*
G36*
X3157178Y1967722D02*
X3155876D01*
X3154672Y1967224D01*
X3153751Y1966303D01*
X3153253Y1965099D01*
Y1963797D01*
X3153751Y1962594D01*
X3154672Y1961673D01*
X3155876Y1961174D01*
X3157178D01*
X3158381Y1961673D01*
X3159302Y1962594D01*
X3159801Y1963797D01*
Y1965099D01*
X3159302Y1966303D01*
X3158381Y1967224D01*
X3157178Y1967722D01*
D02*
G37*
G36*
X3179806Y1967722D02*
X3178503D01*
X3177300Y1967224D01*
X3176379Y1966303D01*
X3175880Y1965099D01*
Y1963797D01*
X3176379Y1962594D01*
X3177300Y1961673D01*
X3178503Y1961174D01*
X3179806D01*
X3181009Y1961673D01*
X3181930Y1962594D01*
X3182428Y1963797D01*
Y1965099D01*
X3181930Y1966303D01*
X3181009Y1967224D01*
X3179806Y1967722D01*
D02*
G37*
G36*
X3168492D02*
X3167189D01*
X3165986Y1967224D01*
X3165065Y1966303D01*
X3164567Y1965099D01*
Y1963797D01*
X3165065Y1962594D01*
X3165986Y1961673D01*
X3167189Y1961174D01*
X3168492D01*
X3169695Y1961673D01*
X3170616Y1962594D01*
X3171115Y1963797D01*
Y1965099D01*
X3170616Y1966303D01*
X3169695Y1967224D01*
X3168492Y1967722D01*
D02*
G37*
G36*
X3134551D02*
X3133248D01*
X3132045Y1967224D01*
X3131124Y1966303D01*
X3130626Y1965099D01*
Y1963797D01*
X3131124Y1962594D01*
X3132045Y1961673D01*
X3133248Y1961174D01*
X3134551D01*
X3135754Y1961673D01*
X3136675Y1962594D01*
X3137173Y1963797D01*
Y1965099D01*
X3136675Y1966303D01*
X3135754Y1967224D01*
X3134551Y1967722D01*
D02*
G37*
G36*
X3123237D02*
X3121935D01*
X3120731Y1967224D01*
X3119810Y1966303D01*
X3119312Y1965099D01*
Y1963797D01*
X3119810Y1962594D01*
X3120731Y1961673D01*
X3121935Y1961174D01*
X3123237D01*
X3124440Y1961673D01*
X3125361Y1962594D01*
X3125860Y1963797D01*
Y1965099D01*
X3125361Y1966303D01*
X3124440Y1967224D01*
X3123237Y1967722D01*
D02*
G37*
G36*
X3111923D02*
X3110621D01*
X3109417Y1967224D01*
X3108496Y1966303D01*
X3107998Y1965099D01*
Y1963797D01*
X3108496Y1962594D01*
X3109417Y1961673D01*
X3110621Y1961174D01*
X3111923D01*
X3113127Y1961673D01*
X3114048Y1962594D01*
X3114546Y1963797D01*
Y1965099D01*
X3114048Y1966303D01*
X3113127Y1967224D01*
X3111923Y1967722D01*
D02*
G37*
G36*
X3100609D02*
X3099307D01*
X3098104Y1967224D01*
X3097183Y1966303D01*
X3096684Y1965099D01*
Y1963797D01*
X3097183Y1962594D01*
X3098104Y1961673D01*
X3099307Y1961174D01*
X3100609D01*
X3101813Y1961673D01*
X3102734Y1962594D01*
X3103232Y1963797D01*
Y1965099D01*
X3102734Y1966303D01*
X3101813Y1967224D01*
X3100609Y1967722D01*
D02*
G37*
G36*
X3089296D02*
X3087993D01*
X3086790Y1967224D01*
X3085869Y1966303D01*
X3085370Y1965099D01*
Y1963797D01*
X3085869Y1962594D01*
X3086790Y1961673D01*
X3087993Y1961174D01*
X3089296D01*
X3090499Y1961673D01*
X3091420Y1962594D01*
X3091919Y1963797D01*
Y1965099D01*
X3091420Y1966303D01*
X3090499Y1967224D01*
X3089296Y1967722D01*
D02*
G37*
G36*
X3077982D02*
X3076680D01*
X3075476Y1967224D01*
X3074555Y1966303D01*
X3074057Y1965099D01*
Y1963797D01*
X3074555Y1962594D01*
X3075476Y1961673D01*
X3076680Y1961174D01*
X3077982D01*
X3079185Y1961673D01*
X3080107Y1962594D01*
X3080605Y1963797D01*
Y1965099D01*
X3080107Y1966303D01*
X3079185Y1967224D01*
X3077982Y1967722D01*
D02*
G37*
G36*
X3457200Y1960140D02*
X3455019D01*
X3455218Y1959659D01*
X3456718Y1958158D01*
X3457200Y1957959D01*
Y1960140D01*
D02*
G37*
G36*
X3151521Y1962065D02*
X3150219D01*
X3149016Y1961567D01*
X3148094Y1960646D01*
X3147596Y1959443D01*
Y1958140D01*
X3148094Y1956937D01*
X3149016Y1956016D01*
X3150219Y1955517D01*
X3151521D01*
X3152725Y1956016D01*
X3153646Y1956937D01*
X3154144Y1958140D01*
Y1959443D01*
X3153646Y1960646D01*
X3152725Y1961567D01*
X3151521Y1962065D01*
D02*
G37*
G36*
X3094953D02*
X3093650D01*
X3092447Y1961567D01*
X3091526Y1960646D01*
X3091028Y1959443D01*
Y1958140D01*
X3091526Y1956937D01*
X3092447Y1956016D01*
X3093650Y1955517D01*
X3094953D01*
X3096156Y1956016D01*
X3097077Y1956937D01*
X3097575Y1958140D01*
Y1959443D01*
X3097077Y1960646D01*
X3096156Y1961567D01*
X3094953Y1962065D01*
D02*
G37*
G36*
X3174149Y1962065D02*
X3172846D01*
X3171643Y1961567D01*
X3170722Y1960646D01*
X3170223Y1959443D01*
Y1958140D01*
X3170722Y1956937D01*
X3171643Y1956016D01*
X3172846Y1955517D01*
X3174149D01*
X3175352Y1956016D01*
X3176273Y1956937D01*
X3176772Y1958140D01*
Y1959443D01*
X3176273Y1960646D01*
X3175352Y1961567D01*
X3174149Y1962065D01*
D02*
G37*
G36*
X3162835D02*
X3161533D01*
X3160329Y1961567D01*
X3159408Y1960646D01*
X3158910Y1959443D01*
Y1958140D01*
X3159408Y1956937D01*
X3160329Y1956016D01*
X3161533Y1955517D01*
X3162835D01*
X3164038Y1956016D01*
X3164959Y1956937D01*
X3165458Y1958140D01*
Y1959443D01*
X3164959Y1960646D01*
X3164038Y1961567D01*
X3162835Y1962065D01*
D02*
G37*
G36*
X3140208D02*
X3138905D01*
X3137702Y1961567D01*
X3136781Y1960646D01*
X3136282Y1959443D01*
Y1958140D01*
X3136781Y1956937D01*
X3137702Y1956016D01*
X3138905Y1955517D01*
X3140208D01*
X3141411Y1956016D01*
X3142332Y1956937D01*
X3142830Y1958140D01*
Y1959443D01*
X3142332Y1960646D01*
X3141411Y1961567D01*
X3140208Y1962065D01*
D02*
G37*
G36*
X3117580D02*
X3116278D01*
X3115074Y1961567D01*
X3114153Y1960646D01*
X3113655Y1959443D01*
Y1958140D01*
X3114153Y1956937D01*
X3115074Y1956016D01*
X3116278Y1955517D01*
X3117580D01*
X3118783Y1956016D01*
X3119704Y1956937D01*
X3120203Y1958140D01*
Y1959443D01*
X3119704Y1960646D01*
X3118783Y1961567D01*
X3117580Y1962065D01*
D02*
G37*
G36*
X3106266D02*
X3104964D01*
X3103761Y1961567D01*
X3102840Y1960646D01*
X3102341Y1959443D01*
Y1958140D01*
X3102840Y1956937D01*
X3103761Y1956016D01*
X3104964Y1955517D01*
X3106266D01*
X3107470Y1956016D01*
X3108391Y1956937D01*
X3108889Y1958140D01*
Y1959443D01*
X3108391Y1960646D01*
X3107470Y1961567D01*
X3106266Y1962065D01*
D02*
G37*
G36*
X3083639D02*
X3082336D01*
X3081133Y1961567D01*
X3080212Y1960646D01*
X3079714Y1959443D01*
Y1958140D01*
X3080212Y1956937D01*
X3081133Y1956016D01*
X3082336Y1955517D01*
X3083639D01*
X3084842Y1956016D01*
X3085763Y1956937D01*
X3086262Y1958140D01*
Y1959443D01*
X3085763Y1960646D01*
X3084842Y1961567D01*
X3083639Y1962065D01*
D02*
G37*
G36*
X3128894Y1962065D02*
X3127591D01*
X3126388Y1961567D01*
X3125467Y1960646D01*
X3124969Y1959443D01*
Y1958140D01*
X3125467Y1956937D01*
X3126388Y1956016D01*
X3127591Y1955517D01*
X3128894D01*
X3130097Y1956016D01*
X3131018Y1956937D01*
X3131517Y1958140D01*
Y1959443D01*
X3131018Y1960646D01*
X3130097Y1961567D01*
X3128894Y1962065D01*
D02*
G37*
G36*
X3456820Y1955353D02*
X3454280D01*
Y1950720D01*
X3463466D01*
X3463032Y1951767D01*
X3461892Y1953252D01*
X3460407Y1954392D01*
X3458676Y1955109D01*
X3456820Y1955353D01*
D02*
G37*
G36*
X3449200D02*
X3446660D01*
X3444803Y1955109D01*
X3443073Y1954392D01*
X3441588Y1953252D01*
X3440448Y1951767D01*
X3440014Y1950720D01*
X3449200D01*
Y1955353D01*
D02*
G37*
G36*
X3191119Y1956409D02*
X3189817D01*
X3188613Y1955910D01*
X3187693Y1954989D01*
X3187194Y1953786D01*
Y1952483D01*
X3187693Y1951280D01*
X3188613Y1950359D01*
X3189817Y1949861D01*
X3191119D01*
X3192322Y1950359D01*
X3193243Y1951280D01*
X3193742Y1952483D01*
Y1953786D01*
X3193243Y1954989D01*
X3192322Y1955910D01*
X3191119Y1956409D01*
D02*
G37*
G36*
X3157178D02*
X3155876D01*
X3154672Y1955910D01*
X3153751Y1954989D01*
X3153253Y1953786D01*
Y1952483D01*
X3153751Y1951280D01*
X3154672Y1950359D01*
X3155876Y1949861D01*
X3157178D01*
X3158381Y1950359D01*
X3159302Y1951280D01*
X3159801Y1952483D01*
Y1953786D01*
X3159302Y1954989D01*
X3158381Y1955910D01*
X3157178Y1956409D01*
D02*
G37*
G36*
X3145864D02*
X3144562D01*
X3143358Y1955910D01*
X3142438Y1954989D01*
X3141939Y1953786D01*
Y1952483D01*
X3142438Y1951280D01*
X3143358Y1950359D01*
X3144562Y1949861D01*
X3145864D01*
X3147068Y1950359D01*
X3147989Y1951280D01*
X3148487Y1952483D01*
Y1953786D01*
X3147989Y1954989D01*
X3147068Y1955910D01*
X3145864Y1956409D01*
D02*
G37*
G36*
X3100609D02*
X3099307D01*
X3098104Y1955910D01*
X3097183Y1954989D01*
X3096684Y1953786D01*
Y1952483D01*
X3097183Y1951280D01*
X3098104Y1950359D01*
X3099307Y1949861D01*
X3100609D01*
X3101813Y1950359D01*
X3102734Y1951280D01*
X3103232Y1952483D01*
Y1953786D01*
X3102734Y1954989D01*
X3101813Y1955910D01*
X3100609Y1956409D01*
D02*
G37*
G36*
X3089296D02*
X3087993D01*
X3086790Y1955910D01*
X3085869Y1954989D01*
X3085370Y1953786D01*
Y1952483D01*
X3085869Y1951280D01*
X3086790Y1950359D01*
X3087993Y1949861D01*
X3089296D01*
X3090499Y1950359D01*
X3091420Y1951280D01*
X3091919Y1952483D01*
Y1953786D01*
X3091420Y1954989D01*
X3090499Y1955910D01*
X3089296Y1956409D01*
D02*
G37*
G36*
X3066668D02*
X3065366D01*
X3064163Y1955910D01*
X3063242Y1954989D01*
X3062743Y1953786D01*
Y1952483D01*
X3063242Y1951280D01*
X3064163Y1950359D01*
X3065366Y1949861D01*
X3066668D01*
X3067872Y1950359D01*
X3068793Y1951280D01*
X3069291Y1952483D01*
Y1953786D01*
X3068793Y1954989D01*
X3067872Y1955910D01*
X3066668Y1956409D01*
D02*
G37*
G36*
X3168492Y1956409D02*
X3167189D01*
X3165986Y1955910D01*
X3165065Y1954989D01*
X3164567Y1953786D01*
Y1952483D01*
X3165065Y1951280D01*
X3165986Y1950359D01*
X3167189Y1949861D01*
X3168492D01*
X3169695Y1950359D01*
X3170616Y1951280D01*
X3171115Y1952483D01*
Y1953786D01*
X3170616Y1954989D01*
X3169695Y1955910D01*
X3168492Y1956409D01*
D02*
G37*
G36*
X3111923D02*
X3110621D01*
X3109417Y1955910D01*
X3108496Y1954989D01*
X3107998Y1953786D01*
Y1952483D01*
X3108496Y1951280D01*
X3109417Y1950359D01*
X3110621Y1949861D01*
X3111923D01*
X3113127Y1950359D01*
X3114048Y1951280D01*
X3114546Y1952483D01*
Y1953786D01*
X3114048Y1954989D01*
X3113127Y1955910D01*
X3111923Y1956409D01*
D02*
G37*
G36*
X3196776Y1950752D02*
X3195474D01*
X3194270Y1950253D01*
X3193349Y1949332D01*
X3192851Y1948129D01*
Y1946826D01*
X3193349Y1945623D01*
X3194270Y1944702D01*
X3195474Y1944204D01*
X3196776D01*
X3197979Y1944702D01*
X3198900Y1945623D01*
X3199399Y1946826D01*
Y1948129D01*
X3198900Y1949332D01*
X3197979Y1950253D01*
X3196776Y1950752D01*
D02*
G37*
G36*
X3185462D02*
X3184160D01*
X3182957Y1950253D01*
X3182036Y1949332D01*
X3181537Y1948129D01*
Y1946826D01*
X3182036Y1945623D01*
X3182957Y1944702D01*
X3184160Y1944204D01*
X3185462D01*
X3186666Y1944702D01*
X3187587Y1945623D01*
X3188085Y1946826D01*
Y1948129D01*
X3187587Y1949332D01*
X3186666Y1950253D01*
X3185462Y1950752D01*
D02*
G37*
G36*
X3162835D02*
X3161533D01*
X3160329Y1950253D01*
X3159408Y1949332D01*
X3158910Y1948129D01*
Y1946826D01*
X3159408Y1945623D01*
X3160329Y1944702D01*
X3161533Y1944204D01*
X3162835D01*
X3164038Y1944702D01*
X3164959Y1945623D01*
X3165458Y1946826D01*
Y1948129D01*
X3164959Y1949332D01*
X3164038Y1950253D01*
X3162835Y1950752D01*
D02*
G37*
G36*
X3151521D02*
X3150219D01*
X3149016Y1950253D01*
X3148094Y1949332D01*
X3147596Y1948129D01*
Y1946826D01*
X3148094Y1945623D01*
X3149016Y1944702D01*
X3150219Y1944204D01*
X3151521D01*
X3152725Y1944702D01*
X3153646Y1945623D01*
X3154144Y1946826D01*
Y1948129D01*
X3153646Y1949332D01*
X3152725Y1950253D01*
X3151521Y1950752D01*
D02*
G37*
G36*
X3140208D02*
X3138905D01*
X3137702Y1950253D01*
X3136781Y1949332D01*
X3136282Y1948129D01*
Y1946826D01*
X3136781Y1945623D01*
X3137702Y1944702D01*
X3138905Y1944204D01*
X3140208D01*
X3141411Y1944702D01*
X3142332Y1945623D01*
X3142830Y1946826D01*
Y1948129D01*
X3142332Y1949332D01*
X3141411Y1950253D01*
X3140208Y1950752D01*
D02*
G37*
G36*
X3106266D02*
X3104964D01*
X3103761Y1950253D01*
X3102840Y1949332D01*
X3102341Y1948129D01*
Y1946826D01*
X3102840Y1945623D01*
X3103761Y1944702D01*
X3104964Y1944204D01*
X3106266D01*
X3107470Y1944702D01*
X3108391Y1945623D01*
X3108889Y1946826D01*
Y1948129D01*
X3108391Y1949332D01*
X3107470Y1950253D01*
X3106266Y1950752D01*
D02*
G37*
G36*
X3094953D02*
X3093650D01*
X3092447Y1950253D01*
X3091526Y1949332D01*
X3091028Y1948129D01*
Y1946826D01*
X3091526Y1945623D01*
X3092447Y1944702D01*
X3093650Y1944204D01*
X3094953D01*
X3096156Y1944702D01*
X3097077Y1945623D01*
X3097575Y1946826D01*
Y1948129D01*
X3097077Y1949332D01*
X3096156Y1950253D01*
X3094953Y1950752D01*
D02*
G37*
G36*
X3061012D02*
X3059709D01*
X3058506Y1950253D01*
X3057585Y1949332D01*
X3057086Y1948129D01*
Y1946826D01*
X3057585Y1945623D01*
X3058506Y1944702D01*
X3059709Y1944204D01*
X3061012D01*
X3062215Y1944702D01*
X3063136Y1945623D01*
X3063634Y1946826D01*
Y1948129D01*
X3063136Y1949332D01*
X3062215Y1950253D01*
X3061012Y1950752D01*
D02*
G37*
G36*
X3072325Y1950752D02*
X3071023D01*
X3069820Y1950253D01*
X3068899Y1949332D01*
X3068400Y1948129D01*
Y1946826D01*
X3068899Y1945623D01*
X3069820Y1944702D01*
X3071023Y1944204D01*
X3072325D01*
X3073529Y1944702D01*
X3074449Y1945623D01*
X3074948Y1946826D01*
Y1948129D01*
X3074449Y1949332D01*
X3073529Y1950253D01*
X3072325Y1950752D01*
D02*
G37*
G36*
X3519466Y1945640D02*
X3510280D01*
Y1941007D01*
X3512820D01*
X3514677Y1941251D01*
X3516407Y1941968D01*
X3517892Y1943108D01*
X3519032Y1944593D01*
X3519466Y1945640D01*
D02*
G37*
G36*
X3463466D02*
X3454280D01*
Y1941007D01*
X3456820D01*
X3458676Y1941251D01*
X3460407Y1941968D01*
X3461892Y1943108D01*
X3463032Y1944593D01*
X3463466Y1945640D01*
D02*
G37*
G36*
X3449200D02*
X3440014D01*
X3440448Y1944593D01*
X3441588Y1943108D01*
X3443073Y1941968D01*
X3444803Y1941251D01*
X3446660Y1941007D01*
X3449200D01*
Y1945640D01*
D02*
G37*
G36*
X3202433Y1945095D02*
X3201130D01*
X3199927Y1944596D01*
X3199006Y1943675D01*
X3198508Y1942472D01*
Y1941170D01*
X3199006Y1939966D01*
X3199927Y1939045D01*
X3201130Y1938547D01*
X3202433D01*
X3203636Y1939045D01*
X3204557Y1939966D01*
X3205056Y1941170D01*
Y1942472D01*
X3204557Y1943675D01*
X3203636Y1944596D01*
X3202433Y1945095D01*
D02*
G37*
G36*
X3191119D02*
X3189817D01*
X3188613Y1944596D01*
X3187693Y1943675D01*
X3187194Y1942472D01*
Y1941170D01*
X3187693Y1939966D01*
X3188613Y1939045D01*
X3189817Y1938547D01*
X3191119D01*
X3192322Y1939045D01*
X3193243Y1939966D01*
X3193742Y1941170D01*
Y1942472D01*
X3193243Y1943675D01*
X3192322Y1944596D01*
X3191119Y1945095D01*
D02*
G37*
G36*
X3179806D02*
X3178503D01*
X3177300Y1944596D01*
X3176379Y1943675D01*
X3175880Y1942472D01*
Y1941170D01*
X3176379Y1939966D01*
X3177300Y1939045D01*
X3178503Y1938547D01*
X3179806D01*
X3181009Y1939045D01*
X3181930Y1939966D01*
X3182428Y1941170D01*
Y1942472D01*
X3181930Y1943675D01*
X3181009Y1944596D01*
X3179806Y1945095D01*
D02*
G37*
G36*
X3157178D02*
X3155876D01*
X3154672Y1944596D01*
X3153751Y1943675D01*
X3153253Y1942472D01*
Y1941170D01*
X3153751Y1939966D01*
X3154672Y1939045D01*
X3155876Y1938547D01*
X3157178D01*
X3158381Y1939045D01*
X3159302Y1939966D01*
X3159801Y1941170D01*
Y1942472D01*
X3159302Y1943675D01*
X3158381Y1944596D01*
X3157178Y1945095D01*
D02*
G37*
G36*
X3145864D02*
X3144562D01*
X3143358Y1944596D01*
X3142438Y1943675D01*
X3141939Y1942472D01*
Y1941170D01*
X3142438Y1939966D01*
X3143358Y1939045D01*
X3144562Y1938547D01*
X3145864D01*
X3147068Y1939045D01*
X3147989Y1939966D01*
X3148487Y1941170D01*
Y1942472D01*
X3147989Y1943675D01*
X3147068Y1944596D01*
X3145864Y1945095D01*
D02*
G37*
G36*
X3134551D02*
X3133248D01*
X3132045Y1944596D01*
X3131124Y1943675D01*
X3130626Y1942472D01*
Y1941170D01*
X3131124Y1939966D01*
X3132045Y1939045D01*
X3133248Y1938547D01*
X3134551D01*
X3135754Y1939045D01*
X3136675Y1939966D01*
X3137173Y1941170D01*
Y1942472D01*
X3136675Y1943675D01*
X3135754Y1944596D01*
X3134551Y1945095D01*
D02*
G37*
G36*
X3111923D02*
X3110621D01*
X3109417Y1944596D01*
X3108496Y1943675D01*
X3107998Y1942472D01*
Y1941170D01*
X3108496Y1939966D01*
X3109417Y1939045D01*
X3110621Y1938547D01*
X3111923D01*
X3113127Y1939045D01*
X3114048Y1939966D01*
X3114546Y1941170D01*
Y1942472D01*
X3114048Y1943675D01*
X3113127Y1944596D01*
X3111923Y1945095D01*
D02*
G37*
G36*
X3100609D02*
X3099307D01*
X3098104Y1944596D01*
X3097183Y1943675D01*
X3096684Y1942472D01*
Y1941170D01*
X3097183Y1939966D01*
X3098104Y1939045D01*
X3099307Y1938547D01*
X3100609D01*
X3101813Y1939045D01*
X3102734Y1939966D01*
X3103232Y1941170D01*
Y1942472D01*
X3102734Y1943675D01*
X3101813Y1944596D01*
X3100609Y1945095D01*
D02*
G37*
G36*
X3077982D02*
X3076680D01*
X3075476Y1944596D01*
X3074555Y1943675D01*
X3074057Y1942472D01*
Y1941170D01*
X3074555Y1939966D01*
X3075476Y1939045D01*
X3076680Y1938547D01*
X3077982D01*
X3079185Y1939045D01*
X3080107Y1939966D01*
X3080605Y1941170D01*
Y1942472D01*
X3080107Y1943675D01*
X3079185Y1944596D01*
X3077982Y1945095D01*
D02*
G37*
G36*
X3066668D02*
X3065366D01*
X3064163Y1944596D01*
X3063242Y1943675D01*
X3062743Y1942472D01*
Y1941170D01*
X3063242Y1939966D01*
X3064163Y1939045D01*
X3065366Y1938547D01*
X3066668D01*
X3067872Y1939045D01*
X3068793Y1939966D01*
X3069291Y1941170D01*
Y1942472D01*
X3068793Y1943675D01*
X3067872Y1944596D01*
X3066668Y1945095D01*
D02*
G37*
G36*
X3055355D02*
X3054052D01*
X3052849Y1944596D01*
X3051928Y1943675D01*
X3051429Y1942472D01*
Y1941170D01*
X3051928Y1939966D01*
X3052849Y1939045D01*
X3054052Y1938547D01*
X3055355D01*
X3056558Y1939045D01*
X3057479Y1939966D01*
X3057978Y1941170D01*
Y1942472D01*
X3057479Y1943675D01*
X3056558Y1944596D01*
X3055355Y1945095D01*
D02*
G37*
G36*
X3208090Y1939438D02*
X3206787D01*
X3205584Y1938940D01*
X3204663Y1938018D01*
X3204165Y1936815D01*
Y1935513D01*
X3204663Y1934309D01*
X3205584Y1933388D01*
X3206787Y1932890D01*
X3208090D01*
X3209293Y1933388D01*
X3210214Y1934309D01*
X3210713Y1935513D01*
Y1936815D01*
X3210214Y1938018D01*
X3209293Y1938940D01*
X3208090Y1939438D01*
D02*
G37*
G36*
X3196776Y1939438D02*
X3195474D01*
X3194270Y1938940D01*
X3193349Y1938018D01*
X3192851Y1936815D01*
Y1935513D01*
X3193349Y1934309D01*
X3194270Y1933388D01*
X3195474Y1932890D01*
X3196776D01*
X3197979Y1933388D01*
X3198900Y1934309D01*
X3199399Y1935513D01*
Y1936815D01*
X3198900Y1938018D01*
X3197979Y1938940D01*
X3196776Y1939438D01*
D02*
G37*
G36*
X3185462D02*
X3184160D01*
X3182957Y1938940D01*
X3182036Y1938018D01*
X3181537Y1936815D01*
Y1935513D01*
X3182036Y1934309D01*
X3182957Y1933388D01*
X3184160Y1932890D01*
X3185462D01*
X3186666Y1933388D01*
X3187587Y1934309D01*
X3188085Y1935513D01*
Y1936815D01*
X3187587Y1938018D01*
X3186666Y1938940D01*
X3185462Y1939438D01*
D02*
G37*
G36*
X3174149D02*
X3172846D01*
X3171643Y1938940D01*
X3170722Y1938018D01*
X3170223Y1936815D01*
Y1935513D01*
X3170722Y1934309D01*
X3171643Y1933388D01*
X3172846Y1932890D01*
X3174149D01*
X3175352Y1933388D01*
X3176273Y1934309D01*
X3176772Y1935513D01*
Y1936815D01*
X3176273Y1938018D01*
X3175352Y1938940D01*
X3174149Y1939438D01*
D02*
G37*
G36*
X3128894D02*
X3127591D01*
X3126388Y1938940D01*
X3125467Y1938018D01*
X3124969Y1936815D01*
Y1935513D01*
X3125467Y1934309D01*
X3126388Y1933388D01*
X3127591Y1932890D01*
X3128894D01*
X3130097Y1933388D01*
X3131018Y1934309D01*
X3131517Y1935513D01*
Y1936815D01*
X3131018Y1938018D01*
X3130097Y1938940D01*
X3128894Y1939438D01*
D02*
G37*
G36*
X3106266D02*
X3104964D01*
X3103761Y1938940D01*
X3102840Y1938018D01*
X3102341Y1936815D01*
Y1935513D01*
X3102840Y1934309D01*
X3103761Y1933388D01*
X3104964Y1932890D01*
X3106266D01*
X3107470Y1933388D01*
X3108391Y1934309D01*
X3108889Y1935513D01*
Y1936815D01*
X3108391Y1938018D01*
X3107470Y1938940D01*
X3106266Y1939438D01*
D02*
G37*
G36*
X3083639D02*
X3082336D01*
X3081133Y1938940D01*
X3080212Y1938018D01*
X3079714Y1936815D01*
Y1935513D01*
X3080212Y1934309D01*
X3081133Y1933388D01*
X3082336Y1932890D01*
X3083639D01*
X3084842Y1933388D01*
X3085763Y1934309D01*
X3086262Y1935513D01*
Y1936815D01*
X3085763Y1938018D01*
X3084842Y1938940D01*
X3083639Y1939438D01*
D02*
G37*
G36*
X3072325D02*
X3071023D01*
X3069820Y1938940D01*
X3068899Y1938018D01*
X3068400Y1936815D01*
Y1935513D01*
X3068899Y1934309D01*
X3069820Y1933388D01*
X3071023Y1932890D01*
X3072325D01*
X3073529Y1933388D01*
X3074449Y1934309D01*
X3074948Y1935513D01*
Y1936815D01*
X3074449Y1938018D01*
X3073529Y1938940D01*
X3072325Y1939438D01*
D02*
G37*
G36*
X3061012D02*
X3059709D01*
X3058506Y1938940D01*
X3057585Y1938018D01*
X3057086Y1936815D01*
Y1935513D01*
X3057585Y1934309D01*
X3058506Y1933388D01*
X3059709Y1932890D01*
X3061012D01*
X3062215Y1933388D01*
X3063136Y1934309D01*
X3063634Y1935513D01*
Y1936815D01*
X3063136Y1938018D01*
X3062215Y1938940D01*
X3061012Y1939438D01*
D02*
G37*
G36*
X3049698D02*
X3048395D01*
X3047192Y1938940D01*
X3046271Y1938018D01*
X3045773Y1936815D01*
Y1935513D01*
X3046271Y1934309D01*
X3047192Y1933388D01*
X3048395Y1932890D01*
X3049698D01*
X3050901Y1933388D01*
X3051822Y1934309D01*
X3052321Y1935513D01*
Y1936815D01*
X3051822Y1938018D01*
X3050901Y1938940D01*
X3049698Y1939438D01*
D02*
G37*
G36*
X3484880Y1936604D02*
Y1927860D01*
X3493624D01*
X3493109Y1929781D01*
X3491588Y1932416D01*
X3489436Y1934568D01*
X3486801Y1936089D01*
X3484880Y1936604D01*
D02*
G37*
G36*
X3479800D02*
X3477879Y1936089D01*
X3475244Y1934568D01*
X3473092Y1932416D01*
X3471571Y1929781D01*
X3471056Y1927860D01*
X3479800D01*
Y1936604D01*
D02*
G37*
G36*
X3202433Y1933781D02*
X3201130D01*
X3199927Y1933283D01*
X3199006Y1932362D01*
X3198508Y1931158D01*
Y1929856D01*
X3199006Y1928653D01*
X3199927Y1927732D01*
X3201130Y1927233D01*
X3202433D01*
X3203636Y1927732D01*
X3204557Y1928653D01*
X3205056Y1929856D01*
Y1931158D01*
X3204557Y1932362D01*
X3203636Y1933283D01*
X3202433Y1933781D01*
D02*
G37*
G36*
X3191119D02*
X3189817D01*
X3188613Y1933283D01*
X3187692Y1932362D01*
X3187194Y1931158D01*
Y1929856D01*
X3187692Y1928653D01*
X3188613Y1927732D01*
X3189817Y1927233D01*
X3191119D01*
X3192322Y1927732D01*
X3193243Y1928653D01*
X3193742Y1929856D01*
Y1931158D01*
X3193243Y1932362D01*
X3192322Y1933283D01*
X3191119Y1933781D01*
D02*
G37*
G36*
X3123237D02*
X3121935D01*
X3120731Y1933283D01*
X3119810Y1932362D01*
X3119312Y1931158D01*
Y1929856D01*
X3119810Y1928653D01*
X3120731Y1927732D01*
X3121935Y1927233D01*
X3123237D01*
X3124440Y1927732D01*
X3125361Y1928653D01*
X3125860Y1929856D01*
Y1931158D01*
X3125361Y1932362D01*
X3124440Y1933283D01*
X3123237Y1933781D01*
D02*
G37*
G36*
X3213747Y1933781D02*
X3212444D01*
X3211241Y1933283D01*
X3210320Y1932362D01*
X3209821Y1931158D01*
Y1929856D01*
X3210320Y1928652D01*
X3211241Y1927732D01*
X3212444Y1927233D01*
X3213747D01*
X3214950Y1927732D01*
X3215871Y1928652D01*
X3216369Y1929856D01*
Y1931158D01*
X3215871Y1932362D01*
X3214950Y1933283D01*
X3213747Y1933781D01*
D02*
G37*
G36*
X3179806D02*
X3178503D01*
X3177300Y1933283D01*
X3176379Y1932362D01*
X3175880Y1931158D01*
Y1929856D01*
X3176379Y1928652D01*
X3177300Y1927732D01*
X3178503Y1927233D01*
X3179806D01*
X3181009Y1927732D01*
X3181930Y1928652D01*
X3182428Y1929856D01*
Y1931158D01*
X3181930Y1932362D01*
X3181009Y1933283D01*
X3179806Y1933781D01*
D02*
G37*
G36*
X3168492D02*
X3167189D01*
X3165986Y1933283D01*
X3165065Y1932362D01*
X3164567Y1931158D01*
Y1929856D01*
X3165065Y1928652D01*
X3165986Y1927732D01*
X3167189Y1927233D01*
X3168492D01*
X3169695Y1927732D01*
X3170616Y1928652D01*
X3171115Y1929856D01*
Y1931158D01*
X3170616Y1932362D01*
X3169695Y1933283D01*
X3168492Y1933781D01*
D02*
G37*
G36*
X3134551D02*
X3133248D01*
X3132045Y1933283D01*
X3131124Y1932362D01*
X3130626Y1931158D01*
Y1929856D01*
X3131124Y1928652D01*
X3132045Y1927732D01*
X3133248Y1927233D01*
X3134551D01*
X3135754Y1927732D01*
X3136675Y1928652D01*
X3137173Y1929856D01*
Y1931158D01*
X3136675Y1932362D01*
X3135754Y1933283D01*
X3134551Y1933781D01*
D02*
G37*
G36*
X3089296D02*
X3087993D01*
X3086790Y1933283D01*
X3085869Y1932362D01*
X3085370Y1931158D01*
Y1929856D01*
X3085869Y1928652D01*
X3086790Y1927732D01*
X3087993Y1927233D01*
X3089296D01*
X3090499Y1927732D01*
X3091420Y1928652D01*
X3091919Y1929856D01*
Y1931158D01*
X3091420Y1932362D01*
X3090499Y1933283D01*
X3089296Y1933781D01*
D02*
G37*
G36*
X3077982D02*
X3076680D01*
X3075476Y1933283D01*
X3074555Y1932362D01*
X3074057Y1931158D01*
Y1929856D01*
X3074555Y1928652D01*
X3075476Y1927732D01*
X3076680Y1927233D01*
X3077982D01*
X3079185Y1927732D01*
X3080107Y1928652D01*
X3080605Y1929856D01*
Y1931158D01*
X3080107Y1932362D01*
X3079185Y1933283D01*
X3077982Y1933781D01*
D02*
G37*
G36*
X3066668D02*
X3065366D01*
X3064163Y1933283D01*
X3063242Y1932362D01*
X3062743Y1931158D01*
Y1929856D01*
X3063242Y1928652D01*
X3064163Y1927732D01*
X3065366Y1927233D01*
X3066668D01*
X3067872Y1927732D01*
X3068793Y1928652D01*
X3069291Y1929856D01*
Y1931158D01*
X3068793Y1932362D01*
X3067872Y1933283D01*
X3066668Y1933781D01*
D02*
G37*
G36*
X3044041D02*
X3042739D01*
X3041535Y1933283D01*
X3040614Y1932362D01*
X3040116Y1931158D01*
Y1929856D01*
X3040614Y1928652D01*
X3041535Y1927732D01*
X3042739Y1927233D01*
X3044041D01*
X3045244Y1927732D01*
X3046165Y1928652D01*
X3046664Y1929856D01*
Y1931158D01*
X3046165Y1932362D01*
X3045244Y1933283D01*
X3044041Y1933781D01*
D02*
G37*
G36*
X3219403Y1928124D02*
X3218101D01*
X3216898Y1927626D01*
X3215977Y1926705D01*
X3215478Y1925502D01*
Y1924199D01*
X3215977Y1922996D01*
X3216898Y1922075D01*
X3218101Y1921576D01*
X3219403D01*
X3220607Y1922075D01*
X3221528Y1922996D01*
X3222026Y1924199D01*
Y1925502D01*
X3221528Y1926705D01*
X3220607Y1927626D01*
X3219403Y1928124D01*
D02*
G37*
G36*
X3196776Y1928124D02*
X3195474D01*
X3194270Y1927626D01*
X3193349Y1926705D01*
X3192851Y1925502D01*
Y1924199D01*
X3193349Y1922996D01*
X3194270Y1922075D01*
X3195474Y1921576D01*
X3196776D01*
X3197979Y1922075D01*
X3198900Y1922996D01*
X3199399Y1924199D01*
Y1925502D01*
X3198900Y1926705D01*
X3197979Y1927626D01*
X3196776Y1928124D01*
D02*
G37*
G36*
X3185462D02*
X3184160D01*
X3182957Y1927626D01*
X3182036Y1926705D01*
X3181537Y1925502D01*
Y1924199D01*
X3182036Y1922996D01*
X3182957Y1922075D01*
X3184160Y1921576D01*
X3185462D01*
X3186666Y1922075D01*
X3187587Y1922996D01*
X3188085Y1924199D01*
Y1925502D01*
X3187587Y1926705D01*
X3186666Y1927626D01*
X3185462Y1928124D01*
D02*
G37*
G36*
X3162835D02*
X3161533D01*
X3160329Y1927626D01*
X3159408Y1926705D01*
X3158910Y1925502D01*
Y1924199D01*
X3159408Y1922996D01*
X3160329Y1922075D01*
X3161533Y1921576D01*
X3162835D01*
X3164038Y1922075D01*
X3164959Y1922996D01*
X3165458Y1924199D01*
Y1925502D01*
X3164959Y1926705D01*
X3164038Y1927626D01*
X3162835Y1928124D01*
D02*
G37*
G36*
X3117580D02*
X3116277D01*
X3115074Y1927626D01*
X3114153Y1926705D01*
X3113655Y1925502D01*
Y1924199D01*
X3114153Y1922996D01*
X3115074Y1922075D01*
X3116277Y1921576D01*
X3117580D01*
X3118783Y1922075D01*
X3119704Y1922996D01*
X3120203Y1924199D01*
Y1925502D01*
X3119704Y1926705D01*
X3118783Y1927626D01*
X3117580Y1928124D01*
D02*
G37*
G36*
X3094953D02*
X3093650D01*
X3092447Y1927626D01*
X3091526Y1926705D01*
X3091028Y1925502D01*
Y1924199D01*
X3091526Y1922996D01*
X3092447Y1922075D01*
X3093650Y1921576D01*
X3094953D01*
X3096156Y1922075D01*
X3097077Y1922996D01*
X3097575Y1924199D01*
Y1925502D01*
X3097077Y1926705D01*
X3096156Y1927626D01*
X3094953Y1928124D01*
D02*
G37*
G36*
X3061012D02*
X3059709D01*
X3058506Y1927626D01*
X3057585Y1926705D01*
X3057086Y1925502D01*
Y1924199D01*
X3057585Y1922996D01*
X3058506Y1922075D01*
X3059709Y1921576D01*
X3061012D01*
X3062215Y1922075D01*
X3063136Y1922996D01*
X3063634Y1924199D01*
Y1925502D01*
X3063136Y1926705D01*
X3062215Y1927626D01*
X3061012Y1928124D01*
D02*
G37*
G36*
X3038384D02*
X3037082D01*
X3035878Y1927626D01*
X3034957Y1926705D01*
X3034459Y1925502D01*
Y1924199D01*
X3034957Y1922996D01*
X3035878Y1922075D01*
X3037082Y1921576D01*
X3038384D01*
X3039587Y1922075D01*
X3040508Y1922996D01*
X3041007Y1924199D01*
Y1925502D01*
X3040508Y1926705D01*
X3039587Y1927626D01*
X3038384Y1928124D01*
D02*
G37*
G36*
X3140208Y1928124D02*
X3138905D01*
X3137702Y1927626D01*
X3136781Y1926705D01*
X3136282Y1925502D01*
Y1924199D01*
X3136781Y1922996D01*
X3137702Y1922075D01*
X3138905Y1921576D01*
X3140208D01*
X3141411Y1922075D01*
X3142332Y1922996D01*
X3142830Y1924199D01*
Y1925502D01*
X3142332Y1926705D01*
X3141411Y1927626D01*
X3140208Y1928124D01*
D02*
G37*
G36*
X3083639D02*
X3082336D01*
X3081133Y1927626D01*
X3080212Y1926705D01*
X3079714Y1925502D01*
Y1924199D01*
X3080212Y1922996D01*
X3081133Y1922075D01*
X3082336Y1921576D01*
X3083639D01*
X3084842Y1922075D01*
X3085763Y1922996D01*
X3086262Y1924199D01*
Y1925502D01*
X3085763Y1926705D01*
X3084842Y1927626D01*
X3083639Y1928124D01*
D02*
G37*
G36*
X3072325D02*
X3071023D01*
X3069820Y1927626D01*
X3068899Y1926705D01*
X3068400Y1925502D01*
Y1924199D01*
X3068899Y1922996D01*
X3069820Y1922075D01*
X3071023Y1921576D01*
X3072325D01*
X3073529Y1922075D01*
X3074449Y1922996D01*
X3074948Y1924199D01*
Y1925502D01*
X3074449Y1926705D01*
X3073529Y1927626D01*
X3072325Y1928124D01*
D02*
G37*
G36*
X3049698D02*
X3048395D01*
X3047192Y1927626D01*
X3046271Y1926705D01*
X3045773Y1925502D01*
Y1924199D01*
X3046271Y1922996D01*
X3047192Y1922075D01*
X3048395Y1921576D01*
X3049698D01*
X3050901Y1922075D01*
X3051822Y1922996D01*
X3052321Y1924199D01*
Y1925502D01*
X3051822Y1926705D01*
X3050901Y1927626D01*
X3049698Y1928124D01*
D02*
G37*
G36*
X3225060Y1922467D02*
X3223758D01*
X3222555Y1921969D01*
X3221634Y1921048D01*
X3221135Y1919845D01*
Y1918542D01*
X3221634Y1917339D01*
X3222555Y1916418D01*
X3223758Y1915919D01*
X3225060D01*
X3226264Y1916418D01*
X3227184Y1917339D01*
X3227683Y1918542D01*
Y1919845D01*
X3227184Y1921048D01*
X3226264Y1921969D01*
X3225060Y1922467D01*
D02*
G37*
G36*
X3213747D02*
X3212444D01*
X3211241Y1921969D01*
X3210320Y1921048D01*
X3209821Y1919845D01*
Y1918542D01*
X3210320Y1917339D01*
X3211241Y1916418D01*
X3212444Y1915919D01*
X3213747D01*
X3214950Y1916418D01*
X3215871Y1917339D01*
X3216369Y1918542D01*
Y1919845D01*
X3215871Y1921048D01*
X3214950Y1921969D01*
X3213747Y1922467D01*
D02*
G37*
G36*
X3191119D02*
X3189817D01*
X3188613Y1921969D01*
X3187692Y1921048D01*
X3187194Y1919845D01*
Y1918542D01*
X3187692Y1917339D01*
X3188613Y1916418D01*
X3189817Y1915919D01*
X3191119D01*
X3192322Y1916418D01*
X3193243Y1917339D01*
X3193742Y1918542D01*
Y1919845D01*
X3193243Y1921048D01*
X3192322Y1921969D01*
X3191119Y1922467D01*
D02*
G37*
G36*
X3202433Y1922467D02*
X3201130D01*
X3199927Y1921969D01*
X3199006Y1921048D01*
X3198508Y1919845D01*
Y1918542D01*
X3199006Y1917339D01*
X3199927Y1916418D01*
X3201130Y1915919D01*
X3202433D01*
X3203636Y1916418D01*
X3204557Y1917339D01*
X3205056Y1918542D01*
Y1919845D01*
X3204557Y1921048D01*
X3203636Y1921969D01*
X3202433Y1922467D01*
D02*
G37*
G36*
X3179806D02*
X3178503D01*
X3177300Y1921969D01*
X3176379Y1921048D01*
X3175880Y1919845D01*
Y1918542D01*
X3176379Y1917339D01*
X3177300Y1916418D01*
X3178503Y1915919D01*
X3179806D01*
X3181009Y1916418D01*
X3181930Y1917339D01*
X3182428Y1918542D01*
Y1919845D01*
X3181930Y1921048D01*
X3181009Y1921969D01*
X3179806Y1922467D01*
D02*
G37*
G36*
X3168492D02*
X3167189D01*
X3165986Y1921969D01*
X3165065Y1921048D01*
X3164567Y1919845D01*
Y1918542D01*
X3165065Y1917339D01*
X3165986Y1916418D01*
X3167189Y1915919D01*
X3168492D01*
X3169695Y1916418D01*
X3170616Y1917339D01*
X3171115Y1918542D01*
Y1919845D01*
X3170616Y1921048D01*
X3169695Y1921969D01*
X3168492Y1922467D01*
D02*
G37*
G36*
X3157178D02*
X3155876D01*
X3154672Y1921969D01*
X3153751Y1921048D01*
X3153253Y1919845D01*
Y1918542D01*
X3153751Y1917339D01*
X3154672Y1916418D01*
X3155876Y1915919D01*
X3157178D01*
X3158381Y1916418D01*
X3159302Y1917339D01*
X3159801Y1918542D01*
Y1919845D01*
X3159302Y1921048D01*
X3158381Y1921969D01*
X3157178Y1922467D01*
D02*
G37*
G36*
X3089296D02*
X3087993D01*
X3086790Y1921969D01*
X3085869Y1921048D01*
X3085370Y1919845D01*
Y1918542D01*
X3085869Y1917339D01*
X3086790Y1916418D01*
X3087993Y1915919D01*
X3089296D01*
X3090499Y1916418D01*
X3091420Y1917339D01*
X3091919Y1918542D01*
Y1919845D01*
X3091420Y1921048D01*
X3090499Y1921969D01*
X3089296Y1922467D01*
D02*
G37*
G36*
X3066668D02*
X3065366D01*
X3064163Y1921969D01*
X3063242Y1921048D01*
X3062743Y1919845D01*
Y1918542D01*
X3063242Y1917339D01*
X3064163Y1916418D01*
X3065366Y1915919D01*
X3066668D01*
X3067872Y1916418D01*
X3068793Y1917339D01*
X3069291Y1918542D01*
Y1919845D01*
X3068793Y1921048D01*
X3067872Y1921969D01*
X3066668Y1922467D01*
D02*
G37*
G36*
X3055355D02*
X3054052D01*
X3052849Y1921969D01*
X3051928Y1921048D01*
X3051429Y1919845D01*
Y1918542D01*
X3051928Y1917339D01*
X3052849Y1916418D01*
X3054052Y1915919D01*
X3055355D01*
X3056558Y1916418D01*
X3057479Y1917339D01*
X3057978Y1918542D01*
Y1919845D01*
X3057479Y1921048D01*
X3056558Y1921969D01*
X3055355Y1922467D01*
D02*
G37*
G36*
X3077982Y1922467D02*
X3076680D01*
X3075476Y1921969D01*
X3074555Y1921048D01*
X3074057Y1919845D01*
Y1918542D01*
X3074555Y1917339D01*
X3075476Y1916418D01*
X3076680Y1915919D01*
X3077982D01*
X3079185Y1916418D01*
X3080107Y1917339D01*
X3080605Y1918542D01*
Y1919845D01*
X3080107Y1921048D01*
X3079185Y1921969D01*
X3077982Y1922467D01*
D02*
G37*
G36*
X3044041D02*
X3042739D01*
X3041535Y1921969D01*
X3040614Y1921048D01*
X3040116Y1919845D01*
Y1918542D01*
X3040614Y1917339D01*
X3041535Y1916418D01*
X3042739Y1915919D01*
X3044041D01*
X3045244Y1916418D01*
X3046165Y1917339D01*
X3046664Y1918542D01*
Y1919845D01*
X3046165Y1921048D01*
X3045244Y1921969D01*
X3044041Y1922467D01*
D02*
G37*
G36*
X3032727D02*
X3031425D01*
X3030222Y1921969D01*
X3029301Y1921048D01*
X3028802Y1919845D01*
Y1918542D01*
X3029301Y1917339D01*
X3030222Y1916418D01*
X3031425Y1915919D01*
X3032727D01*
X3033931Y1916418D01*
X3034852Y1917339D01*
X3035350Y1918542D01*
Y1919845D01*
X3034852Y1921048D01*
X3033931Y1921969D01*
X3032727Y1922467D01*
D02*
G37*
G36*
X3493624Y1922780D02*
X3484880D01*
Y1914036D01*
X3486801Y1914551D01*
X3489436Y1916072D01*
X3491588Y1918224D01*
X3493109Y1920859D01*
X3493624Y1922780D01*
D02*
G37*
G36*
X3479800D02*
X3471056D01*
X3471571Y1920859D01*
X3473092Y1918224D01*
X3475244Y1916072D01*
X3477879Y1914551D01*
X3479800Y1914036D01*
Y1922780D01*
D02*
G37*
G36*
X3219403Y1916810D02*
X3218101D01*
X3216898Y1916312D01*
X3215977Y1915391D01*
X3215478Y1914188D01*
Y1912885D01*
X3215977Y1911682D01*
X3216898Y1910761D01*
X3218101Y1910263D01*
X3219403D01*
X3220607Y1910761D01*
X3221528Y1911682D01*
X3222026Y1912885D01*
Y1914188D01*
X3221528Y1915391D01*
X3220607Y1916312D01*
X3219403Y1916810D01*
D02*
G37*
G36*
X3208090D02*
X3206787D01*
X3205584Y1916312D01*
X3204663Y1915391D01*
X3204164Y1914188D01*
Y1912885D01*
X3204663Y1911682D01*
X3205584Y1910761D01*
X3206787Y1910263D01*
X3208090D01*
X3209293Y1910761D01*
X3210214Y1911682D01*
X3210713Y1912885D01*
Y1914188D01*
X3210214Y1915391D01*
X3209293Y1916312D01*
X3208090Y1916810D01*
D02*
G37*
G36*
X3185462D02*
X3184160D01*
X3182957Y1916312D01*
X3182036Y1915391D01*
X3181537Y1914188D01*
Y1912885D01*
X3182036Y1911682D01*
X3182957Y1910761D01*
X3184160Y1910263D01*
X3185462D01*
X3186666Y1910761D01*
X3187587Y1911682D01*
X3188085Y1912885D01*
Y1914188D01*
X3187587Y1915391D01*
X3186666Y1916312D01*
X3185462Y1916810D01*
D02*
G37*
G36*
X3106266D02*
X3104964D01*
X3103761Y1916312D01*
X3102840Y1915391D01*
X3102341Y1914188D01*
Y1912885D01*
X3102840Y1911682D01*
X3103761Y1910761D01*
X3104964Y1910263D01*
X3106266D01*
X3107470Y1910761D01*
X3108391Y1911682D01*
X3108889Y1912885D01*
Y1914188D01*
X3108391Y1915391D01*
X3107470Y1916312D01*
X3106266Y1916810D01*
D02*
G37*
G36*
X3049698D02*
X3048395D01*
X3047192Y1916312D01*
X3046271Y1915391D01*
X3045773Y1914188D01*
Y1912885D01*
X3046271Y1911682D01*
X3047192Y1910761D01*
X3048395Y1910263D01*
X3049698D01*
X3050901Y1910761D01*
X3051822Y1911682D01*
X3052321Y1912885D01*
Y1914188D01*
X3051822Y1915391D01*
X3050901Y1916312D01*
X3049698Y1916810D01*
D02*
G37*
G36*
X3196776Y1916810D02*
X3195474D01*
X3194270Y1916312D01*
X3193349Y1915391D01*
X3192851Y1914188D01*
Y1912885D01*
X3193349Y1911682D01*
X3194270Y1910761D01*
X3195474Y1910262D01*
X3196776D01*
X3197979Y1910761D01*
X3198900Y1911682D01*
X3199399Y1912885D01*
Y1914188D01*
X3198900Y1915391D01*
X3197979Y1916312D01*
X3196776Y1916810D01*
D02*
G37*
G36*
X3151521D02*
X3150219D01*
X3149016Y1916312D01*
X3148094Y1915391D01*
X3147596Y1914188D01*
Y1912885D01*
X3148094Y1911682D01*
X3149016Y1910761D01*
X3150219Y1910262D01*
X3151521D01*
X3152725Y1910761D01*
X3153646Y1911682D01*
X3154144Y1912885D01*
Y1914188D01*
X3153646Y1915391D01*
X3152725Y1916312D01*
X3151521Y1916810D01*
D02*
G37*
G36*
X3061012D02*
X3059709D01*
X3058506Y1916312D01*
X3057585Y1915391D01*
X3057086Y1914188D01*
Y1912885D01*
X3057585Y1911682D01*
X3058506Y1910761D01*
X3059709Y1910262D01*
X3061012D01*
X3062215Y1910761D01*
X3063136Y1911682D01*
X3063634Y1912885D01*
Y1914188D01*
X3063136Y1915391D01*
X3062215Y1916312D01*
X3061012Y1916810D01*
D02*
G37*
G36*
X3027070D02*
X3025768D01*
X3024565Y1916312D01*
X3023644Y1915391D01*
X3023145Y1914188D01*
Y1912885D01*
X3023644Y1911682D01*
X3024565Y1910761D01*
X3025768Y1910262D01*
X3027070D01*
X3028274Y1910761D01*
X3029195Y1911682D01*
X3029693Y1912885D01*
Y1914188D01*
X3029195Y1915391D01*
X3028274Y1916312D01*
X3027070Y1916810D01*
D02*
G37*
G36*
X3072325Y1916810D02*
X3071023D01*
X3069820Y1916312D01*
X3068899Y1915391D01*
X3068400Y1914188D01*
Y1912885D01*
X3068899Y1911682D01*
X3069820Y1910761D01*
X3071023Y1910262D01*
X3072325D01*
X3073529Y1910761D01*
X3074449Y1911682D01*
X3074948Y1912885D01*
Y1914188D01*
X3074449Y1915391D01*
X3073529Y1916312D01*
X3072325Y1916810D01*
D02*
G37*
G36*
X3038384D02*
X3037082D01*
X3035878Y1916312D01*
X3034957Y1915391D01*
X3034459Y1914188D01*
Y1912885D01*
X3034957Y1911682D01*
X3035878Y1910761D01*
X3037082Y1910262D01*
X3038384D01*
X3039587Y1910761D01*
X3040508Y1911682D01*
X3041007Y1912885D01*
Y1914188D01*
X3040508Y1915391D01*
X3039587Y1916312D01*
X3038384Y1916810D01*
D02*
G37*
G36*
X3236374Y1911154D02*
X3235072D01*
X3233868Y1910655D01*
X3232947Y1909734D01*
X3232449Y1908531D01*
Y1907229D01*
X3232947Y1906025D01*
X3233868Y1905104D01*
X3235072Y1904606D01*
X3236374D01*
X3237578Y1905104D01*
X3238498Y1906025D01*
X3238997Y1907229D01*
Y1908531D01*
X3238498Y1909734D01*
X3237578Y1910655D01*
X3236374Y1911154D01*
D02*
G37*
G36*
X3202433D02*
X3201130D01*
X3199927Y1910655D01*
X3199006Y1909734D01*
X3198508Y1908531D01*
Y1907229D01*
X3199006Y1906025D01*
X3199927Y1905104D01*
X3201130Y1904606D01*
X3202433D01*
X3203636Y1905104D01*
X3204557Y1906025D01*
X3205056Y1907229D01*
Y1908531D01*
X3204557Y1909734D01*
X3203636Y1910655D01*
X3202433Y1911154D01*
D02*
G37*
G36*
X3179806D02*
X3178503D01*
X3177300Y1910655D01*
X3176379Y1909734D01*
X3175880Y1908531D01*
Y1907229D01*
X3176379Y1906025D01*
X3177300Y1905104D01*
X3178503Y1904606D01*
X3179806D01*
X3181009Y1905104D01*
X3181930Y1906025D01*
X3182428Y1907229D01*
Y1908531D01*
X3181930Y1909734D01*
X3181009Y1910655D01*
X3179806Y1911154D01*
D02*
G37*
G36*
X3213747Y1911154D02*
X3212444D01*
X3211241Y1910655D01*
X3210320Y1909734D01*
X3209821Y1908531D01*
Y1907228D01*
X3210320Y1906025D01*
X3211241Y1905104D01*
X3212444Y1904606D01*
X3213747D01*
X3214950Y1905104D01*
X3215871Y1906025D01*
X3216369Y1907228D01*
Y1908531D01*
X3215871Y1909734D01*
X3214950Y1910655D01*
X3213747Y1911154D01*
D02*
G37*
G36*
X3191119D02*
X3189817D01*
X3188613Y1910655D01*
X3187693Y1909734D01*
X3187194Y1908531D01*
Y1907228D01*
X3187693Y1906025D01*
X3188613Y1905104D01*
X3189817Y1904606D01*
X3191119D01*
X3192322Y1905104D01*
X3193243Y1906025D01*
X3193742Y1907228D01*
Y1908531D01*
X3193243Y1909734D01*
X3192322Y1910655D01*
X3191119Y1911154D01*
D02*
G37*
G36*
X3157178D02*
X3155876D01*
X3154672Y1910655D01*
X3153751Y1909734D01*
X3153253Y1908531D01*
Y1907228D01*
X3153751Y1906025D01*
X3154672Y1905104D01*
X3155876Y1904606D01*
X3157178D01*
X3158381Y1905104D01*
X3159302Y1906025D01*
X3159801Y1907228D01*
Y1908531D01*
X3159302Y1909734D01*
X3158381Y1910655D01*
X3157178Y1911154D01*
D02*
G37*
G36*
X3100609D02*
X3099307D01*
X3098104Y1910655D01*
X3097183Y1909734D01*
X3096684Y1908531D01*
Y1907228D01*
X3097183Y1906025D01*
X3098104Y1905104D01*
X3099307Y1904606D01*
X3100609D01*
X3101813Y1905104D01*
X3102734Y1906025D01*
X3103232Y1907228D01*
Y1908531D01*
X3102734Y1909734D01*
X3101813Y1910655D01*
X3100609Y1911154D01*
D02*
G37*
G36*
X3066668D02*
X3065366D01*
X3064163Y1910655D01*
X3063242Y1909734D01*
X3062743Y1908531D01*
Y1907228D01*
X3063242Y1906025D01*
X3064163Y1905104D01*
X3065366Y1904606D01*
X3066668D01*
X3067872Y1905104D01*
X3068793Y1906025D01*
X3069291Y1907228D01*
Y1908531D01*
X3068793Y1909734D01*
X3067872Y1910655D01*
X3066668Y1911154D01*
D02*
G37*
G36*
X3055355D02*
X3054052D01*
X3052849Y1910655D01*
X3051928Y1909734D01*
X3051429Y1908531D01*
Y1907228D01*
X3051928Y1906025D01*
X3052849Y1905104D01*
X3054052Y1904606D01*
X3055355D01*
X3056558Y1905104D01*
X3057479Y1906025D01*
X3057978Y1907228D01*
Y1908531D01*
X3057479Y1909734D01*
X3056558Y1910655D01*
X3055355Y1911154D01*
D02*
G37*
G36*
X3044041D02*
X3042739D01*
X3041535Y1910655D01*
X3040614Y1909734D01*
X3040116Y1908531D01*
Y1907228D01*
X3040614Y1906025D01*
X3041535Y1905104D01*
X3042739Y1904606D01*
X3044041D01*
X3045244Y1905104D01*
X3046165Y1906025D01*
X3046664Y1907228D01*
Y1908531D01*
X3046165Y1909734D01*
X3045244Y1910655D01*
X3044041Y1911154D01*
D02*
G37*
G36*
X3032727Y1911154D02*
X3031425D01*
X3030222Y1910655D01*
X3029301Y1909734D01*
X3028802Y1908531D01*
Y1907228D01*
X3029301Y1906025D01*
X3030222Y1905104D01*
X3031425Y1904606D01*
X3032727D01*
X3033931Y1905104D01*
X3034852Y1906025D01*
X3035350Y1907228D01*
Y1908531D01*
X3034852Y1909734D01*
X3033931Y1910655D01*
X3032727Y1911154D01*
D02*
G37*
G36*
X3456820Y1908981D02*
X3454280D01*
Y1904348D01*
X3463466D01*
X3463032Y1905395D01*
X3461892Y1906880D01*
X3460407Y1908020D01*
X3458676Y1908737D01*
X3456820Y1908981D01*
D02*
G37*
G36*
X3512820D02*
X3510280D01*
Y1904348D01*
X3519466D01*
X3519032Y1905395D01*
X3517892Y1906880D01*
X3516407Y1908020D01*
X3514677Y1908737D01*
X3512820Y1908981D01*
D02*
G37*
G36*
X3449200D02*
X3446660D01*
X3444803Y1908737D01*
X3443073Y1908020D01*
X3441588Y1906880D01*
X3440448Y1905395D01*
X3440014Y1904348D01*
X3449200D01*
Y1908981D01*
D02*
G37*
G36*
X3505200D02*
X3502660D01*
X3500804Y1908737D01*
X3499073Y1908020D01*
X3497588Y1906880D01*
X3496448Y1905395D01*
X3495940Y1904168D01*
X3495240Y1904458D01*
X3474240D01*
X3473074Y1903974D01*
X3472590Y1902808D01*
Y1882613D01*
X3471320Y1882361D01*
X3470831Y1883542D01*
X3469474Y1884899D01*
X3467700Y1885634D01*
X3466195D01*
X3465550Y1885987D01*
X3465074Y1886716D01*
Y1888369D01*
X3464348Y1890120D01*
X3464817Y1890795D01*
X3465204Y1891120D01*
X3466083Y1890756D01*
X3467397D01*
X3468611Y1891259D01*
X3469539Y1892188D01*
X3470042Y1893401D01*
Y1894715D01*
X3469539Y1895928D01*
X3468611Y1896857D01*
X3467397Y1897360D01*
X3466083D01*
X3464870Y1896857D01*
X3463941Y1895928D01*
X3463438Y1894715D01*
Y1893401D01*
X3463757Y1892630D01*
X3462914Y1891953D01*
X3462704Y1891854D01*
X3462280Y1892029D01*
Y1887308D01*
X3459740D01*
Y1884768D01*
X3455019D01*
X3455218Y1884287D01*
X3456719Y1882786D01*
X3458679Y1881974D01*
X3460741D01*
X3460817Y1881960D01*
X3461914Y1881060D01*
Y1879848D01*
X3462649Y1878074D01*
X3463915Y1876808D01*
X3462649Y1875542D01*
X3462175Y1874398D01*
X3460741Y1873617D01*
X3460700Y1873634D01*
X3458780D01*
X3457006Y1872899D01*
X3455649Y1871542D01*
X3454914Y1869768D01*
Y1867848D01*
X3455649Y1866074D01*
X3456915Y1864808D01*
X3455649Y1863542D01*
X3454914Y1861768D01*
Y1859848D01*
X3455649Y1858074D01*
X3456915Y1856808D01*
X3455649Y1855542D01*
X3454914Y1853768D01*
Y1851848D01*
X3455649Y1850074D01*
X3456915Y1848808D01*
X3455649Y1847542D01*
X3454914Y1845768D01*
Y1843848D01*
X3455649Y1842074D01*
X3457006Y1840717D01*
X3458780Y1839982D01*
X3460700D01*
X3460741Y1839999D01*
X3462175Y1839218D01*
X3462649Y1838074D01*
X3463915Y1836808D01*
X3462649Y1835542D01*
X3461914Y1833768D01*
Y1832556D01*
X3460817Y1831655D01*
X3460741Y1831642D01*
X3458679D01*
X3456719Y1830830D01*
X3455218Y1829330D01*
X3455019Y1828848D01*
X3459740D01*
Y1826308D01*
X3462280D01*
Y1821587D01*
X3462704Y1821762D01*
X3462914Y1821663D01*
X3463757Y1820986D01*
X3463438Y1820215D01*
Y1818901D01*
X3463941Y1817688D01*
X3464870Y1816759D01*
X3466083Y1816256D01*
X3467397D01*
X3468611Y1816759D01*
X3469539Y1817688D01*
X3470042Y1818901D01*
Y1820215D01*
X3469539Y1821428D01*
X3468611Y1822357D01*
X3467397Y1822860D01*
X3466083D01*
X3465204Y1822496D01*
X3464817Y1822821D01*
X3464348Y1823496D01*
X3465074Y1825247D01*
Y1826900D01*
X3465550Y1827629D01*
X3466195Y1827982D01*
X3467700D01*
X3469474Y1828717D01*
X3470831Y1830074D01*
X3471320Y1831255D01*
X3472590Y1831003D01*
Y1810808D01*
X3473074Y1809642D01*
X3474240Y1809158D01*
X3495240D01*
X3495940Y1809448D01*
X3496448Y1808221D01*
X3497588Y1806736D01*
X3499073Y1805596D01*
X3500804Y1804879D01*
X3502660Y1804635D01*
X3505200D01*
Y1811808D01*
X3507740D01*
Y1814348D01*
X3519466D01*
X3519032Y1815395D01*
X3518270Y1816388D01*
X3518891Y1817658D01*
X3519240D01*
X3520406Y1818142D01*
X3520890Y1819308D01*
Y1894308D01*
X3520406Y1895474D01*
X3519240Y1895958D01*
X3518891D01*
X3518270Y1897228D01*
X3519032Y1898221D01*
X3519466Y1899268D01*
X3507740D01*
Y1901808D01*
X3505200D01*
Y1908981D01*
D02*
G37*
G36*
X3219403Y1905497D02*
X3218101D01*
X3216898Y1904998D01*
X3215977Y1904077D01*
X3215478Y1902874D01*
Y1901572D01*
X3215977Y1900368D01*
X3216898Y1899447D01*
X3218101Y1898949D01*
X3219403D01*
X3220607Y1899447D01*
X3221528Y1900368D01*
X3222026Y1901572D01*
Y1902874D01*
X3221528Y1904077D01*
X3220607Y1904998D01*
X3219403Y1905497D01*
D02*
G37*
G36*
X3208090D02*
X3206787D01*
X3205584Y1904998D01*
X3204663Y1904077D01*
X3204165Y1902874D01*
Y1901572D01*
X3204663Y1900368D01*
X3205584Y1899447D01*
X3206787Y1898949D01*
X3208090D01*
X3209293Y1899447D01*
X3210214Y1900368D01*
X3210713Y1901572D01*
Y1902874D01*
X3210214Y1904077D01*
X3209293Y1904998D01*
X3208090Y1905497D01*
D02*
G37*
G36*
X3196776D02*
X3195474D01*
X3194270Y1904998D01*
X3193349Y1904077D01*
X3192851Y1902874D01*
Y1901572D01*
X3193349Y1900368D01*
X3194270Y1899447D01*
X3195474Y1898949D01*
X3196776D01*
X3197979Y1899447D01*
X3198900Y1900368D01*
X3199399Y1901572D01*
Y1902874D01*
X3198900Y1904077D01*
X3197979Y1904998D01*
X3196776Y1905497D01*
D02*
G37*
G36*
X3072325D02*
X3071023D01*
X3069820Y1904998D01*
X3068899Y1904077D01*
X3068400Y1902874D01*
Y1901572D01*
X3068899Y1900368D01*
X3069820Y1899447D01*
X3071023Y1898949D01*
X3072325D01*
X3073529Y1899447D01*
X3074449Y1900368D01*
X3074948Y1901572D01*
Y1902874D01*
X3074449Y1904077D01*
X3073529Y1904998D01*
X3072325Y1905497D01*
D02*
G37*
G36*
X3162835Y1905497D02*
X3161533D01*
X3160329Y1904998D01*
X3159408Y1904077D01*
X3158910Y1902874D01*
Y1901572D01*
X3159408Y1900368D01*
X3160329Y1899447D01*
X3161533Y1898949D01*
X3162835D01*
X3164038Y1899447D01*
X3164959Y1900368D01*
X3165458Y1901572D01*
Y1902874D01*
X3164959Y1904077D01*
X3164038Y1904998D01*
X3162835Y1905497D01*
D02*
G37*
G36*
X3094953D02*
X3093650D01*
X3092447Y1904998D01*
X3091526Y1904077D01*
X3091028Y1902874D01*
Y1901572D01*
X3091526Y1900368D01*
X3092447Y1899447D01*
X3093650Y1898949D01*
X3094953D01*
X3096156Y1899447D01*
X3097077Y1900368D01*
X3097575Y1901572D01*
Y1902874D01*
X3097077Y1904077D01*
X3096156Y1904998D01*
X3094953Y1905497D01*
D02*
G37*
G36*
X3061012D02*
X3059709D01*
X3058506Y1904998D01*
X3057585Y1904077D01*
X3057086Y1902874D01*
Y1901572D01*
X3057585Y1900368D01*
X3058506Y1899447D01*
X3059709Y1898949D01*
X3061012D01*
X3062215Y1899447D01*
X3063136Y1900368D01*
X3063634Y1901572D01*
Y1902874D01*
X3063136Y1904077D01*
X3062215Y1904998D01*
X3061012Y1905497D01*
D02*
G37*
G36*
X3038384D02*
X3037082D01*
X3035878Y1904998D01*
X3034957Y1904077D01*
X3034459Y1902874D01*
Y1901572D01*
X3034957Y1900368D01*
X3035878Y1899447D01*
X3037082Y1898949D01*
X3038384D01*
X3039587Y1899447D01*
X3040508Y1900368D01*
X3041007Y1901572D01*
Y1902874D01*
X3040508Y1904077D01*
X3039587Y1904998D01*
X3038384Y1905497D01*
D02*
G37*
G36*
X3027071D02*
X3025768D01*
X3024565Y1904998D01*
X3023644Y1904077D01*
X3023145Y1902874D01*
Y1901572D01*
X3023644Y1900368D01*
X3024565Y1899447D01*
X3025768Y1898949D01*
X3027071D01*
X3028274Y1899447D01*
X3029195Y1900368D01*
X3029693Y1901572D01*
Y1902874D01*
X3029195Y1904077D01*
X3028274Y1904998D01*
X3027071Y1905497D01*
D02*
G37*
G36*
X3463466Y1899268D02*
X3454280D01*
Y1894635D01*
X3456820D01*
X3458676Y1894879D01*
X3460407Y1895596D01*
X3461892Y1896736D01*
X3463032Y1898221D01*
X3463466Y1899268D01*
D02*
G37*
G36*
X3449200D02*
X3440014D01*
X3440448Y1898221D01*
X3441588Y1896736D01*
X3443073Y1895596D01*
X3444803Y1894879D01*
X3446660Y1894635D01*
X3449200D01*
Y1899268D01*
D02*
G37*
G36*
X3191119Y1899840D02*
X3189817D01*
X3188613Y1899341D01*
X3187692Y1898421D01*
X3187194Y1897217D01*
Y1895915D01*
X3187692Y1894711D01*
X3188613Y1893790D01*
X3189817Y1893292D01*
X3191119D01*
X3192322Y1893790D01*
X3193243Y1894711D01*
X3193742Y1895915D01*
Y1897217D01*
X3193243Y1898421D01*
X3192322Y1899341D01*
X3191119Y1899840D01*
D02*
G37*
G36*
X3225060Y1899840D02*
X3223758D01*
X3222555Y1899341D01*
X3221634Y1898421D01*
X3221135Y1897217D01*
Y1895915D01*
X3221634Y1894711D01*
X3222555Y1893790D01*
X3223758Y1893292D01*
X3225060D01*
X3226264Y1893790D01*
X3227184Y1894711D01*
X3227683Y1895915D01*
Y1897217D01*
X3227184Y1898421D01*
X3226264Y1899341D01*
X3225060Y1899840D01*
D02*
G37*
G36*
X3213747D02*
X3212444D01*
X3211241Y1899341D01*
X3210320Y1898421D01*
X3209821Y1897217D01*
Y1895915D01*
X3210320Y1894711D01*
X3211241Y1893790D01*
X3212444Y1893292D01*
X3213747D01*
X3214950Y1893790D01*
X3215871Y1894711D01*
X3216369Y1895915D01*
Y1897217D01*
X3215871Y1898421D01*
X3214950Y1899341D01*
X3213747Y1899840D01*
D02*
G37*
G36*
X3202433D02*
X3201130D01*
X3199927Y1899341D01*
X3199006Y1898421D01*
X3198508Y1897217D01*
Y1895915D01*
X3199006Y1894711D01*
X3199927Y1893790D01*
X3201130Y1893292D01*
X3202433D01*
X3203636Y1893790D01*
X3204557Y1894711D01*
X3205056Y1895915D01*
Y1897217D01*
X3204557Y1898421D01*
X3203636Y1899341D01*
X3202433Y1899840D01*
D02*
G37*
G36*
X3157178D02*
X3155876D01*
X3154672Y1899341D01*
X3153751Y1898421D01*
X3153253Y1897217D01*
Y1895915D01*
X3153751Y1894711D01*
X3154672Y1893790D01*
X3155876Y1893292D01*
X3157178D01*
X3158381Y1893790D01*
X3159302Y1894711D01*
X3159801Y1895915D01*
Y1897217D01*
X3159302Y1898421D01*
X3158381Y1899341D01*
X3157178Y1899840D01*
D02*
G37*
G36*
X3089296D02*
X3087993D01*
X3086790Y1899341D01*
X3085869Y1898421D01*
X3085370Y1897217D01*
Y1895915D01*
X3085869Y1894711D01*
X3086790Y1893790D01*
X3087993Y1893292D01*
X3089296D01*
X3090499Y1893790D01*
X3091420Y1894711D01*
X3091919Y1895915D01*
Y1897217D01*
X3091420Y1898421D01*
X3090499Y1899341D01*
X3089296Y1899840D01*
D02*
G37*
G36*
X3066668D02*
X3065366D01*
X3064163Y1899341D01*
X3063242Y1898421D01*
X3062743Y1897217D01*
Y1895915D01*
X3063242Y1894711D01*
X3064163Y1893790D01*
X3065366Y1893292D01*
X3066668D01*
X3067872Y1893790D01*
X3068793Y1894711D01*
X3069291Y1895915D01*
Y1897217D01*
X3068793Y1898421D01*
X3067872Y1899341D01*
X3066668Y1899840D01*
D02*
G37*
G36*
X3032727D02*
X3031425D01*
X3030222Y1899341D01*
X3029301Y1898421D01*
X3028802Y1897217D01*
Y1895915D01*
X3029301Y1894711D01*
X3030222Y1893790D01*
X3031425Y1893292D01*
X3032727D01*
X3033931Y1893790D01*
X3034852Y1894711D01*
X3035350Y1895915D01*
Y1897217D01*
X3034852Y1898421D01*
X3033931Y1899341D01*
X3032727Y1899840D01*
D02*
G37*
G36*
X3236374Y1899840D02*
X3235072D01*
X3233868Y1899341D01*
X3232947Y1898421D01*
X3232449Y1897217D01*
Y1895915D01*
X3232947Y1894711D01*
X3233868Y1893790D01*
X3235072Y1893292D01*
X3236374D01*
X3237577Y1893790D01*
X3238498Y1894711D01*
X3238997Y1895915D01*
Y1897217D01*
X3238498Y1898421D01*
X3237577Y1899341D01*
X3236374Y1899840D01*
D02*
G37*
G36*
X3100609D02*
X3099307D01*
X3098104Y1899341D01*
X3097183Y1898421D01*
X3096684Y1897217D01*
Y1895915D01*
X3097183Y1894711D01*
X3098104Y1893790D01*
X3099307Y1893292D01*
X3100609D01*
X3101813Y1893790D01*
X3102734Y1894711D01*
X3103232Y1895915D01*
Y1897217D01*
X3102734Y1898421D01*
X3101813Y1899341D01*
X3100609Y1899840D01*
D02*
G37*
G36*
X3055355D02*
X3054052D01*
X3052849Y1899341D01*
X3051928Y1898421D01*
X3051429Y1897217D01*
Y1895915D01*
X3051928Y1894711D01*
X3052849Y1893790D01*
X3054052Y1893292D01*
X3055355D01*
X3056558Y1893790D01*
X3057479Y1894711D01*
X3057978Y1895915D01*
Y1897217D01*
X3057479Y1898421D01*
X3056558Y1899341D01*
X3055355Y1899840D01*
D02*
G37*
G36*
X3044041D02*
X3042739D01*
X3041535Y1899341D01*
X3040614Y1898421D01*
X3040116Y1897217D01*
Y1895915D01*
X3040614Y1894711D01*
X3041535Y1893790D01*
X3042739Y1893292D01*
X3044041D01*
X3045244Y1893790D01*
X3046165Y1894711D01*
X3046664Y1895915D01*
Y1897217D01*
X3046165Y1898421D01*
X3045244Y1899341D01*
X3044041Y1899840D01*
D02*
G37*
G36*
X3457200Y1892029D02*
X3456719Y1891830D01*
X3455218Y1890329D01*
X3455019Y1889848D01*
X3457200D01*
Y1892029D01*
D02*
G37*
G36*
X3219403Y1894183D02*
X3218101D01*
X3216898Y1893685D01*
X3215977Y1892764D01*
X3215478Y1891560D01*
Y1890258D01*
X3215977Y1889055D01*
X3216898Y1888134D01*
X3218101Y1887635D01*
X3219403D01*
X3220607Y1888134D01*
X3221528Y1889055D01*
X3222026Y1890258D01*
Y1891560D01*
X3221528Y1892764D01*
X3220607Y1893685D01*
X3219403Y1894183D01*
D02*
G37*
G36*
X3196776D02*
X3195474D01*
X3194270Y1893685D01*
X3193349Y1892764D01*
X3192851Y1891560D01*
Y1890258D01*
X3193349Y1889055D01*
X3194270Y1888134D01*
X3195474Y1887635D01*
X3196776D01*
X3197979Y1888134D01*
X3198900Y1889055D01*
X3199399Y1890258D01*
Y1891560D01*
X3198900Y1892764D01*
X3197979Y1893685D01*
X3196776Y1894183D01*
D02*
G37*
G36*
X3185462D02*
X3184160D01*
X3182957Y1893685D01*
X3182036Y1892764D01*
X3181537Y1891560D01*
Y1890258D01*
X3182036Y1889055D01*
X3182957Y1888134D01*
X3184160Y1887635D01*
X3185462D01*
X3186666Y1888134D01*
X3187587Y1889055D01*
X3188085Y1890258D01*
Y1891560D01*
X3187587Y1892764D01*
X3186666Y1893685D01*
X3185462Y1894183D01*
D02*
G37*
G36*
X3151521Y1894183D02*
X3150219D01*
X3149016Y1893685D01*
X3148094Y1892764D01*
X3147596Y1891560D01*
Y1890258D01*
X3148094Y1889055D01*
X3149016Y1888134D01*
X3150219Y1887635D01*
X3151521D01*
X3152725Y1888134D01*
X3153646Y1889055D01*
X3154144Y1890258D01*
Y1891560D01*
X3153646Y1892764D01*
X3152725Y1893685D01*
X3151521Y1894183D01*
D02*
G37*
G36*
X3083639D02*
X3082336D01*
X3081133Y1893685D01*
X3080212Y1892764D01*
X3079714Y1891560D01*
Y1890258D01*
X3080212Y1889055D01*
X3081133Y1888134D01*
X3082336Y1887635D01*
X3083639D01*
X3084842Y1888134D01*
X3085763Y1889055D01*
X3086262Y1890258D01*
Y1891560D01*
X3085763Y1892764D01*
X3084842Y1893685D01*
X3083639Y1894183D01*
D02*
G37*
G36*
X3072325D02*
X3071023D01*
X3069820Y1893685D01*
X3068899Y1892764D01*
X3068400Y1891560D01*
Y1890258D01*
X3068899Y1889055D01*
X3069820Y1888134D01*
X3071023Y1887635D01*
X3072325D01*
X3073529Y1888134D01*
X3074449Y1889055D01*
X3074948Y1890258D01*
Y1891560D01*
X3074449Y1892764D01*
X3073529Y1893685D01*
X3072325Y1894183D01*
D02*
G37*
G36*
X3061012D02*
X3059709D01*
X3058506Y1893685D01*
X3057585Y1892764D01*
X3057086Y1891560D01*
Y1890258D01*
X3057585Y1889055D01*
X3058506Y1888134D01*
X3059709Y1887635D01*
X3061012D01*
X3062215Y1888134D01*
X3063136Y1889055D01*
X3063634Y1890258D01*
Y1891560D01*
X3063136Y1892764D01*
X3062215Y1893685D01*
X3061012Y1894183D01*
D02*
G37*
G36*
X3038384D02*
X3037082D01*
X3035878Y1893685D01*
X3034957Y1892764D01*
X3034459Y1891560D01*
Y1890258D01*
X3034957Y1889055D01*
X3035878Y1888134D01*
X3037082Y1887635D01*
X3038384D01*
X3039587Y1888134D01*
X3040508Y1889055D01*
X3041007Y1890258D01*
Y1891560D01*
X3040508Y1892764D01*
X3039587Y1893685D01*
X3038384Y1894183D01*
D02*
G37*
G36*
X3027070D02*
X3025768D01*
X3024565Y1893685D01*
X3023644Y1892764D01*
X3023145Y1891560D01*
Y1890258D01*
X3023644Y1889055D01*
X3024565Y1888134D01*
X3025768Y1887635D01*
X3027070D01*
X3028274Y1888134D01*
X3029195Y1889055D01*
X3029693Y1890258D01*
Y1891560D01*
X3029195Y1892764D01*
X3028274Y1893685D01*
X3027070Y1894183D01*
D02*
G37*
G36*
X3106266Y1894183D02*
X3104964D01*
X3103761Y1893685D01*
X3102840Y1892764D01*
X3102341Y1891560D01*
Y1890258D01*
X3102840Y1889055D01*
X3103761Y1888134D01*
X3104964Y1887635D01*
X3106266D01*
X3107470Y1888134D01*
X3108391Y1889055D01*
X3108889Y1890258D01*
Y1891560D01*
X3108391Y1892764D01*
X3107470Y1893685D01*
X3106266Y1894183D01*
D02*
G37*
G36*
X3049698D02*
X3048395D01*
X3047192Y1893685D01*
X3046271Y1892764D01*
X3045773Y1891560D01*
Y1890258D01*
X3046271Y1889055D01*
X3047192Y1888134D01*
X3048395Y1887635D01*
X3049698D01*
X3050901Y1888134D01*
X3051822Y1889055D01*
X3052321Y1890258D01*
Y1891560D01*
X3051822Y1892764D01*
X3050901Y1893685D01*
X3049698Y1894183D01*
D02*
G37*
G36*
X3179806Y1888526D02*
X3178503D01*
X3177300Y1888028D01*
X3176379Y1887107D01*
X3175880Y1885903D01*
Y1884601D01*
X3176379Y1883398D01*
X3177300Y1882477D01*
X3178503Y1881978D01*
X3179806D01*
X3181009Y1882477D01*
X3181930Y1883398D01*
X3182428Y1884601D01*
Y1885903D01*
X3181930Y1887107D01*
X3181009Y1888028D01*
X3179806Y1888526D01*
D02*
G37*
G36*
X3077982D02*
X3076680D01*
X3075476Y1888028D01*
X3074555Y1887107D01*
X3074057Y1885903D01*
Y1884601D01*
X3074555Y1883398D01*
X3075476Y1882477D01*
X3076680Y1881978D01*
X3077982D01*
X3079185Y1882477D01*
X3080107Y1883398D01*
X3080605Y1884601D01*
Y1885903D01*
X3080107Y1887107D01*
X3079185Y1888028D01*
X3077982Y1888526D01*
D02*
G37*
G36*
X3225060Y1888526D02*
X3223758D01*
X3222555Y1888028D01*
X3221634Y1887107D01*
X3221135Y1885903D01*
Y1884601D01*
X3221634Y1883398D01*
X3222555Y1882477D01*
X3223758Y1881978D01*
X3225060D01*
X3226264Y1882477D01*
X3227185Y1883398D01*
X3227683Y1884601D01*
Y1885903D01*
X3227185Y1887107D01*
X3226264Y1888028D01*
X3225060Y1888526D01*
D02*
G37*
G36*
X3089296D02*
X3087993D01*
X3086790Y1888028D01*
X3085869Y1887107D01*
X3085370Y1885903D01*
Y1884601D01*
X3085869Y1883398D01*
X3086790Y1882477D01*
X3087993Y1881978D01*
X3089296D01*
X3090499Y1882477D01*
X3091420Y1883398D01*
X3091919Y1884601D01*
Y1885903D01*
X3091420Y1887107D01*
X3090499Y1888028D01*
X3089296Y1888526D01*
D02*
G37*
G36*
X3055355D02*
X3054052D01*
X3052849Y1888028D01*
X3051928Y1887107D01*
X3051429Y1885903D01*
Y1884601D01*
X3051928Y1883398D01*
X3052849Y1882477D01*
X3054052Y1881978D01*
X3055355D01*
X3056558Y1882477D01*
X3057479Y1883398D01*
X3057978Y1884601D01*
Y1885903D01*
X3057479Y1887107D01*
X3056558Y1888028D01*
X3055355Y1888526D01*
D02*
G37*
G36*
X3044041D02*
X3042739D01*
X3041535Y1888028D01*
X3040614Y1887107D01*
X3040116Y1885903D01*
Y1884601D01*
X3040614Y1883398D01*
X3041535Y1882477D01*
X3042739Y1881978D01*
X3044041D01*
X3045244Y1882477D01*
X3046165Y1883398D01*
X3046664Y1884601D01*
Y1885903D01*
X3046165Y1887107D01*
X3045244Y1888028D01*
X3044041Y1888526D01*
D02*
G37*
G36*
X3032727D02*
X3031425D01*
X3030222Y1888028D01*
X3029301Y1887107D01*
X3028802Y1885903D01*
Y1884601D01*
X3029301Y1883398D01*
X3030222Y1882477D01*
X3031425Y1881978D01*
X3032727D01*
X3033931Y1882477D01*
X3034852Y1883398D01*
X3035350Y1884601D01*
Y1885903D01*
X3034852Y1887107D01*
X3033931Y1888028D01*
X3032727Y1888526D01*
D02*
G37*
G36*
X3174149Y1882869D02*
X3172846D01*
X3171643Y1882371D01*
X3170722Y1881450D01*
X3170223Y1880247D01*
Y1878944D01*
X3170722Y1877741D01*
X3171643Y1876820D01*
X3172846Y1876321D01*
X3174149D01*
X3175352Y1876820D01*
X3176273Y1877741D01*
X3176772Y1878944D01*
Y1880247D01*
X3176273Y1881450D01*
X3175352Y1882371D01*
X3174149Y1882869D01*
D02*
G37*
G36*
X3083639D02*
X3082336D01*
X3081133Y1882371D01*
X3080212Y1881450D01*
X3079714Y1880247D01*
Y1878944D01*
X3080212Y1877741D01*
X3081133Y1876820D01*
X3082336Y1876321D01*
X3083639D01*
X3084842Y1876820D01*
X3085763Y1877741D01*
X3086262Y1878944D01*
Y1880247D01*
X3085763Y1881450D01*
X3084842Y1882371D01*
X3083639Y1882869D01*
D02*
G37*
G36*
X3072325D02*
X3071023D01*
X3069820Y1882371D01*
X3068899Y1881450D01*
X3068400Y1880247D01*
Y1878944D01*
X3068899Y1877741D01*
X3069820Y1876820D01*
X3071023Y1876321D01*
X3072325D01*
X3073529Y1876820D01*
X3074449Y1877741D01*
X3074948Y1878944D01*
Y1880247D01*
X3074449Y1881450D01*
X3073529Y1882371D01*
X3072325Y1882869D01*
D02*
G37*
G36*
X3049698D02*
X3048395D01*
X3047192Y1882371D01*
X3046271Y1881450D01*
X3045773Y1880247D01*
Y1878944D01*
X3046271Y1877741D01*
X3047192Y1876820D01*
X3048395Y1876321D01*
X3049698D01*
X3050901Y1876820D01*
X3051822Y1877741D01*
X3052321Y1878944D01*
Y1880247D01*
X3051822Y1881450D01*
X3050901Y1882371D01*
X3049698Y1882869D01*
D02*
G37*
G36*
X3219403Y1882869D02*
X3218101D01*
X3216898Y1882371D01*
X3215977Y1881450D01*
X3215478Y1880247D01*
Y1878944D01*
X3215977Y1877741D01*
X3216898Y1876820D01*
X3218101Y1876321D01*
X3219403D01*
X3220607Y1876820D01*
X3221528Y1877741D01*
X3222026Y1878944D01*
Y1880247D01*
X3221528Y1881450D01*
X3220607Y1882371D01*
X3219403Y1882869D01*
D02*
G37*
G36*
X3140208D02*
X3138905D01*
X3137702Y1882371D01*
X3136781Y1881450D01*
X3136282Y1880247D01*
Y1878944D01*
X3136781Y1877741D01*
X3137702Y1876820D01*
X3138905Y1876321D01*
X3140208D01*
X3141411Y1876820D01*
X3142332Y1877741D01*
X3142830Y1878944D01*
Y1880247D01*
X3142332Y1881450D01*
X3141411Y1882371D01*
X3140208Y1882869D01*
D02*
G37*
G36*
X3117580D02*
X3116277D01*
X3115074Y1882371D01*
X3114153Y1881450D01*
X3113655Y1880247D01*
Y1878944D01*
X3114153Y1877741D01*
X3115074Y1876820D01*
X3116277Y1876321D01*
X3117580D01*
X3118783Y1876820D01*
X3119704Y1877741D01*
X3120203Y1878944D01*
Y1880247D01*
X3119704Y1881450D01*
X3118783Y1882371D01*
X3117580Y1882869D01*
D02*
G37*
G36*
X3061012D02*
X3059709D01*
X3058506Y1882371D01*
X3057585Y1881450D01*
X3057086Y1880247D01*
Y1878944D01*
X3057585Y1877741D01*
X3058506Y1876820D01*
X3059709Y1876321D01*
X3061012D01*
X3062215Y1876820D01*
X3063136Y1877741D01*
X3063634Y1878944D01*
Y1880247D01*
X3063136Y1881450D01*
X3062215Y1882371D01*
X3061012Y1882869D01*
D02*
G37*
G36*
X3038384Y1882869D02*
X3037082D01*
X3035878Y1882371D01*
X3034957Y1881450D01*
X3034459Y1880247D01*
Y1878944D01*
X3034957Y1877741D01*
X3035878Y1876820D01*
X3037082Y1876321D01*
X3038384D01*
X3039587Y1876820D01*
X3040508Y1877741D01*
X3041007Y1878944D01*
Y1880247D01*
X3040508Y1881450D01*
X3039587Y1882371D01*
X3038384Y1882869D01*
D02*
G37*
G36*
X3213747Y1877213D02*
X3212444D01*
X3211241Y1876714D01*
X3210320Y1875793D01*
X3209821Y1874590D01*
Y1873287D01*
X3210320Y1872084D01*
X3211241Y1871163D01*
X3212444Y1870665D01*
X3213747D01*
X3214950Y1871163D01*
X3215871Y1872084D01*
X3216369Y1873287D01*
Y1874590D01*
X3215871Y1875793D01*
X3214950Y1876714D01*
X3213747Y1877213D01*
D02*
G37*
G36*
X3202433Y1877213D02*
X3201130D01*
X3199927Y1876714D01*
X3199006Y1875793D01*
X3198508Y1874590D01*
Y1873287D01*
X3199006Y1872084D01*
X3199927Y1871163D01*
X3201130Y1870665D01*
X3202433D01*
X3203636Y1871163D01*
X3204557Y1872084D01*
X3205056Y1873287D01*
Y1874590D01*
X3204557Y1875793D01*
X3203636Y1876714D01*
X3202433Y1877213D01*
D02*
G37*
G36*
X3168492D02*
X3167189D01*
X3165986Y1876714D01*
X3165065Y1875793D01*
X3164567Y1874590D01*
Y1873287D01*
X3165065Y1872084D01*
X3165986Y1871163D01*
X3167189Y1870665D01*
X3168492D01*
X3169695Y1871163D01*
X3170616Y1872084D01*
X3171115Y1873287D01*
Y1874590D01*
X3170616Y1875793D01*
X3169695Y1876714D01*
X3168492Y1877213D01*
D02*
G37*
G36*
X3145864D02*
X3144562D01*
X3143358Y1876714D01*
X3142438Y1875793D01*
X3141939Y1874590D01*
Y1873287D01*
X3142438Y1872084D01*
X3143358Y1871163D01*
X3144562Y1870665D01*
X3145864D01*
X3147068Y1871163D01*
X3147989Y1872084D01*
X3148487Y1873287D01*
Y1874590D01*
X3147989Y1875793D01*
X3147068Y1876714D01*
X3145864Y1877213D01*
D02*
G37*
G36*
X3111923D02*
X3110621D01*
X3109417Y1876714D01*
X3108496Y1875793D01*
X3107998Y1874590D01*
Y1873287D01*
X3108496Y1872084D01*
X3109417Y1871163D01*
X3110621Y1870665D01*
X3111923D01*
X3113127Y1871163D01*
X3114048Y1872084D01*
X3114546Y1873287D01*
Y1874590D01*
X3114048Y1875793D01*
X3113127Y1876714D01*
X3111923Y1877213D01*
D02*
G37*
G36*
X3089296D02*
X3087993D01*
X3086790Y1876714D01*
X3085869Y1875793D01*
X3085370Y1874590D01*
Y1873287D01*
X3085869Y1872084D01*
X3086790Y1871163D01*
X3087993Y1870665D01*
X3089296D01*
X3090499Y1871163D01*
X3091420Y1872084D01*
X3091919Y1873287D01*
Y1874590D01*
X3091420Y1875793D01*
X3090499Y1876714D01*
X3089296Y1877213D01*
D02*
G37*
G36*
X3077982D02*
X3076680D01*
X3075476Y1876714D01*
X3074555Y1875793D01*
X3074057Y1874590D01*
Y1873287D01*
X3074555Y1872084D01*
X3075476Y1871163D01*
X3076680Y1870665D01*
X3077982D01*
X3079185Y1871163D01*
X3080107Y1872084D01*
X3080605Y1873287D01*
Y1874590D01*
X3080107Y1875793D01*
X3079185Y1876714D01*
X3077982Y1877213D01*
D02*
G37*
G36*
X3066668D02*
X3065366D01*
X3064163Y1876714D01*
X3063242Y1875793D01*
X3062743Y1874590D01*
Y1873287D01*
X3063242Y1872084D01*
X3064163Y1871163D01*
X3065366Y1870665D01*
X3066668D01*
X3067872Y1871163D01*
X3068793Y1872084D01*
X3069291Y1873287D01*
Y1874590D01*
X3068793Y1875793D01*
X3067872Y1876714D01*
X3066668Y1877213D01*
D02*
G37*
G36*
X3055355D02*
X3054052D01*
X3052849Y1876714D01*
X3051928Y1875793D01*
X3051429Y1874590D01*
Y1873287D01*
X3051928Y1872084D01*
X3052849Y1871163D01*
X3054052Y1870665D01*
X3055355D01*
X3056558Y1871163D01*
X3057479Y1872084D01*
X3057978Y1873287D01*
Y1874590D01*
X3057479Y1875793D01*
X3056558Y1876714D01*
X3055355Y1877213D01*
D02*
G37*
G36*
X3134551Y1877213D02*
X3133248D01*
X3132045Y1876714D01*
X3131124Y1875793D01*
X3130626Y1874590D01*
Y1873287D01*
X3131124Y1872084D01*
X3132045Y1871163D01*
X3133248Y1870665D01*
X3134551D01*
X3135754Y1871163D01*
X3136675Y1872084D01*
X3137173Y1873287D01*
Y1874590D01*
X3136675Y1875793D01*
X3135754Y1876714D01*
X3134551Y1877213D01*
D02*
G37*
G36*
X3123237D02*
X3121935D01*
X3120731Y1876714D01*
X3119810Y1875793D01*
X3119312Y1874590D01*
Y1873287D01*
X3119810Y1872084D01*
X3120731Y1871163D01*
X3121935Y1870665D01*
X3123237D01*
X3124440Y1871163D01*
X3125361Y1872084D01*
X3125860Y1873287D01*
Y1874590D01*
X3125361Y1875793D01*
X3124440Y1876714D01*
X3123237Y1877213D01*
D02*
G37*
G36*
X3196776Y1871556D02*
X3195474D01*
X3194270Y1871057D01*
X3193349Y1870136D01*
X3192851Y1868933D01*
Y1867630D01*
X3193349Y1866427D01*
X3194270Y1865506D01*
X3195474Y1865008D01*
X3196776D01*
X3197979Y1865506D01*
X3198900Y1866427D01*
X3199399Y1867630D01*
Y1868933D01*
X3198900Y1870136D01*
X3197979Y1871057D01*
X3196776Y1871556D01*
D02*
G37*
G36*
X3208090Y1871556D02*
X3206787D01*
X3205584Y1871057D01*
X3204663Y1870136D01*
X3204165Y1868933D01*
Y1867630D01*
X3204663Y1866427D01*
X3205584Y1865506D01*
X3206787Y1865008D01*
X3208090D01*
X3209293Y1865506D01*
X3210214Y1866427D01*
X3210713Y1867630D01*
Y1868933D01*
X3210214Y1870136D01*
X3209293Y1871057D01*
X3208090Y1871556D01*
D02*
G37*
G36*
X3140208D02*
X3138905D01*
X3137702Y1871057D01*
X3136781Y1870136D01*
X3136282Y1868933D01*
Y1867630D01*
X3136781Y1866427D01*
X3137702Y1865506D01*
X3138905Y1865008D01*
X3140208D01*
X3141411Y1865506D01*
X3142332Y1866427D01*
X3142830Y1867630D01*
Y1868933D01*
X3142332Y1870136D01*
X3141411Y1871057D01*
X3140208Y1871556D01*
D02*
G37*
G36*
X3128894D02*
X3127591D01*
X3126388Y1871057D01*
X3125467Y1870136D01*
X3124969Y1868933D01*
Y1867630D01*
X3125467Y1866427D01*
X3126388Y1865506D01*
X3127591Y1865008D01*
X3128894D01*
X3130097Y1865506D01*
X3131018Y1866427D01*
X3131517Y1867630D01*
Y1868933D01*
X3131018Y1870136D01*
X3130097Y1871057D01*
X3128894Y1871556D01*
D02*
G37*
G36*
X3106266D02*
X3104964D01*
X3103761Y1871057D01*
X3102840Y1870136D01*
X3102341Y1868933D01*
Y1867630D01*
X3102840Y1866427D01*
X3103761Y1865506D01*
X3104964Y1865008D01*
X3106266D01*
X3107470Y1865506D01*
X3108391Y1866427D01*
X3108889Y1867630D01*
Y1868933D01*
X3108391Y1870136D01*
X3107470Y1871057D01*
X3106266Y1871556D01*
D02*
G37*
G36*
X3083639D02*
X3082336D01*
X3081133Y1871057D01*
X3080212Y1870136D01*
X3079714Y1868933D01*
Y1867630D01*
X3080212Y1866427D01*
X3081133Y1865506D01*
X3082336Y1865008D01*
X3083639D01*
X3084842Y1865506D01*
X3085763Y1866427D01*
X3086262Y1867630D01*
Y1868933D01*
X3085763Y1870136D01*
X3084842Y1871057D01*
X3083639Y1871556D01*
D02*
G37*
G36*
X3072325D02*
X3071023D01*
X3069820Y1871057D01*
X3068899Y1870136D01*
X3068400Y1868933D01*
Y1867630D01*
X3068899Y1866427D01*
X3069820Y1865506D01*
X3071023Y1865008D01*
X3072325D01*
X3073529Y1865506D01*
X3074449Y1866427D01*
X3074948Y1867630D01*
Y1868933D01*
X3074449Y1870136D01*
X3073529Y1871057D01*
X3072325Y1871556D01*
D02*
G37*
G36*
X3049698D02*
X3048395D01*
X3047192Y1871057D01*
X3046271Y1870136D01*
X3045773Y1868933D01*
Y1867630D01*
X3046271Y1866427D01*
X3047192Y1865506D01*
X3048395Y1865008D01*
X3049698D01*
X3050901Y1865506D01*
X3051822Y1866427D01*
X3052321Y1867630D01*
Y1868933D01*
X3051822Y1870136D01*
X3050901Y1871057D01*
X3049698Y1871556D01*
D02*
G37*
G36*
X3179806Y1865899D02*
X3178503D01*
X3177300Y1865400D01*
X3176379Y1864479D01*
X3175880Y1863276D01*
Y1861974D01*
X3176379Y1860770D01*
X3177300Y1859849D01*
X3178503Y1859351D01*
X3179806D01*
X3181009Y1859849D01*
X3181930Y1860770D01*
X3182428Y1861974D01*
Y1863276D01*
X3181930Y1864479D01*
X3181009Y1865400D01*
X3179806Y1865899D01*
D02*
G37*
G36*
X3157178D02*
X3155876D01*
X3154672Y1865400D01*
X3153751Y1864479D01*
X3153253Y1863276D01*
Y1861974D01*
X3153751Y1860770D01*
X3154672Y1859849D01*
X3155876Y1859351D01*
X3157178D01*
X3158381Y1859849D01*
X3159302Y1860770D01*
X3159801Y1861974D01*
Y1863276D01*
X3159302Y1864479D01*
X3158381Y1865400D01*
X3157178Y1865899D01*
D02*
G37*
G36*
X3100609D02*
X3099307D01*
X3098104Y1865400D01*
X3097183Y1864479D01*
X3096684Y1863276D01*
Y1861974D01*
X3097183Y1860770D01*
X3098104Y1859849D01*
X3099307Y1859351D01*
X3100609D01*
X3101813Y1859849D01*
X3102734Y1860770D01*
X3103232Y1861974D01*
Y1863276D01*
X3102734Y1864479D01*
X3101813Y1865400D01*
X3100609Y1865899D01*
D02*
G37*
G36*
X3055355D02*
X3054052D01*
X3052849Y1865400D01*
X3051928Y1864479D01*
X3051429Y1863276D01*
Y1861974D01*
X3051928Y1860770D01*
X3052849Y1859849D01*
X3054052Y1859351D01*
X3055355D01*
X3056558Y1859849D01*
X3057479Y1860770D01*
X3057978Y1861974D01*
Y1863276D01*
X3057479Y1864479D01*
X3056558Y1865400D01*
X3055355Y1865899D01*
D02*
G37*
G36*
X3111923Y1865899D02*
X3110621D01*
X3109417Y1865400D01*
X3108496Y1864479D01*
X3107998Y1863276D01*
Y1861974D01*
X3108496Y1860770D01*
X3109417Y1859849D01*
X3110621Y1859351D01*
X3111923D01*
X3113127Y1859849D01*
X3114048Y1860770D01*
X3114546Y1861974D01*
Y1863276D01*
X3114048Y1864479D01*
X3113127Y1865400D01*
X3111923Y1865899D01*
D02*
G37*
G36*
X3077982D02*
X3076680D01*
X3075476Y1865400D01*
X3074555Y1864479D01*
X3074057Y1863276D01*
Y1861974D01*
X3074555Y1860770D01*
X3075476Y1859849D01*
X3076680Y1859351D01*
X3077982D01*
X3079185Y1859849D01*
X3080107Y1860770D01*
X3080605Y1861974D01*
Y1863276D01*
X3080107Y1864479D01*
X3079185Y1865400D01*
X3077982Y1865899D01*
D02*
G37*
G36*
X3185462Y1860242D02*
X3184160D01*
X3182957Y1859743D01*
X3182036Y1858823D01*
X3181537Y1857619D01*
Y1856317D01*
X3182036Y1855114D01*
X3182957Y1854193D01*
X3184160Y1853694D01*
X3185462D01*
X3186666Y1854193D01*
X3187587Y1855114D01*
X3188085Y1856317D01*
Y1857619D01*
X3187587Y1858823D01*
X3186666Y1859743D01*
X3185462Y1860242D01*
D02*
G37*
G36*
X3196776Y1860242D02*
X3195474D01*
X3194270Y1859743D01*
X3193349Y1858822D01*
X3192851Y1857619D01*
Y1856317D01*
X3193349Y1855113D01*
X3194270Y1854193D01*
X3195474Y1853694D01*
X3196776D01*
X3197979Y1854193D01*
X3198900Y1855113D01*
X3199399Y1856317D01*
Y1857619D01*
X3198900Y1858822D01*
X3197979Y1859743D01*
X3196776Y1860242D01*
D02*
G37*
G36*
X3151521D02*
X3150219D01*
X3149016Y1859743D01*
X3148094Y1858822D01*
X3147596Y1857619D01*
Y1856317D01*
X3148094Y1855113D01*
X3149016Y1854193D01*
X3150219Y1853694D01*
X3151521D01*
X3152725Y1854193D01*
X3153646Y1855113D01*
X3154144Y1856317D01*
Y1857619D01*
X3153646Y1858822D01*
X3152725Y1859743D01*
X3151521Y1860242D01*
D02*
G37*
G36*
X3106266D02*
X3104964D01*
X3103761Y1859743D01*
X3102840Y1858822D01*
X3102341Y1857619D01*
Y1856317D01*
X3102840Y1855113D01*
X3103761Y1854193D01*
X3104964Y1853694D01*
X3106266D01*
X3107470Y1854193D01*
X3108391Y1855113D01*
X3108889Y1856317D01*
Y1857619D01*
X3108391Y1858822D01*
X3107470Y1859743D01*
X3106266Y1860242D01*
D02*
G37*
G36*
X3094953D02*
X3093650D01*
X3092447Y1859743D01*
X3091526Y1858822D01*
X3091028Y1857619D01*
Y1856317D01*
X3091526Y1855113D01*
X3092447Y1854193D01*
X3093650Y1853694D01*
X3094953D01*
X3096156Y1854193D01*
X3097077Y1855113D01*
X3097575Y1856317D01*
Y1857619D01*
X3097077Y1858822D01*
X3096156Y1859743D01*
X3094953Y1860242D01*
D02*
G37*
G36*
X3072325D02*
X3071023D01*
X3069820Y1859743D01*
X3068899Y1858822D01*
X3068400Y1857619D01*
Y1856317D01*
X3068899Y1855113D01*
X3069820Y1854193D01*
X3071023Y1853694D01*
X3072325D01*
X3073529Y1854193D01*
X3074449Y1855113D01*
X3074948Y1856317D01*
Y1857619D01*
X3074449Y1858822D01*
X3073529Y1859743D01*
X3072325Y1860242D01*
D02*
G37*
G36*
X3061012D02*
X3059709D01*
X3058506Y1859743D01*
X3057585Y1858822D01*
X3057086Y1857619D01*
Y1856317D01*
X3057585Y1855113D01*
X3058506Y1854193D01*
X3059709Y1853694D01*
X3061012D01*
X3062215Y1854193D01*
X3063136Y1855113D01*
X3063634Y1856317D01*
Y1857619D01*
X3063136Y1858822D01*
X3062215Y1859743D01*
X3061012Y1860242D01*
D02*
G37*
G36*
X3168492Y1854585D02*
X3167189D01*
X3165986Y1854087D01*
X3165065Y1853166D01*
X3164567Y1851962D01*
Y1850660D01*
X3165065Y1849457D01*
X3165986Y1848536D01*
X3167189Y1848037D01*
X3168492D01*
X3169695Y1848536D01*
X3170616Y1849457D01*
X3171115Y1850660D01*
Y1851962D01*
X3170616Y1853166D01*
X3169695Y1854087D01*
X3168492Y1854585D01*
D02*
G37*
G36*
X3123237D02*
X3121935D01*
X3120731Y1854087D01*
X3119810Y1853166D01*
X3119312Y1851962D01*
Y1850660D01*
X3119810Y1849457D01*
X3120731Y1848536D01*
X3121935Y1848037D01*
X3123237D01*
X3124440Y1848536D01*
X3125361Y1849457D01*
X3125860Y1850660D01*
Y1851962D01*
X3125361Y1853166D01*
X3124440Y1854087D01*
X3123237Y1854585D01*
D02*
G37*
G36*
X3191119Y1854585D02*
X3189817D01*
X3188613Y1854087D01*
X3187693Y1853166D01*
X3187194Y1851962D01*
Y1850660D01*
X3187693Y1849457D01*
X3188613Y1848536D01*
X3189817Y1848037D01*
X3191119D01*
X3192322Y1848536D01*
X3193243Y1849457D01*
X3193742Y1850660D01*
Y1851962D01*
X3193243Y1853166D01*
X3192322Y1854087D01*
X3191119Y1854585D01*
D02*
G37*
G36*
X3145864D02*
X3144562D01*
X3143358Y1854087D01*
X3142438Y1853166D01*
X3141939Y1851962D01*
Y1850660D01*
X3142438Y1849457D01*
X3143358Y1848536D01*
X3144562Y1848037D01*
X3145864D01*
X3147068Y1848536D01*
X3147989Y1849457D01*
X3148487Y1850660D01*
Y1851962D01*
X3147989Y1853166D01*
X3147068Y1854087D01*
X3145864Y1854585D01*
D02*
G37*
G36*
X3111923D02*
X3110621D01*
X3109417Y1854087D01*
X3108496Y1853166D01*
X3107998Y1851962D01*
Y1850660D01*
X3108496Y1849457D01*
X3109417Y1848536D01*
X3110621Y1848037D01*
X3111923D01*
X3113127Y1848536D01*
X3114048Y1849457D01*
X3114546Y1850660D01*
Y1851962D01*
X3114048Y1853166D01*
X3113127Y1854087D01*
X3111923Y1854585D01*
D02*
G37*
G36*
X3100609D02*
X3099307D01*
X3098104Y1854087D01*
X3097183Y1853166D01*
X3096684Y1851962D01*
Y1850660D01*
X3097183Y1849457D01*
X3098104Y1848536D01*
X3099307Y1848037D01*
X3100609D01*
X3101813Y1848536D01*
X3102734Y1849457D01*
X3103232Y1850660D01*
Y1851962D01*
X3102734Y1853166D01*
X3101813Y1854087D01*
X3100609Y1854585D01*
D02*
G37*
G36*
X3089296D02*
X3087993D01*
X3086790Y1854087D01*
X3085869Y1853166D01*
X3085370Y1851962D01*
Y1850660D01*
X3085869Y1849457D01*
X3086790Y1848536D01*
X3087993Y1848037D01*
X3089296D01*
X3090499Y1848536D01*
X3091420Y1849457D01*
X3091919Y1850660D01*
Y1851962D01*
X3091420Y1853166D01*
X3090499Y1854087D01*
X3089296Y1854585D01*
D02*
G37*
G36*
X3066668D02*
X3065366D01*
X3064163Y1854087D01*
X3063242Y1853166D01*
X3062743Y1851962D01*
Y1850660D01*
X3063242Y1849457D01*
X3064163Y1848536D01*
X3065366Y1848037D01*
X3066668D01*
X3067872Y1848536D01*
X3068793Y1849457D01*
X3069291Y1850660D01*
Y1851962D01*
X3068793Y1853166D01*
X3067872Y1854087D01*
X3066668Y1854585D01*
D02*
G37*
G36*
X3174149Y1848928D02*
X3172846D01*
X3171643Y1848430D01*
X3170722Y1847509D01*
X3170223Y1846306D01*
Y1845003D01*
X3170722Y1843800D01*
X3171643Y1842879D01*
X3172846Y1842380D01*
X3174149D01*
X3175352Y1842879D01*
X3176273Y1843800D01*
X3176772Y1845003D01*
Y1846306D01*
X3176273Y1847509D01*
X3175352Y1848430D01*
X3174149Y1848928D01*
D02*
G37*
G36*
X3140208D02*
X3138905D01*
X3137702Y1848430D01*
X3136781Y1847509D01*
X3136282Y1846306D01*
Y1845003D01*
X3136781Y1843800D01*
X3137702Y1842879D01*
X3138905Y1842380D01*
X3140208D01*
X3141411Y1842879D01*
X3142332Y1843800D01*
X3142830Y1845003D01*
Y1846306D01*
X3142332Y1847509D01*
X3141411Y1848430D01*
X3140208Y1848928D01*
D02*
G37*
G36*
X3117580D02*
X3116278D01*
X3115074Y1848430D01*
X3114153Y1847509D01*
X3113655Y1846306D01*
Y1845003D01*
X3114153Y1843800D01*
X3115074Y1842879D01*
X3116278Y1842380D01*
X3117580D01*
X3118783Y1842879D01*
X3119704Y1843800D01*
X3120203Y1845003D01*
Y1846306D01*
X3119704Y1847509D01*
X3118783Y1848430D01*
X3117580Y1848928D01*
D02*
G37*
G36*
X3083639D02*
X3082336D01*
X3081133Y1848430D01*
X3080212Y1847509D01*
X3079714Y1846306D01*
Y1845003D01*
X3080212Y1843800D01*
X3081133Y1842879D01*
X3082336Y1842380D01*
X3083639D01*
X3084842Y1842879D01*
X3085763Y1843800D01*
X3086262Y1845003D01*
Y1846306D01*
X3085763Y1847509D01*
X3084842Y1848430D01*
X3083639Y1848928D01*
D02*
G37*
G36*
X3106266Y1848928D02*
X3104964D01*
X3103761Y1848430D01*
X3102840Y1847509D01*
X3102341Y1846306D01*
Y1845003D01*
X3102840Y1843800D01*
X3103761Y1842879D01*
X3104964Y1842380D01*
X3106266D01*
X3107470Y1842879D01*
X3108391Y1843800D01*
X3108889Y1845003D01*
Y1846306D01*
X3108391Y1847509D01*
X3107470Y1848430D01*
X3106266Y1848928D01*
D02*
G37*
G36*
X3094953D02*
X3093650D01*
X3092447Y1848430D01*
X3091526Y1847509D01*
X3091028Y1846306D01*
Y1845003D01*
X3091526Y1843800D01*
X3092447Y1842879D01*
X3093650Y1842380D01*
X3094953D01*
X3096156Y1842879D01*
X3097077Y1843800D01*
X3097575Y1845003D01*
Y1846306D01*
X3097077Y1847509D01*
X3096156Y1848430D01*
X3094953Y1848928D01*
D02*
G37*
G36*
X3123237Y1843271D02*
X3121935D01*
X3120731Y1842773D01*
X3119810Y1841852D01*
X3119312Y1840649D01*
Y1839346D01*
X3119810Y1838143D01*
X3120731Y1837222D01*
X3121935Y1836723D01*
X3123237D01*
X3124440Y1837222D01*
X3125361Y1838143D01*
X3125860Y1839346D01*
Y1840649D01*
X3125361Y1841852D01*
X3124440Y1842773D01*
X3123237Y1843271D01*
D02*
G37*
G36*
X3168492Y1843271D02*
X3167189D01*
X3165986Y1842773D01*
X3165065Y1841852D01*
X3164567Y1840649D01*
Y1839346D01*
X3165065Y1838143D01*
X3165986Y1837222D01*
X3167189Y1836723D01*
X3168492D01*
X3169695Y1837222D01*
X3170616Y1838143D01*
X3171115Y1839346D01*
Y1840649D01*
X3170616Y1841852D01*
X3169695Y1842773D01*
X3168492Y1843271D01*
D02*
G37*
G36*
X3134551D02*
X3133248D01*
X3132045Y1842773D01*
X3131124Y1841852D01*
X3130626Y1840649D01*
Y1839346D01*
X3131124Y1838143D01*
X3132045Y1837222D01*
X3133248Y1836723D01*
X3134551D01*
X3135754Y1837222D01*
X3136675Y1838143D01*
X3137173Y1839346D01*
Y1840649D01*
X3136675Y1841852D01*
X3135754Y1842773D01*
X3134551Y1843271D01*
D02*
G37*
G36*
X3111923Y1843271D02*
X3110621D01*
X3109417Y1842773D01*
X3108496Y1841852D01*
X3107998Y1840649D01*
Y1839346D01*
X3108496Y1838143D01*
X3109417Y1837222D01*
X3110621Y1836723D01*
X3111923D01*
X3113127Y1837222D01*
X3114048Y1838143D01*
X3114546Y1839346D01*
Y1840649D01*
X3114048Y1841852D01*
X3113127Y1842773D01*
X3111923Y1843271D01*
D02*
G37*
G36*
X3077982D02*
X3076680D01*
X3075476Y1842773D01*
X3074555Y1841852D01*
X3074057Y1840649D01*
Y1839346D01*
X3074555Y1838143D01*
X3075476Y1837222D01*
X3076680Y1836723D01*
X3077982D01*
X3079185Y1837222D01*
X3080107Y1838143D01*
X3080605Y1839346D01*
Y1840649D01*
X3080107Y1841852D01*
X3079185Y1842773D01*
X3077982Y1843271D01*
D02*
G37*
G36*
X3100609Y1843271D02*
X3099307D01*
X3098104Y1842773D01*
X3097183Y1841852D01*
X3096684Y1840649D01*
Y1839346D01*
X3097183Y1838143D01*
X3098104Y1837222D01*
X3099307Y1836723D01*
X3100609D01*
X3101813Y1837222D01*
X3102734Y1838143D01*
X3103232Y1839346D01*
Y1840649D01*
X3102734Y1841852D01*
X3101813Y1842773D01*
X3100609Y1843271D01*
D02*
G37*
G36*
X3128894Y1837615D02*
X3127591D01*
X3126388Y1837116D01*
X3125467Y1836195D01*
X3124969Y1834992D01*
Y1833689D01*
X3125467Y1832486D01*
X3126388Y1831565D01*
X3127591Y1831067D01*
X3128894D01*
X3130097Y1831565D01*
X3131018Y1832486D01*
X3131517Y1833689D01*
Y1834992D01*
X3131018Y1836195D01*
X3130097Y1837116D01*
X3128894Y1837615D01*
D02*
G37*
G36*
X3117580D02*
X3116277D01*
X3115074Y1837116D01*
X3114153Y1836195D01*
X3113655Y1834992D01*
Y1833689D01*
X3114153Y1832486D01*
X3115074Y1831565D01*
X3116277Y1831067D01*
X3117580D01*
X3118783Y1831565D01*
X3119704Y1832486D01*
X3120203Y1833689D01*
Y1834992D01*
X3119704Y1836195D01*
X3118783Y1837116D01*
X3117580Y1837615D01*
D02*
G37*
G36*
X3162835Y1837615D02*
X3161533D01*
X3160329Y1837116D01*
X3159408Y1836195D01*
X3158910Y1834992D01*
Y1833689D01*
X3159408Y1832486D01*
X3160329Y1831565D01*
X3161533Y1831067D01*
X3162835D01*
X3164038Y1831565D01*
X3164959Y1832486D01*
X3165458Y1833689D01*
Y1834992D01*
X3164959Y1836195D01*
X3164038Y1837116D01*
X3162835Y1837615D01*
D02*
G37*
G36*
X3140208D02*
X3138905D01*
X3137702Y1837116D01*
X3136781Y1836195D01*
X3136282Y1834992D01*
Y1833689D01*
X3136781Y1832486D01*
X3137702Y1831565D01*
X3138905Y1831067D01*
X3140208D01*
X3141411Y1831565D01*
X3142332Y1832486D01*
X3142830Y1833689D01*
Y1834992D01*
X3142332Y1836195D01*
X3141411Y1837116D01*
X3140208Y1837615D01*
D02*
G37*
G36*
X3106266Y1837615D02*
X3104964D01*
X3103761Y1837116D01*
X3102840Y1836195D01*
X3102341Y1834992D01*
Y1833689D01*
X3102840Y1832486D01*
X3103761Y1831565D01*
X3104964Y1831067D01*
X3106266D01*
X3107470Y1831565D01*
X3108391Y1832486D01*
X3108889Y1833689D01*
Y1834992D01*
X3108391Y1836195D01*
X3107470Y1837116D01*
X3106266Y1837615D01*
D02*
G37*
G36*
X3094953D02*
X3093650D01*
X3092447Y1837116D01*
X3091526Y1836195D01*
X3091028Y1834992D01*
Y1833689D01*
X3091526Y1832486D01*
X3092447Y1831565D01*
X3093650Y1831067D01*
X3094953D01*
X3096156Y1831565D01*
X3097077Y1832486D01*
X3097575Y1833689D01*
Y1834992D01*
X3097077Y1836195D01*
X3096156Y1837116D01*
X3094953Y1837615D01*
D02*
G37*
G36*
X3083639D02*
X3082336D01*
X3081133Y1837116D01*
X3080212Y1836195D01*
X3079714Y1834992D01*
Y1833689D01*
X3080212Y1832486D01*
X3081133Y1831565D01*
X3082336Y1831067D01*
X3083639D01*
X3084842Y1831565D01*
X3085763Y1832486D01*
X3086262Y1833689D01*
Y1834992D01*
X3085763Y1836195D01*
X3084842Y1837116D01*
X3083639Y1837615D01*
D02*
G37*
G36*
X3134551Y1831958D02*
X3133248D01*
X3132045Y1831459D01*
X3131124Y1830538D01*
X3130626Y1829335D01*
Y1828033D01*
X3131124Y1826829D01*
X3132045Y1825908D01*
X3133248Y1825410D01*
X3134551D01*
X3135754Y1825908D01*
X3136675Y1826829D01*
X3137173Y1828033D01*
Y1829335D01*
X3136675Y1830538D01*
X3135754Y1831459D01*
X3134551Y1831958D01*
D02*
G37*
G36*
X3123237D02*
X3121935D01*
X3120731Y1831459D01*
X3119810Y1830538D01*
X3119312Y1829335D01*
Y1828033D01*
X3119810Y1826829D01*
X3120731Y1825908D01*
X3121935Y1825410D01*
X3123237D01*
X3124440Y1825908D01*
X3125361Y1826829D01*
X3125860Y1828033D01*
Y1829335D01*
X3125361Y1830538D01*
X3124440Y1831459D01*
X3123237Y1831958D01*
D02*
G37*
G36*
X3100609Y1831958D02*
X3099307D01*
X3098104Y1831459D01*
X3097183Y1830538D01*
X3096684Y1829335D01*
Y1828033D01*
X3097183Y1826829D01*
X3098104Y1825908D01*
X3099307Y1825410D01*
X3100609D01*
X3101813Y1825908D01*
X3102734Y1826829D01*
X3103232Y1828033D01*
Y1829335D01*
X3102734Y1830538D01*
X3101813Y1831459D01*
X3100609Y1831958D01*
D02*
G37*
G36*
X3168492Y1831958D02*
X3167189D01*
X3165986Y1831459D01*
X3165065Y1830538D01*
X3164567Y1829335D01*
Y1828033D01*
X3165065Y1826829D01*
X3165986Y1825908D01*
X3167189Y1825410D01*
X3168492D01*
X3169695Y1825908D01*
X3170616Y1826829D01*
X3171115Y1828033D01*
Y1829335D01*
X3170616Y1830538D01*
X3169695Y1831459D01*
X3168492Y1831958D01*
D02*
G37*
G36*
X3111923D02*
X3110621D01*
X3109417Y1831459D01*
X3108496Y1830538D01*
X3107998Y1829335D01*
Y1828033D01*
X3108496Y1826829D01*
X3109417Y1825908D01*
X3110621Y1825410D01*
X3111923D01*
X3113127Y1825908D01*
X3114048Y1826829D01*
X3114546Y1828033D01*
Y1829335D01*
X3114048Y1830538D01*
X3113127Y1831459D01*
X3111923Y1831958D01*
D02*
G37*
G36*
X3089296D02*
X3087993D01*
X3086790Y1831459D01*
X3085869Y1830538D01*
X3085370Y1829335D01*
Y1828033D01*
X3085869Y1826829D01*
X3086790Y1825908D01*
X3087993Y1825410D01*
X3089296D01*
X3090499Y1825908D01*
X3091420Y1826829D01*
X3091919Y1828033D01*
Y1829335D01*
X3091420Y1830538D01*
X3090499Y1831459D01*
X3089296Y1831958D01*
D02*
G37*
G36*
X3457200Y1823768D02*
X3455019D01*
X3455218Y1823286D01*
X3456719Y1821786D01*
X3457200Y1821587D01*
Y1823768D01*
D02*
G37*
G36*
X3128894Y1826301D02*
X3127591D01*
X3126388Y1825802D01*
X3125467Y1824881D01*
X3124969Y1823678D01*
Y1822376D01*
X3125467Y1821172D01*
X3126388Y1820251D01*
X3127591Y1819753D01*
X3128894D01*
X3130097Y1820251D01*
X3131018Y1821172D01*
X3131517Y1822376D01*
Y1823678D01*
X3131018Y1824881D01*
X3130097Y1825802D01*
X3128894Y1826301D01*
D02*
G37*
G36*
X3117580Y1826301D02*
X3116277D01*
X3115074Y1825802D01*
X3114153Y1824881D01*
X3113655Y1823678D01*
Y1822376D01*
X3114153Y1821172D01*
X3115074Y1820251D01*
X3116277Y1819753D01*
X3117580D01*
X3118783Y1820251D01*
X3119704Y1821172D01*
X3120203Y1822376D01*
Y1823678D01*
X3119704Y1824881D01*
X3118783Y1825802D01*
X3117580Y1826301D01*
D02*
G37*
G36*
X3106266D02*
X3104964D01*
X3103761Y1825802D01*
X3102840Y1824881D01*
X3102341Y1823678D01*
Y1822376D01*
X3102840Y1821172D01*
X3103761Y1820251D01*
X3104964Y1819753D01*
X3106266D01*
X3107470Y1820251D01*
X3108391Y1821172D01*
X3108889Y1822376D01*
Y1823678D01*
X3108391Y1824881D01*
X3107470Y1825802D01*
X3106266Y1826301D01*
D02*
G37*
G36*
X3094953D02*
X3093650D01*
X3092447Y1825802D01*
X3091526Y1824881D01*
X3091028Y1823678D01*
Y1822376D01*
X3091526Y1821172D01*
X3092447Y1820251D01*
X3093650Y1819753D01*
X3094953D01*
X3096156Y1820251D01*
X3097077Y1821172D01*
X3097575Y1822376D01*
Y1823678D01*
X3097077Y1824881D01*
X3096156Y1825802D01*
X3094953Y1826301D01*
D02*
G37*
G36*
X3162835Y1826301D02*
X3161533D01*
X3160329Y1825802D01*
X3159408Y1824881D01*
X3158910Y1823678D01*
Y1822376D01*
X3159408Y1821172D01*
X3160329Y1820251D01*
X3161533Y1819753D01*
X3162835D01*
X3164038Y1820251D01*
X3164959Y1821172D01*
X3165458Y1822376D01*
Y1823678D01*
X3164959Y1824881D01*
X3164038Y1825802D01*
X3162835Y1826301D01*
D02*
G37*
G36*
X3456820Y1818981D02*
X3454280D01*
Y1814348D01*
X3463466D01*
X3463032Y1815395D01*
X3461892Y1816880D01*
X3460407Y1818020D01*
X3458676Y1818737D01*
X3456820Y1818981D01*
D02*
G37*
G36*
X3449200D02*
X3446660D01*
X3444803Y1818737D01*
X3443073Y1818020D01*
X3441588Y1816880D01*
X3440448Y1815395D01*
X3440014Y1814348D01*
X3449200D01*
Y1818981D01*
D02*
G37*
G36*
X3134551Y1820644D02*
X3133248D01*
X3132045Y1820146D01*
X3131124Y1819225D01*
X3130626Y1818021D01*
Y1816719D01*
X3131124Y1815515D01*
X3132045Y1814595D01*
X3133248Y1814096D01*
X3134551D01*
X3135754Y1814595D01*
X3136675Y1815515D01*
X3137173Y1816719D01*
Y1818021D01*
X3136675Y1819225D01*
X3135754Y1820146D01*
X3134551Y1820644D01*
D02*
G37*
G36*
X3123237D02*
X3121935D01*
X3120731Y1820146D01*
X3119810Y1819225D01*
X3119312Y1818021D01*
Y1816719D01*
X3119810Y1815515D01*
X3120731Y1814595D01*
X3121935Y1814096D01*
X3123237D01*
X3124440Y1814595D01*
X3125361Y1815515D01*
X3125860Y1816719D01*
Y1818021D01*
X3125361Y1819225D01*
X3124440Y1820146D01*
X3123237Y1820644D01*
D02*
G37*
G36*
X3145864Y1820644D02*
X3144562D01*
X3143358Y1820146D01*
X3142438Y1819225D01*
X3141939Y1818021D01*
Y1816719D01*
X3142438Y1815515D01*
X3143358Y1814595D01*
X3144562Y1814096D01*
X3145864D01*
X3147068Y1814595D01*
X3147989Y1815515D01*
X3148487Y1816719D01*
Y1818021D01*
X3147989Y1819225D01*
X3147068Y1820146D01*
X3145864Y1820644D01*
D02*
G37*
G36*
X3111923D02*
X3110621D01*
X3109417Y1820146D01*
X3108496Y1819225D01*
X3107998Y1818021D01*
Y1816719D01*
X3108496Y1815515D01*
X3109417Y1814595D01*
X3110621Y1814096D01*
X3111923D01*
X3113127Y1814595D01*
X3114048Y1815515D01*
X3114546Y1816719D01*
Y1818021D01*
X3114048Y1819225D01*
X3113127Y1820146D01*
X3111923Y1820644D01*
D02*
G37*
G36*
X3157178Y1820644D02*
X3155876D01*
X3154672Y1820146D01*
X3153751Y1819225D01*
X3153253Y1818021D01*
Y1816719D01*
X3153751Y1815515D01*
X3154672Y1814594D01*
X3155876Y1814096D01*
X3157178D01*
X3158381Y1814594D01*
X3159302Y1815515D01*
X3159801Y1816719D01*
Y1818021D01*
X3159302Y1819225D01*
X3158381Y1820146D01*
X3157178Y1820644D01*
D02*
G37*
G36*
X3100609D02*
X3099307D01*
X3098104Y1820146D01*
X3097183Y1819225D01*
X3096684Y1818021D01*
Y1816719D01*
X3097183Y1815515D01*
X3098104Y1814594D01*
X3099307Y1814096D01*
X3100609D01*
X3101813Y1814594D01*
X3102734Y1815515D01*
X3103232Y1816719D01*
Y1818021D01*
X3102734Y1819225D01*
X3101813Y1820146D01*
X3100609Y1820644D01*
D02*
G37*
G36*
X3128894Y1814987D02*
X3127591D01*
X3126388Y1814489D01*
X3125467Y1813568D01*
X3124969Y1812364D01*
Y1811062D01*
X3125467Y1809859D01*
X3126388Y1808938D01*
X3127591Y1808439D01*
X3128894D01*
X3130097Y1808938D01*
X3131018Y1809859D01*
X3131517Y1811062D01*
Y1812364D01*
X3131018Y1813568D01*
X3130097Y1814489D01*
X3128894Y1814987D01*
D02*
G37*
G36*
X3117580D02*
X3116278D01*
X3115074Y1814489D01*
X3114153Y1813568D01*
X3113655Y1812364D01*
Y1811062D01*
X3114153Y1809859D01*
X3115074Y1808938D01*
X3116278Y1808439D01*
X3117580D01*
X3118783Y1808938D01*
X3119704Y1809859D01*
X3120203Y1811062D01*
Y1812364D01*
X3119704Y1813568D01*
X3118783Y1814489D01*
X3117580Y1814987D01*
D02*
G37*
G36*
X3140208Y1814987D02*
X3138905D01*
X3137702Y1814489D01*
X3136781Y1813568D01*
X3136282Y1812364D01*
Y1811062D01*
X3136781Y1809859D01*
X3137702Y1808938D01*
X3138905Y1808439D01*
X3140208D01*
X3141411Y1808938D01*
X3142332Y1809859D01*
X3142830Y1811062D01*
Y1812364D01*
X3142332Y1813568D01*
X3141411Y1814489D01*
X3140208Y1814987D01*
D02*
G37*
G36*
X3106266D02*
X3104964D01*
X3103761Y1814489D01*
X3102840Y1813568D01*
X3102341Y1812364D01*
Y1811062D01*
X3102840Y1809859D01*
X3103761Y1808938D01*
X3104964Y1808439D01*
X3106266D01*
X3107470Y1808938D01*
X3108391Y1809859D01*
X3108889Y1811062D01*
Y1812364D01*
X3108391Y1813568D01*
X3107470Y1814489D01*
X3106266Y1814987D01*
D02*
G37*
G36*
X3151521Y1814987D02*
X3150219D01*
X3149016Y1814489D01*
X3148094Y1813568D01*
X3147596Y1812364D01*
Y1811062D01*
X3148094Y1809859D01*
X3149016Y1808938D01*
X3150219Y1808439D01*
X3151521D01*
X3152725Y1808938D01*
X3153646Y1809859D01*
X3154144Y1811062D01*
Y1812364D01*
X3153646Y1813568D01*
X3152725Y1814489D01*
X3151521Y1814987D01*
D02*
G37*
G36*
X3519466Y1809268D02*
X3510280D01*
Y1804635D01*
X3512820D01*
X3514677Y1804879D01*
X3516407Y1805596D01*
X3517892Y1806736D01*
X3519032Y1808221D01*
X3519466Y1809268D01*
D02*
G37*
G36*
X3463466D02*
X3454280D01*
Y1804635D01*
X3456820D01*
X3458676Y1804879D01*
X3460407Y1805596D01*
X3461892Y1806736D01*
X3463032Y1808221D01*
X3463466Y1809268D01*
D02*
G37*
G36*
X3449200D02*
X3440014D01*
X3440448Y1808221D01*
X3441588Y1806736D01*
X3443073Y1805596D01*
X3444803Y1804879D01*
X3446660Y1804635D01*
X3449200D01*
Y1809268D01*
D02*
G37*
G36*
X3134551Y1809330D02*
X3133248D01*
X3132045Y1808832D01*
X3131124Y1807911D01*
X3130625Y1806708D01*
Y1805405D01*
X3131124Y1804202D01*
X3132045Y1803281D01*
X3133248Y1802782D01*
X3134551D01*
X3135754Y1803281D01*
X3136675Y1804202D01*
X3137173Y1805405D01*
Y1806708D01*
X3136675Y1807911D01*
X3135754Y1808832D01*
X3134551Y1809330D01*
D02*
G37*
G36*
X3123237D02*
X3121935D01*
X3120731Y1808832D01*
X3119810Y1807911D01*
X3119312Y1806708D01*
Y1805405D01*
X3119810Y1804202D01*
X3120731Y1803281D01*
X3121935Y1802782D01*
X3123237D01*
X3124440Y1803281D01*
X3125361Y1804202D01*
X3125860Y1805405D01*
Y1806708D01*
X3125361Y1807911D01*
X3124440Y1808832D01*
X3123237Y1809330D01*
D02*
G37*
G36*
X3111923Y1809330D02*
X3110621D01*
X3109417Y1808832D01*
X3108496Y1807911D01*
X3107998Y1806707D01*
Y1805405D01*
X3108496Y1804202D01*
X3109417Y1803281D01*
X3110621Y1802782D01*
X3111923D01*
X3113127Y1803281D01*
X3114048Y1804202D01*
X3114546Y1805405D01*
Y1806707D01*
X3114048Y1807911D01*
X3113127Y1808832D01*
X3111923Y1809330D01*
D02*
G37*
G36*
X3140208Y1803674D02*
X3138905D01*
X3137702Y1803175D01*
X3136781Y1802254D01*
X3136282Y1801051D01*
Y1799748D01*
X3136781Y1798545D01*
X3137702Y1797624D01*
X3138905Y1797126D01*
X3140208D01*
X3141411Y1797624D01*
X3142332Y1798545D01*
X3142830Y1799748D01*
Y1801051D01*
X3142332Y1802254D01*
X3141411Y1803175D01*
X3140208Y1803674D01*
D02*
G37*
G36*
X3128894D02*
X3127591D01*
X3126388Y1803175D01*
X3125467Y1802254D01*
X3124969Y1801051D01*
Y1799748D01*
X3125467Y1798545D01*
X3126388Y1797624D01*
X3127591Y1797126D01*
X3128894D01*
X3130097Y1797624D01*
X3131018Y1798545D01*
X3131517Y1799748D01*
Y1801051D01*
X3131018Y1802254D01*
X3130097Y1803175D01*
X3128894Y1803674D01*
D02*
G37*
G36*
X3117580Y1803673D02*
X3116278D01*
X3115074Y1803175D01*
X3114153Y1802254D01*
X3113655Y1801051D01*
Y1799748D01*
X3114153Y1798545D01*
X3115074Y1797624D01*
X3116278Y1797126D01*
X3117580D01*
X3118783Y1797624D01*
X3119704Y1798545D01*
X3120203Y1799748D01*
Y1801051D01*
X3119704Y1802254D01*
X3118783Y1803175D01*
X3117580Y1803673D01*
D02*
G37*
G36*
X3134551Y1798017D02*
X3133248D01*
X3132045Y1797518D01*
X3131124Y1796597D01*
X3130626Y1795394D01*
Y1794091D01*
X3131124Y1792888D01*
X3132045Y1791967D01*
X3133248Y1791469D01*
X3134551D01*
X3135754Y1791967D01*
X3136675Y1792888D01*
X3137173Y1794091D01*
Y1795394D01*
X3136675Y1796597D01*
X3135754Y1797518D01*
X3134551Y1798017D01*
D02*
G37*
G36*
X3123237D02*
X3121935D01*
X3120731Y1797518D01*
X3119810Y1796597D01*
X3119312Y1795394D01*
Y1794091D01*
X3119810Y1792888D01*
X3120731Y1791967D01*
X3121935Y1791469D01*
X3123237D01*
X3124440Y1791967D01*
X3125361Y1792888D01*
X3125860Y1794091D01*
Y1795394D01*
X3125361Y1796597D01*
X3124440Y1797518D01*
X3123237Y1798017D01*
D02*
G37*
G36*
X3147060Y1738484D02*
Y1729740D01*
X3155804D01*
X3155289Y1731661D01*
X3153768Y1734296D01*
X3151616Y1736448D01*
X3148981Y1737969D01*
X3147060Y1738484D01*
D02*
G37*
G36*
X3141980D02*
X3140059Y1737969D01*
X3137424Y1736448D01*
X3135272Y1734296D01*
X3133751Y1731661D01*
X3133236Y1729740D01*
X3141980D01*
Y1738484D01*
D02*
G37*
G36*
X3155804Y1724660D02*
X3147060D01*
Y1715916D01*
X3148981Y1716431D01*
X3151616Y1717952D01*
X3153768Y1720104D01*
X3155289Y1722739D01*
X3155804Y1724660D01*
D02*
G37*
G36*
X3141980D02*
X3133236D01*
X3133751Y1722739D01*
X3135272Y1720104D01*
X3137424Y1717952D01*
X3140059Y1716431D01*
X3141980Y1715916D01*
Y1724660D01*
D02*
G37*
G36*
X2580381Y1643380D02*
X2578359D01*
X2576492Y1642607D01*
X2575063Y1641178D01*
X2574290Y1639310D01*
Y1637289D01*
X2575063Y1635422D01*
X2576492Y1633993D01*
X2578359Y1633220D01*
X2580381D01*
X2582248Y1633993D01*
X2583676Y1635422D01*
X2584450Y1637289D01*
Y1639310D01*
X2583676Y1641178D01*
X2582248Y1642607D01*
X2580381Y1643380D01*
D02*
G37*
G36*
X3501641Y1643380D02*
X3499619D01*
X3497752Y1642607D01*
X3496324Y1641178D01*
X3495550Y1639310D01*
Y1637289D01*
X3496324Y1635422D01*
X3497752Y1633993D01*
X3499619Y1633220D01*
X3501641D01*
X3503508Y1633993D01*
X3504937Y1635422D01*
X3505710Y1637289D01*
Y1639310D01*
X3504937Y1641178D01*
X3503508Y1642607D01*
X3501641Y1643380D01*
D02*
G37*
G36*
X3243380Y1574886D02*
Y1564170D01*
X3254096D01*
X3253385Y1566826D01*
X3251612Y1569896D01*
X3249106Y1572402D01*
X3246036Y1574175D01*
X3243380Y1574886D01*
D02*
G37*
G36*
X3047800D02*
Y1564170D01*
X3058516D01*
X3057805Y1566826D01*
X3056032Y1569896D01*
X3053526Y1572402D01*
X3050456Y1574175D01*
X3047800Y1574886D01*
D02*
G37*
G36*
X3175200Y1574886D02*
Y1564170D01*
X3185916D01*
X3185204Y1566826D01*
X3183432Y1569896D01*
X3180926Y1572402D01*
X3177856Y1574175D01*
X3175200Y1574886D01*
D02*
G37*
G36*
X3370780D02*
Y1564170D01*
X3381496D01*
X3380785Y1566826D01*
X3379012Y1569896D01*
X3376506Y1572402D01*
X3373436Y1574175D01*
X3370780Y1574886D01*
D02*
G37*
G36*
X3170120Y1574886D02*
X3167464Y1574175D01*
X3164394Y1572402D01*
X3161888Y1569896D01*
X3160115Y1566826D01*
X3159404Y1564170D01*
X3170120D01*
Y1574886D01*
D02*
G37*
G36*
X3365700D02*
X3363044Y1574175D01*
X3359974Y1572402D01*
X3357468Y1569896D01*
X3355695Y1566826D01*
X3354984Y1564170D01*
X3365700D01*
Y1574886D01*
D02*
G37*
G36*
X3238300Y1574886D02*
X3235644Y1574175D01*
X3232574Y1572402D01*
X3230068Y1569896D01*
X3228295Y1566826D01*
X3227584Y1564170D01*
X3238300D01*
Y1574886D01*
D02*
G37*
G36*
X3042720D02*
X3040064Y1574175D01*
X3036994Y1572402D01*
X3034488Y1569896D01*
X3032715Y1566826D01*
X3032004Y1564170D01*
X3042720D01*
Y1574886D01*
D02*
G37*
G36*
X2608159Y1616964D02*
X2603921D01*
X2599735Y1616301D01*
X2595705Y1614991D01*
X2591929Y1613067D01*
X2588500Y1610576D01*
X2585504Y1607580D01*
X2583012Y1604151D01*
X2581089Y1600375D01*
X2579779Y1596345D01*
X2579116Y1592159D01*
Y1587921D01*
X2579779Y1583735D01*
X2581089Y1579705D01*
X2583012Y1575929D01*
X2585504Y1572500D01*
X2588500Y1569503D01*
X2591929Y1567012D01*
X2595705Y1565089D01*
X2599735Y1563779D01*
X2603921Y1563116D01*
X2608159D01*
X2612345Y1563779D01*
X2616375Y1565089D01*
X2620151Y1567012D01*
X2623580Y1569503D01*
X2626577Y1572500D01*
X2629067Y1575929D01*
X2630992Y1579705D01*
X2632301Y1583735D01*
X2632964Y1587921D01*
Y1592159D01*
X2632301Y1596345D01*
X2630992Y1600375D01*
X2629067Y1604151D01*
X2626577Y1607580D01*
X2623580Y1610576D01*
X2620151Y1613067D01*
X2616375Y1614991D01*
X2612345Y1616301D01*
X2608159Y1616964D01*
D02*
G37*
G36*
X3476079Y1616964D02*
X3471841D01*
X3467655Y1616301D01*
X3463625Y1614991D01*
X3459849Y1613067D01*
X3456420Y1610576D01*
X3453423Y1607580D01*
X3450933Y1604151D01*
X3449008Y1600375D01*
X3447699Y1596345D01*
X3447036Y1592159D01*
Y1587921D01*
X3447699Y1583735D01*
X3449008Y1579705D01*
X3450933Y1575929D01*
X3453423Y1572500D01*
X3456420Y1569503D01*
X3459849Y1567012D01*
X3463625Y1565088D01*
X3467655Y1563779D01*
X3471841Y1563116D01*
X3476079D01*
X3480265Y1563779D01*
X3484295Y1565088D01*
X3488071Y1567012D01*
X3491500Y1569503D01*
X3494496Y1572500D01*
X3496988Y1575929D01*
X3498911Y1579705D01*
X3500221Y1583735D01*
X3500884Y1587921D01*
Y1592159D01*
X3500221Y1596345D01*
X3498911Y1600375D01*
X3496988Y1604151D01*
X3494496Y1607580D01*
X3491500Y1610576D01*
X3488071Y1613067D01*
X3484295Y1614991D01*
X3480265Y1616301D01*
X3476079Y1616964D01*
D02*
G37*
G36*
X3254096Y1559090D02*
X3243380D01*
Y1548374D01*
X3246036Y1549085D01*
X3249106Y1550858D01*
X3251612Y1553364D01*
X3253385Y1556434D01*
X3254096Y1559090D01*
D02*
G37*
G36*
X3058516D02*
X3047800D01*
Y1548374D01*
X3050456Y1549085D01*
X3053526Y1550858D01*
X3056032Y1553364D01*
X3057805Y1556434D01*
X3058516Y1559090D01*
D02*
G37*
G36*
X3365700D02*
X3354984D01*
X3355695Y1556434D01*
X3357468Y1553364D01*
X3359974Y1550858D01*
X3363044Y1549085D01*
X3365700Y1548374D01*
Y1559090D01*
D02*
G37*
G36*
X3170120D02*
X3159404D01*
X3160115Y1556434D01*
X3161888Y1553364D01*
X3164394Y1550858D01*
X3167464Y1549085D01*
X3170120Y1548374D01*
Y1559090D01*
D02*
G37*
G36*
X3381496D02*
X3370780D01*
Y1548374D01*
X3373436Y1549085D01*
X3376506Y1550858D01*
X3379012Y1553364D01*
X3380785Y1556434D01*
X3381496Y1559090D01*
D02*
G37*
G36*
X3185916D02*
X3175200D01*
Y1548374D01*
X3177856Y1549085D01*
X3180926Y1550858D01*
X3183432Y1553364D01*
X3185204Y1556434D01*
X3185916Y1559090D01*
D02*
G37*
G36*
X3238300D02*
X3227584D01*
X3228295Y1556434D01*
X3230068Y1553364D01*
X3232574Y1550858D01*
X3235644Y1549085D01*
X3238300Y1548374D01*
Y1559090D01*
D02*
G37*
G36*
X3042720D02*
X3032004D01*
X3032715Y1556434D01*
X3034488Y1553364D01*
X3036994Y1550858D01*
X3040064Y1549085D01*
X3042720Y1548374D01*
Y1559090D01*
D02*
G37*
%LPD*%
D11*
X3337560Y2374646D02*
D03*
X3345180D02*
D03*
X3329940D02*
D03*
X3337560Y2390902D02*
D03*
X3345180D02*
D03*
X3329940D02*
D03*
X3473960Y2478280D02*
D03*
X3463800Y2475558D02*
D03*
X3456426Y2468148D02*
D03*
X3453640Y2457960D02*
D03*
X3456362Y2447800D02*
D03*
X3463800Y2440363D02*
D03*
X3473960Y2437640D02*
D03*
X3484120Y2440363D02*
D03*
X3491558Y2447800D02*
D03*
X3494280Y2457960D02*
D03*
X3491558Y2468120D02*
D03*
X3484120Y2475558D02*
D03*
X3473960Y1610360D02*
D03*
X3463800Y1607637D02*
D03*
X3456426Y1600228D02*
D03*
X3453640Y1590040D02*
D03*
X3456362Y1579880D02*
D03*
X3463800Y1572442D02*
D03*
X3473960Y1569720D02*
D03*
X3484120Y1572442D02*
D03*
X3491558Y1579880D02*
D03*
X3494280Y1590040D02*
D03*
X3491558Y1600200D02*
D03*
X3484120Y1607637D02*
D03*
X2606040Y2478280D02*
D03*
X2595880Y2475558D02*
D03*
X2588506Y2468148D02*
D03*
X2585720Y2457960D02*
D03*
X2588442Y2447800D02*
D03*
X2595880Y2440362D02*
D03*
X2606040Y2437640D02*
D03*
X2616200Y2440362D02*
D03*
X2623638Y2447800D02*
D03*
X2626360Y2457960D02*
D03*
X2623638Y2468120D02*
D03*
X2616200Y2475558D02*
D03*
X2606040Y1610360D02*
D03*
X2595880Y1607638D02*
D03*
X2588506Y1600228D02*
D03*
X2585720Y1590040D02*
D03*
X2588442Y1579880D02*
D03*
X2595880Y1572442D02*
D03*
X2606040Y1569720D02*
D03*
X2616200Y1572442D02*
D03*
X2623638Y1579880D02*
D03*
X2626360Y1590040D02*
D03*
X2623638Y1600200D02*
D03*
X2616200Y1607638D02*
D03*
D101*
X2908350Y2468280D02*
D03*
X2921050Y2461930D02*
D03*
X2933750Y2468280D02*
D03*
X2921050Y2474630D02*
D03*
X2933750Y2480980D02*
D03*
X2908350D02*
D03*
Y2493680D02*
D03*
X2921050Y2500030D02*
D03*
X2933750Y2493680D02*
D03*
X2921050Y2487330D02*
D03*
X2961640Y2446020D02*
D03*
X2961640Y2458720D02*
D03*
X3176016Y2468878D02*
D03*
X3137916Y2475228D02*
D03*
X3163316D02*
D03*
X3150616Y2468878D02*
D03*
X3163316Y2462527D02*
D03*
X3137916D02*
D03*
X3316986Y2195830D02*
D03*
X3296666D02*
D03*
X3304286Y2202180D02*
D03*
X3283966D02*
D03*
X3271266Y2208530D02*
D03*
X3291586D02*
D03*
X3326130Y2306320D02*
D03*
X3281680Y2349500D02*
D03*
X3285490Y2312670D02*
D03*
X3293110Y2284730D02*
D03*
X3293110Y2291080D02*
D03*
X3332988Y2291080D02*
D03*
X3332989Y2278380D02*
D03*
X3332988Y2272030D02*
D03*
Y2284730D02*
D03*
X3332988Y2265680D02*
D03*
X3326638Y2284730D02*
D03*
Y2272030D02*
D03*
X3326638Y2278380D02*
D03*
X3326638Y2291080D02*
D03*
Y2265680D02*
D03*
X3293110D02*
D03*
X3293110Y2278380D02*
D03*
X3293110Y2272030D02*
D03*
X3362760Y2346490D02*
D03*
X3299260Y2346489D02*
D03*
X3299259Y2352839D02*
D03*
X3299259Y2359189D02*
D03*
X3311959Y2371889D02*
D03*
X3305609Y2365539D02*
D03*
X3311959Y2365539D02*
D03*
X3305609Y2359189D02*
D03*
X3311960Y2359189D02*
D03*
X3305609Y2352839D02*
D03*
X3311960Y2352839D02*
D03*
X3305609Y2340139D02*
D03*
X3305609Y2346489D02*
D03*
X3311960Y2340139D02*
D03*
X3311960Y2346489D02*
D03*
X3318310Y2340139D02*
D03*
X3318310Y2346489D02*
D03*
X3324659Y2340139D02*
D03*
X3324660Y2346490D02*
D03*
X3331010Y2340140D02*
D03*
X3331010Y2346490D02*
D03*
X3337360Y2340140D02*
D03*
X3337360Y2346490D02*
D03*
X3343710Y2346490D02*
D03*
X3343710Y2340140D02*
D03*
X3356410D02*
D03*
X3356410Y2346490D02*
D03*
X3350060Y2340140D02*
D03*
X3350060Y2346490D02*
D03*
X3369110Y2352840D02*
D03*
X3369110Y2359190D02*
D03*
X3350060Y2352840D02*
D03*
X3356410Y2352840D02*
D03*
X3362760Y2352840D02*
D03*
X3350060Y2359190D02*
D03*
X3356410Y2359190D02*
D03*
X3362760Y2359190D02*
D03*
X3362760Y2365540D02*
D03*
X3356410Y2365540D02*
D03*
X3299370Y2372270D02*
D03*
X3378835Y2453640D02*
D03*
X3379470Y2472105D02*
D03*
X3391662Y2378964D02*
D03*
X3379470Y2416810D02*
D03*
X3366770Y2429510D02*
D03*
X3366770Y2416810D02*
D03*
X3307080Y2437130D02*
D03*
X3294380Y2437130D02*
D03*
X3281680Y2437130D02*
D03*
X3292856Y2391410D02*
D03*
X3267456Y2385060D02*
D03*
Y2410460D02*
D03*
X3254756Y2404110D02*
D03*
Y2391410D02*
D03*
X3267456Y2397760D02*
D03*
X3280156Y2391410D02*
D03*
X3125470Y2499360D02*
D03*
X3112770Y2505710D02*
D03*
X3100070Y2499360D02*
D03*
Y2486660D02*
D03*
X3112770Y2493010D02*
D03*
X2579370Y2373630D02*
D03*
X1602740Y2171700D02*
D03*
X1629410Y2164080D02*
D03*
X1639570Y2162810D02*
D03*
X1601470Y2161540D02*
D03*
X1637030Y2218690D02*
D03*
X1652270Y2217420D02*
D03*
X1642110Y2195830D02*
D03*
X1610360Y2200910D02*
D03*
Y2179320D02*
D03*
X1620520D02*
D03*
X3027680Y2488438D02*
D03*
X3040380Y2488438D02*
D03*
X3125470Y2486660D02*
D03*
X3112770Y2480310D02*
D03*
X2971800Y2513840D02*
D03*
X3505200Y2365756D02*
D03*
Y1681988D02*
D03*
X2575560Y1681480D02*
D03*
X3500630Y2409700D02*
D03*
X3500630Y1638300D02*
D03*
X2579370Y1638300D02*
D03*
X3040380Y2475738D02*
D03*
Y2463038D02*
D03*
X3027680Y2463038D02*
D03*
Y2475738D02*
D03*
X3150616Y2456178D02*
D03*
X3176016D02*
D03*
Y2397760D02*
D03*
X3163316Y2391410D02*
D03*
X3150616Y2397760D02*
D03*
X3137916Y2391410D02*
D03*
X3099816Y2397760D02*
D03*
X3125216D02*
D03*
X3112516Y2391410D02*
D03*
X3027680Y2392172D02*
D03*
X3040380Y2392172D02*
D03*
X3027680Y2366772D02*
D03*
Y2379472D02*
D03*
X3040380Y2379472D02*
D03*
Y2366772D02*
D03*
X3006280Y2340300D02*
D03*
X2993580Y2340300D02*
D03*
X3018980D02*
D03*
X2973980D02*
D03*
X2948580D02*
D03*
X2961280Y2340300D02*
D03*
X2936240Y2404110D02*
D03*
Y2416810D02*
D03*
X2948940Y2416810D02*
D03*
X2961640Y2410460D02*
D03*
X2948940Y2404110D02*
D03*
X2974340D02*
D03*
X2961640Y2397760D02*
D03*
X2901950Y2415540D02*
D03*
Y2428240D02*
D03*
X2838450Y2324100D02*
D03*
Y2349500D02*
D03*
X2832100Y2336800D02*
D03*
Y2362200D02*
D03*
X2838450Y2374900D02*
D03*
X2832100Y2387600D02*
D03*
X2778760Y2298700D02*
D03*
X2804160D02*
D03*
X2791460Y2298700D02*
D03*
X2749550Y2444750D02*
D03*
X2749550Y2432050D02*
D03*
X2749550Y2419350D02*
D03*
X2781300Y2406650D02*
D03*
X2794000Y2400300D02*
D03*
X2768600D02*
D03*
X2755900Y2406650D02*
D03*
X2743200Y2400300D02*
D03*
X2730500Y2406650D02*
D03*
X2717800Y2400300D02*
D03*
X2994661Y2279646D02*
D03*
X2994661Y2266947D02*
D03*
X2994661Y2254247D02*
D03*
X2981961Y2254247D02*
D03*
X2969261Y2292347D02*
D03*
X2969261Y2305047D02*
D03*
X2969261Y2317747D02*
D03*
X2994660Y2317750D02*
D03*
X2994660Y2305050D02*
D03*
X2994660Y2292350D02*
D03*
X2562860Y2254250D02*
D03*
X2575560Y2254250D02*
D03*
X2600960Y2254250D02*
D03*
X2588260Y2254250D02*
D03*
X2626360Y2254249D02*
D03*
X2613660Y2254250D02*
D03*
X2689861Y2254249D02*
D03*
X2702560Y2254249D02*
D03*
X2664460Y2254249D02*
D03*
X2677160Y2254249D02*
D03*
X2651760Y2254249D02*
D03*
X2639060Y2254249D02*
D03*
X2715260Y2254249D02*
D03*
X2753361Y2254248D02*
D03*
X2740660Y2254249D02*
D03*
X2727961Y2254249D02*
D03*
X2791461Y2254248D02*
D03*
X2778760Y2254248D02*
D03*
X2766060Y2254248D02*
D03*
X2829561Y2254248D02*
D03*
X2816861Y2254248D02*
D03*
X2804160Y2254248D02*
D03*
X2867661Y2254247D02*
D03*
X2854961Y2254248D02*
D03*
X2842261Y2254248D02*
D03*
X2905761Y2254247D02*
D03*
X2893061Y2254247D02*
D03*
X2880361Y2254247D02*
D03*
X2943861Y2254247D02*
D03*
X2931161Y2254247D02*
D03*
X2918461Y2254247D02*
D03*
X2969261Y2254247D02*
D03*
X2956561Y2254247D02*
D03*
X2550160Y2254250D02*
D03*
X2550160Y2279650D02*
D03*
X2956561Y2279647D02*
D03*
X2969261Y2279647D02*
D03*
X2918461Y2279647D02*
D03*
X2931161Y2279647D02*
D03*
X2943861Y2279647D02*
D03*
X2880361Y2279647D02*
D03*
X2893061Y2279647D02*
D03*
X2905761Y2279647D02*
D03*
X2842261Y2279648D02*
D03*
X2854961Y2279648D02*
D03*
X2867661Y2279648D02*
D03*
X2804160Y2279648D02*
D03*
X2816860Y2279648D02*
D03*
X2829561Y2279648D02*
D03*
X2766060Y2279648D02*
D03*
X2778760Y2279648D02*
D03*
X2791461Y2279648D02*
D03*
X2727961Y2279649D02*
D03*
X2740660Y2279648D02*
D03*
X2753360Y2279648D02*
D03*
X2715260Y2279649D02*
D03*
X2639060Y2279649D02*
D03*
X2651760Y2279649D02*
D03*
X2677160Y2279649D02*
D03*
X2664460Y2279649D02*
D03*
X2702560Y2279649D02*
D03*
X2689860Y2279649D02*
D03*
X2613660Y2279650D02*
D03*
X2626360Y2279649D02*
D03*
X2588260Y2279650D02*
D03*
X2600960Y2279650D02*
D03*
X2575560Y2279650D02*
D03*
X2562860Y2279650D02*
D03*
X2553903Y2499870D02*
D03*
X2564130Y2510097D02*
D03*
X3515870Y2510097D02*
D03*
X3526096Y2499870D02*
D03*
X3526097Y1548130D02*
D03*
X3515870Y1537903D02*
D03*
X2564130Y1537903D02*
D03*
X2553903Y1548130D02*
D03*
X2603500Y1534160D02*
D03*
X2590800D02*
D03*
X3476500Y1534160D02*
D03*
X3501900D02*
D03*
X3451100D02*
D03*
X3425700D02*
D03*
X3400300D02*
D03*
X2628900Y1534160D02*
D03*
X2654300D02*
D03*
X2679700D02*
D03*
X2705100D02*
D03*
X2730500D02*
D03*
X2755900D02*
D03*
X2781300D02*
D03*
X2806700D02*
D03*
X2832100D02*
D03*
X2857500D02*
D03*
X2882900D02*
D03*
X2908300D02*
D03*
X2933700D02*
D03*
X2959100D02*
D03*
X2984500D02*
D03*
X3040000D02*
D03*
X3374900Y1534160D02*
D03*
X3349500D02*
D03*
X3324100Y1534160D02*
D03*
X3298700Y1534160D02*
D03*
X3273300D02*
D03*
X3247900D02*
D03*
X3222500D02*
D03*
X3197100D02*
D03*
X3171700D02*
D03*
X3146300D02*
D03*
X3120900D02*
D03*
X3095500Y1534160D02*
D03*
X3070100Y1534160D02*
D03*
X3009900Y1534160D02*
D03*
X2578100D02*
D03*
X2616200Y1534160D02*
D03*
X2641600D02*
D03*
X2667000D02*
D03*
X2692400D02*
D03*
X2717800D02*
D03*
X2743200D02*
D03*
X2768600D02*
D03*
X2794000D02*
D03*
X2819400D02*
D03*
X2844800D02*
D03*
X2870200D02*
D03*
X2895600D02*
D03*
X2921000D02*
D03*
X2946400D02*
D03*
X2971800D02*
D03*
X2997200D02*
D03*
X3082800Y1534160D02*
D03*
X3108200Y1534160D02*
D03*
X3133600D02*
D03*
X3159000Y1534160D02*
D03*
X3184400Y1534160D02*
D03*
X3209800Y1534160D02*
D03*
X3235200D02*
D03*
X3260600D02*
D03*
X3286000D02*
D03*
X3311400Y1534160D02*
D03*
X3336800Y1534160D02*
D03*
X3362200D02*
D03*
X3387600D02*
D03*
X3413000Y1534160D02*
D03*
X3438400Y1534160D02*
D03*
X3463800D02*
D03*
X3489200D02*
D03*
X3024950Y1534160D02*
D03*
X3055050D02*
D03*
X3529840Y2460500D02*
D03*
Y2473200D02*
D03*
X3529840Y1587500D02*
D03*
Y1562100D02*
D03*
Y1612900D02*
D03*
Y1638300D02*
D03*
Y1663700D02*
D03*
X3529840Y2435100D02*
D03*
Y2409700D02*
D03*
Y2384300D02*
D03*
Y2358900D02*
D03*
Y2333500D02*
D03*
Y2308100D02*
D03*
Y2282700D02*
D03*
Y2257300D02*
D03*
Y2231900D02*
D03*
Y2206500D02*
D03*
Y2181100D02*
D03*
Y2155700D02*
D03*
Y2130300D02*
D03*
Y2104900D02*
D03*
Y2079500D02*
D03*
Y2024000D02*
D03*
X3529840Y1689100D02*
D03*
Y1714500D02*
D03*
X3529840Y1739900D02*
D03*
X3529840Y1765300D02*
D03*
Y1790700D02*
D03*
Y1816100D02*
D03*
Y1841500D02*
D03*
Y1866900D02*
D03*
Y1892300D02*
D03*
Y1917700D02*
D03*
Y1943100D02*
D03*
X3529840Y1968500D02*
D03*
X3529840Y1993900D02*
D03*
X3529840Y2054100D02*
D03*
Y2485900D02*
D03*
X3529840Y2447800D02*
D03*
Y2422400D02*
D03*
Y2397000D02*
D03*
Y2371600D02*
D03*
Y2346200D02*
D03*
Y2320800D02*
D03*
Y2295400D02*
D03*
Y2270000D02*
D03*
Y2244600D02*
D03*
Y2219200D02*
D03*
Y2193800D02*
D03*
Y2168400D02*
D03*
Y2143000D02*
D03*
Y2117600D02*
D03*
Y2092200D02*
D03*
Y2066800D02*
D03*
X3529840Y1981200D02*
D03*
X3529840Y1955800D02*
D03*
Y1930400D02*
D03*
X3529840Y1905000D02*
D03*
X3529840Y1879600D02*
D03*
X3529840Y1854200D02*
D03*
Y1828800D02*
D03*
Y1803400D02*
D03*
Y1778000D02*
D03*
X3529840Y1752600D02*
D03*
X3529840Y1727200D02*
D03*
Y1701800D02*
D03*
Y1676400D02*
D03*
X3529840Y1651000D02*
D03*
X3529840Y1625600D02*
D03*
Y1600200D02*
D03*
Y1574800D02*
D03*
X3529840Y2039050D02*
D03*
Y2008950D02*
D03*
X2550160Y2460500D02*
D03*
Y2473200D02*
D03*
X2550160Y1587500D02*
D03*
Y1562100D02*
D03*
Y1612900D02*
D03*
Y1638300D02*
D03*
Y1663700D02*
D03*
X2550160Y2435100D02*
D03*
Y2409700D02*
D03*
Y2384300D02*
D03*
Y2358900D02*
D03*
Y2333500D02*
D03*
Y2308100D02*
D03*
Y2231900D02*
D03*
Y2206500D02*
D03*
Y2181100D02*
D03*
Y2155700D02*
D03*
Y2130300D02*
D03*
Y2104900D02*
D03*
Y2079500D02*
D03*
Y2024000D02*
D03*
X2550160Y1689100D02*
D03*
Y1714500D02*
D03*
X2550160Y1739900D02*
D03*
X2550160Y1765300D02*
D03*
Y1790700D02*
D03*
Y1816100D02*
D03*
Y1841500D02*
D03*
Y1866900D02*
D03*
Y1892300D02*
D03*
Y1917700D02*
D03*
Y1943100D02*
D03*
X2550160Y1968500D02*
D03*
X2550160Y1993900D02*
D03*
X2550160Y2054100D02*
D03*
Y2485900D02*
D03*
X2550160Y2447800D02*
D03*
Y2422400D02*
D03*
Y2397000D02*
D03*
Y2371600D02*
D03*
Y2346200D02*
D03*
Y2320800D02*
D03*
Y2295400D02*
D03*
Y2244600D02*
D03*
Y2219200D02*
D03*
Y2193800D02*
D03*
Y2168400D02*
D03*
Y2143000D02*
D03*
Y2117600D02*
D03*
Y2092200D02*
D03*
Y2066800D02*
D03*
X2550160Y1981200D02*
D03*
X2550160Y1955800D02*
D03*
Y1930400D02*
D03*
X2550160Y1905000D02*
D03*
X2550160Y1879600D02*
D03*
X2550160Y1854200D02*
D03*
Y1828800D02*
D03*
Y1803400D02*
D03*
Y1778000D02*
D03*
X2550160Y1752600D02*
D03*
X2550160Y1727200D02*
D03*
Y1701800D02*
D03*
Y1676400D02*
D03*
X2550160Y1651000D02*
D03*
X2550160Y1625600D02*
D03*
Y1600200D02*
D03*
Y1574800D02*
D03*
X2550160Y2039050D02*
D03*
Y2008950D02*
D03*
X3055050Y2513840D02*
D03*
X3024950D02*
D03*
X3489200Y2513840D02*
D03*
X3463800D02*
D03*
X3438400D02*
D03*
X3413000D02*
D03*
X3387600D02*
D03*
X3362200D02*
D03*
X3336800D02*
D03*
X3311400D02*
D03*
X3286000D02*
D03*
X3260600D02*
D03*
X3235200D02*
D03*
X3209800D02*
D03*
X3184400D02*
D03*
X3159000D02*
D03*
X3133600D02*
D03*
X3108200D02*
D03*
X3082800D02*
D03*
X2997200Y2513840D02*
D03*
X2946400D02*
D03*
X2921000D02*
D03*
X2895600D02*
D03*
X2870200D02*
D03*
X2844800D02*
D03*
X2819400D02*
D03*
X2794000D02*
D03*
X2768600D02*
D03*
X2743200D02*
D03*
X2717800D02*
D03*
X2692400D02*
D03*
X2667000D02*
D03*
X2641600D02*
D03*
X2616200D02*
D03*
X2578100Y2513840D02*
D03*
X3009900D02*
D03*
X3070100Y2513840D02*
D03*
X3095500D02*
D03*
X3120900D02*
D03*
X3146300D02*
D03*
X3171700D02*
D03*
X3197100D02*
D03*
X3222500D02*
D03*
X3247900D02*
D03*
X3273300D02*
D03*
X3298700D02*
D03*
X3324100D02*
D03*
X3349500D02*
D03*
X3374900D02*
D03*
X3040000Y2513840D02*
D03*
X2959100D02*
D03*
X2933700D02*
D03*
X2908300D02*
D03*
X2882900D02*
D03*
X2857500D02*
D03*
X2832100D02*
D03*
X2806700D02*
D03*
X2781300D02*
D03*
X2755900D02*
D03*
X2730500D02*
D03*
X2705100D02*
D03*
X2679700D02*
D03*
X2654300D02*
D03*
X2628900D02*
D03*
X3400300Y2513840D02*
D03*
X3425700D02*
D03*
X3451100D02*
D03*
X3501900D02*
D03*
X3476500D02*
D03*
X2590800Y2513840D02*
D03*
X2603500D02*
D03*
D126*
X2566670Y2334260D02*
D03*
X2566670Y2359660D02*
D03*
D133*
X2879090Y2331720D02*
D03*
X2909570D02*
D03*
Y2362200D02*
D03*
X2879090D02*
D03*
X2909570Y2377440D02*
D03*
X2894330D02*
D03*
X2879090D02*
D03*
X2894330Y2362200D02*
D03*
Y2331720D02*
D03*
Y2346960D02*
D03*
X2909570D02*
D03*
X2879090D02*
D03*
D175*
X2903387Y2261616D02*
X2896616D01*
X2903387Y2268387D01*
Y2270080D01*
X2901694Y2271773D01*
X2898309D01*
X2896616Y2270080D01*
D176*
X3507740Y1901808D02*
D03*
X3451740D02*
D03*
X3507740Y1811808D02*
D03*
X3451740D02*
D03*
X3507740Y2038180D02*
D03*
X3451740D02*
D03*
X3507740Y1948180D02*
D03*
X3451740D02*
D03*
D177*
X3466740Y1880808D02*
D03*
Y1872808D02*
D03*
Y1864808D02*
D03*
Y1832808D02*
D03*
Y1840808D02*
D03*
Y1848808D02*
D03*
X3459740Y1860808D02*
D03*
Y1868808D02*
D03*
Y1887308D02*
D03*
Y1826308D02*
D03*
Y1844808D02*
D03*
Y1852808D02*
D03*
X3466740Y1894058D02*
D03*
Y1819558D02*
D03*
X3466740Y2017180D02*
D03*
Y2009180D02*
D03*
X3466740Y2001180D02*
D03*
X3466740Y1969180D02*
D03*
Y1977180D02*
D03*
Y1985180D02*
D03*
X3459740Y1997180D02*
D03*
Y2005180D02*
D03*
Y2023680D02*
D03*
Y1962680D02*
D03*
Y1981180D02*
D03*
Y1989180D02*
D03*
X3466740Y2030430D02*
D03*
X3466740Y1955930D02*
D03*
D178*
X3045260Y1561630D02*
D03*
X3172660D02*
D03*
X3240840D02*
D03*
X3368240D02*
D03*
D179*
X3434080Y2287270D02*
D03*
X3200400Y2395220D02*
D03*
D180*
X3434080Y2338070D02*
D03*
X3200400Y2446020D02*
D03*
D181*
X3351530Y2278380D02*
D03*
Y2239010D02*
D03*
X3144520Y1727200D02*
D03*
X3482340Y1925320D02*
D03*
X2566670Y2237740D02*
D03*
X3149600Y2348230D02*
D03*
Y2493010D02*
D03*
X2592070Y2302510D02*
D03*
Y2391410D02*
D03*
Y2359660D02*
D03*
D182*
X2692400Y2355088D02*
D03*
D183*
Y2321052D02*
D03*
X2791460D02*
D03*
X2791460Y2355088D02*
D03*
D184*
X2592070Y2334260D02*
D03*
D185*
X3473960Y2457960D02*
D03*
X3473960Y1590040D02*
D03*
X2606040Y2457960D02*
D03*
X2606040Y1590040D02*
D03*
D186*
X3362960Y2376170D02*
D03*
X3356610Y2409190D02*
D03*
X3346450Y2472055D02*
D03*
X3341370Y2409190D02*
D03*
X3324860Y2357120D02*
D03*
X3329940D02*
D03*
X3335020D02*
D03*
X3340100D02*
D03*
X3357245Y2444115D02*
D03*
D187*
X3196125Y1947478D02*
D03*
X3190468Y1953134D02*
D03*
X3184811Y1947478D02*
D03*
X3196125Y1936164D02*
D03*
X3190468Y1941821D02*
D03*
X3190468Y1930507D02*
D03*
Y1919193D02*
D03*
X3184811Y1936164D02*
D03*
X3184811Y1913537D02*
D03*
X3190468Y1907880D02*
D03*
X3162184Y1981419D02*
D03*
Y1970105D02*
D03*
Y1958791D02*
D03*
Y1947478D02*
D03*
X3156527Y1987076D02*
D03*
Y1975762D02*
D03*
Y1953134D02*
D03*
Y1941821D02*
D03*
X3156527Y1964448D02*
D03*
X3139556Y1970105D02*
D03*
Y1958791D02*
D03*
Y1947478D02*
D03*
Y1936164D02*
D03*
X3133900Y1964448D02*
D03*
X3139556Y1924850D02*
D03*
X3207438Y1902223D02*
D03*
Y1890909D02*
D03*
X3201782Y1885252D02*
D03*
X3162184Y1890909D02*
D03*
X3167841Y1873939D02*
D03*
X3179154Y1964448D02*
D03*
X3173497Y1970105D02*
D03*
Y1958791D02*
D03*
X3167841Y1964448D02*
D03*
Y1953134D02*
D03*
X3179154Y1930507D02*
D03*
X3179154Y1919193D02*
D03*
X3173497Y1936164D02*
D03*
X3167841Y1930507D02*
D03*
X3179154Y1941821D02*
D03*
X3167841Y1975762D02*
D03*
X3122586Y1987076D02*
D03*
Y1975762D02*
D03*
Y1953134D02*
D03*
Y1941821D02*
D03*
Y1930507D02*
D03*
Y1919193D02*
D03*
X3122586Y1964448D02*
D03*
Y1998389D02*
D03*
X3094301Y1823027D02*
D03*
X3116929Y1811713D02*
D03*
X3122586Y1839998D02*
D03*
X3133900Y1817370D02*
D03*
X3235723Y1907880D02*
D03*
X3235723Y1896566D02*
D03*
X3230066Y1902223D02*
D03*
Y1913537D02*
D03*
X3162184Y1823027D02*
D03*
X3156527Y1817370D02*
D03*
X3150870Y1823027D02*
D03*
X3145213Y1817370D02*
D03*
X3139556Y1823027D02*
D03*
X3111272Y1817370D02*
D03*
X3105615Y1823027D02*
D03*
X3105615Y1811713D02*
D03*
X3099958Y1817370D02*
D03*
X3179154Y1862625D02*
D03*
X3139556Y1811713D02*
D03*
X3128242Y1800399D02*
D03*
X3122586Y1806056D02*
D03*
X3139556Y1800399D02*
D03*
X3133900Y1806056D02*
D03*
X3128242Y1811713D02*
D03*
X3116929Y1879595D02*
D03*
Y1924850D02*
D03*
X3116929Y1868282D02*
D03*
Y1902223D02*
D03*
Y1856968D02*
D03*
Y1845654D02*
D03*
X3116929Y1823027D02*
D03*
X3122586Y1817370D02*
D03*
Y1828684D02*
D03*
X3116929Y1834341D02*
D03*
X3128242Y1924850D02*
D03*
X3088645Y1930507D02*
D03*
X3082988Y1936164D02*
D03*
X3077331Y1941821D02*
D03*
X3088645Y1907880D02*
D03*
Y1919193D02*
D03*
X3082988Y1924850D02*
D03*
X3082988Y1913537D02*
D03*
X3077331Y1919193D02*
D03*
Y1907880D02*
D03*
Y1930507D02*
D03*
X3071674Y1913537D02*
D03*
Y1902223D02*
D03*
X3082988Y1902223D02*
D03*
X3054703Y1941821D02*
D03*
X3049047Y1936164D02*
D03*
X3054703Y1907880D02*
D03*
X3054703Y1919193D02*
D03*
X3049047Y1924850D02*
D03*
Y1913537D02*
D03*
X3054703Y1930507D02*
D03*
Y1896566D02*
D03*
X3094301Y1924850D02*
D03*
Y1902223D02*
D03*
Y1913537D02*
D03*
Y1947478D02*
D03*
X3111272Y1907880D02*
D03*
Y1896566D02*
D03*
Y1941821D02*
D03*
X3105615Y1947478D02*
D03*
Y1936164D02*
D03*
X3099958Y1941821D02*
D03*
X3111272Y1930507D02*
D03*
X3105615Y1890909D02*
D03*
X3105615Y1913537D02*
D03*
X3099958Y1919193D02*
D03*
Y1907880D02*
D03*
X3105615Y1902223D02*
D03*
X3082988Y1879595D02*
D03*
X3077331Y1885252D02*
D03*
Y1873939D02*
D03*
X3082988Y1868282D02*
D03*
X3077331Y1862625D02*
D03*
X3071674Y1856968D02*
D03*
X3066017Y1873939D02*
D03*
X3066017Y1862625D02*
D03*
Y1885252D02*
D03*
Y1851311D02*
D03*
X3071674Y1947478D02*
D03*
X3071674Y1936164D02*
D03*
X3071674Y1890909D02*
D03*
X3071674Y1924850D02*
D03*
Y1879595D02*
D03*
Y1868282D02*
D03*
X3105615Y1845654D02*
D03*
X3105615Y1834341D02*
D03*
X3099958Y1851311D02*
D03*
Y1839997D02*
D03*
Y1828684D02*
D03*
X3094301Y1834341D02*
D03*
X3094301Y1845654D02*
D03*
X3088645Y1839997D02*
D03*
X3088645Y1851311D02*
D03*
X3082988Y1845654D02*
D03*
Y1834341D02*
D03*
X3077331Y1839997D02*
D03*
X3088645Y1828684D02*
D03*
X3111272Y1873939D02*
D03*
X3105615Y1868282D02*
D03*
X3111272Y1862625D02*
D03*
Y1839997D02*
D03*
X3111272Y1828684D02*
D03*
X3105615Y1856968D02*
D03*
X3094301D02*
D03*
X3099958Y1862625D02*
D03*
X3066017Y1941821D02*
D03*
X3060360Y1936164D02*
D03*
X3066017Y1930507D02*
D03*
Y1919193D02*
D03*
Y1907880D02*
D03*
Y1896566D02*
D03*
X3060360Y1902223D02*
D03*
X3060360Y1924850D02*
D03*
Y1913537D02*
D03*
Y1947478D02*
D03*
X3049047Y1902223D02*
D03*
X3043390Y1919193D02*
D03*
X3043390Y1907880D02*
D03*
Y1896566D02*
D03*
X3037733Y1924850D02*
D03*
Y1913537D02*
D03*
X3037733Y1902223D02*
D03*
X3032076Y1919193D02*
D03*
Y1907880D02*
D03*
Y1896566D02*
D03*
X3026419Y1902223D02*
D03*
X3026419Y1913537D02*
D03*
X3043390Y1930507D02*
D03*
X3099958Y1885252D02*
D03*
Y1896566D02*
D03*
X3094301Y1890909D02*
D03*
Y1879595D02*
D03*
X3088645Y1873939D02*
D03*
X3088645Y1885252D02*
D03*
X3082988Y1890909D02*
D03*
X3077331Y1896566D02*
D03*
X3088645Y1896566D02*
D03*
X3060360Y1879595D02*
D03*
Y1856968D02*
D03*
X3054703Y1873939D02*
D03*
X3060360Y1890909D02*
D03*
X3054703Y1885252D02*
D03*
Y1862625D02*
D03*
X3049047Y1879595D02*
D03*
Y1868282D02*
D03*
Y1890909D02*
D03*
X3037733Y1890909D02*
D03*
X3043390Y1885252D02*
D03*
X3037733Y1879595D02*
D03*
X3032076Y1885252D02*
D03*
X3026419Y1890909D02*
D03*
X3213095Y1873939D02*
D03*
X3196125Y1856968D02*
D03*
X3190468Y1851311D02*
D03*
X3190468Y1862625D02*
D03*
X3184811Y1856968D02*
D03*
X3173497Y1845654D02*
D03*
X3167841Y1839998D02*
D03*
X3162184Y1845654D02*
D03*
X3156527Y1851311D02*
D03*
X3162184Y1834341D02*
D03*
X3173497Y1913537D02*
D03*
X3167841Y1919193D02*
D03*
X3162184Y1924850D02*
D03*
Y1913537D02*
D03*
X3156527Y1919193D02*
D03*
X3150870Y1913537D02*
D03*
X3173497Y1924850D02*
D03*
X3179154Y1907880D02*
D03*
X3128242Y1981419D02*
D03*
Y1992733D02*
D03*
Y1970105D02*
D03*
Y1947478D02*
D03*
Y1936164D02*
D03*
X3128242Y1958791D02*
D03*
X3128242Y1913537D02*
D03*
X3145213Y1998389D02*
D03*
Y1987076D02*
D03*
X3139556Y1992733D02*
D03*
Y1981419D02*
D03*
X3133900Y1987076D02*
D03*
Y1975762D02*
D03*
Y1941821D02*
D03*
Y1930507D02*
D03*
Y1919193D02*
D03*
Y1953134D02*
D03*
Y1998389D02*
D03*
X3150870Y1981419D02*
D03*
Y1970105D02*
D03*
Y1958791D02*
D03*
Y1947478D02*
D03*
X3150870Y1936164D02*
D03*
X3145213Y1964448D02*
D03*
Y1941821D02*
D03*
Y1930507D02*
D03*
X3145213Y1953134D02*
D03*
Y1975762D02*
D03*
X3150870Y1992733D02*
D03*
X3201782Y1896566D02*
D03*
X3196125Y1902223D02*
D03*
Y1890909D02*
D03*
X3190468Y1885252D02*
D03*
Y1896566D02*
D03*
X3184811Y1868282D02*
D03*
X3184811Y1890909D02*
D03*
Y1879595D02*
D03*
X3179154Y1873939D02*
D03*
X3179154Y1885252D02*
D03*
X3173497Y1902223D02*
D03*
Y1868282D02*
D03*
Y1879595D02*
D03*
X3167841Y1907880D02*
D03*
X3167841Y1896566D02*
D03*
X3162184Y1902223D02*
D03*
X3156527Y1907880D02*
D03*
Y1896566D02*
D03*
X3156527Y1885252D02*
D03*
X3150870Y1902223D02*
D03*
X3150870Y1890909D02*
D03*
X3145213Y1896566D02*
D03*
Y1907880D02*
D03*
X3139556Y1902223D02*
D03*
Y1868282D02*
D03*
X3207438Y1879595D02*
D03*
X3201782Y1873939D02*
D03*
X3196125Y1879595D02*
D03*
X3190468Y1873939D02*
D03*
X3196125Y1868282D02*
D03*
X3207439Y1868282D02*
D03*
X3128242D02*
D03*
X3139556Y1879595D02*
D03*
X3133900Y1862625D02*
D03*
Y1873938D02*
D03*
Y1885252D02*
D03*
X3128242Y1890909D02*
D03*
X3145213Y1873939D02*
D03*
X3128242Y1879595D02*
D03*
Y1856968D02*
D03*
X3122586Y1862625D02*
D03*
X3122586Y1885252D02*
D03*
Y1873938D02*
D03*
Y1851311D02*
D03*
X3167841Y1828684D02*
D03*
X3156527Y1839997D02*
D03*
Y1828684D02*
D03*
X3150870Y1834341D02*
D03*
X3150870Y1845654D02*
D03*
X3145213Y1839997D02*
D03*
Y1851311D02*
D03*
X3139556Y1845654D02*
D03*
X3139556Y1834341D02*
D03*
X3133900Y1839998D02*
D03*
X3145213Y1828684D02*
D03*
X3128242Y1834341D02*
D03*
X3133900Y1828684D02*
D03*
X3128242Y1823027D02*
D03*
X3162184Y1856968D02*
D03*
X3156527Y1862625D02*
D03*
X3150870Y1856968D02*
D03*
X3167841Y1851311D02*
D03*
X3224409Y1896566D02*
D03*
Y1919193D02*
D03*
Y1907880D02*
D03*
X3218752Y1879595D02*
D03*
X3218752Y1890909D02*
D03*
X3224409Y1885252D02*
D03*
X3207438Y1936164D02*
D03*
X3207438Y1913537D02*
D03*
X3201782Y1941821D02*
D03*
Y1919193D02*
D03*
X3201782Y1907880D02*
D03*
Y1930507D02*
D03*
X3196125Y1913537D02*
D03*
X3196125Y1924850D02*
D03*
X3184811D02*
D03*
X3213095Y1885252D02*
D03*
X3213095Y1896566D02*
D03*
X3207439Y1924850D02*
D03*
X3213095Y1919193D02*
D03*
X3213095Y1907880D02*
D03*
X3218752Y1902223D02*
D03*
X3218752Y1913537D02*
D03*
X3213095Y1930507D02*
D03*
X3218752Y1924850D02*
D03*
X3150870Y1811713D02*
D03*
X3133900Y1794743D02*
D03*
X3122586D02*
D03*
X3111272Y1998389D02*
D03*
X3116929Y1992733D02*
D03*
X3116929Y1981419D02*
D03*
X3111272Y1987076D02*
D03*
Y1975762D02*
D03*
X3116929Y1970105D02*
D03*
Y1958791D02*
D03*
Y1936164D02*
D03*
X3116929Y1947478D02*
D03*
X3111272Y1964448D02*
D03*
X3111272Y1851311D02*
D03*
X3116929Y1800399D02*
D03*
X3111272Y1806056D02*
D03*
Y1953134D02*
D03*
X3105615Y1992733D02*
D03*
Y1981419D02*
D03*
Y1970105D02*
D03*
Y1958791D02*
D03*
X3099958Y1987076D02*
D03*
Y1975762D02*
D03*
Y1964448D02*
D03*
Y1953134D02*
D03*
X3094301Y1981419D02*
D03*
Y1970105D02*
D03*
Y1958791D02*
D03*
X3088645Y1964448D02*
D03*
X3088645Y1953134D02*
D03*
Y1975762D02*
D03*
X3082988Y1958791D02*
D03*
X3077331Y1964448D02*
D03*
X3066017Y1953134D02*
D03*
X3082988Y1970105D02*
D03*
X3139556Y2004046D02*
D03*
X3133900Y2009703D02*
D03*
X3128242Y2004046D02*
D03*
X3116929D02*
D03*
X3122586Y2009703D02*
D03*
M02*
