G04*
G04 #@! TF.GenerationSoftware,Altium Limited,Altium Designer,24.10.1 (45)*
G04*
G04 Layer_Physical_Order=6*
G04 Layer_Color=16737945*
%FSLAX44Y44*%
%MOMM*%
G71*
G04*
G04 #@! TF.SameCoordinates,24BC4850-7E81-497A-B660-34607D59122C*
G04*
G04*
G04 #@! TF.FilePolarity,Positive*
G04*
G01*
G75*
%ADD11C,0.5080*%
%ADD101C,0.7112*%
%ADD126C,1.2192*%
%ADD133C,1.0160*%
%ADD170C,0.6350*%
%ADD173C,0.5080*%
%ADD175C,0.2032*%
%ADD176O,2.0320X1.0160*%
%ADD177C,0.6604*%
%ADD178C,2.2860*%
G04:AMPARAMS|DCode=179|XSize=1.3716mm|YSize=1.3716mm|CornerRadius=0.1715mm|HoleSize=0mm|Usage=FLASHONLY|Rotation=90.000|XOffset=0mm|YOffset=0mm|HoleType=Round|Shape=RoundedRectangle|*
%AMROUNDEDRECTD179*
21,1,1.3716,1.0287,0,0,90.0*
21,1,1.0287,1.3716,0,0,90.0*
1,1,0.3429,0.5143,0.5143*
1,1,0.3429,0.5143,-0.5143*
1,1,0.3429,-0.5143,-0.5143*
1,1,0.3429,-0.5143,0.5143*
%
%ADD179ROUNDEDRECTD179*%
%ADD180C,1.3716*%
%ADD181C,1.9050*%
G04:AMPARAMS|DCode=182|XSize=2.667mm|YSize=2.667mm|CornerRadius=0.1333mm|HoleSize=0mm|Usage=FLASHONLY|Rotation=0.000|XOffset=0mm|YOffset=0mm|HoleType=Round|Shape=RoundedRectangle|*
%AMROUNDEDRECTD182*
21,1,2.6670,2.4003,0,0,0.0*
21,1,2.4003,2.6670,0,0,0.0*
1,1,0.2667,1.2002,-1.2002*
1,1,0.2667,-1.2002,-1.2002*
1,1,0.2667,-1.2002,1.2002*
1,1,0.2667,1.2002,1.2002*
%
%ADD182ROUNDEDRECTD182*%
%ADD183C,2.6670*%
G04:AMPARAMS|DCode=184|XSize=1.905mm|YSize=1.905mm|CornerRadius=0.0953mm|HoleSize=0mm|Usage=FLASHONLY|Rotation=90.000|XOffset=0mm|YOffset=0mm|HoleType=Round|Shape=RoundedRectangle|*
%AMROUNDEDRECTD184*
21,1,1.9050,1.7145,0,0,90.0*
21,1,1.7145,1.9050,0,0,90.0*
1,1,0.1905,0.8573,0.8573*
1,1,0.1905,0.8573,-0.8573*
1,1,0.1905,-0.8573,-0.8573*
1,1,0.1905,-0.8573,0.8573*
%
%ADD184ROUNDEDRECTD184*%
%ADD185C,5.0800*%
%ADD186C,0.6096*%
%ADD187C,0.3500*%
G36*
X3507859Y2515859D02*
X3511718Y2514825D01*
X3515410Y2513295D01*
X3518870Y2511298D01*
X3522040Y2508865D01*
X3524865Y2506040D01*
X3527297Y2502870D01*
X3529295Y2499410D01*
X3530824Y2495719D01*
X3531859Y2491859D01*
X3532380Y2487898D01*
Y2485900D01*
X3527300D01*
X3527178Y2488390D01*
X3526206Y2493273D01*
X3524301Y2497874D01*
X3521534Y2502014D01*
X3518014Y2505535D01*
X3513873Y2508301D01*
X3509273Y2510206D01*
X3504390Y2511178D01*
X3501900Y2511300D01*
Y2511300D01*
X2997200Y2511300D01*
X2997200Y2516380D01*
X3501900Y2516380D01*
X3503898D01*
X3507859Y2515859D01*
D02*
G37*
G36*
X2971800Y2511300D02*
X2578100Y2511300D01*
Y2511300D01*
X2575610Y2511178D01*
X2570727Y2510206D01*
X2566126Y2508301D01*
X2561986Y2505535D01*
X2558466Y2502014D01*
X2555699Y2497874D01*
X2553794Y2493273D01*
X2552822Y2488390D01*
X2552700Y2485900D01*
X2547620D01*
Y2487898D01*
X2548141Y2491859D01*
X2549176Y2495719D01*
X2550705Y2499410D01*
X2552702Y2502870D01*
X2555135Y2506040D01*
X2557960Y2508865D01*
X2561130Y2511298D01*
X2564590Y2513295D01*
X2568282Y2514824D01*
X2572141Y2515858D01*
X2576102Y2516380D01*
X2578100D01*
X2971800Y2516380D01*
X2971800Y2511300D01*
D02*
G37*
G36*
X3335020Y2430780D02*
Y2411730D01*
X3329940Y2406650D01*
X3327400D01*
Y2397760D01*
X3328070Y2397090D01*
X3348860D01*
X3351360Y2394590D01*
Y2385040D01*
X3313450D01*
X3312160Y2386330D01*
X3285490D01*
X3280410Y2381250D01*
X3169920D01*
X3167380Y2378710D01*
Y2340610D01*
X3159760Y2332990D01*
X3136900D01*
X3129280Y2340610D01*
Y2378710D01*
X3125470Y2382520D01*
X3103880D01*
X3092450Y2393950D01*
Y2402840D01*
X3096260Y2406650D01*
X3194050D01*
X3201670Y2414270D01*
X3313430Y2414270D01*
X3315970Y2416810D01*
Y2429510D01*
X3319780Y2433320D01*
X3332480D01*
X3335020Y2430780D01*
D02*
G37*
G36*
X3351530Y2374900D02*
X3352800Y2373630D01*
X3357880D01*
X3362452Y2369058D01*
X3371423D01*
X3374390Y2366091D01*
Y2345690D01*
X3360420Y2331720D01*
X3303270D01*
X3293110Y2341880D01*
Y2362200D01*
X3298100Y2367190D01*
X3298176Y2367266D01*
X3298359Y2367190D01*
X3300380D01*
X3302247Y2367963D01*
X3303676Y2369392D01*
X3304450Y2371259D01*
Y2373280D01*
X3304374Y2373464D01*
X3310890Y2379980D01*
X3351530D01*
Y2374900D01*
D02*
G37*
G36*
X2711450D02*
Y2298700D01*
X2705100Y2292350D01*
X2600030Y2292350D01*
X2599524Y2293620D01*
X2601318Y2295414D01*
X2602839Y2298049D01*
X2603354Y2299970D01*
X2580786D01*
X2581301Y2298049D01*
X2582822Y2295414D01*
X2584616Y2293620D01*
X2584110Y2292350D01*
X2570480D01*
X2565400Y2297430D01*
Y2328126D01*
X2565457Y2328164D01*
X2567882D01*
X2570123Y2329092D01*
X2571838Y2330807D01*
X2572766Y2333047D01*
Y2335473D01*
X2571838Y2337713D01*
X2570123Y2339428D01*
X2569986Y2340116D01*
X2573020Y2343150D01*
X2580194D01*
X2580454Y2342832D01*
Y2336800D01*
X2592070D01*
X2603686D01*
Y2342832D01*
X2603946Y2343150D01*
X2660650D01*
X2667000Y2349500D01*
Y2368550D01*
X2679700Y2381250D01*
X2705100D01*
X2711450Y2374900D01*
D02*
G37*
G36*
X3087370Y2386330D02*
Y2367280D01*
X3082290Y2362200D01*
X3027680D01*
X3022600Y2357120D01*
Y2336800D01*
X3020060Y2334260D01*
X2994660Y2334260D01*
X2989580Y2339340D01*
Y2386330D01*
X2999740Y2396490D01*
X3077210D01*
X3087370Y2386330D01*
D02*
G37*
G36*
X2931160Y2443480D02*
Y2428240D01*
X2935605Y2424430D01*
X2965450D01*
X2978150Y2411730D01*
Y2397760D01*
Y2339340D01*
X2973070Y2334260D01*
X2948940Y2334260D01*
X2945130Y2338070D01*
Y2399030D01*
X2943860Y2400300D01*
X2914650D01*
X2900680Y2414270D01*
Y2442210D01*
X2908300Y2449830D01*
X2924810D01*
X2931160Y2443480D01*
D02*
G37*
G36*
X2755900Y2448560D02*
Y2419350D01*
X2760980Y2414270D01*
X2805430D01*
X2825750Y2393950D01*
X2914650D01*
X2926080Y2382520D01*
Y2322830D01*
X2921000Y2317750D01*
X2816860Y2317750D01*
X2813050Y2313940D01*
Y2298700D01*
X2806700Y2292350D01*
X2774950D01*
X2768600Y2298700D01*
X2768600Y2382520D01*
X2757170Y2393950D01*
X2715260Y2393950D01*
X2708910Y2400300D01*
Y2407920D01*
X2715260Y2414270D01*
X2738120D01*
X2743200Y2419350D01*
Y2448560D01*
X2745740Y2451100D01*
X2753360D01*
X2755900Y2448560D01*
D02*
G37*
G36*
X2552700Y2485900D02*
Y2279650D01*
X2547620D01*
Y2485900D01*
X2552700Y2485900D01*
D02*
G37*
G36*
X2997201Y2256786D02*
X2994660Y2256786D01*
X2994660Y2251710D01*
X2552700Y2251710D01*
Y2256790D01*
X2992121Y2256790D01*
Y2317746D01*
X2997201D01*
Y2256786D01*
D02*
G37*
G36*
X3167841Y1902223D02*
X3170223D01*
Y1901572D01*
X3170722Y1900368D01*
X3171643Y1899447D01*
X3172846Y1898949D01*
X3174149D01*
X3175352Y1899447D01*
X3176273Y1900368D01*
X3176772Y1901572D01*
Y1902223D01*
X3190468D01*
X3195490Y1897201D01*
X3195490Y1895931D01*
X3183550Y1883992D01*
X3182607Y1884504D01*
X3182428Y1884665D01*
Y1885903D01*
X3181930Y1887107D01*
X3181009Y1888028D01*
X3179806Y1888526D01*
X3178503D01*
X3177300Y1888028D01*
X3176379Y1887107D01*
X3175880Y1885903D01*
Y1884601D01*
X3176379Y1883398D01*
X3177300Y1882477D01*
X3178503Y1881978D01*
X3179741D01*
X3179903Y1881800D01*
X3180415Y1880856D01*
X3177894Y1878335D01*
X3176950Y1878847D01*
X3176772Y1879009D01*
Y1880247D01*
X3176273Y1881450D01*
X3175352Y1882371D01*
X3174149Y1882869D01*
X3172846D01*
X3171643Y1882371D01*
X3170722Y1881450D01*
X3170223Y1880247D01*
Y1878944D01*
X3170722Y1877741D01*
X3171643Y1876820D01*
X3172846Y1876321D01*
X3174084D01*
X3174246Y1876143D01*
X3174758Y1875199D01*
X3155266Y1855707D01*
X3154323Y1856220D01*
X3154144Y1856381D01*
Y1857619D01*
X3153646Y1858822D01*
X3152725Y1859743D01*
X3151521Y1860242D01*
X3150219D01*
X3149016Y1859743D01*
X3148094Y1858822D01*
X3147596Y1857619D01*
Y1856317D01*
X3148094Y1855113D01*
X3149016Y1854193D01*
X3150219Y1853694D01*
X3151457D01*
X3151618Y1853515D01*
X3152131Y1852572D01*
X3149609Y1850051D01*
X3148666Y1850563D01*
X3148487Y1850724D01*
Y1851962D01*
X3147989Y1853166D01*
X3147068Y1854087D01*
X3145864Y1854585D01*
X3144562D01*
X3143358Y1854087D01*
X3142438Y1853166D01*
X3141939Y1851962D01*
Y1850660D01*
X3142438Y1849457D01*
X3143358Y1848536D01*
X3144562Y1848037D01*
X3145800D01*
X3145961Y1847858D01*
X3146474Y1846915D01*
X3133900Y1834341D01*
X3128242Y1839997D01*
Y1853694D01*
X3128894D01*
X3130097Y1854193D01*
X3131018Y1855113D01*
X3131517Y1856317D01*
Y1857619D01*
X3131018Y1858822D01*
X3130097Y1859743D01*
X3128894Y1860242D01*
X3128242D01*
Y1862625D01*
X3088645Y1902223D01*
X3128242Y1941821D01*
X3167841Y1902223D01*
D02*
G37*
G36*
X3532380Y2485900D02*
Y1562100D01*
Y1560102D01*
X3531859Y1556141D01*
X3530824Y1552281D01*
X3529295Y1548590D01*
X3527298Y1545130D01*
X3524865Y1541960D01*
X3522040Y1539135D01*
X3518870Y1536702D01*
X3515410Y1534705D01*
X3511718Y1533176D01*
X3507859Y1532142D01*
X3503898Y1531620D01*
X2576102D01*
X2572141Y1532142D01*
X2568282Y1533176D01*
X2564590Y1534705D01*
X2561130Y1536702D01*
X2557960Y1539135D01*
X2555135Y1541960D01*
X2552702Y1545130D01*
X2550705Y1548590D01*
X2549176Y1552281D01*
X2548141Y1556141D01*
X2547620Y1560102D01*
Y1562100D01*
X2547620Y2254250D01*
X2552700Y2254250D01*
X2552700Y1562100D01*
X2552822Y1559610D01*
X2553794Y1554727D01*
X2555699Y1550126D01*
X2558466Y1545986D01*
X2561986Y1542466D01*
X2566126Y1539699D01*
X2570727Y1537794D01*
X2575610Y1536822D01*
X2578100Y1536700D01*
X3501900D01*
X3504390Y1536822D01*
X3509273Y1537794D01*
X3513874Y1539699D01*
X3518014Y1542466D01*
X3521534Y1545986D01*
X3524301Y1550126D01*
X3526206Y1554727D01*
X3527178Y1559610D01*
X3527300Y1562100D01*
X3527300D01*
X3527300Y2485900D01*
X3532380Y2485900D01*
D02*
G37*
%LPC*%
G36*
X3205544Y2404183D02*
X3202940D01*
Y2397760D01*
X3209363D01*
Y2400363D01*
X3209073Y2401825D01*
X3208245Y2403065D01*
X3207005Y2403893D01*
X3205544Y2404183D01*
D02*
G37*
G36*
X3197860D02*
X3195256D01*
X3195032Y2404139D01*
X3193795Y2403893D01*
X3192556Y2403065D01*
X3191727Y2401825D01*
X3191436Y2400363D01*
Y2397760D01*
X3197860D01*
Y2404183D01*
D02*
G37*
G36*
X3209363Y2392680D02*
X3202940D01*
Y2386257D01*
X3205544D01*
X3207005Y2386547D01*
X3208245Y2387375D01*
X3209073Y2388615D01*
X3209363Y2390076D01*
Y2392680D01*
D02*
G37*
G36*
X3197860D02*
X3191436D01*
Y2390076D01*
X3191727Y2388615D01*
X3192556Y2387375D01*
X3193795Y2386547D01*
X3195256Y2386257D01*
X3197860D01*
Y2392680D01*
D02*
G37*
G36*
X3152140Y2359514D02*
Y2350770D01*
X3160884D01*
X3160369Y2352691D01*
X3158848Y2355326D01*
X3156696Y2357478D01*
X3154061Y2358999D01*
X3152140Y2359514D01*
D02*
G37*
G36*
X3147060D02*
X3145139Y2358999D01*
X3142504Y2357478D01*
X3140352Y2355326D01*
X3138831Y2352691D01*
X3138316Y2350770D01*
X3147060D01*
Y2359514D01*
D02*
G37*
G36*
X3160884Y2345690D02*
X3152140D01*
Y2336946D01*
X3154061Y2337461D01*
X3156696Y2338982D01*
X3158848Y2341134D01*
X3160369Y2343769D01*
X3160884Y2345690D01*
D02*
G37*
G36*
X3147060D02*
X3138316D01*
X3138831Y2343769D01*
X3140352Y2341134D01*
X3142504Y2338982D01*
X3145139Y2337461D01*
X3147060Y2336946D01*
Y2345690D01*
D02*
G37*
G36*
X3341010Y2361692D02*
X3339191D01*
X3337560Y2361017D01*
X3335929Y2361692D01*
X3334111D01*
X3332480Y2361017D01*
X3330849Y2361692D01*
X3329030D01*
X3327400Y2361017D01*
X3325769Y2361692D01*
X3323951D01*
X3322270Y2360996D01*
X3320984Y2359710D01*
X3320288Y2358029D01*
Y2356211D01*
X3320984Y2354530D01*
X3322270Y2353244D01*
X3323951Y2352548D01*
X3325769D01*
X3327400Y2353223D01*
X3329030Y2352548D01*
X3330849D01*
X3332480Y2353223D01*
X3334111Y2352548D01*
X3335929D01*
X3337560Y2353223D01*
X3339191Y2352548D01*
X3341010D01*
X3342690Y2353244D01*
X3343976Y2354530D01*
X3344672Y2356211D01*
Y2358029D01*
X3343976Y2359710D01*
X3342690Y2360996D01*
X3341010Y2361692D01*
D02*
G37*
G36*
X2704402Y2370521D02*
X2694940D01*
Y2357628D01*
X2707833D01*
Y2367090D01*
X2707572Y2368403D01*
X2706828Y2369516D01*
X2705715Y2370260D01*
X2704402Y2370521D01*
D02*
G37*
G36*
X2689860D02*
X2680399D01*
X2679085Y2370260D01*
X2677972Y2369516D01*
X2677228Y2368403D01*
X2676967Y2367090D01*
Y2357628D01*
X2689860D01*
Y2370521D01*
D02*
G37*
G36*
X2707833Y2352548D02*
X2694940D01*
Y2339655D01*
X2704402D01*
X2705715Y2339916D01*
X2706828Y2340660D01*
X2707572Y2341773D01*
X2707833Y2343087D01*
Y2352548D01*
D02*
G37*
G36*
X2689860D02*
X2676967D01*
Y2343087D01*
X2677228Y2341773D01*
X2677972Y2340660D01*
X2679085Y2339916D01*
X2680399Y2339655D01*
X2689860D01*
Y2352548D01*
D02*
G37*
G36*
X2694940Y2336215D02*
Y2323592D01*
X2707563D01*
X2707177Y2325534D01*
X2706018Y2328331D01*
X2704336Y2330848D01*
X2702196Y2332988D01*
X2699679Y2334670D01*
X2696882Y2335828D01*
X2694940Y2336215D01*
D02*
G37*
G36*
X2689860D02*
X2687917Y2335828D01*
X2685121Y2334670D01*
X2682604Y2332988D01*
X2680464Y2330848D01*
X2678782Y2328331D01*
X2677624Y2325534D01*
X2677237Y2323592D01*
X2689860D01*
Y2336215D01*
D02*
G37*
G36*
X2603686Y2331720D02*
X2594610D01*
Y2322645D01*
X2600642D01*
X2601807Y2322876D01*
X2602794Y2323536D01*
X2603454Y2324523D01*
X2603686Y2325688D01*
Y2331720D01*
D02*
G37*
G36*
X2589530D02*
X2580454D01*
Y2325688D01*
X2580686Y2324523D01*
X2581346Y2323536D01*
X2582333Y2322876D01*
X2583498Y2322645D01*
X2589530D01*
Y2331720D01*
D02*
G37*
G36*
X2707563Y2318512D02*
X2694940D01*
Y2305889D01*
X2696882Y2306275D01*
X2699679Y2307434D01*
X2702196Y2309116D01*
X2704336Y2311256D01*
X2706018Y2313773D01*
X2707177Y2316570D01*
X2707563Y2318512D01*
D02*
G37*
G36*
X2689860D02*
X2677237D01*
X2677624Y2316570D01*
X2678782Y2313773D01*
X2680464Y2311256D01*
X2682604Y2309116D01*
X2685121Y2307434D01*
X2687917Y2306275D01*
X2689860Y2305889D01*
Y2318512D01*
D02*
G37*
G36*
X2594610Y2313794D02*
Y2305050D01*
X2603354D01*
X2602839Y2306971D01*
X2601318Y2309606D01*
X2599166Y2311758D01*
X2596531Y2313279D01*
X2594610Y2313794D01*
D02*
G37*
G36*
X2589530D02*
X2587609Y2313279D01*
X2584974Y2311758D01*
X2582822Y2309606D01*
X2581301Y2306971D01*
X2580786Y2305050D01*
X2589530D01*
Y2313794D01*
D02*
G37*
G36*
X2794000Y2370251D02*
Y2357628D01*
X2806623D01*
X2806236Y2359570D01*
X2805078Y2362367D01*
X2803396Y2364884D01*
X2801256Y2367024D01*
X2798739Y2368706D01*
X2795942Y2369865D01*
X2794000Y2370251D01*
D02*
G37*
G36*
X2788920D02*
X2786978Y2369865D01*
X2784181Y2368706D01*
X2781664Y2367024D01*
X2779524Y2364884D01*
X2777842Y2362367D01*
X2776683Y2359570D01*
X2776297Y2357628D01*
X2788920D01*
Y2370251D01*
D02*
G37*
G36*
X2806623Y2352548D02*
X2794000D01*
Y2339925D01*
X2795942Y2340312D01*
X2798739Y2341470D01*
X2801256Y2343152D01*
X2803396Y2345292D01*
X2805078Y2347809D01*
X2806236Y2350606D01*
X2806623Y2352548D01*
D02*
G37*
G36*
X2788920D02*
X2776297D01*
X2776683Y2350606D01*
X2777842Y2347809D01*
X2779524Y2345292D01*
X2781664Y2343152D01*
X2784181Y2341470D01*
X2786978Y2340312D01*
X2788920Y2339925D01*
Y2352548D01*
D02*
G37*
G36*
X2794000Y2336215D02*
Y2323592D01*
X2806623D01*
X2806236Y2325534D01*
X2805078Y2328331D01*
X2803396Y2330848D01*
X2801256Y2332988D01*
X2798739Y2334670D01*
X2795942Y2335828D01*
X2794000Y2336215D01*
D02*
G37*
G36*
X2788920D02*
X2786978Y2335828D01*
X2784181Y2334670D01*
X2781664Y2332988D01*
X2779524Y2330848D01*
X2777842Y2328331D01*
X2776683Y2325534D01*
X2776297Y2323592D01*
X2788920D01*
Y2336215D01*
D02*
G37*
G36*
X2806623Y2318512D02*
X2794000D01*
Y2305889D01*
X2795942Y2306275D01*
X2798739Y2307434D01*
X2801256Y2309116D01*
X2803396Y2311256D01*
X2805078Y2313773D01*
X2806236Y2316570D01*
X2806623Y2318512D01*
D02*
G37*
G36*
X2788920D02*
X2776297D01*
X2776683Y2316570D01*
X2777842Y2313773D01*
X2779524Y2311256D01*
X2781664Y2309116D01*
X2784181Y2307434D01*
X2786978Y2306275D01*
X2788920Y2305889D01*
Y2318512D01*
D02*
G37*
G36*
X3128894Y1928124D02*
X3127591D01*
X3126388Y1927626D01*
X3125467Y1926705D01*
X3124969Y1925502D01*
Y1924199D01*
X3125467Y1922996D01*
X3126388Y1922075D01*
X3127591Y1921576D01*
X3128894D01*
X3130097Y1922075D01*
X3131018Y1922996D01*
X3131517Y1924199D01*
Y1925502D01*
X3131018Y1926705D01*
X3130097Y1927626D01*
X3128894Y1928124D01*
D02*
G37*
G36*
X3134551Y1922467D02*
X3133248D01*
X3132045Y1921969D01*
X3131124Y1921048D01*
X3130626Y1919845D01*
Y1918542D01*
X3131124Y1917339D01*
X3132045Y1916418D01*
X3133248Y1915919D01*
X3134551D01*
X3135754Y1916418D01*
X3136675Y1917339D01*
X3137173Y1918542D01*
Y1919845D01*
X3136675Y1921048D01*
X3135754Y1921969D01*
X3134551Y1922467D01*
D02*
G37*
G36*
X3123237D02*
X3121935D01*
X3120731Y1921969D01*
X3119810Y1921048D01*
X3119312Y1919845D01*
Y1918542D01*
X3119810Y1917339D01*
X3120731Y1916418D01*
X3121935Y1915919D01*
X3123237D01*
X3124440Y1916418D01*
X3125361Y1917339D01*
X3125860Y1918542D01*
Y1919845D01*
X3125361Y1921048D01*
X3124440Y1921969D01*
X3123237Y1922467D01*
D02*
G37*
G36*
X3128894Y1916810D02*
X3127591D01*
X3126388Y1916312D01*
X3125467Y1915391D01*
X3124969Y1914188D01*
Y1912885D01*
X3125467Y1911682D01*
X3126388Y1910761D01*
X3127591Y1910262D01*
X3128894D01*
X3130097Y1910761D01*
X3131018Y1911682D01*
X3131517Y1912885D01*
Y1914188D01*
X3131018Y1915391D01*
X3130097Y1916312D01*
X3128894Y1916810D01*
D02*
G37*
G36*
X3145864Y1911154D02*
X3144562D01*
X3143358Y1910655D01*
X3142438Y1909734D01*
X3141939Y1908531D01*
Y1907228D01*
X3142438Y1906025D01*
X3143358Y1905104D01*
X3144562Y1904606D01*
X3145864D01*
X3147068Y1905104D01*
X3147989Y1906025D01*
X3148487Y1907228D01*
Y1908531D01*
X3147989Y1909734D01*
X3147068Y1910655D01*
X3145864Y1911154D01*
D02*
G37*
G36*
X3111923D02*
X3110621D01*
X3109417Y1910655D01*
X3108496Y1909734D01*
X3107998Y1908531D01*
Y1907228D01*
X3108496Y1906025D01*
X3109417Y1905104D01*
X3110621Y1904606D01*
X3111923D01*
X3113127Y1905104D01*
X3114048Y1906025D01*
X3114546Y1907228D01*
Y1908531D01*
X3114048Y1909734D01*
X3113127Y1910655D01*
X3111923Y1911154D01*
D02*
G37*
G36*
X3151521Y1905497D02*
X3150219D01*
X3149016Y1904998D01*
X3148094Y1904077D01*
X3147596Y1902874D01*
Y1901572D01*
X3148094Y1900368D01*
X3149016Y1899447D01*
X3150219Y1898949D01*
X3151521D01*
X3152725Y1899447D01*
X3153646Y1900368D01*
X3154144Y1901572D01*
Y1902874D01*
X3153646Y1904077D01*
X3152725Y1904998D01*
X3151521Y1905497D01*
D02*
G37*
G36*
X3140208D02*
X3138905D01*
X3137702Y1904998D01*
X3136781Y1904077D01*
X3136282Y1902874D01*
Y1901572D01*
X3136781Y1900368D01*
X3137702Y1899447D01*
X3138905Y1898949D01*
X3140208D01*
X3141411Y1899447D01*
X3142332Y1900368D01*
X3142830Y1901572D01*
Y1902874D01*
X3142332Y1904077D01*
X3141411Y1904998D01*
X3140208Y1905497D01*
D02*
G37*
G36*
X3117580D02*
X3116278D01*
X3115074Y1904998D01*
X3114153Y1904077D01*
X3113655Y1902874D01*
Y1901572D01*
X3114153Y1900368D01*
X3115074Y1899447D01*
X3116278Y1898949D01*
X3117580D01*
X3118783Y1899447D01*
X3119704Y1900368D01*
X3120203Y1901572D01*
Y1902874D01*
X3119704Y1904077D01*
X3118783Y1904998D01*
X3117580Y1905497D01*
D02*
G37*
G36*
X3106266D02*
X3104964D01*
X3103761Y1904998D01*
X3102840Y1904077D01*
X3102341Y1902874D01*
Y1901572D01*
X3102840Y1900368D01*
X3103761Y1899447D01*
X3104964Y1898949D01*
X3106266D01*
X3107470Y1899447D01*
X3108391Y1900368D01*
X3108889Y1901572D01*
Y1902874D01*
X3108391Y1904077D01*
X3107470Y1904998D01*
X3106266Y1905497D01*
D02*
G37*
G36*
X3168492Y1899840D02*
X3167189D01*
X3165986Y1899341D01*
X3165065Y1898421D01*
X3164567Y1897217D01*
Y1895915D01*
X3165065Y1894711D01*
X3165986Y1893790D01*
X3167189Y1893292D01*
X3168492D01*
X3169695Y1893790D01*
X3170616Y1894711D01*
X3171115Y1895915D01*
Y1897217D01*
X3170616Y1898421D01*
X3169695Y1899341D01*
X3168492Y1899840D01*
D02*
G37*
G36*
X3145864Y1899840D02*
X3144562D01*
X3143358Y1899341D01*
X3142438Y1898421D01*
X3141939Y1897217D01*
Y1895915D01*
X3142438Y1894711D01*
X3143358Y1893790D01*
X3144562Y1893292D01*
X3145864D01*
X3147068Y1893790D01*
X3147989Y1894711D01*
X3148487Y1895915D01*
Y1897217D01*
X3147989Y1898421D01*
X3147068Y1899341D01*
X3145864Y1899840D01*
D02*
G37*
G36*
X3111923D02*
X3110621D01*
X3109417Y1899341D01*
X3108496Y1898421D01*
X3107998Y1897217D01*
Y1895915D01*
X3108496Y1894711D01*
X3109417Y1893790D01*
X3110621Y1893292D01*
X3111923D01*
X3113127Y1893790D01*
X3114048Y1894711D01*
X3114546Y1895915D01*
Y1897217D01*
X3114048Y1898421D01*
X3113127Y1899341D01*
X3111923Y1899840D01*
D02*
G37*
G36*
X3162835Y1894183D02*
X3161533D01*
X3160329Y1893685D01*
X3159408Y1892764D01*
X3158910Y1891560D01*
Y1890258D01*
X3159408Y1889055D01*
X3160329Y1888134D01*
X3161533Y1887635D01*
X3162835D01*
X3164038Y1888134D01*
X3164959Y1889055D01*
X3165458Y1890258D01*
Y1891560D01*
X3164959Y1892764D01*
X3164038Y1893685D01*
X3162835Y1894183D01*
D02*
G37*
G36*
X3128894Y1894183D02*
X3127591D01*
X3126388Y1893685D01*
X3125467Y1892764D01*
X3124969Y1891560D01*
Y1890258D01*
X3125467Y1889055D01*
X3126388Y1888134D01*
X3127591Y1887635D01*
X3128894D01*
X3130097Y1888134D01*
X3131018Y1889055D01*
X3131517Y1890258D01*
Y1891560D01*
X3131018Y1892764D01*
X3130097Y1893685D01*
X3128894Y1894183D01*
D02*
G37*
G36*
X3157178Y1888526D02*
X3155876D01*
X3154672Y1888028D01*
X3153751Y1887107D01*
X3153253Y1885903D01*
Y1884601D01*
X3153751Y1883398D01*
X3154672Y1882477D01*
X3155876Y1881978D01*
X3157178D01*
X3158381Y1882477D01*
X3159302Y1883398D01*
X3159801Y1884601D01*
Y1885903D01*
X3159302Y1887107D01*
X3158381Y1888028D01*
X3157178Y1888526D01*
D02*
G37*
G36*
X3134551Y1888526D02*
X3133248D01*
X3132045Y1888028D01*
X3131124Y1887107D01*
X3130626Y1885903D01*
Y1884601D01*
X3131124Y1883398D01*
X3132045Y1882477D01*
X3133248Y1881978D01*
X3134551D01*
X3135754Y1882477D01*
X3136675Y1883398D01*
X3137173Y1884601D01*
Y1885903D01*
X3136675Y1887107D01*
X3135754Y1888028D01*
X3134551Y1888526D01*
D02*
G37*
G36*
X3123237D02*
X3121935D01*
X3120731Y1888028D01*
X3119810Y1887107D01*
X3119312Y1885903D01*
Y1884601D01*
X3119810Y1883398D01*
X3120731Y1882477D01*
X3121935Y1881978D01*
X3123237D01*
X3124440Y1882477D01*
X3125361Y1883398D01*
X3125860Y1884601D01*
Y1885903D01*
X3125361Y1887107D01*
X3124440Y1888028D01*
X3123237Y1888526D01*
D02*
G37*
G36*
X3128894Y1882869D02*
X3127591D01*
X3126388Y1882371D01*
X3125467Y1881450D01*
X3124969Y1880247D01*
Y1878944D01*
X3125467Y1877741D01*
X3126388Y1876820D01*
X3127591Y1876321D01*
X3128894D01*
X3130097Y1876820D01*
X3131018Y1877741D01*
X3131517Y1878944D01*
Y1880247D01*
X3131018Y1881450D01*
X3130097Y1882371D01*
X3128894Y1882869D01*
D02*
G37*
G36*
X3145864Y1877213D02*
X3144562D01*
X3143358Y1876714D01*
X3142438Y1875793D01*
X3141939Y1874590D01*
Y1873287D01*
X3142438Y1872084D01*
X3143358Y1871163D01*
X3144562Y1870665D01*
X3145864D01*
X3147068Y1871163D01*
X3147989Y1872084D01*
X3148487Y1873287D01*
Y1874590D01*
X3147989Y1875793D01*
X3147068Y1876714D01*
X3145864Y1877213D01*
D02*
G37*
G36*
X3140208Y1871556D02*
X3138905D01*
X3137702Y1871057D01*
X3136781Y1870136D01*
X3136282Y1868933D01*
Y1867630D01*
X3136781Y1866427D01*
X3137702Y1865506D01*
X3138905Y1865008D01*
X3140208D01*
X3141411Y1865506D01*
X3142332Y1866427D01*
X3142830Y1867630D01*
Y1868933D01*
X3142332Y1870136D01*
X3141411Y1871057D01*
X3140208Y1871556D01*
D02*
G37*
G36*
X3134551Y1865899D02*
X3133248D01*
X3132045Y1865400D01*
X3131124Y1864479D01*
X3130626Y1863276D01*
Y1861974D01*
X3131124Y1860770D01*
X3132045Y1859849D01*
X3133248Y1859351D01*
X3134551D01*
X3135754Y1859849D01*
X3136675Y1860770D01*
X3137173Y1861974D01*
Y1863276D01*
X3136675Y1864479D01*
X3135754Y1865400D01*
X3134551Y1865899D01*
D02*
G37*
%LPD*%
D11*
X3337560Y2374646D02*
D03*
X3345180D02*
D03*
X3329940D02*
D03*
X3337560Y2390902D02*
D03*
X3345180D02*
D03*
X3329940D02*
D03*
X3473960Y2478280D02*
D03*
X3463800Y2475558D02*
D03*
X3456426Y2468148D02*
D03*
X3453640Y2457960D02*
D03*
X3456362Y2447800D02*
D03*
X3463800Y2440363D02*
D03*
X3473960Y2437640D02*
D03*
X3484120Y2440363D02*
D03*
X3491558Y2447800D02*
D03*
X3494280Y2457960D02*
D03*
X3491558Y2468120D02*
D03*
X3484120Y2475558D02*
D03*
X3473960Y1610360D02*
D03*
X3463800Y1607637D02*
D03*
X3456426Y1600228D02*
D03*
X3453640Y1590040D02*
D03*
X3456362Y1579880D02*
D03*
X3463800Y1572442D02*
D03*
X3473960Y1569720D02*
D03*
X3484120Y1572442D02*
D03*
X3491558Y1579880D02*
D03*
X3494280Y1590040D02*
D03*
X3491558Y1600200D02*
D03*
X3484120Y1607637D02*
D03*
X2606040Y2478280D02*
D03*
X2595880Y2475558D02*
D03*
X2588506Y2468148D02*
D03*
X2585720Y2457960D02*
D03*
X2588442Y2447800D02*
D03*
X2595880Y2440362D02*
D03*
X2606040Y2437640D02*
D03*
X2616200Y2440362D02*
D03*
X2623638Y2447800D02*
D03*
X2626360Y2457960D02*
D03*
X2623638Y2468120D02*
D03*
X2616200Y2475558D02*
D03*
X2606040Y1610360D02*
D03*
X2595880Y1607638D02*
D03*
X2588506Y1600228D02*
D03*
X2585720Y1590040D02*
D03*
X2588442Y1579880D02*
D03*
X2595880Y1572442D02*
D03*
X2606040Y1569720D02*
D03*
X2616200Y1572442D02*
D03*
X2623638Y1579880D02*
D03*
X2626360Y1590040D02*
D03*
X2623638Y1600200D02*
D03*
X2616200Y1607638D02*
D03*
D101*
X2908350Y2468280D02*
D03*
X2921050Y2461930D02*
D03*
X2933750Y2468280D02*
D03*
X2921050Y2474630D02*
D03*
X2933750Y2480980D02*
D03*
X2908350D02*
D03*
Y2493680D02*
D03*
X2921050Y2500030D02*
D03*
X2933750Y2493680D02*
D03*
X2921050Y2487330D02*
D03*
X2961640Y2446020D02*
D03*
X2961640Y2458720D02*
D03*
X3176016Y2468878D02*
D03*
X3137916Y2475228D02*
D03*
X3163316D02*
D03*
X3150616Y2468878D02*
D03*
X3163316Y2462527D02*
D03*
X3137916D02*
D03*
X3316986Y2195830D02*
D03*
X3296666D02*
D03*
X3304286Y2202180D02*
D03*
X3283966D02*
D03*
X3271266Y2208530D02*
D03*
X3291586D02*
D03*
X3326130Y2306320D02*
D03*
X3281680Y2349500D02*
D03*
X3285490Y2312670D02*
D03*
X3293110Y2284730D02*
D03*
X3293110Y2291080D02*
D03*
X3332988Y2291080D02*
D03*
X3332989Y2278380D02*
D03*
X3332988Y2272030D02*
D03*
Y2284730D02*
D03*
X3332988Y2265680D02*
D03*
X3326638Y2284730D02*
D03*
Y2272030D02*
D03*
X3326638Y2278380D02*
D03*
X3326638Y2291080D02*
D03*
Y2265680D02*
D03*
X3293110D02*
D03*
X3293110Y2278380D02*
D03*
X3293110Y2272030D02*
D03*
X3362760Y2346490D02*
D03*
X3299260Y2346489D02*
D03*
X3299259Y2352839D02*
D03*
X3299259Y2359189D02*
D03*
X3311959Y2371889D02*
D03*
X3305609Y2365539D02*
D03*
X3311959Y2365539D02*
D03*
X3305609Y2359189D02*
D03*
X3311960Y2359189D02*
D03*
X3305609Y2352839D02*
D03*
X3311960Y2352839D02*
D03*
X3305609Y2340139D02*
D03*
X3305609Y2346489D02*
D03*
X3311960Y2340139D02*
D03*
X3311960Y2346489D02*
D03*
X3318310Y2340139D02*
D03*
X3318310Y2346489D02*
D03*
X3324659Y2340139D02*
D03*
X3324660Y2346490D02*
D03*
X3331010Y2340140D02*
D03*
X3331010Y2346490D02*
D03*
X3337360Y2340140D02*
D03*
X3337360Y2346490D02*
D03*
X3343710Y2346490D02*
D03*
X3343710Y2340140D02*
D03*
X3356410D02*
D03*
X3356410Y2346490D02*
D03*
X3350060Y2340140D02*
D03*
X3350060Y2346490D02*
D03*
X3369110Y2352840D02*
D03*
X3369110Y2359190D02*
D03*
X3350060Y2352840D02*
D03*
X3356410Y2352840D02*
D03*
X3362760Y2352840D02*
D03*
X3350060Y2359190D02*
D03*
X3356410Y2359190D02*
D03*
X3362760Y2359190D02*
D03*
X3362760Y2365540D02*
D03*
X3356410Y2365540D02*
D03*
X3299370Y2372270D02*
D03*
X3378835Y2453640D02*
D03*
X3379470Y2472105D02*
D03*
X3391662Y2378964D02*
D03*
X3379470Y2416810D02*
D03*
X3366770Y2429510D02*
D03*
X3366770Y2416810D02*
D03*
X3307080Y2437130D02*
D03*
X3294380Y2437130D02*
D03*
X3281680Y2437130D02*
D03*
X3292856Y2391410D02*
D03*
X3267456Y2385060D02*
D03*
Y2410460D02*
D03*
X3254756Y2404110D02*
D03*
Y2391410D02*
D03*
X3267456Y2397760D02*
D03*
X3280156Y2391410D02*
D03*
X3125470Y2499360D02*
D03*
X3112770Y2505710D02*
D03*
X3100070Y2499360D02*
D03*
Y2486660D02*
D03*
X3112770Y2493010D02*
D03*
X2579370Y2373630D02*
D03*
X1602740Y2171700D02*
D03*
X1629410Y2164080D02*
D03*
X1639570Y2162810D02*
D03*
X1601470Y2161540D02*
D03*
X1637030Y2218690D02*
D03*
X1652270Y2217420D02*
D03*
X1642110Y2195830D02*
D03*
X1610360Y2200910D02*
D03*
Y2179320D02*
D03*
X1620520D02*
D03*
X3027680Y2488438D02*
D03*
X3040380Y2488438D02*
D03*
X3125470Y2486660D02*
D03*
X3112770Y2480310D02*
D03*
X2971800Y2513840D02*
D03*
X3505200Y2365756D02*
D03*
Y1681988D02*
D03*
X2575560Y1681480D02*
D03*
X3500630Y2409700D02*
D03*
X3500630Y1638300D02*
D03*
X2579370Y1638300D02*
D03*
X3040380Y2475738D02*
D03*
Y2463038D02*
D03*
X3027680Y2463038D02*
D03*
Y2475738D02*
D03*
X3150616Y2456178D02*
D03*
X3176016D02*
D03*
Y2397760D02*
D03*
X3163316Y2391410D02*
D03*
X3150616Y2397760D02*
D03*
X3137916Y2391410D02*
D03*
X3099816Y2397760D02*
D03*
X3125216D02*
D03*
X3112516Y2391410D02*
D03*
X3027680Y2392172D02*
D03*
X3040380Y2392172D02*
D03*
X3027680Y2366772D02*
D03*
Y2379472D02*
D03*
X3040380Y2379472D02*
D03*
Y2366772D02*
D03*
X3006280Y2340300D02*
D03*
X2993580Y2340300D02*
D03*
X3018980D02*
D03*
X2973980D02*
D03*
X2948580D02*
D03*
X2961280Y2340300D02*
D03*
X2936240Y2404110D02*
D03*
Y2416810D02*
D03*
X2948940Y2416810D02*
D03*
X2961640Y2410460D02*
D03*
X2948940Y2404110D02*
D03*
X2974340D02*
D03*
X2961640Y2397760D02*
D03*
X2901950Y2415540D02*
D03*
Y2428240D02*
D03*
X2838450Y2324100D02*
D03*
Y2349500D02*
D03*
X2832100Y2336800D02*
D03*
Y2362200D02*
D03*
X2838450Y2374900D02*
D03*
X2832100Y2387600D02*
D03*
X2778760Y2298700D02*
D03*
X2804160D02*
D03*
X2791460Y2298700D02*
D03*
X2749550Y2444750D02*
D03*
X2749550Y2432050D02*
D03*
X2749550Y2419350D02*
D03*
X2781300Y2406650D02*
D03*
X2794000Y2400300D02*
D03*
X2768600D02*
D03*
X2755900Y2406650D02*
D03*
X2743200Y2400300D02*
D03*
X2730500Y2406650D02*
D03*
X2717800Y2400300D02*
D03*
X2994661Y2279646D02*
D03*
X2994661Y2266947D02*
D03*
X2994661Y2254247D02*
D03*
X2981961Y2254247D02*
D03*
X2969261Y2292347D02*
D03*
X2969261Y2305047D02*
D03*
X2969261Y2317747D02*
D03*
X2994660Y2317750D02*
D03*
X2994660Y2305050D02*
D03*
X2994660Y2292350D02*
D03*
X2562860Y2254250D02*
D03*
X2575560Y2254250D02*
D03*
X2600960Y2254250D02*
D03*
X2588260Y2254250D02*
D03*
X2626360Y2254249D02*
D03*
X2613660Y2254250D02*
D03*
X2689861Y2254249D02*
D03*
X2702560Y2254249D02*
D03*
X2664460Y2254249D02*
D03*
X2677160Y2254249D02*
D03*
X2651760Y2254249D02*
D03*
X2639060Y2254249D02*
D03*
X2715260Y2254249D02*
D03*
X2753361Y2254248D02*
D03*
X2740660Y2254249D02*
D03*
X2727961Y2254249D02*
D03*
X2791461Y2254248D02*
D03*
X2778760Y2254248D02*
D03*
X2766060Y2254248D02*
D03*
X2829561Y2254248D02*
D03*
X2816861Y2254248D02*
D03*
X2804160Y2254248D02*
D03*
X2867661Y2254247D02*
D03*
X2854961Y2254248D02*
D03*
X2842261Y2254248D02*
D03*
X2905761Y2254247D02*
D03*
X2893061Y2254247D02*
D03*
X2880361Y2254247D02*
D03*
X2943861Y2254247D02*
D03*
X2931161Y2254247D02*
D03*
X2918461Y2254247D02*
D03*
X2969261Y2254247D02*
D03*
X2956561Y2254247D02*
D03*
X2550160Y2254250D02*
D03*
X2550160Y2279650D02*
D03*
X2956561Y2279647D02*
D03*
X2969261Y2279647D02*
D03*
X2918461Y2279647D02*
D03*
X2931161Y2279647D02*
D03*
X2943861Y2279647D02*
D03*
X2880361Y2279647D02*
D03*
X2893061Y2279647D02*
D03*
X2905761Y2279647D02*
D03*
X2842261Y2279648D02*
D03*
X2854961Y2279648D02*
D03*
X2867661Y2279648D02*
D03*
X2804160Y2279648D02*
D03*
X2816860Y2279648D02*
D03*
X2829561Y2279648D02*
D03*
X2766060Y2279648D02*
D03*
X2778760Y2279648D02*
D03*
X2791461Y2279648D02*
D03*
X2727961Y2279649D02*
D03*
X2740660Y2279648D02*
D03*
X2753360Y2279648D02*
D03*
X2715260Y2279649D02*
D03*
X2639060Y2279649D02*
D03*
X2651760Y2279649D02*
D03*
X2677160Y2279649D02*
D03*
X2664460Y2279649D02*
D03*
X2702560Y2279649D02*
D03*
X2689860Y2279649D02*
D03*
X2613660Y2279650D02*
D03*
X2626360Y2279649D02*
D03*
X2588260Y2279650D02*
D03*
X2600960Y2279650D02*
D03*
X2575560Y2279650D02*
D03*
X2562860Y2279650D02*
D03*
X2553903Y2499870D02*
D03*
X2564130Y2510097D02*
D03*
X3515870Y2510097D02*
D03*
X3526096Y2499870D02*
D03*
X3526097Y1548130D02*
D03*
X3515870Y1537903D02*
D03*
X2564130Y1537903D02*
D03*
X2553903Y1548130D02*
D03*
X2603500Y1534160D02*
D03*
X2590800D02*
D03*
X3476500Y1534160D02*
D03*
X3501900D02*
D03*
X3451100D02*
D03*
X3425700D02*
D03*
X3400300D02*
D03*
X2628900Y1534160D02*
D03*
X2654300D02*
D03*
X2679700D02*
D03*
X2705100D02*
D03*
X2730500D02*
D03*
X2755900D02*
D03*
X2781300D02*
D03*
X2806700D02*
D03*
X2832100D02*
D03*
X2857500D02*
D03*
X2882900D02*
D03*
X2908300D02*
D03*
X2933700D02*
D03*
X2959100D02*
D03*
X2984500D02*
D03*
X3040000D02*
D03*
X3374900Y1534160D02*
D03*
X3349500D02*
D03*
X3324100Y1534160D02*
D03*
X3298700Y1534160D02*
D03*
X3273300D02*
D03*
X3247900D02*
D03*
X3222500D02*
D03*
X3197100D02*
D03*
X3171700D02*
D03*
X3146300D02*
D03*
X3120900D02*
D03*
X3095500Y1534160D02*
D03*
X3070100Y1534160D02*
D03*
X3009900Y1534160D02*
D03*
X2578100D02*
D03*
X2616200Y1534160D02*
D03*
X2641600D02*
D03*
X2667000D02*
D03*
X2692400D02*
D03*
X2717800D02*
D03*
X2743200D02*
D03*
X2768600D02*
D03*
X2794000D02*
D03*
X2819400D02*
D03*
X2844800D02*
D03*
X2870200D02*
D03*
X2895600D02*
D03*
X2921000D02*
D03*
X2946400D02*
D03*
X2971800D02*
D03*
X2997200D02*
D03*
X3082800Y1534160D02*
D03*
X3108200Y1534160D02*
D03*
X3133600D02*
D03*
X3159000Y1534160D02*
D03*
X3184400Y1534160D02*
D03*
X3209800Y1534160D02*
D03*
X3235200D02*
D03*
X3260600D02*
D03*
X3286000D02*
D03*
X3311400Y1534160D02*
D03*
X3336800Y1534160D02*
D03*
X3362200D02*
D03*
X3387600D02*
D03*
X3413000Y1534160D02*
D03*
X3438400Y1534160D02*
D03*
X3463800D02*
D03*
X3489200D02*
D03*
X3024950Y1534160D02*
D03*
X3055050D02*
D03*
X3529840Y2460500D02*
D03*
Y2473200D02*
D03*
X3529840Y1587500D02*
D03*
Y1562100D02*
D03*
Y1612900D02*
D03*
Y1638300D02*
D03*
Y1663700D02*
D03*
X3529840Y2435100D02*
D03*
Y2409700D02*
D03*
Y2384300D02*
D03*
Y2358900D02*
D03*
Y2333500D02*
D03*
Y2308100D02*
D03*
Y2282700D02*
D03*
Y2257300D02*
D03*
Y2231900D02*
D03*
Y2206500D02*
D03*
Y2181100D02*
D03*
Y2155700D02*
D03*
Y2130300D02*
D03*
Y2104900D02*
D03*
Y2079500D02*
D03*
Y2024000D02*
D03*
X3529840Y1689100D02*
D03*
Y1714500D02*
D03*
X3529840Y1739900D02*
D03*
X3529840Y1765300D02*
D03*
Y1790700D02*
D03*
Y1816100D02*
D03*
Y1841500D02*
D03*
Y1866900D02*
D03*
Y1892300D02*
D03*
Y1917700D02*
D03*
Y1943100D02*
D03*
X3529840Y1968500D02*
D03*
X3529840Y1993900D02*
D03*
X3529840Y2054100D02*
D03*
Y2485900D02*
D03*
X3529840Y2447800D02*
D03*
Y2422400D02*
D03*
Y2397000D02*
D03*
Y2371600D02*
D03*
Y2346200D02*
D03*
Y2320800D02*
D03*
Y2295400D02*
D03*
Y2270000D02*
D03*
Y2244600D02*
D03*
Y2219200D02*
D03*
Y2193800D02*
D03*
Y2168400D02*
D03*
Y2143000D02*
D03*
Y2117600D02*
D03*
Y2092200D02*
D03*
Y2066800D02*
D03*
X3529840Y1981200D02*
D03*
X3529840Y1955800D02*
D03*
Y1930400D02*
D03*
X3529840Y1905000D02*
D03*
X3529840Y1879600D02*
D03*
X3529840Y1854200D02*
D03*
Y1828800D02*
D03*
Y1803400D02*
D03*
Y1778000D02*
D03*
X3529840Y1752600D02*
D03*
X3529840Y1727200D02*
D03*
Y1701800D02*
D03*
Y1676400D02*
D03*
X3529840Y1651000D02*
D03*
X3529840Y1625600D02*
D03*
Y1600200D02*
D03*
Y1574800D02*
D03*
X3529840Y2039050D02*
D03*
Y2008950D02*
D03*
X2550160Y2460500D02*
D03*
Y2473200D02*
D03*
X2550160Y1587500D02*
D03*
Y1562100D02*
D03*
Y1612900D02*
D03*
Y1638300D02*
D03*
Y1663700D02*
D03*
X2550160Y2435100D02*
D03*
Y2409700D02*
D03*
Y2384300D02*
D03*
Y2358900D02*
D03*
Y2333500D02*
D03*
Y2308100D02*
D03*
Y2231900D02*
D03*
Y2206500D02*
D03*
Y2181100D02*
D03*
Y2155700D02*
D03*
Y2130300D02*
D03*
Y2104900D02*
D03*
Y2079500D02*
D03*
Y2024000D02*
D03*
X2550160Y1689100D02*
D03*
Y1714500D02*
D03*
X2550160Y1739900D02*
D03*
X2550160Y1765300D02*
D03*
Y1790700D02*
D03*
Y1816100D02*
D03*
Y1841500D02*
D03*
Y1866900D02*
D03*
Y1892300D02*
D03*
Y1917700D02*
D03*
Y1943100D02*
D03*
X2550160Y1968500D02*
D03*
X2550160Y1993900D02*
D03*
X2550160Y2054100D02*
D03*
Y2485900D02*
D03*
X2550160Y2447800D02*
D03*
Y2422400D02*
D03*
Y2397000D02*
D03*
Y2371600D02*
D03*
Y2346200D02*
D03*
Y2320800D02*
D03*
Y2295400D02*
D03*
Y2244600D02*
D03*
Y2219200D02*
D03*
Y2193800D02*
D03*
Y2168400D02*
D03*
Y2143000D02*
D03*
Y2117600D02*
D03*
Y2092200D02*
D03*
Y2066800D02*
D03*
X2550160Y1981200D02*
D03*
X2550160Y1955800D02*
D03*
Y1930400D02*
D03*
X2550160Y1905000D02*
D03*
X2550160Y1879600D02*
D03*
X2550160Y1854200D02*
D03*
Y1828800D02*
D03*
Y1803400D02*
D03*
Y1778000D02*
D03*
X2550160Y1752600D02*
D03*
X2550160Y1727200D02*
D03*
Y1701800D02*
D03*
Y1676400D02*
D03*
X2550160Y1651000D02*
D03*
X2550160Y1625600D02*
D03*
Y1600200D02*
D03*
Y1574800D02*
D03*
X2550160Y2039050D02*
D03*
Y2008950D02*
D03*
X3055050Y2513840D02*
D03*
X3024950D02*
D03*
X3489200Y2513840D02*
D03*
X3463800D02*
D03*
X3438400D02*
D03*
X3413000D02*
D03*
X3387600D02*
D03*
X3362200D02*
D03*
X3336800D02*
D03*
X3311400D02*
D03*
X3286000D02*
D03*
X3260600D02*
D03*
X3235200D02*
D03*
X3209800D02*
D03*
X3184400D02*
D03*
X3159000D02*
D03*
X3133600D02*
D03*
X3108200D02*
D03*
X3082800D02*
D03*
X2997200Y2513840D02*
D03*
X2946400D02*
D03*
X2921000D02*
D03*
X2895600D02*
D03*
X2870200D02*
D03*
X2844800D02*
D03*
X2819400D02*
D03*
X2794000D02*
D03*
X2768600D02*
D03*
X2743200D02*
D03*
X2717800D02*
D03*
X2692400D02*
D03*
X2667000D02*
D03*
X2641600D02*
D03*
X2616200D02*
D03*
X2578100Y2513840D02*
D03*
X3009900D02*
D03*
X3070100Y2513840D02*
D03*
X3095500D02*
D03*
X3120900D02*
D03*
X3146300D02*
D03*
X3171700D02*
D03*
X3197100D02*
D03*
X3222500D02*
D03*
X3247900D02*
D03*
X3273300D02*
D03*
X3298700D02*
D03*
X3324100D02*
D03*
X3349500D02*
D03*
X3374900D02*
D03*
X3040000Y2513840D02*
D03*
X2959100D02*
D03*
X2933700D02*
D03*
X2908300D02*
D03*
X2882900D02*
D03*
X2857500D02*
D03*
X2832100D02*
D03*
X2806700D02*
D03*
X2781300D02*
D03*
X2755900D02*
D03*
X2730500D02*
D03*
X2705100D02*
D03*
X2679700D02*
D03*
X2654300D02*
D03*
X2628900D02*
D03*
X3400300Y2513840D02*
D03*
X3425700D02*
D03*
X3451100D02*
D03*
X3501900D02*
D03*
X3476500D02*
D03*
X2590800Y2513840D02*
D03*
X2603500D02*
D03*
D126*
X2566670Y2334260D02*
D03*
X2566670Y2359660D02*
D03*
D133*
X2879090Y2331720D02*
D03*
X2909570D02*
D03*
Y2362200D02*
D03*
X2879090D02*
D03*
X2909570Y2377440D02*
D03*
X2894330D02*
D03*
X2879090D02*
D03*
X2894330Y2362200D02*
D03*
Y2331720D02*
D03*
Y2346960D02*
D03*
X2909570D02*
D03*
X2879090D02*
D03*
D170*
X3099958Y1906320D02*
G03*
X3099958Y1898125I5657J-4098D01*
G01*
X3149311Y1913537D02*
G03*
X3141116Y1913537I-4098J-5657D01*
G01*
Y1890909D02*
G03*
X3149311Y1890909I4098J5657D01*
G01*
X3107174D02*
G03*
X3115370Y1890909I4098J5657D01*
G01*
Y1913537D02*
G03*
X3107174Y1913537I-4098J-5657D01*
G01*
X3139556Y1915096D02*
G03*
X3139556Y1923291I-5657J4098D01*
G01*
X3116929D02*
G03*
X3116929Y1915096I5657J-4098D01*
G01*
Y1889350D02*
G03*
X3116929Y1881155I5657J-4098D01*
G01*
X3139556D02*
G03*
X3139556Y1889350I-5657J4098D01*
G01*
X3156527Y1898125D02*
G03*
X3156527Y1906320I-5657J4098D01*
G01*
X3124145Y1873938D02*
G03*
X3132340Y1873938I4098J5657D01*
G01*
Y1930507D02*
G03*
X3124145Y1930507I-4098J-5657D01*
G01*
X3139556Y1879595D02*
X3162184Y1902223D01*
X3156527Y1862625D02*
Y1862625D01*
X3167841Y1873939D01*
X3099958Y1907880D02*
X3128242Y1936164D01*
X3099958Y1906320D02*
Y1907880D01*
Y1898125D02*
Y1898125D01*
Y1896566D02*
Y1898125D01*
X3166512Y1875267D02*
X3167841Y1873939D01*
X3166512Y1882489D02*
X3167841Y1883817D01*
Y1883817D02*
X3176261Y1892237D01*
X3167841Y1883817D02*
Y1883817D01*
X3166512Y1875267D02*
Y1882489D01*
X3176261Y1892237D02*
X3183483D01*
X3184811Y1890909D01*
X3147977Y1863953D02*
X3155199D01*
X3156527Y1862625D01*
X3138228Y1854204D02*
X3143885Y1859861D01*
Y1859861D02*
X3147977Y1863953D01*
X3143885Y1859861D02*
Y1859861D01*
X3138228Y1846982D02*
X3139556Y1845654D01*
X3138228Y1846982D02*
Y1854204D01*
X3094301Y1902223D02*
X3099958Y1907880D01*
X3156527D02*
X3162184Y1902223D01*
X3150870Y1913537D02*
X3156527Y1907880D01*
X3139556Y1924850D02*
X3150870Y1913537D01*
X3133900Y1930507D02*
X3139556Y1924850D01*
X3128242Y1936164D02*
X3133900Y1930507D01*
Y1873938D02*
X3139556Y1879595D01*
X3128242Y1868282D02*
X3133900Y1873938D01*
X3122586D02*
X3128242Y1868282D01*
X3116929Y1879595D02*
X3122586Y1873938D01*
X3105615Y1890909D02*
X3116929Y1879595D01*
X3099958Y1896566D02*
X3105615Y1890909D01*
X3094301Y1902223D02*
X3099958Y1896566D01*
D173*
X3500630Y2409700D02*
Y2431290D01*
X3473960Y2457960D02*
X3500630Y2431290D01*
X3500630Y1616710D02*
Y1638300D01*
X3473960Y1590040D02*
X3500630Y1616710D01*
X2579370Y1616710D02*
X2606040Y1590040D01*
X2579370Y1616710D02*
Y1638300D01*
D175*
X2947583Y2271773D02*
X2944198Y2270080D01*
X2940812Y2266694D01*
Y2263309D01*
X2942505Y2261616D01*
X2945890D01*
X2947583Y2263309D01*
Y2265002D01*
X2945890Y2266694D01*
X2940812D01*
D176*
X3507740Y1901808D02*
D03*
X3451740D02*
D03*
X3507740Y1811808D02*
D03*
X3451740D02*
D03*
X3507740Y2038180D02*
D03*
X3451740D02*
D03*
X3507740Y1948180D02*
D03*
X3451740D02*
D03*
D177*
X3466740Y1880808D02*
D03*
Y1872808D02*
D03*
Y1864808D02*
D03*
Y1832808D02*
D03*
Y1840808D02*
D03*
Y1848808D02*
D03*
X3459740Y1860808D02*
D03*
Y1868808D02*
D03*
Y1887308D02*
D03*
Y1826308D02*
D03*
Y1844808D02*
D03*
Y1852808D02*
D03*
X3466740Y1894058D02*
D03*
Y1819558D02*
D03*
X3466740Y2017180D02*
D03*
Y2009180D02*
D03*
X3466740Y2001180D02*
D03*
X3466740Y1969180D02*
D03*
Y1977180D02*
D03*
Y1985180D02*
D03*
X3459740Y1997180D02*
D03*
Y2005180D02*
D03*
Y2023680D02*
D03*
Y1962680D02*
D03*
Y1981180D02*
D03*
Y1989180D02*
D03*
X3466740Y2030430D02*
D03*
X3466740Y1955930D02*
D03*
D178*
X3045260Y1561630D02*
D03*
X3172660D02*
D03*
X3240840D02*
D03*
X3368240D02*
D03*
D179*
X3434080Y2287270D02*
D03*
X3200400Y2395220D02*
D03*
D180*
X3434080Y2338070D02*
D03*
X3200400Y2446020D02*
D03*
D181*
X3351530Y2278380D02*
D03*
Y2239010D02*
D03*
X3144520Y1727200D02*
D03*
X3482340Y1925320D02*
D03*
X2566670Y2237740D02*
D03*
X3149600Y2348230D02*
D03*
Y2493010D02*
D03*
X2592070Y2302510D02*
D03*
Y2391410D02*
D03*
Y2359660D02*
D03*
D182*
X2692400Y2355088D02*
D03*
D183*
Y2321052D02*
D03*
X2791460D02*
D03*
X2791460Y2355088D02*
D03*
D184*
X2592070Y2334260D02*
D03*
D185*
X3473960Y2457960D02*
D03*
X3473960Y1590040D02*
D03*
X2606040Y2457960D02*
D03*
X2606040Y1590040D02*
D03*
D186*
X3362960Y2376170D02*
D03*
X3356610Y2409190D02*
D03*
X3346450Y2472055D02*
D03*
X3341370Y2409190D02*
D03*
X3324860Y2357120D02*
D03*
X3329940D02*
D03*
X3335020D02*
D03*
X3340100D02*
D03*
X3357245Y2444115D02*
D03*
D187*
X3196125Y1947478D02*
D03*
X3190468Y1953134D02*
D03*
X3184811Y1947478D02*
D03*
X3196125Y1936164D02*
D03*
X3190468Y1941821D02*
D03*
X3190468Y1930507D02*
D03*
Y1919193D02*
D03*
X3184811Y1936164D02*
D03*
X3184811Y1913537D02*
D03*
X3190468Y1907880D02*
D03*
X3162184Y1981419D02*
D03*
Y1970105D02*
D03*
Y1958791D02*
D03*
Y1947478D02*
D03*
X3156527Y1987076D02*
D03*
Y1975762D02*
D03*
Y1953134D02*
D03*
Y1941821D02*
D03*
X3156527Y1964448D02*
D03*
X3139556Y1970105D02*
D03*
Y1958791D02*
D03*
Y1947478D02*
D03*
Y1936164D02*
D03*
X3133900Y1964448D02*
D03*
X3139556Y1924850D02*
D03*
X3207438Y1902223D02*
D03*
Y1890909D02*
D03*
X3201782Y1885252D02*
D03*
X3162184Y1890909D02*
D03*
X3167841Y1873939D02*
D03*
X3179154Y1964448D02*
D03*
X3173497Y1970105D02*
D03*
Y1958791D02*
D03*
X3167841Y1964448D02*
D03*
Y1953134D02*
D03*
X3179154Y1930507D02*
D03*
X3179154Y1919193D02*
D03*
X3173497Y1936164D02*
D03*
X3167841Y1930507D02*
D03*
X3179154Y1941821D02*
D03*
X3167841Y1975762D02*
D03*
X3122586Y1987076D02*
D03*
Y1975762D02*
D03*
Y1953134D02*
D03*
Y1941821D02*
D03*
Y1930507D02*
D03*
Y1919193D02*
D03*
X3122586Y1964448D02*
D03*
Y1998389D02*
D03*
X3094301Y1823027D02*
D03*
X3116929Y1811713D02*
D03*
X3122586Y1839998D02*
D03*
X3133900Y1817370D02*
D03*
X3235723Y1907880D02*
D03*
X3235723Y1896566D02*
D03*
X3230066Y1902223D02*
D03*
Y1913537D02*
D03*
X3162184Y1823027D02*
D03*
X3156527Y1817370D02*
D03*
X3150870Y1823027D02*
D03*
X3145213Y1817370D02*
D03*
X3139556Y1823027D02*
D03*
X3111272Y1817370D02*
D03*
X3105615Y1823027D02*
D03*
X3105615Y1811713D02*
D03*
X3099958Y1817370D02*
D03*
X3179154Y1862625D02*
D03*
X3139556Y1811713D02*
D03*
X3128242Y1800399D02*
D03*
X3122586Y1806056D02*
D03*
X3139556Y1800399D02*
D03*
X3133900Y1806056D02*
D03*
X3128242Y1811713D02*
D03*
X3116929Y1879595D02*
D03*
Y1924850D02*
D03*
X3116929Y1868282D02*
D03*
Y1902223D02*
D03*
Y1856968D02*
D03*
Y1845654D02*
D03*
X3116929Y1823027D02*
D03*
X3122586Y1817370D02*
D03*
Y1828684D02*
D03*
X3116929Y1834341D02*
D03*
X3128242Y1924850D02*
D03*
X3088645Y1930507D02*
D03*
X3082988Y1936164D02*
D03*
X3077331Y1941821D02*
D03*
X3088645Y1907880D02*
D03*
Y1919193D02*
D03*
X3082988Y1924850D02*
D03*
X3082988Y1913537D02*
D03*
X3077331Y1919193D02*
D03*
Y1907880D02*
D03*
Y1930507D02*
D03*
X3071674Y1913537D02*
D03*
Y1902223D02*
D03*
X3082988Y1902223D02*
D03*
X3054703Y1941821D02*
D03*
X3049047Y1936164D02*
D03*
X3054703Y1907880D02*
D03*
X3054703Y1919193D02*
D03*
X3049047Y1924850D02*
D03*
Y1913537D02*
D03*
X3054703Y1930507D02*
D03*
Y1896566D02*
D03*
X3094301Y1924850D02*
D03*
Y1902223D02*
D03*
Y1913537D02*
D03*
Y1947478D02*
D03*
X3111272Y1907880D02*
D03*
Y1896566D02*
D03*
Y1941821D02*
D03*
X3105615Y1947478D02*
D03*
Y1936164D02*
D03*
X3099958Y1941821D02*
D03*
X3111272Y1930507D02*
D03*
X3105615Y1890909D02*
D03*
X3105615Y1913537D02*
D03*
X3099958Y1919193D02*
D03*
Y1907880D02*
D03*
X3105615Y1902223D02*
D03*
X3082988Y1879595D02*
D03*
X3077331Y1885252D02*
D03*
Y1873939D02*
D03*
X3082988Y1868282D02*
D03*
X3077331Y1862625D02*
D03*
X3071674Y1856968D02*
D03*
X3066017Y1873939D02*
D03*
X3066017Y1862625D02*
D03*
Y1885252D02*
D03*
Y1851311D02*
D03*
X3071674Y1947478D02*
D03*
X3071674Y1936164D02*
D03*
X3071674Y1890909D02*
D03*
X3071674Y1924850D02*
D03*
Y1879595D02*
D03*
Y1868282D02*
D03*
X3105615Y1845654D02*
D03*
X3105615Y1834341D02*
D03*
X3099958Y1851311D02*
D03*
Y1839997D02*
D03*
Y1828684D02*
D03*
X3094301Y1834341D02*
D03*
X3094301Y1845654D02*
D03*
X3088645Y1839997D02*
D03*
X3088645Y1851311D02*
D03*
X3082988Y1845654D02*
D03*
Y1834341D02*
D03*
X3077331Y1839997D02*
D03*
X3088645Y1828684D02*
D03*
X3111272Y1873939D02*
D03*
X3105615Y1868282D02*
D03*
X3111272Y1862625D02*
D03*
Y1839997D02*
D03*
X3111272Y1828684D02*
D03*
X3105615Y1856968D02*
D03*
X3094301D02*
D03*
X3099958Y1862625D02*
D03*
X3066017Y1941821D02*
D03*
X3060360Y1936164D02*
D03*
X3066017Y1930507D02*
D03*
Y1919193D02*
D03*
Y1907880D02*
D03*
Y1896566D02*
D03*
X3060360Y1902223D02*
D03*
X3060360Y1924850D02*
D03*
Y1913537D02*
D03*
Y1947478D02*
D03*
X3049047Y1902223D02*
D03*
X3043390Y1919193D02*
D03*
X3043390Y1907880D02*
D03*
Y1896566D02*
D03*
X3037733Y1924850D02*
D03*
Y1913537D02*
D03*
X3037733Y1902223D02*
D03*
X3032076Y1919193D02*
D03*
Y1907880D02*
D03*
Y1896566D02*
D03*
X3026419Y1902223D02*
D03*
X3026419Y1913537D02*
D03*
X3043390Y1930507D02*
D03*
X3099958Y1885252D02*
D03*
Y1896566D02*
D03*
X3094301Y1890909D02*
D03*
Y1879595D02*
D03*
X3088645Y1873939D02*
D03*
X3088645Y1885252D02*
D03*
X3082988Y1890909D02*
D03*
X3077331Y1896566D02*
D03*
X3088645Y1896566D02*
D03*
X3060360Y1879595D02*
D03*
Y1856968D02*
D03*
X3054703Y1873939D02*
D03*
X3060360Y1890909D02*
D03*
X3054703Y1885252D02*
D03*
Y1862625D02*
D03*
X3049047Y1879595D02*
D03*
Y1868282D02*
D03*
Y1890909D02*
D03*
X3037733Y1890909D02*
D03*
X3043390Y1885252D02*
D03*
X3037733Y1879595D02*
D03*
X3032076Y1885252D02*
D03*
X3026419Y1890909D02*
D03*
X3213095Y1873939D02*
D03*
X3196125Y1856968D02*
D03*
X3190468Y1851311D02*
D03*
X3190468Y1862625D02*
D03*
X3184811Y1856968D02*
D03*
X3173497Y1845654D02*
D03*
X3167841Y1839998D02*
D03*
X3162184Y1845654D02*
D03*
X3156527Y1851311D02*
D03*
X3162184Y1834341D02*
D03*
X3173497Y1913537D02*
D03*
X3167841Y1919193D02*
D03*
X3162184Y1924850D02*
D03*
Y1913537D02*
D03*
X3156527Y1919193D02*
D03*
X3150870Y1913537D02*
D03*
X3173497Y1924850D02*
D03*
X3179154Y1907880D02*
D03*
X3128242Y1981419D02*
D03*
Y1992733D02*
D03*
Y1970105D02*
D03*
Y1947478D02*
D03*
Y1936164D02*
D03*
X3128242Y1958791D02*
D03*
X3128242Y1913537D02*
D03*
X3145213Y1998389D02*
D03*
Y1987076D02*
D03*
X3139556Y1992733D02*
D03*
Y1981419D02*
D03*
X3133900Y1987076D02*
D03*
Y1975762D02*
D03*
Y1941821D02*
D03*
Y1930507D02*
D03*
Y1919193D02*
D03*
Y1953134D02*
D03*
Y1998389D02*
D03*
X3150870Y1981419D02*
D03*
Y1970105D02*
D03*
Y1958791D02*
D03*
Y1947478D02*
D03*
X3150870Y1936164D02*
D03*
X3145213Y1964448D02*
D03*
Y1941821D02*
D03*
Y1930507D02*
D03*
X3145213Y1953134D02*
D03*
Y1975762D02*
D03*
X3150870Y1992733D02*
D03*
X3201782Y1896566D02*
D03*
X3196125Y1902223D02*
D03*
Y1890909D02*
D03*
X3190468Y1885252D02*
D03*
Y1896566D02*
D03*
X3184811Y1868282D02*
D03*
X3184811Y1890909D02*
D03*
Y1879595D02*
D03*
X3179154Y1873939D02*
D03*
X3179154Y1885252D02*
D03*
X3173497Y1902223D02*
D03*
Y1868282D02*
D03*
Y1879595D02*
D03*
X3167841Y1907880D02*
D03*
X3167841Y1896566D02*
D03*
X3162184Y1902223D02*
D03*
X3156527Y1907880D02*
D03*
Y1896566D02*
D03*
X3156527Y1885252D02*
D03*
X3150870Y1902223D02*
D03*
X3150870Y1890909D02*
D03*
X3145213Y1896566D02*
D03*
Y1907880D02*
D03*
X3139556Y1902223D02*
D03*
Y1868282D02*
D03*
X3207438Y1879595D02*
D03*
X3201782Y1873939D02*
D03*
X3196125Y1879595D02*
D03*
X3190468Y1873939D02*
D03*
X3196125Y1868282D02*
D03*
X3207439Y1868282D02*
D03*
X3128242D02*
D03*
X3139556Y1879595D02*
D03*
X3133900Y1862625D02*
D03*
Y1873938D02*
D03*
Y1885252D02*
D03*
X3128242Y1890909D02*
D03*
X3145213Y1873939D02*
D03*
X3128242Y1879595D02*
D03*
Y1856968D02*
D03*
X3122586Y1862625D02*
D03*
X3122586Y1885252D02*
D03*
Y1873938D02*
D03*
Y1851311D02*
D03*
X3167841Y1828684D02*
D03*
X3156527Y1839997D02*
D03*
Y1828684D02*
D03*
X3150870Y1834341D02*
D03*
X3150870Y1845654D02*
D03*
X3145213Y1839997D02*
D03*
Y1851311D02*
D03*
X3139556Y1845654D02*
D03*
X3139556Y1834341D02*
D03*
X3133900Y1839998D02*
D03*
X3145213Y1828684D02*
D03*
X3128242Y1834341D02*
D03*
X3133900Y1828684D02*
D03*
X3128242Y1823027D02*
D03*
X3162184Y1856968D02*
D03*
X3156527Y1862625D02*
D03*
X3150870Y1856968D02*
D03*
X3167841Y1851311D02*
D03*
X3224409Y1896566D02*
D03*
Y1919193D02*
D03*
Y1907880D02*
D03*
X3218752Y1879595D02*
D03*
X3218752Y1890909D02*
D03*
X3224409Y1885252D02*
D03*
X3207438Y1936164D02*
D03*
X3207438Y1913537D02*
D03*
X3201782Y1941821D02*
D03*
Y1919193D02*
D03*
X3201782Y1907880D02*
D03*
Y1930507D02*
D03*
X3196125Y1913537D02*
D03*
X3196125Y1924850D02*
D03*
X3184811D02*
D03*
X3213095Y1885252D02*
D03*
X3213095Y1896566D02*
D03*
X3207439Y1924850D02*
D03*
X3213095Y1919193D02*
D03*
X3213095Y1907880D02*
D03*
X3218752Y1902223D02*
D03*
X3218752Y1913537D02*
D03*
X3213095Y1930507D02*
D03*
X3218752Y1924850D02*
D03*
X3150870Y1811713D02*
D03*
X3133900Y1794743D02*
D03*
X3122586D02*
D03*
X3111272Y1998389D02*
D03*
X3116929Y1992733D02*
D03*
X3116929Y1981419D02*
D03*
X3111272Y1987076D02*
D03*
Y1975762D02*
D03*
X3116929Y1970105D02*
D03*
Y1958791D02*
D03*
Y1936164D02*
D03*
X3116929Y1947478D02*
D03*
X3111272Y1964448D02*
D03*
X3111272Y1851311D02*
D03*
X3116929Y1800399D02*
D03*
X3111272Y1806056D02*
D03*
Y1953134D02*
D03*
X3105615Y1992733D02*
D03*
Y1981419D02*
D03*
Y1970105D02*
D03*
Y1958791D02*
D03*
X3099958Y1987076D02*
D03*
Y1975762D02*
D03*
Y1964448D02*
D03*
Y1953134D02*
D03*
X3094301Y1981419D02*
D03*
Y1970105D02*
D03*
Y1958791D02*
D03*
X3088645Y1964448D02*
D03*
X3088645Y1953134D02*
D03*
Y1975762D02*
D03*
X3082988Y1958791D02*
D03*
X3077331Y1964448D02*
D03*
X3066017Y1953134D02*
D03*
X3082988Y1970105D02*
D03*
X3139556Y2004046D02*
D03*
X3133900Y2009703D02*
D03*
X3128242Y2004046D02*
D03*
X3116929D02*
D03*
X3122586Y2009703D02*
D03*
M02*
