G04*
G04 #@! TF.GenerationSoftware,Altium Limited,Altium Designer,24.10.1 (45)*
G04*
G04 Layer_Color=1265191*
%FSLAX44Y44*%
%MOMM*%
G71*
G04*
G04 #@! TF.SameCoordinates,24BC4850-7E81-497A-B660-34607D59122C*
G04*
G04*
G04 #@! TF.FilePolarity,Positive*
G04*
G01*
G75*
%ADD10C,0.1270*%
%ADD15C,0.2540*%
%ADD18C,0.1778*%
%ADD173C,0.5080*%
%ADD174C,0.3810*%
%ADD223C,0.7620*%
D10*
X5379719Y136795D02*
X5378630Y137883D01*
X5376998Y138428D01*
X5374821D01*
X5373188Y137883D01*
X5372100Y136795D01*
Y135707D01*
X5372644Y134618D01*
X5373188Y134074D01*
X5374277Y133530D01*
X5377542Y132442D01*
X5378630Y131897D01*
X5379174Y131353D01*
X5379719Y130265D01*
Y128632D01*
X5378630Y127544D01*
X5376998Y127000D01*
X5374821D01*
X5373188Y127544D01*
X5372100Y128632D01*
X5390438Y135707D02*
X5389894Y136795D01*
X5388806Y137883D01*
X5387718Y138428D01*
X5385541D01*
X5384453Y137883D01*
X5383364Y136795D01*
X5382820Y135707D01*
X5382276Y134074D01*
Y131353D01*
X5382820Y129721D01*
X5383364Y128632D01*
X5384453Y127544D01*
X5385541Y127000D01*
X5387718D01*
X5388806Y127544D01*
X5389894Y128632D01*
X5390438Y129721D01*
X5402356Y127000D02*
X5398002Y138428D01*
X5393649Y127000D01*
X5395281Y130809D02*
X5400723D01*
X5405022Y138428D02*
Y127000D01*
X5411552D01*
X5419878Y138428D02*
X5412804D01*
Y127000D01*
X5419878D01*
X5412804Y132986D02*
X5417157D01*
X5422327Y134618D02*
X5421783Y134074D01*
X5422327Y133530D01*
X5422871Y134074D01*
X5422327Y134618D01*
Y128088D02*
X5421783Y127544D01*
X5422327Y127000D01*
X5422871Y127544D01*
X5422327Y128088D01*
X4457700Y138428D02*
Y127000D01*
Y138428D02*
X4464774D01*
X4457700Y132986D02*
X4462054D01*
X4466080Y138428D02*
Y127000D01*
X4468475Y138428D02*
Y127000D01*
X4475005D01*
X4483330Y138428D02*
X4476256D01*
Y127000D01*
X4483330D01*
X4476256Y132986D02*
X4480609D01*
X4494214Y138428D02*
Y127000D01*
Y138428D02*
X4501832Y127000D01*
Y138428D02*
Y127000D01*
X4513695D02*
X4509342Y138428D01*
X4504988Y127000D01*
X4506621Y130809D02*
X4512062D01*
X4516361Y138428D02*
Y127000D01*
Y138428D02*
X4520715Y127000D01*
X4525068Y138428D02*
X4520715Y127000D01*
X4525068Y138428D02*
Y127000D01*
X4535407Y138428D02*
X4528333D01*
Y127000D01*
X4535407D01*
X4528333Y132986D02*
X4532686D01*
X4537856Y134618D02*
X4537312Y134074D01*
X4537856Y133530D01*
X4538400Y134074D01*
X4537856Y134618D01*
Y128088D02*
X4537312Y127544D01*
X4537856Y127000D01*
X4538400Y127544D01*
X4537856Y128088D01*
X4842509Y367028D02*
Y355600D01*
X4838700Y367028D02*
X4846318D01*
X4847679D02*
Y355600D01*
X4853882Y367028D02*
Y355600D01*
X4850073Y367028D02*
X4857692D01*
X4859052D02*
Y355600D01*
X4865582D01*
X4873908Y367028D02*
X4866833D01*
Y355600D01*
X4873908D01*
X4866833Y361586D02*
X4871187D01*
X4876357Y363218D02*
X4875812Y362674D01*
X4876357Y362130D01*
X4876901Y362674D01*
X4876357Y363218D01*
Y356688D02*
X4875812Y356144D01*
X4876357Y355600D01*
X4876901Y356144D01*
X4876357Y356688D01*
X4838700Y208642D02*
X4843597D01*
X4845230Y209186D01*
X4845774Y209730D01*
X4846318Y210818D01*
Y212451D01*
X4845774Y213539D01*
X4845230Y214083D01*
X4843597Y214628D01*
X4838700D01*
Y203200D01*
X4857583D02*
X4853229Y214628D01*
X4848876Y203200D01*
X4850508Y207009D02*
X4855950D01*
X4860249Y214628D02*
Y203200D01*
Y214628D02*
X4865146D01*
X4866779Y214083D01*
X4867323Y213539D01*
X4867867Y212451D01*
Y211362D01*
X4867323Y210274D01*
X4866779Y209730D01*
X4865146Y209186D01*
X4860249D01*
X4864058D02*
X4867867Y203200D01*
X4874234Y214628D02*
Y203200D01*
X4870425Y214628D02*
X4878044D01*
X4888383D02*
Y203200D01*
Y214628D02*
X4896001Y203200D01*
Y214628D02*
Y203200D01*
X4902422Y214628D02*
X4901334Y214083D01*
X4900245Y212995D01*
X4899702Y211907D01*
X4899157Y210274D01*
Y207553D01*
X4899702Y205921D01*
X4900245Y204832D01*
X4901334Y203744D01*
X4902422Y203200D01*
X4904599D01*
X4905687Y203744D01*
X4906776Y204832D01*
X4907320Y205921D01*
X4907864Y207553D01*
Y210274D01*
X4907320Y211907D01*
X4906776Y212995D01*
X4905687Y214083D01*
X4904599Y214628D01*
X4902422D01*
X4911075Y204288D02*
X4910530Y203744D01*
X4911075Y203200D01*
X4911619Y203744D01*
X4911075Y204288D01*
X4914666Y210818D02*
X4914122Y210274D01*
X4914666Y209730D01*
X4915210Y210274D01*
X4914666Y210818D01*
Y204288D02*
X4914122Y203744D01*
X4914666Y203200D01*
X4915210Y203744D01*
X4914666Y204288D01*
X4838700Y138428D02*
Y127000D01*
Y138428D02*
X4842509D01*
X4844142Y137883D01*
X4845230Y136795D01*
X4845774Y135707D01*
X4846318Y134074D01*
Y131353D01*
X4845774Y129721D01*
X4845230Y128632D01*
X4844142Y127544D01*
X4842509Y127000D01*
X4838700D01*
X4848876Y138428D02*
X4851597Y127000D01*
X4854318Y138428D02*
X4851597Y127000D01*
X4854318Y138428D02*
X4857039Y127000D01*
X4859759Y138428D02*
X4857039Y127000D01*
X4870208Y135707D02*
X4869663Y136795D01*
X4868575Y137883D01*
X4867487Y138428D01*
X4865310D01*
X4864221Y137883D01*
X4863133Y136795D01*
X4862589Y135707D01*
X4862045Y134074D01*
Y131353D01*
X4862589Y129721D01*
X4863133Y128632D01*
X4864221Y127544D01*
X4865310Y127000D01*
X4867487D01*
X4868575Y127544D01*
X4869663Y128632D01*
X4870208Y129721D01*
Y131353D01*
X4867487D02*
X4870208D01*
X4881798Y138428D02*
Y127000D01*
Y138428D02*
X4889417Y127000D01*
Y138428D02*
Y127000D01*
X4895838Y138428D02*
X4894749Y137883D01*
X4893661Y136795D01*
X4893117Y135707D01*
X4892573Y134074D01*
Y131353D01*
X4893117Y129721D01*
X4893661Y128632D01*
X4894749Y127544D01*
X4895838Y127000D01*
X4898015D01*
X4899103Y127544D01*
X4900191Y128632D01*
X4900735Y129721D01*
X4901280Y131353D01*
Y134074D01*
X4900735Y135707D01*
X4900191Y136795D01*
X4899103Y137883D01*
X4898015Y138428D01*
X4895838D01*
X4904490Y134618D02*
X4903946Y134074D01*
X4904490Y133530D01*
X4905034Y134074D01*
X4904490Y134618D01*
Y128088D02*
X4903946Y127544D01*
X4904490Y127000D01*
X4905034Y127544D01*
X4904490Y128088D01*
X5372100Y214628D02*
Y203200D01*
Y214628D02*
X5376998D01*
X5378630Y214083D01*
X5379174Y213539D01*
X5379719Y212451D01*
Y211362D01*
X5379174Y210274D01*
X5378630Y209730D01*
X5376998Y209186D01*
X5372100D01*
X5375909D02*
X5379719Y203200D01*
X5389350Y214628D02*
X5382276D01*
Y203200D01*
X5389350D01*
X5382276Y209186D02*
X5386629D01*
X5391255Y214628D02*
X5395608Y203200D01*
X5399962Y214628D02*
X5395608Y203200D01*
X5401975Y210818D02*
X5401431Y210274D01*
X5401975Y209730D01*
X5402519Y210274D01*
X5401975Y210818D01*
Y204288D02*
X5401431Y203744D01*
X5401975Y203200D01*
X5402519Y203744D01*
X5401975Y204288D01*
X4457700Y214628D02*
Y203200D01*
Y214628D02*
X4461509D01*
X4463142Y214083D01*
X4464230Y212995D01*
X4464774Y211907D01*
X4465318Y210274D01*
Y207553D01*
X4464774Y205921D01*
X4464230Y204832D01*
X4463142Y203744D01*
X4461509Y203200D01*
X4457700D01*
X4476583D02*
X4472229Y214628D01*
X4467876Y203200D01*
X4469508Y207009D02*
X4474950D01*
X4483058Y214628D02*
Y203200D01*
X4479249Y214628D02*
X4486867D01*
X4495302D02*
X4488228D01*
Y203200D01*
X4495302D01*
X4488228Y209186D02*
X4492581D01*
X4497751Y210818D02*
X4497207Y210274D01*
X4497751Y209730D01*
X4498295Y210274D01*
X4497751Y210818D01*
Y204288D02*
X4497207Y203744D01*
X4497751Y203200D01*
X4498295Y203744D01*
X4497751Y204288D01*
D15*
X4860290Y394970D02*
Y405127D01*
X4865368Y410205D01*
X4870447Y405127D01*
Y394970D01*
Y402588D01*
X4860290D01*
X4875525Y410205D02*
Y394970D01*
X4885682D01*
X4890760Y410205D02*
Y394970D01*
X4900917D01*
X4921230Y410205D02*
Y394970D01*
X4928848D01*
X4931387Y397509D01*
Y407666D01*
X4928848Y410205D01*
X4921230D01*
X4936465D02*
X4941544D01*
X4939005D01*
Y394970D01*
X4936465D01*
X4941544D01*
X4949161D02*
Y410205D01*
X4954240Y405127D01*
X4959318Y410205D01*
Y394970D01*
X4974553Y410205D02*
X4964396D01*
Y394970D01*
X4974553D01*
X4964396Y402588D02*
X4969475D01*
X4979631Y394970D02*
Y410205D01*
X4989788Y394970D01*
Y410205D01*
X5005023Y407666D02*
X5002484Y410205D01*
X4997406D01*
X4994867Y407666D01*
Y405127D01*
X4997406Y402588D01*
X5002484D01*
X5005023Y400048D01*
Y397509D01*
X5002484Y394970D01*
X4997406D01*
X4994867Y397509D01*
X5010102Y410205D02*
X5015180D01*
X5012641D01*
Y394970D01*
X5010102D01*
X5015180D01*
X5030415Y410205D02*
X5025337D01*
X5022798Y407666D01*
Y397509D01*
X5025337Y394970D01*
X5030415D01*
X5032954Y397509D01*
Y407666D01*
X5030415Y410205D01*
X5038033Y394970D02*
Y410205D01*
X5048189Y394970D01*
Y410205D01*
X5063424Y407666D02*
X5060885Y410205D01*
X5055807D01*
X5053268Y407666D01*
Y405127D01*
X5055807Y402588D01*
X5060885D01*
X5063424Y400048D01*
Y397509D01*
X5060885Y394970D01*
X5055807D01*
X5053268Y397509D01*
X5083738Y394970D02*
Y405127D01*
X5088816Y410205D01*
X5093894Y405127D01*
Y394970D01*
Y402588D01*
X5083738D01*
X5098973Y394970D02*
Y410205D01*
X5106590D01*
X5109130Y407666D01*
Y402588D01*
X5106590Y400048D01*
X5098973D01*
X5104051D02*
X5109130Y394970D01*
X5124365Y410205D02*
X5114208D01*
Y394970D01*
X5124365D01*
X5114208Y402588D02*
X5119286D01*
X5144678Y410205D02*
X5149756D01*
X5147217D01*
Y394970D01*
X5144678D01*
X5149756D01*
X5157374D02*
Y410205D01*
X5167531Y394970D01*
Y410205D01*
X5187844D02*
X5198001D01*
X5192922D01*
Y394970D01*
X5203079Y410205D02*
Y394970D01*
Y402588D01*
X5213236D01*
Y410205D01*
Y394970D01*
X5225931Y410205D02*
X5220853D01*
X5218314Y407666D01*
Y397509D01*
X5220853Y394970D01*
X5225931D01*
X5228471Y397509D01*
Y407666D01*
X5225931Y410205D01*
X5233549D02*
Y397509D01*
X5236088Y394970D01*
X5241167D01*
X5243706Y397509D01*
Y410205D01*
X5258941Y407666D02*
X5256402Y410205D01*
X5251323D01*
X5248784Y407666D01*
Y405127D01*
X5251323Y402588D01*
X5256402D01*
X5258941Y400048D01*
Y397509D01*
X5256402Y394970D01*
X5251323D01*
X5248784Y397509D01*
X5264019Y394970D02*
Y405127D01*
X5269098Y410205D01*
X5274176Y405127D01*
Y394970D01*
Y402588D01*
X5264019D01*
X5279255Y394970D02*
Y410205D01*
X5289411Y394970D01*
Y410205D01*
X5294490D02*
Y394970D01*
X5302107D01*
X5304646Y397509D01*
Y407666D01*
X5302107Y410205D01*
X5294490D01*
X5319882Y407666D02*
X5317342Y410205D01*
X5312264D01*
X5309725Y407666D01*
Y405127D01*
X5312264Y402588D01*
X5317342D01*
X5319882Y400048D01*
Y397509D01*
X5317342Y394970D01*
X5312264D01*
X5309725Y397509D01*
X5347812Y410205D02*
X5342734D01*
X5340195Y407666D01*
Y397509D01*
X5342734Y394970D01*
X5347812D01*
X5350352Y397509D01*
Y407666D01*
X5347812Y410205D01*
X5365587D02*
X5355430D01*
Y402588D01*
X5360508D01*
X5355430D01*
Y394970D01*
X5385900Y410205D02*
X5390978D01*
X5388439D01*
Y394970D01*
X5385900D01*
X5390978D01*
X5398596D02*
Y410205D01*
X5408752Y394970D01*
Y410205D01*
X5423987Y407666D02*
X5421448Y410205D01*
X5416370D01*
X5413831Y407666D01*
Y397509D01*
X5416370Y394970D01*
X5421448D01*
X5423987Y397509D01*
X5429066Y410205D02*
Y394970D01*
Y402588D01*
X5439222D01*
Y410205D01*
Y394970D01*
X5454458Y410205D02*
X5444301D01*
Y394970D01*
X5454458D01*
X5444301Y402588D02*
X5449379D01*
X5469693Y407666D02*
X5467154Y410205D01*
X5462075D01*
X5459536Y407666D01*
Y405127D01*
X5462075Y402588D01*
X5467154D01*
X5469693Y400048D01*
Y397509D01*
X5467154Y394970D01*
X5462075D01*
X5459536Y397509D01*
X5495085Y394970D02*
X5490006Y400048D01*
Y405127D01*
X5495085Y410205D01*
X5502702Y394970D02*
Y410205D01*
X5507781Y405127D01*
X5512859Y410205D01*
Y394970D01*
X5517937Y410205D02*
X5523016D01*
X5520477D01*
Y394970D01*
X5517937D01*
X5523016D01*
X5530633Y410205D02*
Y394970D01*
X5540790D01*
X5556025Y407666D02*
X5553486Y410205D01*
X5548408D01*
X5545868Y407666D01*
Y405127D01*
X5548408Y402588D01*
X5553486D01*
X5556025Y400048D01*
Y397509D01*
X5553486Y394970D01*
X5548408D01*
X5545868Y397509D01*
X5561104Y394970D02*
X5566182Y400048D01*
Y405127D01*
X5561104Y410205D01*
X4456430Y336550D02*
Y351785D01*
X4464048D01*
X4466587Y349246D01*
Y344168D01*
X4464048Y341628D01*
X4456430D01*
X4471665Y336550D02*
Y346707D01*
X4476743Y351785D01*
X4481822Y346707D01*
Y336550D01*
Y344168D01*
X4471665D01*
X4497057Y349246D02*
X4494518Y351785D01*
X4489439D01*
X4486900Y349246D01*
Y346707D01*
X4489439Y344168D01*
X4494518D01*
X4497057Y341628D01*
Y339089D01*
X4494518Y336550D01*
X4489439D01*
X4486900Y339089D01*
X4512292Y349246D02*
X4509753Y351785D01*
X4504674D01*
X4502135Y349246D01*
Y339089D01*
X4504674Y336550D01*
X4509753D01*
X4512292Y339089D01*
X4517370Y336550D02*
Y346707D01*
X4522449Y351785D01*
X4527527Y346707D01*
Y336550D01*
Y344168D01*
X4517370D01*
X4532605Y351785D02*
Y336550D01*
X4542762D01*
X4547840Y344168D02*
X4557997D01*
X4573232Y351785D02*
X4563076D01*
Y336550D01*
X4573232D01*
X4563076Y344168D02*
X4568154D01*
X4578311Y336550D02*
Y351785D01*
X4583389Y346707D01*
X4588467Y351785D01*
Y336550D01*
X4593546D02*
Y351785D01*
X4598624Y346707D01*
X4603702Y351785D01*
Y336550D01*
X4608781D02*
Y346707D01*
X4613859Y351785D01*
X4618937Y346707D01*
Y336550D01*
Y344168D01*
X4608781D01*
X4624016Y336550D02*
Y351785D01*
X4634172Y336550D01*
Y351785D01*
X4639251D02*
Y339089D01*
X4641790Y336550D01*
X4646868D01*
X4649408Y339089D01*
Y351785D01*
X4664643D02*
X4654486D01*
Y336550D01*
X4664643D01*
X4654486Y344168D02*
X4659564D01*
X4669721Y351785D02*
Y336550D01*
X4679878D01*
X4700191Y351785D02*
Y336550D01*
X4710348D01*
X4715426D02*
Y346707D01*
X4720504Y351785D01*
X4725583Y346707D01*
Y336550D01*
Y344168D01*
X4715426D01*
X4740818Y349246D02*
X4738279Y351785D01*
X4733200D01*
X4730661Y349246D01*
Y339089D01*
X4733200Y336550D01*
X4738279D01*
X4740818Y339089D01*
X4745896Y351785D02*
Y336550D01*
Y344168D01*
X4756053D01*
Y351785D01*
Y336550D01*
X4761131D02*
Y346707D01*
X4766210Y351785D01*
X4771288Y346707D01*
Y336550D01*
Y344168D01*
X4761131D01*
X4776367Y336550D02*
Y351785D01*
X4786523Y336550D01*
Y351785D01*
X4801758Y349246D02*
X4799219Y351785D01*
X4794141D01*
X4791602Y349246D01*
Y339089D01*
X4794141Y336550D01*
X4799219D01*
X4801758Y339089D01*
X4816993Y351785D02*
X4806837D01*
Y336550D01*
X4816993D01*
X4806837Y344168D02*
X4811915D01*
X5440680Y177799D02*
X5445758D01*
X5443219D01*
Y193034D01*
X5440680Y190495D01*
X5453376Y175260D02*
X5463533D01*
X5468611Y177799D02*
Y187956D01*
X5473690Y193034D01*
X5478768Y187956D01*
Y177799D01*
Y185417D01*
X5468611D01*
D18*
X4483097Y110064D02*
X4482251Y111757D01*
X4480558Y113450D01*
X4478865Y114296D01*
X4475479D01*
X4473786Y113450D01*
X4472093Y111757D01*
X4471247Y110064D01*
X4470400Y107524D01*
Y103292D01*
X4471247Y100752D01*
X4472093Y99059D01*
X4473786Y97367D01*
X4475479Y96520D01*
X4478865D01*
X4480558Y97367D01*
X4482251Y99059D01*
X4483097Y100752D01*
X4488091Y108371D02*
Y96520D01*
Y103292D02*
X4488938Y105831D01*
X4490631Y107524D01*
X4492324Y108371D01*
X4494863D01*
X4497318D02*
X4502397Y96520D01*
X4507476Y108371D02*
X4502397Y96520D01*
X4500704Y93134D01*
X4499011Y91441D01*
X4497318Y90595D01*
X4496472D01*
X4510439Y108371D02*
Y90595D01*
Y105831D02*
X4512132Y107524D01*
X4513825Y108371D01*
X4516364D01*
X4518057Y107524D01*
X4519750Y105831D01*
X4520597Y103292D01*
Y101599D01*
X4519750Y99059D01*
X4518057Y97367D01*
X4516364Y96520D01*
X4513825D01*
X4512132Y97367D01*
X4510439Y99059D01*
X4526945Y114296D02*
Y99906D01*
X4527792Y97367D01*
X4529485Y96520D01*
X4531178D01*
X4524406Y108371D02*
X4530331D01*
X4533717Y114296D02*
Y101599D01*
X4534564Y99059D01*
X4536256Y97367D01*
X4538796Y96520D01*
X4540489D01*
X4543028Y97367D01*
X4544721Y99059D01*
X4545568Y101599D01*
Y114296D01*
X4562328Y111757D02*
X4560635Y113450D01*
X4558096Y114296D01*
X4554710D01*
X4552170Y113450D01*
X4550478Y111757D01*
Y110064D01*
X4551324Y108371D01*
X4552170Y107524D01*
X4553864Y106678D01*
X4558942Y104985D01*
X4560635Y104138D01*
X4561482Y103292D01*
X4562328Y101599D01*
Y99059D01*
X4560635Y97367D01*
X4558096Y96520D01*
X4554710D01*
X4552170Y97367D01*
X4550478Y99059D01*
X4566307Y90595D02*
X4579850D01*
X4582136Y114296D02*
Y96520D01*
Y114296D02*
X4589754D01*
X4592294Y113450D01*
X4593140Y112603D01*
X4593987Y110910D01*
Y109217D01*
X4593140Y107524D01*
X4592294Y106678D01*
X4589754Y105831D01*
X4582136D01*
X4588062D02*
X4593987Y96520D01*
X4597965Y103292D02*
X4608123D01*
Y104985D01*
X4607277Y106678D01*
X4606430Y107524D01*
X4604737Y108371D01*
X4602198D01*
X4600505Y107524D01*
X4598812Y105831D01*
X4597965Y103292D01*
Y101599D01*
X4598812Y99059D01*
X4600505Y97367D01*
X4602198Y96520D01*
X4604737D01*
X4606430Y97367D01*
X4608123Y99059D01*
X4611932Y108371D02*
X4617011Y96520D01*
X4622090Y108371D02*
X4617011Y96520D01*
X4624968Y114296D02*
Y96520D01*
Y114296D02*
X4632587D01*
X4635126Y113450D01*
X4635973Y112603D01*
X4636819Y110910D01*
Y109217D01*
X4635973Y107524D01*
X4635126Y106678D01*
X4632587Y105831D01*
X4624968D02*
X4632587D01*
X4635126Y104985D01*
X4635973Y104138D01*
X4636819Y102445D01*
Y99906D01*
X4635973Y98213D01*
X4635126Y97367D01*
X4632587Y96520D01*
X4624968D01*
X4640797Y90595D02*
X4654341D01*
X4656627Y104985D02*
X4664245D01*
X4666785Y105831D01*
X4667631Y106678D01*
X4668477Y108371D01*
Y110910D01*
X4667631Y112603D01*
X4666785Y113450D01*
X4664245Y114296D01*
X4656627D01*
Y96520D01*
X4685153Y110064D02*
X4684307Y111757D01*
X4682614Y113450D01*
X4680921Y114296D01*
X4677535D01*
X4675842Y113450D01*
X4674149Y111757D01*
X4673303Y110064D01*
X4672456Y107524D01*
Y103292D01*
X4673303Y100752D01*
X4674149Y99059D01*
X4675842Y97367D01*
X4677535Y96520D01*
X4680921D01*
X4682614Y97367D01*
X4684307Y99059D01*
X4685153Y100752D01*
X4690148Y114296D02*
Y96520D01*
Y114296D02*
X4697766D01*
X4700305Y113450D01*
X4701152Y112603D01*
X4701998Y110910D01*
Y109217D01*
X4701152Y107524D01*
X4700305Y106678D01*
X4697766Y105831D01*
X4690148D02*
X4697766D01*
X4700305Y104985D01*
X4701152Y104138D01*
X4701998Y102445D01*
Y99906D01*
X4701152Y98213D01*
X4700305Y97367D01*
X4697766Y96520D01*
X4690148D01*
X4706823Y98213D02*
X4705977Y97367D01*
X4706823Y96520D01*
X4707670Y97367D01*
X4706823Y98213D01*
X4711564Y104985D02*
X4719182D01*
X4721721Y105831D01*
X4722568Y106678D01*
X4723415Y108371D01*
Y110910D01*
X4722568Y112603D01*
X4721721Y113450D01*
X4719182Y114296D01*
X4711564D01*
Y96520D01*
X4737551Y105831D02*
X4735858Y107524D01*
X4734165Y108371D01*
X4731625D01*
X4729932Y107524D01*
X4728239Y105831D01*
X4727393Y103292D01*
Y101599D01*
X4728239Y99059D01*
X4729932Y97367D01*
X4731625Y96520D01*
X4734165D01*
X4735858Y97367D01*
X4737551Y99059D01*
X4741360Y114296D02*
Y96520D01*
Y105831D02*
X4743053Y107524D01*
X4744746Y108371D01*
X4747285D01*
X4748978Y107524D01*
X4750671Y105831D01*
X4751518Y103292D01*
Y101599D01*
X4750671Y99059D01*
X4748978Y97367D01*
X4747285Y96520D01*
X4744746D01*
X4743053Y97367D01*
X4741360Y99059D01*
X4755327Y114296D02*
Y96520D01*
Y114296D02*
X4761252D01*
X4763792Y113450D01*
X4765485Y111757D01*
X4766331Y110064D01*
X4767178Y107524D01*
Y103292D01*
X4766331Y100752D01*
X4765485Y99059D01*
X4763792Y97367D01*
X4761252Y96520D01*
X4755327D01*
X4775388Y108371D02*
X4773696Y107524D01*
X4772003Y105831D01*
X4771156Y103292D01*
Y101599D01*
X4772003Y99059D01*
X4773696Y97367D01*
X4775388Y96520D01*
X4777928D01*
X4779621Y97367D01*
X4781314Y99059D01*
X4782161Y101599D01*
Y103292D01*
X4781314Y105831D01*
X4779621Y107524D01*
X4777928Y108371D01*
X4775388D01*
X4796212Y105831D02*
X4794519Y107524D01*
X4792826Y108371D01*
X4790287D01*
X4788594Y107524D01*
X4786901Y105831D01*
X4786054Y103292D01*
Y101599D01*
X4786901Y99059D01*
X4788594Y97367D01*
X4790287Y96520D01*
X4792826D01*
X4794519Y97367D01*
X4796212Y99059D01*
X4471247Y186264D02*
Y187110D01*
X4472093Y188803D01*
X4472939Y189650D01*
X4474632Y190496D01*
X4478018D01*
X4479711Y189650D01*
X4480558Y188803D01*
X4481404Y187110D01*
Y185417D01*
X4480558Y183724D01*
X4478865Y181185D01*
X4470400Y172720D01*
X4482251D01*
X4491308Y190496D02*
X4488769Y189650D01*
X4487076Y187110D01*
X4486229Y182878D01*
Y180338D01*
X4487076Y176106D01*
X4488769Y173566D01*
X4491308Y172720D01*
X4493001D01*
X4495540Y173566D01*
X4497234Y176106D01*
X4498080Y180338D01*
Y182878D01*
X4497234Y187110D01*
X4495540Y189650D01*
X4493001Y190496D01*
X4491308D01*
X4502905Y186264D02*
Y187110D01*
X4503752Y188803D01*
X4504598Y189650D01*
X4506291Y190496D01*
X4509677D01*
X4511370Y189650D01*
X4512216Y188803D01*
X4513063Y187110D01*
Y185417D01*
X4512216Y183724D01*
X4510523Y181185D01*
X4502059Y172720D01*
X4513909D01*
X4528046Y190496D02*
X4519581D01*
X4518734Y182878D01*
X4519581Y183724D01*
X4522120Y184571D01*
X4524660D01*
X4527199Y183724D01*
X4528892Y182031D01*
X4529738Y179492D01*
Y177799D01*
X4528892Y175259D01*
X4527199Y173566D01*
X4524660Y172720D01*
X4522120D01*
X4519581Y173566D01*
X4518734Y174413D01*
X4517888Y176106D01*
X4533717Y180338D02*
X4548954D01*
X4559281Y190496D02*
X4556742Y189650D01*
X4555049Y187110D01*
X4554202Y182878D01*
Y180338D01*
X4555049Y176106D01*
X4556742Y173566D01*
X4559281Y172720D01*
X4560974D01*
X4563513Y173566D01*
X4565206Y176106D01*
X4566053Y180338D01*
Y182878D01*
X4565206Y187110D01*
X4563513Y189650D01*
X4560974Y190496D01*
X4559281D01*
X4580189D02*
X4571724D01*
X4570878Y182878D01*
X4571724Y183724D01*
X4574264Y184571D01*
X4576803D01*
X4579343Y183724D01*
X4581035Y182031D01*
X4581882Y179492D01*
Y177799D01*
X4581035Y175259D01*
X4579343Y173566D01*
X4576803Y172720D01*
X4574264D01*
X4571724Y173566D01*
X4570878Y174413D01*
X4570031Y176106D01*
X4585861Y180338D02*
X4601097D01*
X4606346Y187110D02*
X4608039Y187957D01*
X4610578Y190496D01*
Y172720D01*
X4620228Y186264D02*
Y187110D01*
X4621075Y188803D01*
X4621921Y189650D01*
X4623614Y190496D01*
X4627000D01*
X4628693Y189650D01*
X4629539Y188803D01*
X4630386Y187110D01*
Y185417D01*
X4629539Y183724D01*
X4627846Y181185D01*
X4619381Y172720D01*
X4631232D01*
D173*
X0Y0D02*
Y3987800D01*
Y0D02*
X5664200D01*
Y3987800D01*
X0D02*
X5664200D01*
X76200Y76200D02*
Y3911600D01*
Y76200D02*
X5588000D01*
Y3911600D01*
X76200D02*
X5588000D01*
X708660D02*
Y3987800D01*
X1414780Y3911600D02*
Y3987800D01*
X2123440Y3911600D02*
Y3987800D01*
X2832100Y3911600D02*
Y3987800D01*
X3539490Y3911600D02*
Y3987800D01*
X4248150Y3911600D02*
Y3987800D01*
X4955540Y3911600D02*
Y3987800D01*
X0Y2990850D02*
X76200D01*
X0Y1993900D02*
X76200D01*
X0Y996950D02*
X76200D01*
X708660Y0D02*
Y76200D01*
X1414780Y0D02*
Y76200D01*
X2123440Y0D02*
Y76200D01*
X2832100Y0D02*
Y76200D01*
X3539490Y0D02*
Y76200D01*
X4248150Y0D02*
Y76200D01*
X4955540Y0D02*
Y76200D01*
X5588000Y2990850D02*
X5664200D01*
X5588000Y1993900D02*
X5664200D01*
X5588000Y996950D02*
X5664200D01*
X4826000Y76200D02*
Y228600D01*
X5359400Y76200D02*
Y228600D01*
X4445000Y76200D02*
Y381000D01*
X5588000Y76200D02*
Y381000D01*
X4826000D02*
X5588000D01*
X4826000Y228600D02*
Y381000D01*
X4445000D02*
X4826000D01*
X4445000Y228600D02*
X5588000D01*
X4445000Y152400D02*
X5588000D01*
X4445000Y76200D02*
X5588000D01*
X4445000Y304800D02*
X4826000D01*
X4089400Y381000D02*
X4445000D01*
X4089400Y76200D02*
Y381000D01*
Y76200D02*
X4445000D01*
D174*
X349590Y3961367D02*
X352008Y3962577D01*
X355636Y3966205D01*
Y3940810D01*
X1057087Y3960158D02*
Y3961367D01*
X1058297Y3963786D01*
X1059506Y3964995D01*
X1061924Y3966205D01*
X1066761D01*
X1069180Y3964995D01*
X1070389Y3963786D01*
X1071598Y3961367D01*
Y3958949D01*
X1070389Y3956530D01*
X1067971Y3952903D01*
X1055878Y3940810D01*
X1072808D01*
X1764250Y3966205D02*
X1777552D01*
X1770296Y3956530D01*
X1773924D01*
X1776342Y3955321D01*
X1777552Y3954112D01*
X1778761Y3950484D01*
Y3948065D01*
X1777552Y3944438D01*
X1775133Y3942019D01*
X1771505Y3940810D01*
X1767878D01*
X1764250Y3942019D01*
X1763040Y3943228D01*
X1761831Y3945647D01*
X2484277Y3966205D02*
X2472185Y3949275D01*
X2490324D01*
X2484277Y3966205D02*
Y3940810D01*
X3196080Y3966202D02*
X3179153D01*
Y3953506D01*
X3187616Y3957738D01*
X3191848D01*
X3196080Y3953506D01*
Y3945042D01*
X3191848Y3940810D01*
X3183384D01*
X3179153Y3945042D01*
X3904906Y3966202D02*
X3896442Y3961970D01*
X3887978Y3953506D01*
Y3945042D01*
X3892210Y3940810D01*
X3900674D01*
X3904906Y3945042D01*
Y3949274D01*
X3900674Y3953506D01*
X3887978D01*
X4599178Y3966202D02*
X4616106D01*
Y3961970D01*
X4599178Y3945042D01*
Y3940810D01*
X5305298Y3961970D02*
X5309530Y3966202D01*
X5317994D01*
X5322226Y3961970D01*
Y3957738D01*
X5317994Y3953506D01*
X5322226Y3949274D01*
Y3945042D01*
X5317994Y3940810D01*
X5309530D01*
X5305298Y3945042D01*
Y3949274D01*
X5309530Y3953506D01*
X5305298Y3957738D01*
Y3961970D01*
X5309530Y3953506D02*
X5317994D01*
X51098Y3468878D02*
X41424Y3494272D01*
X31750Y3468878D01*
X35378Y3477343D02*
X47470D01*
X31750Y2496053D02*
Y2470658D01*
Y2496053D02*
X42633D01*
X46261Y2494843D01*
X47470Y2493634D01*
X48680Y2491216D01*
Y2488797D01*
X47470Y2486378D01*
X46261Y2485169D01*
X42633Y2483960D01*
X31750D02*
X42633D01*
X46261Y2482751D01*
X47470Y2481541D01*
X48680Y2479123D01*
Y2475495D01*
X47470Y2473076D01*
X46261Y2471867D01*
X42633Y2470658D01*
X31750D01*
X49889Y1494326D02*
X48680Y1496745D01*
X46261Y1499163D01*
X43843Y1500373D01*
X39006D01*
X36587Y1499163D01*
X34169Y1496745D01*
X32959Y1494326D01*
X31750Y1490698D01*
Y1484652D01*
X32959Y1481024D01*
X34169Y1478606D01*
X36587Y1476187D01*
X39006Y1474978D01*
X43843D01*
X46261Y1476187D01*
X48680Y1478606D01*
X49889Y1481024D01*
X31750Y502153D02*
Y476758D01*
Y502153D02*
X40215D01*
X43843Y500943D01*
X46261Y498525D01*
X47470Y496106D01*
X48680Y492478D01*
Y486432D01*
X47470Y482804D01*
X46261Y480386D01*
X43843Y477967D01*
X40215Y476758D01*
X31750D01*
X349590Y52308D02*
X352008Y53517D01*
X355636Y57145D01*
Y31750D01*
X1057087Y51098D02*
Y52308D01*
X1058297Y54726D01*
X1059506Y55935D01*
X1061924Y57145D01*
X1066761D01*
X1069180Y55935D01*
X1070389Y54726D01*
X1071598Y52308D01*
Y49889D01*
X1070389Y47470D01*
X1067971Y43843D01*
X1055878Y31750D01*
X1072808D01*
X1764250Y57145D02*
X1777552D01*
X1770296Y47470D01*
X1773924D01*
X1776342Y46261D01*
X1777552Y45052D01*
X1778761Y41424D01*
Y39006D01*
X1777552Y35378D01*
X1775133Y32959D01*
X1771505Y31750D01*
X1767878D01*
X1764250Y32959D01*
X1763040Y34169D01*
X1761831Y36587D01*
X2484277Y57145D02*
X2472185Y40215D01*
X2490324D01*
X2484277Y57145D02*
Y31750D01*
X3196080Y57142D02*
X3179153D01*
Y44446D01*
X3187616Y48678D01*
X3191848D01*
X3196080Y44446D01*
Y35982D01*
X3191848Y31750D01*
X3183384D01*
X3179153Y35982D01*
X3904906Y57142D02*
X3896442Y52910D01*
X3887978Y44446D01*
Y35982D01*
X3892210Y31750D01*
X3900674D01*
X3904906Y35982D01*
Y40214D01*
X3900674Y44446D01*
X3887978D01*
X4599178Y57142D02*
X4616106D01*
Y52910D01*
X4599178Y35982D01*
Y31750D01*
X5305298Y52910D02*
X5309530Y57142D01*
X5317994D01*
X5322226Y52910D01*
Y48678D01*
X5317994Y44446D01*
X5322226Y40214D01*
Y35982D01*
X5317994Y31750D01*
X5309530D01*
X5305298Y35982D01*
Y40214D01*
X5309530Y44446D01*
X5305298Y48678D01*
Y52910D01*
X5309530Y44446D02*
X5317994D01*
X5639098Y3468878D02*
X5629424Y3494272D01*
X5619750Y3468878D01*
X5623378Y3477343D02*
X5635471D01*
X5619750Y2496053D02*
Y2470658D01*
Y2496053D02*
X5630634D01*
X5634261Y2494843D01*
X5635471Y2493634D01*
X5636680Y2491216D01*
Y2488797D01*
X5635471Y2486378D01*
X5634261Y2485169D01*
X5630634Y2483960D01*
X5619750D02*
X5630634D01*
X5634261Y2482751D01*
X5635471Y2481541D01*
X5636680Y2479123D01*
Y2475495D01*
X5635471Y2473076D01*
X5634261Y2471867D01*
X5630634Y2470658D01*
X5619750D01*
X5637889Y1494326D02*
X5636680Y1496745D01*
X5634261Y1499163D01*
X5631843Y1500373D01*
X5627006D01*
X5624587Y1499163D01*
X5622169Y1496745D01*
X5620959Y1494326D01*
X5619750Y1490698D01*
Y1484652D01*
X5620959Y1481024D01*
X5622169Y1478606D01*
X5624587Y1476187D01*
X5627006Y1474978D01*
X5631843D01*
X5634261Y1476187D01*
X5636680Y1478606D01*
X5637889Y1481024D01*
X5619750Y502153D02*
Y476758D01*
Y502153D02*
X5628215D01*
X5631843Y500943D01*
X5634261Y498525D01*
X5635471Y496106D01*
X5636680Y492478D01*
Y486432D01*
X5635471Y482804D01*
X5634261Y480386D01*
X5631843Y477967D01*
X5628215Y476758D01*
X5619750D01*
D223*
X4950452Y353543D02*
X4944104Y359891D01*
X4931408D01*
X4925060Y353543D01*
Y328151D01*
X4931408Y321803D01*
X4944104D01*
X4950452Y328151D01*
X4963148Y321803D02*
Y359891D01*
X4982191D01*
X4988539Y353543D01*
Y340847D01*
X4982191Y334499D01*
X4963148D01*
X4975844D02*
X4988539Y321803D01*
X5001235Y359891D02*
Y353543D01*
X5013931Y340847D01*
X5026627Y353543D01*
Y359891D01*
X5013931Y340847D02*
Y321803D01*
X5039323D02*
Y359891D01*
X5058367D01*
X5064715Y353543D01*
Y340847D01*
X5058367Y334499D01*
X5039323D01*
X5077411Y359891D02*
X5102802D01*
X5090107D01*
Y321803D01*
X5115498Y359891D02*
Y328151D01*
X5121846Y321803D01*
X5134542D01*
X5140891Y328151D01*
Y359891D01*
X5178978Y353543D02*
X5172630Y359891D01*
X5159934D01*
X5153586Y353543D01*
Y347195D01*
X5159934Y340847D01*
X5172630D01*
X5178978Y334499D01*
Y328151D01*
X5172630Y321803D01*
X5159934D01*
X5153586Y328151D01*
X4925060Y295898D02*
Y257810D01*
X4944104D01*
X4950452Y264158D01*
Y289550D01*
X4944104Y295898D01*
X4925060D01*
X4963148Y257810D02*
Y283202D01*
X4975844Y295898D01*
X4988539Y283202D01*
Y257810D01*
Y276854D01*
X4963148D01*
X5001235Y295898D02*
Y264158D01*
X5007583Y257810D01*
X5020279D01*
X5026627Y264158D01*
Y295898D01*
X5064715Y289550D02*
X5058367Y295898D01*
X5045671D01*
X5039323Y289550D01*
Y264158D01*
X5045671Y257810D01*
X5058367D01*
X5064715Y264158D01*
Y276854D01*
X5052019D01*
X5077411Y295898D02*
Y257810D01*
Y276854D01*
X5102802D01*
Y295898D01*
Y257810D01*
X5115498Y295898D02*
X5140891D01*
X5128195D01*
Y257810D01*
X5178978Y295898D02*
X5153586D01*
Y257810D01*
X5178978D01*
X5153586Y276854D02*
X5166282D01*
X5191674Y257810D02*
Y295898D01*
X5210718D01*
X5217065Y289550D01*
Y276854D01*
X5210718Y270506D01*
X5191674D01*
X5204370D02*
X5217065Y257810D01*
X5229761Y295898D02*
Y257810D01*
X5248806D01*
X5255153Y264158D01*
Y270506D01*
X5248806Y276854D01*
X5229761D01*
X5248806D01*
X5255153Y283202D01*
Y289550D01*
X5248806Y295898D01*
X5229761D01*
X5286893D02*
X5274197D01*
X5267849Y289550D01*
Y264158D01*
X5274197Y257810D01*
X5286893D01*
X5293241Y264158D01*
Y289550D01*
X5286893Y295898D01*
X5305937Y257810D02*
Y283202D01*
X5318633Y295898D01*
X5331329Y283202D01*
Y257810D01*
Y276854D01*
X5305937D01*
X5344025Y257810D02*
Y295898D01*
X5363068D01*
X5369417Y289550D01*
Y276854D01*
X5363068Y270506D01*
X5344025D01*
X5356721D02*
X5369417Y257810D01*
X5382112Y295898D02*
Y257810D01*
X5401156D01*
X5407504Y264158D01*
Y289550D01*
X5401156Y295898D01*
X5382112D01*
M02*
