G04*
G04 #@! TF.GenerationSoftware,Altium Limited,Altium Designer,24.10.1 (45)*
G04*
G04 Layer_Color=8388736*
%FSLAX44Y44*%
%MOMM*%
G71*
G04*
G04 #@! TF.SameCoordinates,24BC4850-7E81-497A-B660-34607D59122C*
G04*
G04*
G04 #@! TF.FilePolarity,Negative*
G04*
G01*
G75*
%ADD11C,0.5080*%
%ADD63R,0.9032X0.5532*%
G04:AMPARAMS|DCode=64|XSize=2.2352mm|YSize=1.0922mm|CornerRadius=0.2483mm|HoleSize=0mm|Usage=FLASHONLY|Rotation=270.000|XOffset=0mm|YOffset=0mm|HoleType=Round|Shape=RoundedRectangle|*
%AMROUNDEDRECTD64*
21,1,2.2352,0.5956,0,0,270.0*
21,1,1.7386,1.0922,0,0,270.0*
1,1,0.4966,-0.2978,-0.8693*
1,1,0.4966,-0.2978,0.8693*
1,1,0.4966,0.2978,0.8693*
1,1,0.4966,0.2978,-0.8693*
%
%ADD64ROUNDEDRECTD64*%
G04:AMPARAMS|DCode=65|XSize=2.2352mm|YSize=1.0922mm|CornerRadius=0.1461mm|HoleSize=0mm|Usage=FLASHONLY|Rotation=270.000|XOffset=0mm|YOffset=0mm|HoleType=Round|Shape=RoundedRectangle|*
%AMROUNDEDRECTD65*
21,1,2.2352,0.8001,0,0,270.0*
21,1,1.9431,1.0922,0,0,270.0*
1,1,0.2921,-0.4001,-0.9716*
1,1,0.2921,-0.4001,0.9716*
1,1,0.2921,0.4001,0.9716*
1,1,0.2921,0.4001,-0.9716*
%
%ADD65ROUNDEDRECTD65*%
G04:AMPARAMS|DCode=66|XSize=0.608mm|YSize=0.608mm|CornerRadius=0.2024mm|HoleSize=0mm|Usage=FLASHONLY|Rotation=90.000|XOffset=0mm|YOffset=0mm|HoleType=Round|Shape=RoundedRectangle|*
%AMROUNDEDRECTD66*
21,1,0.6080,0.2032,0,0,90.0*
21,1,0.2032,0.6080,0,0,90.0*
1,1,0.4048,0.1016,0.1016*
1,1,0.4048,0.1016,-0.1016*
1,1,0.4048,-0.1016,-0.1016*
1,1,0.4048,-0.1016,0.1016*
%
%ADD66ROUNDEDRECTD66*%
G04:AMPARAMS|DCode=67|XSize=0.608mm|YSize=0.608mm|CornerRadius=0.177mm|HoleSize=0mm|Usage=FLASHONLY|Rotation=90.000|XOffset=0mm|YOffset=0mm|HoleType=Round|Shape=RoundedRectangle|*
%AMROUNDEDRECTD67*
21,1,0.6080,0.2540,0,0,90.0*
21,1,0.2540,0.6080,0,0,90.0*
1,1,0.3540,0.1270,0.1270*
1,1,0.3540,0.1270,-0.1270*
1,1,0.3540,-0.1270,-0.1270*
1,1,0.3540,-0.1270,0.1270*
%
%ADD67ROUNDEDRECTD67*%
G04:AMPARAMS|DCode=68|XSize=1.4732mm|YSize=1.2192mm|CornerRadius=0.2286mm|HoleSize=0mm|Usage=FLASHONLY|Rotation=180.000|XOffset=0mm|YOffset=0mm|HoleType=Round|Shape=RoundedRectangle|*
%AMROUNDEDRECTD68*
21,1,1.4732,0.7620,0,0,180.0*
21,1,1.0160,1.2192,0,0,180.0*
1,1,0.4572,-0.5080,0.3810*
1,1,0.4572,0.5080,0.3810*
1,1,0.4572,0.5080,-0.3810*
1,1,0.4572,-0.5080,-0.3810*
%
%ADD68ROUNDEDRECTD68*%
G04:AMPARAMS|DCode=69|XSize=1.8288mm|YSize=1.3208mm|CornerRadius=0.2413mm|HoleSize=0mm|Usage=FLASHONLY|Rotation=0.000|XOffset=0mm|YOffset=0mm|HoleType=Round|Shape=RoundedRectangle|*
%AMROUNDEDRECTD69*
21,1,1.8288,0.8382,0,0,0.0*
21,1,1.3462,1.3208,0,0,0.0*
1,1,0.4826,0.6731,-0.4191*
1,1,0.4826,-0.6731,-0.4191*
1,1,0.4826,-0.6731,0.4191*
1,1,0.4826,0.6731,0.4191*
%
%ADD69ROUNDEDRECTD69*%
G04:AMPARAMS|DCode=70|XSize=1.1532mm|YSize=1.1532mm|CornerRadius=0.2774mm|HoleSize=0mm|Usage=FLASHONLY|Rotation=180.000|XOffset=0mm|YOffset=0mm|HoleType=Round|Shape=RoundedRectangle|*
%AMROUNDEDRECTD70*
21,1,1.1532,0.5985,0,0,180.0*
21,1,0.5985,1.1532,0,0,180.0*
1,1,0.5547,-0.2993,0.2993*
1,1,0.5547,0.2993,0.2993*
1,1,0.5547,0.2993,-0.2993*
1,1,0.5547,-0.2993,-0.2993*
%
%ADD70ROUNDEDRECTD70*%
%ADD71C,3.0480*%
G04:AMPARAMS|DCode=72|XSize=0.4532mm|YSize=0.6532mm|CornerRadius=0.1329mm|HoleSize=0mm|Usage=FLASHONLY|Rotation=270.000|XOffset=0mm|YOffset=0mm|HoleType=Round|Shape=RoundedRectangle|*
%AMROUNDEDRECTD72*
21,1,0.4532,0.3875,0,0,270.0*
21,1,0.1875,0.6532,0,0,270.0*
1,1,0.2657,-0.1938,-0.0938*
1,1,0.2657,-0.1938,0.0938*
1,1,0.2657,0.1938,0.0938*
1,1,0.2657,0.1938,-0.0938*
%
%ADD72ROUNDEDRECTD72*%
G04:AMPARAMS|DCode=73|XSize=0.6532mm|YSize=0.4532mm|CornerRadius=0.1329mm|HoleSize=0mm|Usage=FLASHONLY|Rotation=270.000|XOffset=0mm|YOffset=0mm|HoleType=Round|Shape=RoundedRectangle|*
%AMROUNDEDRECTD73*
21,1,0.6532,0.1875,0,0,270.0*
21,1,0.3875,0.4532,0,0,270.0*
1,1,0.2657,-0.0938,-0.1938*
1,1,0.2657,-0.0938,0.1938*
1,1,0.2657,0.0938,0.1938*
1,1,0.2657,0.0938,-0.1938*
%
%ADD73ROUNDEDRECTD73*%
G04:AMPARAMS|DCode=74|XSize=0.6532mm|YSize=0.4532mm|CornerRadius=0.1141mm|HoleSize=0mm|Usage=FLASHONLY|Rotation=270.000|XOffset=0mm|YOffset=0mm|HoleType=Round|Shape=RoundedRectangle|*
%AMROUNDEDRECTD74*
21,1,0.6532,0.2250,0,0,270.0*
21,1,0.4250,0.4532,0,0,270.0*
1,1,0.2282,-0.1125,-0.2125*
1,1,0.2282,-0.1125,0.2125*
1,1,0.2282,0.1125,0.2125*
1,1,0.2282,0.1125,-0.2125*
%
%ADD74ROUNDEDRECTD74*%
G04:AMPARAMS|DCode=75|XSize=0.4318mm|YSize=0.508mm|CornerRadius=0.1302mm|HoleSize=0mm|Usage=FLASHONLY|Rotation=270.000|XOffset=0mm|YOffset=0mm|HoleType=Round|Shape=RoundedRectangle|*
%AMROUNDEDRECTD75*
21,1,0.4318,0.2477,0,0,270.0*
21,1,0.1715,0.5080,0,0,270.0*
1,1,0.2604,-0.1238,-0.0857*
1,1,0.2604,-0.1238,0.0857*
1,1,0.2604,0.1238,0.0857*
1,1,0.2604,0.1238,-0.0857*
%
%ADD75ROUNDEDRECTD75*%
G04:AMPARAMS|DCode=76|XSize=1.8542mm|YSize=0.6096mm|CornerRadius=0.1687mm|HoleSize=0mm|Usage=FLASHONLY|Rotation=0.000|XOffset=0mm|YOffset=0mm|HoleType=Round|Shape=RoundedRectangle|*
%AMROUNDEDRECTD76*
21,1,1.8542,0.2723,0,0,0.0*
21,1,1.5169,0.6096,0,0,0.0*
1,1,0.3373,0.7584,-0.1361*
1,1,0.3373,-0.7584,-0.1361*
1,1,0.3373,-0.7584,0.1361*
1,1,0.3373,0.7584,0.1361*
%
%ADD76ROUNDEDRECTD76*%
G04:AMPARAMS|DCode=77|XSize=1.8542mm|YSize=0.6096mm|CornerRadius=0.1219mm|HoleSize=0mm|Usage=FLASHONLY|Rotation=0.000|XOffset=0mm|YOffset=0mm|HoleType=Round|Shape=RoundedRectangle|*
%AMROUNDEDRECTD77*
21,1,1.8542,0.3658,0,0,0.0*
21,1,1.6104,0.6096,0,0,0.0*
1,1,0.2438,0.8052,-0.1829*
1,1,0.2438,-0.8052,-0.1829*
1,1,0.2438,-0.8052,0.1829*
1,1,0.2438,0.8052,0.1829*
%
%ADD77ROUNDEDRECTD77*%
G04:AMPARAMS|DCode=78|XSize=3.4544mm|YSize=3.4544mm|CornerRadius=0.1829mm|HoleSize=0mm|Usage=FLASHONLY|Rotation=0.000|XOffset=0mm|YOffset=0mm|HoleType=Round|Shape=RoundedRectangle|*
%AMROUNDEDRECTD78*
21,1,3.4544,3.0886,0,0,0.0*
21,1,3.0886,3.4544,0,0,0.0*
1,1,0.3658,1.5443,-1.5443*
1,1,0.3658,-1.5443,-1.5443*
1,1,0.3658,-1.5443,1.5443*
1,1,0.3658,1.5443,1.5443*
%
%ADD78ROUNDEDRECTD78*%
G04:AMPARAMS|DCode=79|XSize=0.4572mm|YSize=0.9652mm|CornerRadius=0.1435mm|HoleSize=0mm|Usage=FLASHONLY|Rotation=180.000|XOffset=0mm|YOffset=0mm|HoleType=Round|Shape=RoundedRectangle|*
%AMROUNDEDRECTD79*
21,1,0.4572,0.6782,0,0,180.0*
21,1,0.1702,0.9652,0,0,180.0*
1,1,0.2870,-0.0851,0.3391*
1,1,0.2870,0.0851,0.3391*
1,1,0.2870,0.0851,-0.3391*
1,1,0.2870,-0.0851,-0.3391*
%
%ADD79ROUNDEDRECTD79*%
G04:AMPARAMS|DCode=80|XSize=0.4572mm|YSize=0.9652mm|CornerRadius=0.1435mm|HoleSize=0mm|Usage=FLASHONLY|Rotation=270.000|XOffset=0mm|YOffset=0mm|HoleType=Round|Shape=RoundedRectangle|*
%AMROUNDEDRECTD80*
21,1,0.4572,0.6782,0,0,270.0*
21,1,0.1702,0.9652,0,0,270.0*
1,1,0.2870,-0.3391,-0.0851*
1,1,0.2870,-0.3391,0.0851*
1,1,0.2870,0.3391,0.0851*
1,1,0.2870,0.3391,-0.0851*
%
%ADD80ROUNDEDRECTD80*%
G04:AMPARAMS|DCode=81|XSize=0.4572mm|YSize=0.9652mm|CornerRadius=0.1143mm|HoleSize=0mm|Usage=FLASHONLY|Rotation=270.000|XOffset=0mm|YOffset=0mm|HoleType=Round|Shape=RoundedRectangle|*
%AMROUNDEDRECTD81*
21,1,0.4572,0.7366,0,0,270.0*
21,1,0.2286,0.9652,0,0,270.0*
1,1,0.2286,-0.3683,-0.1143*
1,1,0.2286,-0.3683,0.1143*
1,1,0.2286,0.3683,0.1143*
1,1,0.2286,0.3683,-0.1143*
%
%ADD81ROUNDEDRECTD81*%
G04:AMPARAMS|DCode=82|XSize=0.608mm|YSize=0.608mm|CornerRadius=0.2024mm|HoleSize=0mm|Usage=FLASHONLY|Rotation=0.000|XOffset=0mm|YOffset=0mm|HoleType=Round|Shape=RoundedRectangle|*
%AMROUNDEDRECTD82*
21,1,0.6080,0.2032,0,0,0.0*
21,1,0.2032,0.6080,0,0,0.0*
1,1,0.4048,0.1016,-0.1016*
1,1,0.4048,-0.1016,-0.1016*
1,1,0.4048,-0.1016,0.1016*
1,1,0.4048,0.1016,0.1016*
%
%ADD82ROUNDEDRECTD82*%
G04:AMPARAMS|DCode=83|XSize=0.608mm|YSize=0.608mm|CornerRadius=0.177mm|HoleSize=0mm|Usage=FLASHONLY|Rotation=180.000|XOffset=0mm|YOffset=0mm|HoleType=Round|Shape=RoundedRectangle|*
%AMROUNDEDRECTD83*
21,1,0.6080,0.2540,0,0,180.0*
21,1,0.2540,0.6080,0,0,180.0*
1,1,0.3540,-0.1270,0.1270*
1,1,0.3540,0.1270,0.1270*
1,1,0.3540,0.1270,-0.1270*
1,1,0.3540,-0.1270,-0.1270*
%
%ADD83ROUNDEDRECTD83*%
G04:AMPARAMS|DCode=84|XSize=1.8288mm|YSize=1.3208mm|CornerRadius=0.2413mm|HoleSize=0mm|Usage=FLASHONLY|Rotation=90.000|XOffset=0mm|YOffset=0mm|HoleType=Round|Shape=RoundedRectangle|*
%AMROUNDEDRECTD84*
21,1,1.8288,0.8382,0,0,90.0*
21,1,1.3462,1.3208,0,0,90.0*
1,1,0.4826,0.4191,0.6731*
1,1,0.4826,0.4191,-0.6731*
1,1,0.4826,-0.4191,-0.6731*
1,1,0.4826,-0.4191,0.6731*
%
%ADD84ROUNDEDRECTD84*%
G04:AMPARAMS|DCode=85|XSize=1.4732mm|YSize=1.2192mm|CornerRadius=0.2286mm|HoleSize=0mm|Usage=FLASHONLY|Rotation=90.000|XOffset=0mm|YOffset=0mm|HoleType=Round|Shape=RoundedRectangle|*
%AMROUNDEDRECTD85*
21,1,1.4732,0.7620,0,0,90.0*
21,1,1.0160,1.2192,0,0,90.0*
1,1,0.4572,0.3810,0.5080*
1,1,0.4572,0.3810,-0.5080*
1,1,0.4572,-0.3810,-0.5080*
1,1,0.4572,-0.3810,0.5080*
%
%ADD85ROUNDEDRECTD85*%
%ADD86C,0.9652*%
G04:AMPARAMS|DCode=87|XSize=1.1532mm|YSize=1.1532mm|CornerRadius=0.2774mm|HoleSize=0mm|Usage=FLASHONLY|Rotation=90.000|XOffset=0mm|YOffset=0mm|HoleType=Round|Shape=RoundedRectangle|*
%AMROUNDEDRECTD87*
21,1,1.1532,0.5985,0,0,90.0*
21,1,0.5985,1.1532,0,0,90.0*
1,1,0.5547,0.2993,0.2993*
1,1,0.5547,0.2993,-0.2993*
1,1,0.5547,-0.2993,-0.2993*
1,1,0.5547,-0.2993,0.2993*
%
%ADD87ROUNDEDRECTD87*%
G04:AMPARAMS|DCode=88|XSize=0.4826mm|YSize=0.5588mm|CornerRadius=0.0927mm|HoleSize=0mm|Usage=FLASHONLY|Rotation=90.000|XOffset=0mm|YOffset=0mm|HoleType=Round|Shape=RoundedRectangle|*
%AMROUNDEDRECTD88*
21,1,0.4826,0.3734,0,0,90.0*
21,1,0.2972,0.5588,0,0,90.0*
1,1,0.1854,0.1867,0.1486*
1,1,0.1854,0.1867,-0.1486*
1,1,0.1854,-0.1867,-0.1486*
1,1,0.1854,-0.1867,0.1486*
%
%ADD88ROUNDEDRECTD88*%
%ADD89R,5.0292X4.9022*%
G04:AMPARAMS|DCode=90|XSize=1.016mm|YSize=0.7112mm|CornerRadius=0.1651mm|HoleSize=0mm|Usage=FLASHONLY|Rotation=90.000|XOffset=0mm|YOffset=0mm|HoleType=Round|Shape=RoundedRectangle|*
%AMROUNDEDRECTD90*
21,1,1.0160,0.3810,0,0,90.0*
21,1,0.6858,0.7112,0,0,90.0*
1,1,0.3302,0.1905,0.3429*
1,1,0.3302,0.1905,-0.3429*
1,1,0.3302,-0.1905,-0.3429*
1,1,0.3302,-0.1905,0.3429*
%
%ADD90ROUNDEDRECTD90*%
G04:AMPARAMS|DCode=91|XSize=1.016mm|YSize=0.7112mm|CornerRadius=0.127mm|HoleSize=0mm|Usage=FLASHONLY|Rotation=90.000|XOffset=0mm|YOffset=0mm|HoleType=Round|Shape=RoundedRectangle|*
%AMROUNDEDRECTD91*
21,1,1.0160,0.4572,0,0,90.0*
21,1,0.7620,0.7112,0,0,90.0*
1,1,0.2540,0.2286,0.3810*
1,1,0.2540,0.2286,-0.3810*
1,1,0.2540,-0.2286,-0.3810*
1,1,0.2540,-0.2286,0.3810*
%
%ADD91ROUNDEDRECTD91*%
%ADD92C,1.5240*%
%ADD93C,0.5732*%
G04:AMPARAMS|DCode=94|XSize=0.608mm|YSize=0.608mm|CornerRadius=0.0754mm|HoleSize=0mm|Usage=FLASHONLY|Rotation=90.000|XOffset=0mm|YOffset=0mm|HoleType=Round|Shape=RoundedRectangle|*
%AMROUNDEDRECTD94*
21,1,0.6080,0.4572,0,0,90.0*
21,1,0.4572,0.6080,0,0,90.0*
1,1,0.1508,0.2286,0.2286*
1,1,0.1508,0.2286,-0.2286*
1,1,0.1508,-0.2286,-0.2286*
1,1,0.1508,-0.2286,0.2286*
%
%ADD94ROUNDEDRECTD94*%
G04:AMPARAMS|DCode=95|XSize=1.016mm|YSize=1.0922mm|CornerRadius=0.2357mm|HoleSize=0mm|Usage=FLASHONLY|Rotation=0.000|XOffset=0mm|YOffset=0mm|HoleType=Round|Shape=RoundedRectangle|*
%AMROUNDEDRECTD95*
21,1,1.0160,0.6208,0,0,0.0*
21,1,0.5446,1.0922,0,0,0.0*
1,1,0.4714,0.2723,-0.3104*
1,1,0.4714,-0.2723,-0.3104*
1,1,0.4714,-0.2723,0.3104*
1,1,0.4714,0.2723,0.3104*
%
%ADD95ROUNDEDRECTD95*%
G04:AMPARAMS|DCode=96|XSize=1.016mm|YSize=1.0922mm|CornerRadius=0.1422mm|HoleSize=0mm|Usage=FLASHONLY|Rotation=0.000|XOffset=0mm|YOffset=0mm|HoleType=Round|Shape=RoundedRectangle|*
%AMROUNDEDRECTD96*
21,1,1.0160,0.8077,0,0,0.0*
21,1,0.7315,1.0922,0,0,0.0*
1,1,0.2845,0.3658,-0.4039*
1,1,0.2845,-0.3658,-0.4039*
1,1,0.2845,-0.3658,0.4039*
1,1,0.2845,0.3658,0.4039*
%
%ADD96ROUNDEDRECTD96*%
G04:AMPARAMS|DCode=97|XSize=1.397mm|YSize=0.6604mm|CornerRadius=0.177mm|HoleSize=0mm|Usage=FLASHONLY|Rotation=270.000|XOffset=0mm|YOffset=0mm|HoleType=Round|Shape=RoundedRectangle|*
%AMROUNDEDRECTD97*
21,1,1.3970,0.3063,0,0,270.0*
21,1,1.0429,0.6604,0,0,270.0*
1,1,0.3541,-0.1532,-0.5215*
1,1,0.3541,-0.1532,0.5215*
1,1,0.3541,0.1532,0.5215*
1,1,0.3541,0.1532,-0.5215*
%
%ADD97ROUNDEDRECTD97*%
G04:AMPARAMS|DCode=98|XSize=1.397mm|YSize=0.6604mm|CornerRadius=0.1245mm|HoleSize=0mm|Usage=FLASHONLY|Rotation=90.000|XOffset=0mm|YOffset=0mm|HoleType=Round|Shape=RoundedRectangle|*
%AMROUNDEDRECTD98*
21,1,1.3970,0.4115,0,0,90.0*
21,1,1.1481,0.6604,0,0,90.0*
1,1,0.2489,0.2057,0.5740*
1,1,0.2489,0.2057,-0.5740*
1,1,0.2489,-0.2057,-0.5740*
1,1,0.2489,-0.2057,0.5740*
%
%ADD98ROUNDEDRECTD98*%
G04:AMPARAMS|DCode=99|XSize=1.27mm|YSize=0.7112mm|CornerRadius=0.1854mm|HoleSize=0mm|Usage=FLASHONLY|Rotation=90.000|XOffset=0mm|YOffset=0mm|HoleType=Round|Shape=RoundedRectangle|*
%AMROUNDEDRECTD99*
21,1,1.2700,0.3404,0,0,90.0*
21,1,0.8992,0.7112,0,0,90.0*
1,1,0.3708,0.1702,0.4496*
1,1,0.3708,0.1702,-0.4496*
1,1,0.3708,-0.1702,-0.4496*
1,1,0.3708,-0.1702,0.4496*
%
%ADD99ROUNDEDRECTD99*%
G04:AMPARAMS|DCode=100|XSize=1.27mm|YSize=0.7112mm|CornerRadius=0.127mm|HoleSize=0mm|Usage=FLASHONLY|Rotation=90.000|XOffset=0mm|YOffset=0mm|HoleType=Round|Shape=RoundedRectangle|*
%AMROUNDEDRECTD100*
21,1,1.2700,0.4572,0,0,90.0*
21,1,1.0160,0.7112,0,0,90.0*
1,1,0.2540,0.2286,0.5080*
1,1,0.2540,0.2286,-0.5080*
1,1,0.2540,-0.2286,-0.5080*
1,1,0.2540,-0.2286,0.5080*
%
%ADD100ROUNDEDRECTD100*%
%ADD101C,0.7112*%
G04:AMPARAMS|DCode=102|XSize=0.9144mm|YSize=1.2192mm|CornerRadius=0.1372mm|HoleSize=0mm|Usage=FLASHONLY|Rotation=0.000|XOffset=0mm|YOffset=0mm|HoleType=Round|Shape=RoundedRectangle|*
%AMROUNDEDRECTD102*
21,1,0.9144,0.9449,0,0,0.0*
21,1,0.6401,1.2192,0,0,0.0*
1,1,0.2743,0.3200,-0.4724*
1,1,0.2743,-0.3200,-0.4724*
1,1,0.2743,-0.3200,0.4724*
1,1,0.2743,0.3200,0.4724*
%
%ADD102ROUNDEDRECTD102*%
G04:AMPARAMS|DCode=103|XSize=0.9144mm|YSize=1.2192mm|CornerRadius=0.1905mm|HoleSize=0mm|Usage=FLASHONLY|Rotation=0.000|XOffset=0mm|YOffset=0mm|HoleType=Round|Shape=RoundedRectangle|*
%AMROUNDEDRECTD103*
21,1,0.9144,0.8382,0,0,0.0*
21,1,0.5334,1.2192,0,0,0.0*
1,1,0.3810,0.2667,-0.4191*
1,1,0.3810,-0.2667,-0.4191*
1,1,0.3810,-0.2667,0.4191*
1,1,0.3810,0.2667,0.4191*
%
%ADD103ROUNDEDRECTD103*%
G04:AMPARAMS|DCode=104|XSize=1.0922mm|YSize=1.2192mm|CornerRadius=0.2127mm|HoleSize=0mm|Usage=FLASHONLY|Rotation=90.000|XOffset=0mm|YOffset=0mm|HoleType=Round|Shape=RoundedRectangle|*
%AMROUNDEDRECTD104*
21,1,1.0922,0.7938,0,0,90.0*
21,1,0.6668,1.2192,0,0,90.0*
1,1,0.4255,0.3969,0.3334*
1,1,0.4255,0.3969,-0.3334*
1,1,0.4255,-0.3969,-0.3334*
1,1,0.4255,-0.3969,0.3334*
%
%ADD104ROUNDEDRECTD104*%
G04:AMPARAMS|DCode=105|XSize=1.6256mm|YSize=2.2352mm|CornerRadius=0.2794mm|HoleSize=0mm|Usage=FLASHONLY|Rotation=180.000|XOffset=0mm|YOffset=0mm|HoleType=Round|Shape=RoundedRectangle|*
%AMROUNDEDRECTD105*
21,1,1.6256,1.6764,0,0,180.0*
21,1,1.0668,2.2352,0,0,180.0*
1,1,0.5588,-0.5334,0.8382*
1,1,0.5588,0.5334,0.8382*
1,1,0.5588,0.5334,-0.8382*
1,1,0.5588,-0.5334,-0.8382*
%
%ADD105ROUNDEDRECTD105*%
G04:AMPARAMS|DCode=106|XSize=1.6256mm|YSize=2.2352mm|CornerRadius=0.1727mm|HoleSize=0mm|Usage=FLASHONLY|Rotation=180.000|XOffset=0mm|YOffset=0mm|HoleType=Round|Shape=RoundedRectangle|*
%AMROUNDEDRECTD106*
21,1,1.6256,1.8898,0,0,180.0*
21,1,1.2802,2.2352,0,0,180.0*
1,1,0.3454,-0.6401,0.9449*
1,1,0.3454,0.6401,0.9449*
1,1,0.3454,0.6401,-0.9449*
1,1,0.3454,-0.6401,-0.9449*
%
%ADD106ROUNDEDRECTD106*%
G04:AMPARAMS|DCode=107|XSize=3.3782mm|YSize=2.667mm|CornerRadius=0.2248mm|HoleSize=0mm|Usage=FLASHONLY|Rotation=180.000|XOffset=0mm|YOffset=0mm|HoleType=Round|Shape=RoundedRectangle|*
%AMROUNDEDRECTD107*
21,1,3.3782,2.2174,0,0,180.0*
21,1,2.9286,2.6670,0,0,180.0*
1,1,0.4496,-1.4643,1.1087*
1,1,0.4496,1.4643,1.1087*
1,1,0.4496,1.4643,-1.1087*
1,1,0.4496,-1.4643,-1.1087*
%
%ADD107ROUNDEDRECTD107*%
G04:AMPARAMS|DCode=108|XSize=3.3782mm|YSize=2.667mm|CornerRadius=0.5081mm|HoleSize=0mm|Usage=FLASHONLY|Rotation=180.000|XOffset=0mm|YOffset=0mm|HoleType=Round|Shape=RoundedRectangle|*
%AMROUNDEDRECTD108*
21,1,3.3782,1.6508,0,0,180.0*
21,1,2.3620,2.6670,0,0,180.0*
1,1,1.0163,-1.1810,0.8254*
1,1,1.0163,1.1810,0.8254*
1,1,1.0163,1.1810,-0.8254*
1,1,1.0163,-1.1810,-0.8254*
%
%ADD108ROUNDEDRECTD108*%
G04:AMPARAMS|DCode=109|XSize=2.2352mm|YSize=4.1656mm|CornerRadius=0.2032mm|HoleSize=0mm|Usage=FLASHONLY|Rotation=180.000|XOffset=0mm|YOffset=0mm|HoleType=Round|Shape=RoundedRectangle|*
%AMROUNDEDRECTD109*
21,1,2.2352,3.7592,0,0,180.0*
21,1,1.8288,4.1656,0,0,180.0*
1,1,0.4064,-0.9144,1.8796*
1,1,0.4064,0.9144,1.8796*
1,1,0.4064,0.9144,-1.8796*
1,1,0.4064,-0.9144,-1.8796*
%
%ADD109ROUNDEDRECTD109*%
G04:AMPARAMS|DCode=110|XSize=2.2352mm|YSize=4.1656mm|CornerRadius=0.3556mm|HoleSize=0mm|Usage=FLASHONLY|Rotation=180.000|XOffset=0mm|YOffset=0mm|HoleType=Round|Shape=RoundedRectangle|*
%AMROUNDEDRECTD110*
21,1,2.2352,3.4544,0,0,180.0*
21,1,1.5240,4.1656,0,0,180.0*
1,1,0.7112,-0.7620,1.7272*
1,1,0.7112,0.7620,1.7272*
1,1,0.7112,0.7620,-1.7272*
1,1,0.7112,-0.7620,-1.7272*
%
%ADD110ROUNDEDRECTD110*%
%ADD111R,3.3528X1.7018*%
G04:AMPARAMS|DCode=112|XSize=1.6002mm|YSize=3.7592mm|CornerRadius=0.2762mm|HoleSize=0mm|Usage=FLASHONLY|Rotation=270.000|XOffset=0mm|YOffset=0mm|HoleType=Round|Shape=RoundedRectangle|*
%AMROUNDEDRECTD112*
21,1,1.6002,3.2068,0,0,270.0*
21,1,1.0478,3.7592,0,0,270.0*
1,1,0.5525,-1.6034,-0.5239*
1,1,0.5525,-1.6034,0.5239*
1,1,0.5525,1.6034,0.5239*
1,1,0.5525,1.6034,-0.5239*
%
%ADD112ROUNDEDRECTD112*%
%ADD113O,2.2352X1.2192*%
%ADD114C,0.8636*%
%ADD115C,2.4892*%
G04:AMPARAMS|DCode=116|XSize=1.5748mm|YSize=1.5748mm|CornerRadius=0.2731mm|HoleSize=0mm|Usage=FLASHONLY|Rotation=90.000|XOffset=0mm|YOffset=0mm|HoleType=Round|Shape=RoundedRectangle|*
%AMROUNDEDRECTD116*
21,1,1.5748,1.0287,0,0,90.0*
21,1,1.0287,1.5748,0,0,90.0*
1,1,0.5461,0.5143,0.5143*
1,1,0.5461,0.5143,-0.5143*
1,1,0.5461,-0.5143,-0.5143*
1,1,0.5461,-0.5143,0.5143*
%
%ADD116ROUNDEDRECTD116*%
%ADD117C,1.5748*%
%ADD118C,2.1082*%
G04:AMPARAMS|DCode=119|XSize=2.8702mm|YSize=2.8702mm|CornerRadius=0.235mm|HoleSize=0mm|Usage=FLASHONLY|Rotation=0.000|XOffset=0mm|YOffset=0mm|HoleType=Round|Shape=RoundedRectangle|*
%AMROUNDEDRECTD119*
21,1,2.8702,2.4003,0,0,0.0*
21,1,2.4003,2.8702,0,0,0.0*
1,1,0.4699,1.2002,-1.2002*
1,1,0.4699,-1.2002,-1.2002*
1,1,0.4699,-1.2002,1.2002*
1,1,0.4699,1.2002,1.2002*
%
%ADD119ROUNDEDRECTD119*%
%ADD120C,2.8702*%
G04:AMPARAMS|DCode=121|XSize=2.1082mm|YSize=2.1082mm|CornerRadius=0.1969mm|HoleSize=0mm|Usage=FLASHONLY|Rotation=90.000|XOffset=0mm|YOffset=0mm|HoleType=Round|Shape=RoundedRectangle|*
%AMROUNDEDRECTD121*
21,1,2.1082,1.7145,0,0,90.0*
21,1,1.7145,2.1082,0,0,90.0*
1,1,0.3937,0.8573,0.8573*
1,1,0.3937,0.8573,-0.8573*
1,1,0.3937,-0.8573,-0.8573*
1,1,0.3937,-0.8573,0.8573*
%
%ADD121ROUNDEDRECTD121*%
%ADD122C,1.4224*%
%ADD123C,5.2832*%
%ADD124C,0.4064*%
%ADD125C,0.4572*%
%ADD126C,1.2192*%
G36*
X3507859Y2515859D02*
X3511718Y2514825D01*
X3515410Y2513295D01*
X3518870Y2511298D01*
X3522040Y2508865D01*
X3524865Y2506040D01*
X3527297Y2502870D01*
X3529295Y2499410D01*
X3530824Y2495719D01*
X3531859Y2491859D01*
X3532380Y2487898D01*
Y2485900D01*
X3527300D01*
X3527178Y2488390D01*
X3526206Y2493273D01*
X3524301Y2497874D01*
X3521534Y2502014D01*
X3518014Y2505535D01*
X3513873Y2508301D01*
X3509273Y2510206D01*
X3504390Y2511178D01*
X3501900Y2511300D01*
Y2511300D01*
X2997200Y2511300D01*
X2997200Y2516380D01*
X3501900Y2516380D01*
X3503898D01*
X3507859Y2515859D01*
D02*
G37*
G36*
X2971800Y2511300D02*
X2578100Y2511300D01*
Y2511300D01*
X2575610Y2511178D01*
X2570727Y2510206D01*
X2566126Y2508301D01*
X2561986Y2505535D01*
X2558466Y2502014D01*
X2555699Y2497874D01*
X2553794Y2493273D01*
X2552822Y2488390D01*
X2552700Y2485900D01*
X2547620D01*
Y2487898D01*
X2548141Y2491859D01*
X2549176Y2495719D01*
X2550705Y2499410D01*
X2552702Y2502870D01*
X2555135Y2506040D01*
X2557960Y2508865D01*
X2561130Y2511298D01*
X2564590Y2513295D01*
X2568282Y2514824D01*
X2572141Y2515858D01*
X2576102Y2516380D01*
X2578100D01*
X2971800Y2516380D01*
X2971800Y2511300D01*
D02*
G37*
G36*
X3320493Y2398549D02*
X3320545Y2398539D01*
X3320623Y2398524D01*
X3320750Y2398481D01*
X3320869Y2398422D01*
D01*
X3320869Y2398422D01*
X3320980Y2398348D01*
X3321055Y2398282D01*
X3321080Y2398260D01*
X3321080Y2398260D01*
X3321080Y2398260D01*
X3321102Y2398235D01*
X3321168Y2398160D01*
X3321202Y2398108D01*
X3348360D01*
X3348380Y2398107D01*
X3348401Y2398107D01*
X3348447Y2398103D01*
X3348493Y2398100D01*
X3348513Y2398096D01*
X3348533Y2398093D01*
X3348578Y2398082D01*
X3348623Y2398073D01*
X3348643Y2398067D01*
X3348663Y2398062D01*
X3348706Y2398045D01*
X3348750Y2398031D01*
X3348768Y2398022D01*
X3348787Y2398014D01*
X3348828Y2397992D01*
X3348869Y2397972D01*
X3348886Y2397960D01*
X3348904Y2397951D01*
X3348942Y2397923D01*
X3348980Y2397898D01*
X3348995Y2397884D01*
X3349012Y2397872D01*
X3352012Y2395372D01*
X3352045Y2395340D01*
X3352080Y2395310D01*
X3352094Y2395294D01*
X3352108Y2395280D01*
X3352137Y2395244D01*
X3352168Y2395210D01*
X3352179Y2395193D01*
X3352192Y2395177D01*
X3352216Y2395137D01*
X3352242Y2395099D01*
X3352251Y2395081D01*
X3352261Y2395063D01*
X3352280Y2395021D01*
X3352301Y2394980D01*
X3352307Y2394960D01*
X3352316Y2394942D01*
X3352328Y2394897D01*
X3352343Y2394854D01*
X3352347Y2394833D01*
X3352353Y2394814D01*
X3352361Y2394768D01*
X3352369Y2394723D01*
X3352371Y2394702D01*
X3352374Y2394682D01*
X3352375Y2394636D01*
X3352378Y2394590D01*
Y2385040D01*
X3352369Y2384907D01*
X3352343Y2384776D01*
X3352301Y2384650D01*
X3352242Y2384531D01*
X3352168Y2384420D01*
X3352080Y2384320D01*
X3351980Y2384232D01*
X3351869Y2384158D01*
X3351750Y2384099D01*
X3351624Y2384057D01*
X3351493Y2384030D01*
X3351360Y2384022D01*
X3317060D01*
X3316927Y2384030D01*
X3316797Y2384057D01*
X3316671Y2384099D01*
X3316551Y2384158D01*
X3316440Y2384232D01*
X3316340Y2384320D01*
X3316252Y2384420D01*
X3316178Y2384531D01*
X3316119Y2384650D01*
X3316076Y2384776D01*
X3316050Y2384907D01*
X3316042Y2385040D01*
Y2387540D01*
X3316050Y2387673D01*
X3316076Y2387803D01*
X3316119Y2387930D01*
X3316178Y2388049D01*
X3316252Y2388160D01*
X3316340Y2388260D01*
X3316440Y2388348D01*
X3316551Y2388422D01*
X3316671Y2388481D01*
X3316797Y2388524D01*
X3316927Y2388549D01*
X3317060Y2388558D01*
X3319342D01*
Y2389022D01*
X3317060D01*
X3316927Y2389030D01*
X3316797Y2389057D01*
X3316671Y2389099D01*
X3316551Y2389158D01*
X3316440Y2389232D01*
X3316340Y2389320D01*
X3316252Y2389420D01*
X3316178Y2389531D01*
X3316119Y2389650D01*
X3316076Y2389776D01*
X3316050Y2389907D01*
X3316042Y2390040D01*
Y2392540D01*
X3316050Y2392673D01*
X3316076Y2392803D01*
X3316119Y2392930D01*
X3316178Y2393049D01*
X3316252Y2393160D01*
X3316340Y2393260D01*
X3316440Y2393348D01*
X3316551Y2393422D01*
X3316671Y2393481D01*
X3316797Y2393524D01*
X3316927Y2393549D01*
X3317060Y2393558D01*
X3319342D01*
Y2394022D01*
X3317060D01*
X3316927Y2394030D01*
X3316797Y2394057D01*
X3316671Y2394099D01*
X3316551Y2394158D01*
X3316440Y2394232D01*
X3316340Y2394320D01*
X3316252Y2394420D01*
X3316178Y2394531D01*
X3316119Y2394650D01*
X3316076Y2394776D01*
X3316050Y2394907D01*
X3316042Y2395040D01*
Y2397540D01*
X3316050Y2397673D01*
X3316076Y2397803D01*
X3316119Y2397930D01*
X3316178Y2398049D01*
X3316252Y2398160D01*
X3316340Y2398260D01*
X3316440Y2398348D01*
X3316551Y2398422D01*
X3316671Y2398481D01*
X3316797Y2398524D01*
X3316927Y2398549D01*
X3317060Y2398558D01*
X3320360Y2398558D01*
X3320360D01*
X3320360D01*
X3320493Y2398549D01*
D02*
G37*
G36*
X2552700Y2485900D02*
Y2397000D01*
X2547620D01*
Y2485900D01*
X2552700Y2485900D01*
D02*
G37*
G36*
X3351493Y2380049D02*
X3351624Y2380023D01*
X3351750Y2379981D01*
X3351870Y2379922D01*
X3351980Y2379848D01*
X3352080Y2379760D01*
X3352168Y2379660D01*
X3352242Y2379549D01*
X3352301Y2379430D01*
X3352344Y2379303D01*
X3352370Y2379173D01*
X3352379Y2379040D01*
Y2370490D01*
X3352370Y2370357D01*
X3352344Y2370226D01*
X3352301Y2370100D01*
X3352242Y2369981D01*
X3352168Y2369870D01*
X3352080Y2369770D01*
X3351980Y2369682D01*
X3351870Y2369608D01*
X3351750Y2369549D01*
X3351624Y2369507D01*
X3351493Y2369480D01*
X3351360Y2369472D01*
X3321169D01*
X3321168Y2369470D01*
X3321080Y2369370D01*
X3320980Y2369282D01*
X3320869Y2369208D01*
X3320750Y2369149D01*
X3320624Y2369106D01*
X3320493Y2369081D01*
X3320360Y2369072D01*
X3317060D01*
X3316927Y2369081D01*
X3316797Y2369106D01*
X3316671Y2369149D01*
X3316551Y2369208D01*
X3316440Y2369282D01*
X3316340Y2369370D01*
X3316253Y2369470D01*
X3316179Y2369581D01*
X3316120Y2369700D01*
X3316077Y2369827D01*
X3316051Y2369957D01*
X3316042Y2370090D01*
Y2372590D01*
X3316051Y2372723D01*
X3316077Y2372854D01*
X3316120Y2372980D01*
X3316179Y2373099D01*
X3316253Y2373210D01*
X3316340Y2373310D01*
X3316440Y2373398D01*
X3316551Y2373472D01*
X3316671Y2373531D01*
X3316797Y2373573D01*
X3316927Y2373600D01*
X3317060Y2373608D01*
X3319342D01*
Y2374072D01*
X3317060D01*
X3316927Y2374081D01*
X3316797Y2374106D01*
X3316671Y2374149D01*
X3316551Y2374208D01*
X3316440Y2374282D01*
X3316340Y2374370D01*
X3316253Y2374470D01*
X3316179Y2374581D01*
X3316120Y2374700D01*
X3316077Y2374827D01*
X3316051Y2374957D01*
X3316042Y2375090D01*
Y2377590D01*
X3316051Y2377723D01*
X3316077Y2377854D01*
X3316120Y2377980D01*
X3316179Y2378099D01*
X3316253Y2378210D01*
X3316340Y2378310D01*
X3316440Y2378398D01*
X3316551Y2378472D01*
X3316671Y2378531D01*
X3316797Y2378573D01*
X3316927Y2378600D01*
X3317060Y2378608D01*
X3319342D01*
Y2379040D01*
X3319351Y2379173D01*
X3319377Y2379303D01*
X3319420Y2379430D01*
X3319478Y2379549D01*
X3319553Y2379660D01*
X3319641Y2379760D01*
X3319741Y2379848D01*
X3319851Y2379922D01*
X3319971Y2379981D01*
X3320097Y2380023D01*
X3320227Y2380049D01*
X3320360Y2380058D01*
X3351360D01*
X3351493Y2380049D01*
D02*
G37*
G36*
X2971800Y2282190D02*
X2966720Y2282190D01*
Y2317750D01*
X2971800D01*
Y2282190D01*
D02*
G37*
G36*
Y2277110D02*
X2547620D01*
Y2282190D01*
X2971800D01*
X2971800Y2277110D01*
D02*
G37*
G36*
X2997201Y2256786D02*
X2994660Y2256786D01*
X2994660Y2251710D01*
X2552700Y2251710D01*
Y2256790D01*
X2992121Y2256790D01*
Y2317746D01*
X2997201D01*
Y2256786D01*
D02*
G37*
G36*
X3532380Y2485900D02*
Y1562100D01*
Y1560102D01*
X3531859Y1556141D01*
X3530824Y1552281D01*
X3529295Y1548590D01*
X3527298Y1545130D01*
X3524865Y1541960D01*
X3522040Y1539135D01*
X3518870Y1536702D01*
X3515410Y1534705D01*
X3511718Y1533176D01*
X3507859Y1532142D01*
X3503898Y1531620D01*
X2576102D01*
X2572141Y1532142D01*
X2568282Y1533176D01*
X2564590Y1534705D01*
X2561130Y1536702D01*
X2557960Y1539135D01*
X2555135Y1541960D01*
X2552702Y1545130D01*
X2550705Y1548590D01*
X2549176Y1552281D01*
X2548141Y1556141D01*
X2547620Y1560102D01*
Y1562100D01*
X2547620Y2254250D01*
X2552700Y2254250D01*
X2552700Y1562100D01*
X2552822Y1559610D01*
X2553794Y1554727D01*
X2555699Y1550126D01*
X2558466Y1545986D01*
X2561986Y1542466D01*
X2566126Y1539699D01*
X2570727Y1537794D01*
X2575610Y1536822D01*
X2578100Y1536700D01*
X3501900D01*
X3504390Y1536822D01*
X3509273Y1537794D01*
X3513874Y1539699D01*
X3518014Y1542466D01*
X3521534Y1545986D01*
X3524301Y1550126D01*
X3526206Y1554727D01*
X3527178Y1559610D01*
X3527300Y1562100D01*
X3527300D01*
X3527300Y2485900D01*
X3532380Y2485900D01*
D02*
G37*
D11*
X2908350Y2468280D02*
D03*
X2921050Y2461930D02*
D03*
X2933750Y2468280D02*
D03*
X2921050Y2474630D02*
D03*
X2933750Y2480980D02*
D03*
X2908350D02*
D03*
Y2493680D02*
D03*
X2921050Y2500030D02*
D03*
X2933750Y2493680D02*
D03*
X2921050Y2487330D02*
D03*
X2961640Y2446020D02*
D03*
X2961640Y2458720D02*
D03*
X3176016Y2468878D02*
D03*
X3137916Y2475228D02*
D03*
X3163316D02*
D03*
X3150616Y2468878D02*
D03*
X3163316Y2462527D02*
D03*
X3137916D02*
D03*
X3316986Y2195830D02*
D03*
X3296666D02*
D03*
X3304286Y2202180D02*
D03*
X3283966D02*
D03*
X3271266Y2208530D02*
D03*
X3291586D02*
D03*
X3326130Y2306320D02*
D03*
X3281680Y2349500D02*
D03*
X3285490Y2312670D02*
D03*
X3293110Y2284730D02*
D03*
X3293110Y2291080D02*
D03*
X3332988Y2291080D02*
D03*
X3332989Y2278380D02*
D03*
X3332988Y2272030D02*
D03*
Y2284730D02*
D03*
X3332988Y2265680D02*
D03*
X3326638Y2284730D02*
D03*
Y2272030D02*
D03*
X3326638Y2278380D02*
D03*
X3326638Y2291080D02*
D03*
Y2265680D02*
D03*
X3293110D02*
D03*
X3293110Y2278380D02*
D03*
X3293110Y2272030D02*
D03*
X3362760Y2346490D02*
D03*
X3299260Y2346489D02*
D03*
X3299259Y2352839D02*
D03*
X3299259Y2359189D02*
D03*
X3311959Y2371889D02*
D03*
X3305609Y2365539D02*
D03*
X3311959Y2365539D02*
D03*
X3305609Y2359189D02*
D03*
X3311960Y2359189D02*
D03*
X3305609Y2352839D02*
D03*
X3311960Y2352839D02*
D03*
X3305609Y2340139D02*
D03*
X3305609Y2346489D02*
D03*
X3311960Y2340139D02*
D03*
X3311960Y2346489D02*
D03*
X3318310Y2340139D02*
D03*
X3318310Y2346489D02*
D03*
X3324659Y2340139D02*
D03*
X3324660Y2346490D02*
D03*
X3331010Y2340140D02*
D03*
X3331010Y2346490D02*
D03*
X3337360Y2340140D02*
D03*
X3337360Y2346490D02*
D03*
X3343710Y2346490D02*
D03*
X3343710Y2340140D02*
D03*
X3356410D02*
D03*
X3356410Y2346490D02*
D03*
X3350060Y2340140D02*
D03*
X3350060Y2346490D02*
D03*
X3369110Y2352840D02*
D03*
X3369110Y2359190D02*
D03*
X3350060Y2352840D02*
D03*
X3356410Y2352840D02*
D03*
X3362760Y2352840D02*
D03*
X3350060Y2359190D02*
D03*
X3356410Y2359190D02*
D03*
X3362760Y2359190D02*
D03*
X3362760Y2365540D02*
D03*
X3356410Y2365540D02*
D03*
X3299370Y2372270D02*
D03*
X3378835Y2453640D02*
D03*
X3379470Y2472105D02*
D03*
X3391662Y2378964D02*
D03*
X3379470Y2416810D02*
D03*
X3366770Y2429510D02*
D03*
X3366770Y2416810D02*
D03*
X3307080Y2437130D02*
D03*
X3294380Y2437130D02*
D03*
X3281680Y2437130D02*
D03*
X3292856Y2391410D02*
D03*
X3267456Y2385060D02*
D03*
Y2410460D02*
D03*
X3254756Y2404110D02*
D03*
Y2391410D02*
D03*
X3267456Y2397760D02*
D03*
X3280156Y2391410D02*
D03*
X3125470Y2499360D02*
D03*
X3112770Y2505710D02*
D03*
X3100070Y2499360D02*
D03*
Y2486660D02*
D03*
X3112770Y2493010D02*
D03*
X2579370Y2373630D02*
D03*
X1602740Y2171700D02*
D03*
X1629410Y2164080D02*
D03*
X1639570Y2162810D02*
D03*
X1601470Y2161540D02*
D03*
X1637030Y2218690D02*
D03*
X1652270Y2217420D02*
D03*
X1642110Y2195830D02*
D03*
X1610360Y2200910D02*
D03*
Y2179320D02*
D03*
X1620520D02*
D03*
X3027680Y2488438D02*
D03*
X3040380Y2488438D02*
D03*
X3125470Y2486660D02*
D03*
X3112770Y2480310D02*
D03*
X2971800Y2513840D02*
D03*
X3505200Y2365756D02*
D03*
Y1681988D02*
D03*
X2575560Y1681480D02*
D03*
X3500630Y2409700D02*
D03*
X3500630Y1638300D02*
D03*
X2579370Y1638300D02*
D03*
X3040380Y2475738D02*
D03*
Y2463038D02*
D03*
X3027680Y2463038D02*
D03*
Y2475738D02*
D03*
X3150616Y2456178D02*
D03*
X3176016D02*
D03*
Y2397760D02*
D03*
X3163316Y2391410D02*
D03*
X3150616Y2397760D02*
D03*
X3137916Y2391410D02*
D03*
X3099816Y2397760D02*
D03*
X3125216D02*
D03*
X3112516Y2391410D02*
D03*
X3027680Y2392172D02*
D03*
X3040380Y2392172D02*
D03*
X3027680Y2366772D02*
D03*
Y2379472D02*
D03*
X3040380Y2379472D02*
D03*
Y2366772D02*
D03*
X3006280Y2340300D02*
D03*
X2993580Y2340300D02*
D03*
X3018980D02*
D03*
X2973980D02*
D03*
X2948580D02*
D03*
X2961280Y2340300D02*
D03*
X2936240Y2404110D02*
D03*
Y2416810D02*
D03*
X2948940Y2416810D02*
D03*
X2961640Y2410460D02*
D03*
X2948940Y2404110D02*
D03*
X2974340D02*
D03*
X2961640Y2397760D02*
D03*
X2901950Y2415540D02*
D03*
Y2428240D02*
D03*
X2838450Y2324100D02*
D03*
Y2349500D02*
D03*
X2832100Y2336800D02*
D03*
Y2362200D02*
D03*
X2838450Y2374900D02*
D03*
X2832100Y2387600D02*
D03*
X2778760Y2298700D02*
D03*
X2804160D02*
D03*
X2791460Y2298700D02*
D03*
X2749550Y2444750D02*
D03*
X2749550Y2432050D02*
D03*
X2749550Y2419350D02*
D03*
X2781300Y2406650D02*
D03*
X2794000Y2400300D02*
D03*
X2768600D02*
D03*
X2755900Y2406650D02*
D03*
X2743200Y2400300D02*
D03*
X2730500Y2406650D02*
D03*
X2717800Y2400300D02*
D03*
X2994661Y2279646D02*
D03*
X2994661Y2266947D02*
D03*
X2981961Y2254247D02*
D03*
X2969261Y2292347D02*
D03*
X2969261Y2305047D02*
D03*
X2969261Y2317747D02*
D03*
X2994660Y2317750D02*
D03*
X2994660Y2305050D02*
D03*
X2994660Y2292350D02*
D03*
X2562860Y2254250D02*
D03*
X2575560Y2254250D02*
D03*
X2600960Y2254250D02*
D03*
X2588260Y2254250D02*
D03*
X2626360Y2254249D02*
D03*
X2613660Y2254250D02*
D03*
X2689861Y2254249D02*
D03*
X2702560Y2254249D02*
D03*
X2664460Y2254249D02*
D03*
X2677160Y2254249D02*
D03*
X2651760Y2254249D02*
D03*
X2639060Y2254249D02*
D03*
X2715260Y2254249D02*
D03*
X2753361Y2254248D02*
D03*
X2740660Y2254249D02*
D03*
X2727961Y2254249D02*
D03*
X2791461Y2254248D02*
D03*
X2778760Y2254248D02*
D03*
X2766060Y2254248D02*
D03*
X2829561Y2254248D02*
D03*
X2816861Y2254248D02*
D03*
X2804160Y2254248D02*
D03*
X2867661Y2254247D02*
D03*
X2854961Y2254248D02*
D03*
X2842261Y2254248D02*
D03*
X2905761Y2254247D02*
D03*
X2893061Y2254247D02*
D03*
X2880361Y2254247D02*
D03*
X2943861Y2254247D02*
D03*
X2931161Y2254247D02*
D03*
X2918461Y2254247D02*
D03*
X2969261Y2254247D02*
D03*
X2956561Y2254247D02*
D03*
X2956561Y2279647D02*
D03*
X2918461Y2279647D02*
D03*
X2931161Y2279647D02*
D03*
X2943861Y2279647D02*
D03*
X2880361Y2279647D02*
D03*
X2893061Y2279647D02*
D03*
X2905761Y2279647D02*
D03*
X2842261Y2279648D02*
D03*
X2854961Y2279648D02*
D03*
X2867661Y2279648D02*
D03*
X2804160Y2279648D02*
D03*
X2816860Y2279648D02*
D03*
X2829561Y2279648D02*
D03*
X2766060Y2279648D02*
D03*
X2778760Y2279648D02*
D03*
X2791461Y2279648D02*
D03*
X2727961Y2279649D02*
D03*
X2740660Y2279648D02*
D03*
X2753360Y2279648D02*
D03*
X2715260Y2279649D02*
D03*
X2639060Y2279649D02*
D03*
X2651760Y2279649D02*
D03*
X2677160Y2279649D02*
D03*
X2664460Y2279649D02*
D03*
X2702560Y2279649D02*
D03*
X2689860Y2279649D02*
D03*
X2613660Y2279650D02*
D03*
X2626360Y2279649D02*
D03*
X2588260Y2279650D02*
D03*
X2600960Y2279650D02*
D03*
X2575560Y2279650D02*
D03*
X2562860Y2279650D02*
D03*
X2553903Y2499870D02*
D03*
X2564130Y2510097D02*
D03*
X3515870Y2510097D02*
D03*
X3526096Y2499870D02*
D03*
X3526097Y1548130D02*
D03*
X3515870Y1537903D02*
D03*
X2564130Y1537903D02*
D03*
X2553903Y1548130D02*
D03*
X2603500Y1534160D02*
D03*
X2590800D02*
D03*
X3476500Y1534160D02*
D03*
X3501900D02*
D03*
X3451100D02*
D03*
X3425700D02*
D03*
X3400300D02*
D03*
X2628900Y1534160D02*
D03*
X2654300D02*
D03*
X2679700D02*
D03*
X2705100D02*
D03*
X2730500D02*
D03*
X2755900D02*
D03*
X2781300D02*
D03*
X2806700D02*
D03*
X2832100D02*
D03*
X2857500D02*
D03*
X2882900D02*
D03*
X2908300D02*
D03*
X2933700D02*
D03*
X2959100D02*
D03*
X2984500D02*
D03*
X3040000D02*
D03*
X3374900Y1534160D02*
D03*
X3349500D02*
D03*
X3324100Y1534160D02*
D03*
X3298700Y1534160D02*
D03*
X3273300D02*
D03*
X3247900D02*
D03*
X3222500D02*
D03*
X3197100D02*
D03*
X3171700D02*
D03*
X3146300D02*
D03*
X3120900D02*
D03*
X3095500Y1534160D02*
D03*
X3070100Y1534160D02*
D03*
X3009900Y1534160D02*
D03*
X2578100D02*
D03*
X2616200Y1534160D02*
D03*
X2641600D02*
D03*
X2667000D02*
D03*
X2692400D02*
D03*
X2717800D02*
D03*
X2743200D02*
D03*
X2768600D02*
D03*
X2794000D02*
D03*
X2819400D02*
D03*
X2844800D02*
D03*
X2870200D02*
D03*
X2895600D02*
D03*
X2921000D02*
D03*
X2946400D02*
D03*
X2971800D02*
D03*
X2997200D02*
D03*
X3082800Y1534160D02*
D03*
X3108200Y1534160D02*
D03*
X3133600D02*
D03*
X3159000Y1534160D02*
D03*
X3184400Y1534160D02*
D03*
X3209800Y1534160D02*
D03*
X3235200D02*
D03*
X3260600D02*
D03*
X3286000D02*
D03*
X3311400Y1534160D02*
D03*
X3336800Y1534160D02*
D03*
X3362200D02*
D03*
X3387600D02*
D03*
X3413000Y1534160D02*
D03*
X3438400Y1534160D02*
D03*
X3463800D02*
D03*
X3489200D02*
D03*
X3024950Y1534160D02*
D03*
X3055050D02*
D03*
X3529840Y2460500D02*
D03*
Y2473200D02*
D03*
X3529840Y1587500D02*
D03*
Y1562100D02*
D03*
Y1612900D02*
D03*
Y1638300D02*
D03*
Y1663700D02*
D03*
X3529840Y2435100D02*
D03*
Y2409700D02*
D03*
Y2384300D02*
D03*
Y2358900D02*
D03*
Y2333500D02*
D03*
Y2308100D02*
D03*
Y2282700D02*
D03*
Y2257300D02*
D03*
Y2231900D02*
D03*
Y2206500D02*
D03*
Y2181100D02*
D03*
Y2155700D02*
D03*
Y2130300D02*
D03*
Y2104900D02*
D03*
Y2079500D02*
D03*
Y2024000D02*
D03*
X3529840Y1689100D02*
D03*
Y1714500D02*
D03*
X3529840Y1739900D02*
D03*
X3529840Y1765300D02*
D03*
Y1790700D02*
D03*
Y1816100D02*
D03*
Y1841500D02*
D03*
Y1866900D02*
D03*
Y1892300D02*
D03*
Y1917700D02*
D03*
Y1943100D02*
D03*
X3529840Y1968500D02*
D03*
X3529840Y1993900D02*
D03*
X3529840Y2054100D02*
D03*
Y2485900D02*
D03*
X3529840Y2447800D02*
D03*
Y2422400D02*
D03*
Y2397000D02*
D03*
Y2371600D02*
D03*
Y2346200D02*
D03*
Y2320800D02*
D03*
Y2295400D02*
D03*
Y2270000D02*
D03*
Y2244600D02*
D03*
Y2219200D02*
D03*
Y2193800D02*
D03*
Y2168400D02*
D03*
Y2143000D02*
D03*
Y2117600D02*
D03*
Y2092200D02*
D03*
Y2066800D02*
D03*
X3529840Y1981200D02*
D03*
X3529840Y1955800D02*
D03*
Y1930400D02*
D03*
X3529840Y1905000D02*
D03*
X3529840Y1879600D02*
D03*
X3529840Y1854200D02*
D03*
Y1828800D02*
D03*
Y1803400D02*
D03*
Y1778000D02*
D03*
X3529840Y1752600D02*
D03*
X3529840Y1727200D02*
D03*
Y1701800D02*
D03*
Y1676400D02*
D03*
X3529840Y1651000D02*
D03*
X3529840Y1625600D02*
D03*
Y1600200D02*
D03*
Y1574800D02*
D03*
X3529840Y2039050D02*
D03*
Y2008950D02*
D03*
X2550160Y2460500D02*
D03*
Y2473200D02*
D03*
X2550160Y1587500D02*
D03*
Y1562100D02*
D03*
Y1612900D02*
D03*
Y1638300D02*
D03*
Y1663700D02*
D03*
X2550160Y2435100D02*
D03*
Y2409700D02*
D03*
Y2231900D02*
D03*
Y2206500D02*
D03*
Y2181100D02*
D03*
Y2155700D02*
D03*
Y2130300D02*
D03*
Y2104900D02*
D03*
Y2079500D02*
D03*
Y2024000D02*
D03*
X2550160Y1689100D02*
D03*
Y1714500D02*
D03*
X2550160Y1739900D02*
D03*
X2550160Y1765300D02*
D03*
Y1790700D02*
D03*
Y1816100D02*
D03*
Y1841500D02*
D03*
Y1866900D02*
D03*
Y1892300D02*
D03*
Y1917700D02*
D03*
Y1943100D02*
D03*
X2550160Y1968500D02*
D03*
X2550160Y1993900D02*
D03*
X2550160Y2054100D02*
D03*
Y2485900D02*
D03*
X2550160Y2447800D02*
D03*
Y2422400D02*
D03*
Y2397000D02*
D03*
Y2244600D02*
D03*
Y2219200D02*
D03*
Y2193800D02*
D03*
Y2168400D02*
D03*
Y2143000D02*
D03*
Y2117600D02*
D03*
Y2092200D02*
D03*
Y2066800D02*
D03*
X2550160Y1981200D02*
D03*
X2550160Y1955800D02*
D03*
Y1930400D02*
D03*
X2550160Y1905000D02*
D03*
X2550160Y1879600D02*
D03*
X2550160Y1854200D02*
D03*
Y1828800D02*
D03*
Y1803400D02*
D03*
Y1778000D02*
D03*
X2550160Y1752600D02*
D03*
X2550160Y1727200D02*
D03*
Y1701800D02*
D03*
Y1676400D02*
D03*
X2550160Y1651000D02*
D03*
X2550160Y1625600D02*
D03*
Y1600200D02*
D03*
Y1574800D02*
D03*
X2550160Y2039050D02*
D03*
Y2008950D02*
D03*
X3055050Y2513840D02*
D03*
X3024950D02*
D03*
X3489200Y2513840D02*
D03*
X3463800D02*
D03*
X3438400D02*
D03*
X3413000D02*
D03*
X3387600D02*
D03*
X3362200D02*
D03*
X3336800D02*
D03*
X3311400D02*
D03*
X3286000D02*
D03*
X3260600D02*
D03*
X3235200D02*
D03*
X3209800D02*
D03*
X3184400D02*
D03*
X3159000D02*
D03*
X3133600D02*
D03*
X3108200D02*
D03*
X3082800D02*
D03*
X2997200Y2513840D02*
D03*
X2946400D02*
D03*
X2921000D02*
D03*
X2895600D02*
D03*
X2870200D02*
D03*
X2844800D02*
D03*
X2819400D02*
D03*
X2794000D02*
D03*
X2768600D02*
D03*
X2743200D02*
D03*
X2717800D02*
D03*
X2692400D02*
D03*
X2667000D02*
D03*
X2641600D02*
D03*
X2616200D02*
D03*
X2578100Y2513840D02*
D03*
X3009900D02*
D03*
X3070100Y2513840D02*
D03*
X3095500D02*
D03*
X3120900D02*
D03*
X3146300D02*
D03*
X3171700D02*
D03*
X3197100D02*
D03*
X3222500D02*
D03*
X3247900D02*
D03*
X3273300D02*
D03*
X3298700D02*
D03*
X3324100D02*
D03*
X3349500D02*
D03*
X3374900D02*
D03*
X3040000Y2513840D02*
D03*
X2959100D02*
D03*
X2933700D02*
D03*
X2908300D02*
D03*
X2882900D02*
D03*
X2857500D02*
D03*
X2832100D02*
D03*
X2806700D02*
D03*
X2781300D02*
D03*
X2755900D02*
D03*
X2730500D02*
D03*
X2705100D02*
D03*
X2679700D02*
D03*
X2654300D02*
D03*
X2628900D02*
D03*
X3400300Y2513840D02*
D03*
X3425700D02*
D03*
X3451100D02*
D03*
X3501900D02*
D03*
X3476500D02*
D03*
X2590800Y2513840D02*
D03*
X2603500D02*
D03*
D63*
X3448640Y1884308D02*
D03*
Y1879308D02*
D03*
Y1874308D02*
D03*
X3448640Y1869308D02*
D03*
Y1864308D02*
D03*
X3448640Y1859308D02*
D03*
Y1854308D02*
D03*
Y1849308D02*
D03*
Y1844308D02*
D03*
Y1839308D02*
D03*
Y1834308D02*
D03*
Y1829308D02*
D03*
X3448640Y2020680D02*
D03*
Y2015680D02*
D03*
Y2010680D02*
D03*
Y2005680D02*
D03*
Y2000680D02*
D03*
Y1995680D02*
D03*
Y1990680D02*
D03*
Y1985680D02*
D03*
Y1980680D02*
D03*
X3448640Y1975680D02*
D03*
X3448640Y1970680D02*
D03*
X3448640Y1965680D02*
D03*
D64*
X3070860Y1585214D02*
D03*
X3083560D02*
D03*
X3096260D02*
D03*
X3134360D02*
D03*
X3121660D02*
D03*
X3108960D02*
D03*
X3266440D02*
D03*
X3279140D02*
D03*
X3291840D02*
D03*
X3329940D02*
D03*
X3317240D02*
D03*
X3304540D02*
D03*
D65*
X3147060D02*
D03*
X3342640D02*
D03*
D66*
X3818175Y2056050D02*
D03*
X3809285D02*
D03*
X3792855Y2010410D02*
D03*
X3783965D02*
D03*
X3366135Y2453640D02*
D03*
X3357245D02*
D03*
X1764665Y1329690D02*
D03*
X2101215Y1459230D02*
D03*
X1894205Y1391920D02*
D03*
X3521075Y2409190D02*
D03*
X3512185D02*
D03*
X3521710Y1638300D02*
D03*
X3512820D02*
D03*
X2559050D02*
D03*
X2567940D02*
D03*
D67*
X3943985Y2010410D02*
D03*
X3952875D02*
D03*
X3847465D02*
D03*
X3856355D02*
D03*
X3366897Y2406904D02*
D03*
X3375787D02*
D03*
X1619965Y2171700D02*
D03*
X1611075D02*
D03*
X1630125D02*
D03*
X1639015D02*
D03*
X1608455Y2402840D02*
D03*
X1599565D02*
D03*
X2011045Y1393190D02*
D03*
X2019935D02*
D03*
X1851025D02*
D03*
X1859915D02*
D03*
X1819275D02*
D03*
X1828165D02*
D03*
X1755775D02*
D03*
X1764665D02*
D03*
X1692275D02*
D03*
X1701165D02*
D03*
X1789430Y1875790D02*
D03*
X1798320D02*
D03*
X1789430Y1865630D02*
D03*
X1798320D02*
D03*
X2319020Y1651000D02*
D03*
X2327910D02*
D03*
X2216785Y1634490D02*
D03*
X2225675D02*
D03*
X2092325Y1637030D02*
D03*
X2101215D02*
D03*
D68*
X3917950Y1986280D02*
D03*
Y2006600D02*
D03*
X3884930Y1986280D02*
D03*
Y2006600D02*
D03*
X3821430Y1986280D02*
D03*
Y2006600D02*
D03*
X3296920Y2241550D02*
D03*
Y2221230D02*
D03*
X3276600Y2241550D02*
D03*
Y2221230D02*
D03*
X3304540Y2404110D02*
D03*
Y2424430D02*
D03*
X3285490Y2404110D02*
D03*
Y2424430D02*
D03*
D69*
X3319780Y2214118D02*
D03*
Y2241042D02*
D03*
X2921000Y2440432D02*
D03*
Y2413508D02*
D03*
D70*
X3303270Y2309230D02*
D03*
Y2323730D02*
D03*
X3285490Y2323200D02*
D03*
Y2337700D02*
D03*
X1647190Y2073540D02*
D03*
Y2059040D02*
D03*
X1649730Y1957440D02*
D03*
Y1971940D02*
D03*
X1667510Y2073540D02*
D03*
Y2059040D02*
D03*
X2128520Y1441820D02*
D03*
Y1456320D02*
D03*
X2063750Y1441820D02*
D03*
Y1456320D02*
D03*
X1992630Y1441820D02*
D03*
Y1456320D02*
D03*
X1812290Y1441820D02*
D03*
Y1456320D02*
D03*
X1779270Y1441820D02*
D03*
Y1456320D02*
D03*
X1748790Y1441820D02*
D03*
Y1456320D02*
D03*
X1717040Y1441820D02*
D03*
Y1456320D02*
D03*
X2084070Y1374510D02*
D03*
Y1389010D02*
D03*
X1790700Y1374510D02*
D03*
Y1389010D02*
D03*
X1727200Y1374510D02*
D03*
Y1389010D02*
D03*
X1663700Y1374510D02*
D03*
Y1389010D02*
D03*
X2293620Y1653910D02*
D03*
Y1668410D02*
D03*
X2176780Y1638670D02*
D03*
Y1653170D02*
D03*
X2071370Y1653910D02*
D03*
Y1668410D02*
D03*
X1936750Y1629410D02*
D03*
Y1643910D02*
D03*
X1821180Y1637400D02*
D03*
Y1651900D02*
D03*
X1687830Y1643380D02*
D03*
Y1657880D02*
D03*
X1558290Y1627240D02*
D03*
Y1641740D02*
D03*
X1972310Y1628510D02*
D03*
Y1643010D02*
D03*
X1849120Y1637030D02*
D03*
Y1651530D02*
D03*
X1719580Y1641210D02*
D03*
Y1655710D02*
D03*
X1593850Y1642480D02*
D03*
Y1656980D02*
D03*
D71*
X2663190Y2494280D02*
D03*
X3417570Y1553210D02*
D03*
Y2494280D02*
D03*
D72*
X3355810Y2396290D02*
D03*
Y2386290D02*
D03*
Y2381290D02*
D03*
Y2376290D02*
D03*
Y2371290D02*
D03*
D73*
X3350060Y2365540D02*
D03*
X3345060D02*
D03*
X3340060D02*
D03*
X3335060D02*
D03*
X3330060D02*
D03*
X3325060D02*
D03*
Y2402040D02*
D03*
X3330060D02*
D03*
X3335060D02*
D03*
X3340060D02*
D03*
X3345060D02*
D03*
D74*
X3350060D02*
D03*
D75*
X3318764Y2396236D02*
D03*
Y2391410D02*
D03*
Y2386330D02*
D03*
Y2376424D02*
D03*
Y2371344D02*
D03*
D76*
X1075370Y2030095D02*
D03*
Y2023745D02*
D03*
Y2017395D02*
D03*
Y2011045D02*
D03*
Y2004695D02*
D03*
Y1998345D02*
D03*
Y1991995D02*
D03*
Y1985645D02*
D03*
Y1979295D02*
D03*
Y1972945D02*
D03*
Y1966595D02*
D03*
Y1960245D02*
D03*
X1022670D02*
D03*
Y1966595D02*
D03*
Y1972945D02*
D03*
Y1979295D02*
D03*
Y1985645D02*
D03*
Y1991995D02*
D03*
Y1998345D02*
D03*
Y2004695D02*
D03*
Y2011045D02*
D03*
Y2017395D02*
D03*
Y2023745D02*
D03*
D77*
Y2030095D02*
D03*
D78*
X1043940Y1884680D02*
D03*
D79*
X1026440Y1909191D02*
D03*
X1031440D02*
D03*
X1036440D02*
D03*
X1041440D02*
D03*
X1046440D02*
D03*
X1051440D02*
D03*
X1056440D02*
D03*
X1061440D02*
D03*
Y1860169D02*
D03*
X1056440D02*
D03*
X1051440D02*
D03*
X1046440D02*
D03*
X1041440D02*
D03*
X1036440D02*
D03*
X1031440D02*
D03*
X1026440D02*
D03*
D80*
X1068451Y1902180D02*
D03*
Y1897180D02*
D03*
Y1892180D02*
D03*
Y1887180D02*
D03*
Y1882180D02*
D03*
Y1877180D02*
D03*
Y1872180D02*
D03*
Y1867180D02*
D03*
X1019429D02*
D03*
Y1872180D02*
D03*
Y1877180D02*
D03*
Y1882180D02*
D03*
Y1887180D02*
D03*
Y1892180D02*
D03*
Y1897180D02*
D03*
D81*
Y1902180D02*
D03*
D82*
X2948940Y2310765D02*
D03*
Y2319655D02*
D03*
X3326130Y2480945D02*
D03*
Y2472055D02*
D03*
X3337560D02*
D03*
Y2480945D02*
D03*
X1620520Y2160905D02*
D03*
Y2152015D02*
D03*
X1614170Y2027555D02*
D03*
Y2018665D02*
D03*
D83*
X3370580Y2367915D02*
D03*
Y2376805D02*
D03*
X3308350Y2390140D02*
D03*
Y2381250D02*
D03*
X3355340Y2472055D02*
D03*
Y2480945D02*
D03*
X3366770Y2480995D02*
D03*
Y2472105D02*
D03*
X1593850Y2015490D02*
D03*
Y2024380D02*
D03*
Y2005965D02*
D03*
Y1997075D02*
D03*
X1610360Y2152015D02*
D03*
Y2160905D02*
D03*
X1601470Y2392045D02*
D03*
Y2383155D02*
D03*
D84*
X3352292Y2423160D02*
D03*
X3325368D02*
D03*
D85*
X3371342Y2391664D02*
D03*
X3391662D02*
D03*
D86*
X3380740Y2439670D02*
D03*
X2028190Y1461770D02*
D03*
X1840230Y1443990D02*
D03*
X1677670D02*
D03*
X2114550Y1375410D02*
D03*
X2043430Y1380490D02*
D03*
X1954530Y1681480D02*
D03*
X1840230Y1694180D02*
D03*
X1743710Y1638300D02*
D03*
X1558290Y1691640D02*
D03*
D87*
X3326500Y2453640D02*
D03*
X3341000D02*
D03*
D88*
X1610360Y2186940D02*
D03*
Y2192528D02*
D03*
D89*
X1638300Y2355850D02*
D03*
D90*
X1657350Y2395220D02*
D03*
X1644650D02*
D03*
X1631950D02*
D03*
X1619250D02*
D03*
X1657350Y2316480D02*
D03*
X1644650D02*
D03*
X1631950D02*
D03*
D91*
X1619250D02*
D03*
D92*
X3262946Y1902223D02*
D03*
X2993539D02*
D03*
D93*
X3026419Y1907880D02*
D03*
X3032076Y1913537D02*
D03*
X3037733Y1919193D02*
D03*
X3043390Y1924850D02*
D03*
X3049047Y1930507D02*
D03*
X3054703Y1936164D02*
D03*
X3060360Y1941821D02*
D03*
X3066017Y1947478D02*
D03*
X3071674Y1953134D02*
D03*
X3077331Y1958791D02*
D03*
X3082988Y1964448D02*
D03*
X3088645Y1970105D02*
D03*
X3094301Y1975762D02*
D03*
X3099958Y1981419D02*
D03*
X3105615Y1987076D02*
D03*
X3111272Y1992733D02*
D03*
X3116929Y1998389D02*
D03*
X3122586Y2004046D02*
D03*
X3026419Y1896566D02*
D03*
X3032076Y1890909D02*
D03*
X3037733Y1885252D02*
D03*
X3043390Y1879595D02*
D03*
X3049047Y1873938D02*
D03*
X3054703Y1868282D02*
D03*
X3060360Y1862625D02*
D03*
X3066017Y1856968D02*
D03*
X3071674Y1851311D02*
D03*
X3077331Y1845654D02*
D03*
X3082988Y1839997D02*
D03*
X3088645Y1834341D02*
D03*
X3094301Y1828684D02*
D03*
X3099958Y1823027D02*
D03*
X3105615Y1817370D02*
D03*
X3111272Y1811713D02*
D03*
X3116929Y1806056D02*
D03*
X3122586Y1800399D02*
D03*
X3032076Y1902223D02*
D03*
X3037733Y1907880D02*
D03*
X3043390Y1913537D02*
D03*
X3049047Y1919193D02*
D03*
X3037733Y1896566D02*
D03*
X3043390Y1902223D02*
D03*
X3049047Y1907880D02*
D03*
X3054703Y1913537D02*
D03*
X3043390Y1890909D02*
D03*
X3049047Y1896566D02*
D03*
X3054703Y1902223D02*
D03*
X3060360Y1907880D02*
D03*
X3049047Y1885252D02*
D03*
X3054703Y1924850D02*
D03*
X3060360Y1930507D02*
D03*
X3066017Y1936164D02*
D03*
X3071674Y1941821D02*
D03*
X3077331Y1947478D02*
D03*
X3082988Y1953134D02*
D03*
X3088645Y1958791D02*
D03*
X3094301Y1964448D02*
D03*
X3099958Y1970105D02*
D03*
X3105615Y1975762D02*
D03*
X3111272Y1981419D02*
D03*
X3116929Y1987076D02*
D03*
X3122586Y1992733D02*
D03*
X3128242Y1998389D02*
D03*
X3133900Y2004046D02*
D03*
X3054703Y1890909D02*
D03*
X3060360Y1896566D02*
D03*
X3066017Y1902223D02*
D03*
X3054703Y1879595D02*
D03*
X3060360Y1885252D02*
D03*
X3066017Y1890909D02*
D03*
X3071674Y1896566D02*
D03*
X3060360Y1873938D02*
D03*
X3066017Y1879595D02*
D03*
X3071674Y1885252D02*
D03*
X3077331Y1890909D02*
D03*
X3066017Y1868282D02*
D03*
X3071674Y1873938D02*
D03*
X3077331Y1879595D02*
D03*
X3082988Y1885252D02*
D03*
X3071674Y1862625D02*
D03*
X3077331Y1868282D02*
D03*
X3082988Y1873938D02*
D03*
X3088645Y1879595D02*
D03*
X3077331Y1856968D02*
D03*
X3082988Y1862625D02*
D03*
X3088645Y1868282D02*
D03*
X3094301Y1873938D02*
D03*
X3082988Y1851311D02*
D03*
X3088645Y1856968D02*
D03*
X3094301Y1862625D02*
D03*
X3099958Y1868282D02*
D03*
X3088645Y1845654D02*
D03*
X3094301Y1851311D02*
D03*
X3099958Y1856968D02*
D03*
X3105615Y1862625D02*
D03*
X3094301Y1839997D02*
D03*
X3099958Y1845654D02*
D03*
X3105615Y1851311D02*
D03*
X3111272Y1856968D02*
D03*
X3099958Y1834341D02*
D03*
X3105615Y1839997D02*
D03*
X3111272Y1845654D02*
D03*
X3116929Y1851311D02*
D03*
X3105615Y1828684D02*
D03*
X3111272Y1834341D02*
D03*
X3116929Y1839997D02*
D03*
X3122586Y1845654D02*
D03*
X3111272Y1823027D02*
D03*
X3116929Y1828684D02*
D03*
X3122586Y1834341D02*
D03*
X3128242Y1839997D02*
D03*
X3116929Y1817370D02*
D03*
X3122586Y1823027D02*
D03*
X3128242Y1828684D02*
D03*
X3133900Y1834341D02*
D03*
X3122586Y1811713D02*
D03*
X3128242Y1817370D02*
D03*
X3133900Y1823027D02*
D03*
X3139556Y1828684D02*
D03*
X3128242Y1806056D02*
D03*
X3133900Y1811713D02*
D03*
X3139556Y1817370D02*
D03*
X3145213Y1823027D02*
D03*
X3133900Y1800399D02*
D03*
X3139556Y1806056D02*
D03*
X3150870Y1817370D02*
D03*
X3060360Y1919193D02*
D03*
X3066017Y1913537D02*
D03*
X3071674Y1907880D02*
D03*
X3077331Y1902223D02*
D03*
X3082988Y1896566D02*
D03*
X3088645Y1890909D02*
D03*
X3094301Y1885252D02*
D03*
X3099958Y1879595D02*
D03*
X3105615Y1873938D02*
D03*
X3111272Y1868282D02*
D03*
X3116929Y1862625D02*
D03*
X3122586Y1856968D02*
D03*
X3133900Y1845654D02*
D03*
X3139556Y1839997D02*
D03*
X3145213Y1834341D02*
D03*
X3150870Y1828684D02*
D03*
X3156527Y1823027D02*
D03*
X3066017Y1924850D02*
D03*
X3071674Y1930507D02*
D03*
X3077331Y1936164D02*
D03*
X3082988Y1941821D02*
D03*
X3071674Y1919193D02*
D03*
X3077331Y1924850D02*
D03*
X3082988Y1930507D02*
D03*
X3088645Y1936164D02*
D03*
X3077331Y1913537D02*
D03*
X3082988Y1919193D02*
D03*
X3088645Y1924850D02*
D03*
X3094301Y1930507D02*
D03*
X3082988Y1907880D02*
D03*
X3088645Y1913537D02*
D03*
X3094301Y1919193D02*
D03*
X3099958Y1924850D02*
D03*
X3088645Y1902223D02*
D03*
X3094301Y1907880D02*
D03*
X3099958Y1913537D02*
D03*
X3105615Y1919193D02*
D03*
X3094301Y1896566D02*
D03*
X3099958Y1902223D02*
D03*
X3105615Y1907880D02*
D03*
X3111272Y1913537D02*
D03*
X3099958Y1890909D02*
D03*
X3105615Y1896566D02*
D03*
X3111272Y1902223D02*
D03*
X3116929Y1907880D02*
D03*
X3105615Y1885252D02*
D03*
X3111272Y1890909D02*
D03*
X3116929Y1896566D02*
D03*
X3122586Y1902223D02*
D03*
X3111272Y1879595D02*
D03*
X3116929Y1885252D02*
D03*
X3122586Y1890909D02*
D03*
X3128242Y1896566D02*
D03*
X3116929Y1873938D02*
D03*
X3122586Y1879595D02*
D03*
X3128242Y1885252D02*
D03*
X3133900Y1890909D02*
D03*
X3122586Y1868282D02*
D03*
X3128242Y1873938D02*
D03*
X3133900Y1879595D02*
D03*
X3139556Y1885252D02*
D03*
X3128242Y1862625D02*
D03*
X3133900Y1868282D02*
D03*
X3139556Y1873938D02*
D03*
X3145213Y1879595D02*
D03*
X3139556Y1851311D02*
D03*
X3145213Y1856968D02*
D03*
X3150870Y1862625D02*
D03*
X3156527Y1868282D02*
D03*
X3145213Y1845654D02*
D03*
X3150870Y1851311D02*
D03*
X3156527Y1856968D02*
D03*
X3162184Y1862625D02*
D03*
X3150870Y1839997D02*
D03*
X3156527Y1845654D02*
D03*
X3162184Y1851311D02*
D03*
X3167841Y1856968D02*
D03*
X3156527Y1834341D02*
D03*
X3162184Y1839997D02*
D03*
X3167841Y1845654D02*
D03*
X3173497Y1851311D02*
D03*
X3162184Y1828684D02*
D03*
X3167841Y1834341D02*
D03*
X3088645Y1947478D02*
D03*
X3094301Y1941821D02*
D03*
X3099958Y1936164D02*
D03*
X3105615Y1930507D02*
D03*
X3111272Y1924850D02*
D03*
X3116929Y1919193D02*
D03*
X3122586Y1913537D02*
D03*
X3128242Y1907880D02*
D03*
X3133900Y1902223D02*
D03*
X3139556Y1896566D02*
D03*
X3145213Y1890909D02*
D03*
X3150870Y1885252D02*
D03*
X3162184Y1873938D02*
D03*
X3167841Y1868282D02*
D03*
X3173497Y1862625D02*
D03*
X3179154Y1856968D02*
D03*
X3184811Y1851311D02*
D03*
X3094301Y1953134D02*
D03*
X3099958Y1958791D02*
D03*
X3105615Y1964448D02*
D03*
X3111272Y1970105D02*
D03*
X3099958Y1947478D02*
D03*
X3105615Y1953134D02*
D03*
X3111272Y1958791D02*
D03*
X3116929Y1964448D02*
D03*
X3105615Y1941821D02*
D03*
X3111272Y1947478D02*
D03*
X3116929Y1953134D02*
D03*
X3122586Y1958791D02*
D03*
X3111272Y1936164D02*
D03*
X3116929Y1941821D02*
D03*
X3122586Y1947478D02*
D03*
X3128242Y1953134D02*
D03*
X3116929Y1930507D02*
D03*
X3122586Y1936164D02*
D03*
X3128242Y1941821D02*
D03*
X3133900Y1947478D02*
D03*
X3122586Y1924850D02*
D03*
X3128242Y1930507D02*
D03*
X3133900Y1936164D02*
D03*
X3139556Y1941821D02*
D03*
X3128242Y1919193D02*
D03*
X3133900Y1924850D02*
D03*
X3139556Y1930507D02*
D03*
X3145213Y1936164D02*
D03*
X3133900Y1913537D02*
D03*
X3139556Y1919193D02*
D03*
X3145213Y1924850D02*
D03*
X3150870Y1930507D02*
D03*
X3139556Y1907880D02*
D03*
X3145213Y1913537D02*
D03*
X3150870Y1919193D02*
D03*
X3156527Y1924850D02*
D03*
X3145213Y1902223D02*
D03*
X3150870Y1907880D02*
D03*
X3156527Y1913537D02*
D03*
X3162184Y1919193D02*
D03*
X3150870Y1896566D02*
D03*
X3156527Y1902223D02*
D03*
X3162184Y1907880D02*
D03*
X3167841Y1913537D02*
D03*
X3156527Y1890909D02*
D03*
X3162184Y1896566D02*
D03*
X3167841Y1902223D02*
D03*
X3173497Y1907880D02*
D03*
X3167841Y1879595D02*
D03*
X3173497Y1885252D02*
D03*
X3179154Y1890909D02*
D03*
X3184811Y1896566D02*
D03*
X3173497Y1873938D02*
D03*
X3179154Y1879595D02*
D03*
X3184811Y1885252D02*
D03*
X3190468Y1890909D02*
D03*
X3179154Y1868282D02*
D03*
X3184811Y1873938D02*
D03*
X3190468Y1879595D02*
D03*
X3196125Y1885252D02*
D03*
X3184811Y1862625D02*
D03*
X3190468Y1868282D02*
D03*
X3196125Y1873938D02*
D03*
X3201782Y1879595D02*
D03*
X3190468Y1856968D02*
D03*
X3201782Y1868282D02*
D03*
X3207438Y1873938D02*
D03*
X3116929Y1975762D02*
D03*
X3122586Y1970105D02*
D03*
X3128242Y1964448D02*
D03*
X3133900Y1958791D02*
D03*
X3139556Y1953134D02*
D03*
X3145213Y1947478D02*
D03*
X3150870Y1941821D02*
D03*
X3156527Y1936164D02*
D03*
X3162184Y1930507D02*
D03*
X3167841Y1924850D02*
D03*
X3173497Y1919193D02*
D03*
X3179154Y1913537D02*
D03*
X3184811Y1907880D02*
D03*
X3190468Y1902223D02*
D03*
X3196125Y1896566D02*
D03*
X3201782Y1890909D02*
D03*
X3207438Y1885252D02*
D03*
X3213095Y1879595D02*
D03*
X3122586Y1981419D02*
D03*
X3128242Y1987076D02*
D03*
X3133900Y1992733D02*
D03*
X3139556Y1998389D02*
D03*
X3128242Y1975762D02*
D03*
X3133900Y1981419D02*
D03*
X3139556Y1987076D02*
D03*
X3145213Y1992733D02*
D03*
X3133900Y1970105D02*
D03*
X3139556Y1975762D02*
D03*
X3145213Y1981419D02*
D03*
X3150870Y1987076D02*
D03*
X3139556Y1964448D02*
D03*
X3145213Y1970105D02*
D03*
X3150870Y1975762D02*
D03*
X3156527Y1981419D02*
D03*
X3145213Y1958791D02*
D03*
X3150870Y1964448D02*
D03*
X3156527Y1970105D02*
D03*
X3162184Y1975762D02*
D03*
X3150870Y1953134D02*
D03*
X3156527Y1958791D02*
D03*
X3162184Y1964448D02*
D03*
X3167841Y1970105D02*
D03*
X3156527Y1947478D02*
D03*
X3162184Y1953134D02*
D03*
X3167841Y1958791D02*
D03*
X3173497Y1964448D02*
D03*
X3162184Y1941821D02*
D03*
X3167841Y1947478D02*
D03*
X3173497Y1953134D02*
D03*
X3179154Y1958791D02*
D03*
X3167841Y1936164D02*
D03*
X3173497Y1941821D02*
D03*
X3179154Y1947478D02*
D03*
X3184811Y1953134D02*
D03*
X3173497Y1930507D02*
D03*
X3179154Y1936164D02*
D03*
X3184811Y1941821D02*
D03*
X3190468Y1947478D02*
D03*
X3179154Y1924850D02*
D03*
X3184811Y1930507D02*
D03*
X3190468Y1936164D02*
D03*
X3196125Y1941821D02*
D03*
X3184811Y1919193D02*
D03*
X3190468Y1924850D02*
D03*
X3196125Y1930507D02*
D03*
X3201782Y1936164D02*
D03*
X3190468Y1913537D02*
D03*
X3196125Y1919193D02*
D03*
X3201782Y1924850D02*
D03*
X3207438Y1930507D02*
D03*
X3196125Y1907880D02*
D03*
X3201782Y1913537D02*
D03*
X3207438Y1919193D02*
D03*
X3213095Y1924850D02*
D03*
X3201782Y1902223D02*
D03*
X3207438Y1907880D02*
D03*
X3213095Y1913537D02*
D03*
X3218752Y1919193D02*
D03*
X3207438Y1896566D02*
D03*
X3213095Y1902223D02*
D03*
X3218752Y1907880D02*
D03*
X3224409Y1913537D02*
D03*
X3213095Y1890909D02*
D03*
X3218752Y1896566D02*
D03*
X3224409Y1902223D02*
D03*
X3230066Y1907880D02*
D03*
X3218752Y1885252D02*
D03*
X3230066Y1896566D02*
D03*
D94*
X1755775Y1329690D02*
D03*
X2092325Y1459230D02*
D03*
X1885315Y1391920D02*
D03*
D95*
X2312416Y1588008D02*
D03*
X2322576Y1568704D02*
D03*
X2195830Y1587500D02*
D03*
X2205990Y1568196D02*
D03*
X2082800Y1586230D02*
D03*
X2092960Y1566926D02*
D03*
X1958340Y1587500D02*
D03*
X1968500Y1568196D02*
D03*
X1834896Y1590548D02*
D03*
X1845056Y1571244D02*
D03*
X1718310Y1595374D02*
D03*
X1728470Y1576070D02*
D03*
X1578610Y1590294D02*
D03*
X1588770Y1570990D02*
D03*
D96*
X2302256Y1568704D02*
D03*
X2185670Y1568196D02*
D03*
X2072640Y1566926D02*
D03*
X1948180Y1568196D02*
D03*
X1824736Y1571244D02*
D03*
X1708150Y1576070D02*
D03*
X1568450Y1570990D02*
D03*
D97*
X1606960Y2005180D02*
D03*
X1613460D02*
D03*
X1619960D02*
D03*
X1626460D02*
D03*
Y1980080D02*
D03*
X1619960D02*
D03*
X1613460D02*
D03*
D98*
X1606960D02*
D03*
D99*
X1621390Y2186940D02*
D03*
X1634890Y2207260D02*
D03*
X1621390D02*
D03*
D100*
X1634890Y2186940D02*
D03*
D101*
X1951990Y1455420D02*
D03*
X1915160D02*
D03*
X1878330D02*
D03*
X2322830Y1691640D02*
D03*
X2213610Y1671320D02*
D03*
X2104390Y1675130D02*
D03*
X2994661Y2254247D02*
D03*
X2550160Y2254250D02*
D03*
X2550160Y2279650D02*
D03*
X2969261Y2279647D02*
D03*
X3473960Y2478280D02*
D03*
X3463800Y2475558D02*
D03*
X3456426Y2468148D02*
D03*
X3453640Y2457960D02*
D03*
X3456362Y2447800D02*
D03*
X3463800Y2440363D02*
D03*
X3473960Y2437640D02*
D03*
X3484120Y2440363D02*
D03*
X3491558Y2447800D02*
D03*
X3494280Y2457960D02*
D03*
X3491558Y2468120D02*
D03*
X3484120Y2475558D02*
D03*
X3473960Y1610360D02*
D03*
X3463800Y1607637D02*
D03*
X3456426Y1600228D02*
D03*
X3453640Y1590040D02*
D03*
X3456362Y1579880D02*
D03*
X3463800Y1572442D02*
D03*
X3473960Y1569720D02*
D03*
X3484120Y1572442D02*
D03*
X3491558Y1579880D02*
D03*
X3494280Y1590040D02*
D03*
X3491558Y1600200D02*
D03*
X3484120Y1607637D02*
D03*
X2606040Y2478280D02*
D03*
X2595880Y2475558D02*
D03*
X2588506Y2468148D02*
D03*
X2585720Y2457960D02*
D03*
X2588442Y2447800D02*
D03*
X2595880Y2440362D02*
D03*
X2606040Y2437640D02*
D03*
X2616200Y2440362D02*
D03*
X2623638Y2447800D02*
D03*
X2626360Y2457960D02*
D03*
X2623638Y2468120D02*
D03*
X2616200Y2475558D02*
D03*
X2606040Y1610360D02*
D03*
X2595880Y1607638D02*
D03*
X2588506Y1600228D02*
D03*
X2585720Y1590040D02*
D03*
X2588442Y1579880D02*
D03*
X2595880Y1572442D02*
D03*
X2606040Y1569720D02*
D03*
X2616200Y1572442D02*
D03*
X2623638Y1579880D02*
D03*
X2626360Y1590040D02*
D03*
X2623638Y1600200D02*
D03*
X2616200Y1607638D02*
D03*
D102*
X1969262Y1368806D02*
D03*
D103*
X1978660Y1392174D02*
D03*
X1988058Y1368806D02*
D03*
D104*
X1921002Y1348740D02*
D03*
Y1391920D02*
D03*
X1937258Y1348740D02*
D03*
Y1391920D02*
D03*
D105*
X1591310Y1835150D02*
D03*
X1616710Y1870710D02*
D03*
X1540510Y1835150D02*
D03*
X1565910Y1870710D02*
D03*
X1692910Y1835150D02*
D03*
X1718310Y1870710D02*
D03*
X1743710Y1835150D02*
D03*
X1642110Y1835150D02*
D03*
X1667510Y1870710D02*
D03*
D106*
X1769110D02*
D03*
D107*
X2713990Y2429510D02*
D03*
X2783840D02*
D03*
D108*
X2713990Y2491486D02*
D03*
X2783840D02*
D03*
D109*
X3007000Y2366970D02*
D03*
D110*
X2962000D02*
D03*
Y2486970D02*
D03*
X3007000D02*
D03*
D111*
X3112643Y2376170D02*
D03*
X3067177D02*
D03*
X3067177Y2466340D02*
D03*
X3112643D02*
D03*
D112*
X3505200Y2353056D02*
D03*
Y2394204D02*
D03*
Y1694688D02*
D03*
Y1653540D02*
D03*
X2575560Y1694688D02*
D03*
Y1653540D02*
D03*
D113*
X3507740Y1901808D02*
D03*
X3451740D02*
D03*
X3507740Y1811808D02*
D03*
X3451740D02*
D03*
X3507740Y2038180D02*
D03*
X3451740D02*
D03*
X3507740Y1948180D02*
D03*
X3451740D02*
D03*
D114*
X3466740Y1880808D02*
D03*
Y1872808D02*
D03*
Y1864808D02*
D03*
Y1832808D02*
D03*
Y1840808D02*
D03*
Y1848808D02*
D03*
X3459740Y1860808D02*
D03*
Y1868808D02*
D03*
Y1887308D02*
D03*
Y1826308D02*
D03*
Y1844808D02*
D03*
Y1852808D02*
D03*
X3466740Y1894058D02*
D03*
Y1819558D02*
D03*
X3466740Y2017180D02*
D03*
Y2009180D02*
D03*
X3466740Y2001180D02*
D03*
X3466740Y1969180D02*
D03*
Y1977180D02*
D03*
Y1985180D02*
D03*
X3459740Y1997180D02*
D03*
Y2005180D02*
D03*
Y2023680D02*
D03*
Y1962680D02*
D03*
Y1981180D02*
D03*
Y1989180D02*
D03*
X3466740Y2030430D02*
D03*
X3466740Y1955930D02*
D03*
D115*
X3045260Y1561630D02*
D03*
X3172660D02*
D03*
X3240840D02*
D03*
X3368240D02*
D03*
D116*
X3434080Y2287270D02*
D03*
X3200400Y2395220D02*
D03*
D117*
X3434080Y2338070D02*
D03*
X3200400Y2446020D02*
D03*
D118*
X3351530Y2278380D02*
D03*
Y2239010D02*
D03*
X3144520Y1727200D02*
D03*
X3482340Y1925320D02*
D03*
X2566670Y2237740D02*
D03*
X3149600Y2348230D02*
D03*
Y2493010D02*
D03*
X2592070Y2302510D02*
D03*
Y2391410D02*
D03*
Y2359660D02*
D03*
D119*
X2692400Y2355088D02*
D03*
D120*
Y2321052D02*
D03*
X2791460D02*
D03*
X2791460Y2355088D02*
D03*
D121*
X2592070Y2334260D02*
D03*
D122*
X2566670D02*
D03*
X2566670Y2359660D02*
D03*
D123*
X3473960Y2457960D02*
D03*
X3473960Y1590040D02*
D03*
X2606040Y2457960D02*
D03*
X2606040Y1590040D02*
D03*
D124*
X3362960Y2376170D02*
D03*
X3356610Y2409190D02*
D03*
X3346450Y2472055D02*
D03*
X3341370Y2409190D02*
D03*
X3324860Y2357120D02*
D03*
X3329940D02*
D03*
X3335020D02*
D03*
X3340100D02*
D03*
X3357245Y2444115D02*
D03*
D125*
X3337560Y2374646D02*
D03*
X3345180D02*
D03*
X3329940D02*
D03*
X3337560Y2390902D02*
D03*
X3345180D02*
D03*
X3329940D02*
D03*
D126*
X2879090Y2331720D02*
D03*
X2909570D02*
D03*
Y2362200D02*
D03*
X2879090D02*
D03*
X2909570Y2377440D02*
D03*
X2894330D02*
D03*
X2879090D02*
D03*
X2894330Y2362200D02*
D03*
Y2331720D02*
D03*
Y2346960D02*
D03*
X2909570D02*
D03*
X2879090D02*
D03*
M02*
